<?xml version="1.0" encoding="utf-8" standalone="no"?>
<!DOCTYPE svg PUBLIC "-//W3C//DTD SVG 1.1//EN"
  "http://www.w3.org/Graphics/SVG/1.1/DTD/svg11.dtd">
<svg xmlns:xlink="http://www.w3.org/1999/xlink" width="491.18125pt" height="346.8175pt" viewBox="0 0 491.18125 346.8175" xmlns="http://www.w3.org/2000/svg" version="1.1">
 <metadata>
  <rdf:RDF xmlns:dc="http://purl.org/dc/elements/1.1/" xmlns:cc="http://creativecommons.org/ns#" xmlns:rdf="http://www.w3.org/1999/02/22-rdf-syntax-ns#">
   <cc:Work>
    <dc:type rdf:resource="http://purl.org/dc/dcmitype/StillImage"/>
    <dc:date>2026-03-09T02:06:50.838617</dc:date>
    <dc:format>image/svg+xml</dc:format>
    <dc:creator>
     <cc:Agent>
      <dc:title>Matplotlib v3.10.0, https://matplotlib.org/</dc:title>
     </cc:Agent>
    </dc:creator>
   </cc:Work>
  </rdf:RDF>
 </metadata>
 <defs>
  <style type="text/css">*{stroke-linejoin: round; stroke-linecap: butt}</style>
 </defs>
 <g id="figure_1">
  <g id="patch_1">
   <path d="M 0 346.8175 
L 491.18125 346.8175 
L 491.18125 0 
L 0 0 
z
" style="fill: #ffffff"/>
  </g>
  <g id="axes_1">
   <g id="patch_2">
    <path d="M 46.31125 303.857812 
L 483.98125 303.857812 
L 483.98125 23.837812 
L 46.31125 23.837812 
z
" style="fill: #ffffff"/>
   </g>
   <g id="matplotlib.axis_1">
    <g id="xtick_1">
     <g id="text_1">
      <!-- notckd -->
      <g style="fill: #262626" transform="translate(137.021016 321.716094) scale(0.11 -0.11)">
       <defs>
        <path id="DejaVuSans-6e" d="M 3513 2113 
L 3513 0 
L 2938 0 
L 2938 2094 
Q 2938 2591 2744 2837 
Q 2550 3084 2163 3084 
Q 1697 3084 1428 2787 
Q 1159 2491 1159 1978 
L 1159 0 
L 581 0 
L 581 3500 
L 1159 3500 
L 1159 2956 
Q 1366 3272 1645 3428 
Q 1925 3584 2291 3584 
Q 2894 3584 3203 3211 
Q 3513 2838 3513 2113 
z
" transform="scale(0.015625)"/>
        <path id="DejaVuSans-6f" d="M 1959 3097 
Q 1497 3097 1228 2736 
Q 959 2375 959 1747 
Q 959 1119 1226 758 
Q 1494 397 1959 397 
Q 2419 397 2687 759 
Q 2956 1122 2956 1747 
Q 2956 2369 2687 2733 
Q 2419 3097 1959 3097 
z
M 1959 3584 
Q 2709 3584 3137 3096 
Q 3566 2609 3566 1747 
Q 3566 888 3137 398 
Q 2709 -91 1959 -91 
Q 1206 -91 779 398 
Q 353 888 353 1747 
Q 353 2609 779 3096 
Q 1206 3584 1959 3584 
z
" transform="scale(0.015625)"/>
        <path id="DejaVuSans-74" d="M 1172 4494 
L 1172 3500 
L 2356 3500 
L 2356 3053 
L 1172 3053 
L 1172 1153 
Q 1172 725 1289 603 
Q 1406 481 1766 481 
L 2356 481 
L 2356 0 
L 1766 0 
Q 1100 0 847 248 
Q 594 497 594 1153 
L 594 3053 
L 172 3053 
L 172 3500 
L 594 3500 
L 594 4494 
L 1172 4494 
z
" transform="scale(0.015625)"/>
        <path id="DejaVuSans-63" d="M 3122 3366 
L 3122 2828 
Q 2878 2963 2633 3030 
Q 2388 3097 2138 3097 
Q 1578 3097 1268 2742 
Q 959 2388 959 1747 
Q 959 1106 1268 751 
Q 1578 397 2138 397 
Q 2388 397 2633 464 
Q 2878 531 3122 666 
L 3122 134 
Q 2881 22 2623 -34 
Q 2366 -91 2075 -91 
Q 1284 -91 818 406 
Q 353 903 353 1747 
Q 353 2603 823 3093 
Q 1294 3584 2113 3584 
Q 2378 3584 2631 3529 
Q 2884 3475 3122 3366 
z
" transform="scale(0.015625)"/>
        <path id="DejaVuSans-6b" d="M 581 4863 
L 1159 4863 
L 1159 1991 
L 2875 3500 
L 3609 3500 
L 1753 1863 
L 3688 0 
L 2938 0 
L 1159 1709 
L 1159 0 
L 581 0 
L 581 4863 
z
" transform="scale(0.015625)"/>
        <path id="DejaVuSans-64" d="M 2906 2969 
L 2906 4863 
L 3481 4863 
L 3481 0 
L 2906 0 
L 2906 525 
Q 2725 213 2448 61 
Q 2172 -91 1784 -91 
Q 1150 -91 751 415 
Q 353 922 353 1747 
Q 353 2572 751 3078 
Q 1150 3584 1784 3584 
Q 2172 3584 2448 3432 
Q 2725 3281 2906 2969 
z
M 947 1747 
Q 947 1113 1208 752 
Q 1469 391 1925 391 
Q 2381 391 2643 752 
Q 2906 1113 2906 1747 
Q 2906 2381 2643 2742 
Q 2381 3103 1925 3103 
Q 1469 3103 1208 2742 
Q 947 2381 947 1747 
z
" transform="scale(0.015625)"/>
       </defs>
       <use xlink:href="#DejaVuSans-6e"/>
       <use xlink:href="#DejaVuSans-6f" transform="translate(63.378906 0)"/>
       <use xlink:href="#DejaVuSans-74" transform="translate(124.560547 0)"/>
       <use xlink:href="#DejaVuSans-63" transform="translate(163.769531 0)"/>
       <use xlink:href="#DejaVuSans-6b" transform="translate(218.75 0)"/>
       <use xlink:href="#DejaVuSans-64" transform="translate(276.660156 0)"/>
      </g>
     </g>
    </g>
    <g id="xtick_2">
     <g id="text_2">
      <!-- ckd -->
      <g style="fill: #262626" transform="translate(364.863125 321.716094) scale(0.11 -0.11)">
       <use xlink:href="#DejaVuSans-63"/>
       <use xlink:href="#DejaVuSans-6b" transform="translate(54.980469 0)"/>
       <use xlink:href="#DejaVuSans-64" transform="translate(112.890625 0)"/>
      </g>
     </g>
    </g>
    <g id="text_3">
     <!-- Diagnosis -->
     <g style="fill: #262626" transform="translate(235.981562 337.121875) scale(0.12 -0.12)">
      <defs>
       <path id="DejaVuSans-44" d="M 1259 4147 
L 1259 519 
L 2022 519 
Q 2988 519 3436 956 
Q 3884 1394 3884 2338 
Q 3884 3275 3436 3711 
Q 2988 4147 2022 4147 
L 1259 4147 
z
M 628 4666 
L 1925 4666 
Q 3281 4666 3915 4102 
Q 4550 3538 4550 2338 
Q 4550 1131 3912 565 
Q 3275 0 1925 0 
L 628 0 
L 628 4666 
z
" transform="scale(0.015625)"/>
       <path id="DejaVuSans-69" d="M 603 3500 
L 1178 3500 
L 1178 0 
L 603 0 
L 603 3500 
z
M 603 4863 
L 1178 4863 
L 1178 4134 
L 603 4134 
L 603 4863 
z
" transform="scale(0.015625)"/>
       <path id="DejaVuSans-61" d="M 2194 1759 
Q 1497 1759 1228 1600 
Q 959 1441 959 1056 
Q 959 750 1161 570 
Q 1363 391 1709 391 
Q 2188 391 2477 730 
Q 2766 1069 2766 1631 
L 2766 1759 
L 2194 1759 
z
M 3341 1997 
L 3341 0 
L 2766 0 
L 2766 531 
Q 2569 213 2275 61 
Q 1981 -91 1556 -91 
Q 1019 -91 701 211 
Q 384 513 384 1019 
Q 384 1609 779 1909 
Q 1175 2209 1959 2209 
L 2766 2209 
L 2766 2266 
Q 2766 2663 2505 2880 
Q 2244 3097 1772 3097 
Q 1472 3097 1187 3025 
Q 903 2953 641 2809 
L 641 3341 
Q 956 3463 1253 3523 
Q 1550 3584 1831 3584 
Q 2591 3584 2966 3190 
Q 3341 2797 3341 1997 
z
" transform="scale(0.015625)"/>
       <path id="DejaVuSans-67" d="M 2906 1791 
Q 2906 2416 2648 2759 
Q 2391 3103 1925 3103 
Q 1463 3103 1205 2759 
Q 947 2416 947 1791 
Q 947 1169 1205 825 
Q 1463 481 1925 481 
Q 2391 481 2648 825 
Q 2906 1169 2906 1791 
z
M 3481 434 
Q 3481 -459 3084 -895 
Q 2688 -1331 1869 -1331 
Q 1566 -1331 1297 -1286 
Q 1028 -1241 775 -1147 
L 775 -588 
Q 1028 -725 1275 -790 
Q 1522 -856 1778 -856 
Q 2344 -856 2625 -561 
Q 2906 -266 2906 331 
L 2906 616 
Q 2728 306 2450 153 
Q 2172 0 1784 0 
Q 1141 0 747 490 
Q 353 981 353 1791 
Q 353 2603 747 3093 
Q 1141 3584 1784 3584 
Q 2172 3584 2450 3431 
Q 2728 3278 2906 2969 
L 2906 3500 
L 3481 3500 
L 3481 434 
z
" transform="scale(0.015625)"/>
       <path id="DejaVuSans-73" d="M 2834 3397 
L 2834 2853 
Q 2591 2978 2328 3040 
Q 2066 3103 1784 3103 
Q 1356 3103 1142 2972 
Q 928 2841 928 2578 
Q 928 2378 1081 2264 
Q 1234 2150 1697 2047 
L 1894 2003 
Q 2506 1872 2764 1633 
Q 3022 1394 3022 966 
Q 3022 478 2636 193 
Q 2250 -91 1575 -91 
Q 1294 -91 989 -36 
Q 684 19 347 128 
L 347 722 
Q 666 556 975 473 
Q 1284 391 1588 391 
Q 1994 391 2212 530 
Q 2431 669 2431 922 
Q 2431 1156 2273 1281 
Q 2116 1406 1581 1522 
L 1381 1569 
Q 847 1681 609 1914 
Q 372 2147 372 2553 
Q 372 3047 722 3315 
Q 1072 3584 1716 3584 
Q 2034 3584 2315 3537 
Q 2597 3491 2834 3397 
z
" transform="scale(0.015625)"/>
      </defs>
      <use xlink:href="#DejaVuSans-44"/>
      <use xlink:href="#DejaVuSans-69" transform="translate(77.001953 0)"/>
      <use xlink:href="#DejaVuSans-61" transform="translate(104.785156 0)"/>
      <use xlink:href="#DejaVuSans-67" transform="translate(166.064453 0)"/>
      <use xlink:href="#DejaVuSans-6e" transform="translate(229.541016 0)"/>
      <use xlink:href="#DejaVuSans-6f" transform="translate(292.919922 0)"/>
      <use xlink:href="#DejaVuSans-73" transform="translate(354.101562 0)"/>
      <use xlink:href="#DejaVuSans-69" transform="translate(406.201172 0)"/>
      <use xlink:href="#DejaVuSans-73" transform="translate(433.984375 0)"/>
     </g>
    </g>
   </g>
   <g id="matplotlib.axis_2">
    <g id="ytick_1">
     <g id="line2d_1">
      <path d="M 46.31125 275.544102 
L 483.98125 275.544102 
" clip-path="url(#pc6fffcbebf)" style="fill: none; stroke: #cccccc; stroke-linecap: round"/>
     </g>
     <g id="text_4">
      <!-- 4 -->
      <g style="fill: #262626" transform="translate(29.8125 279.723243) scale(0.11 -0.11)">
       <defs>
        <path id="DejaVuSans-34" d="M 2419 4116 
L 825 1625 
L 2419 1625 
L 2419 4116 
z
M 2253 4666 
L 3047 4666 
L 3047 1625 
L 3713 1625 
L 3713 1100 
L 3047 1100 
L 3047 0 
L 2419 0 
L 2419 1100 
L 313 1100 
L 313 1709 
L 2253 4666 
z
" transform="scale(0.015625)"/>
       </defs>
       <use xlink:href="#DejaVuSans-34"/>
      </g>
     </g>
    </g>
    <g id="ytick_2">
     <g id="line2d_2">
      <path d="M 46.31125 240.909594 
L 483.98125 240.909594 
" clip-path="url(#pc6fffcbebf)" style="fill: none; stroke: #cccccc; stroke-linecap: round"/>
     </g>
     <g id="text_5">
      <!-- 6 -->
      <g style="fill: #262626" transform="translate(29.8125 245.088734) scale(0.11 -0.11)">
       <defs>
        <path id="DejaVuSans-36" d="M 2113 2584 
Q 1688 2584 1439 2293 
Q 1191 2003 1191 1497 
Q 1191 994 1439 701 
Q 1688 409 2113 409 
Q 2538 409 2786 701 
Q 3034 994 3034 1497 
Q 3034 2003 2786 2293 
Q 2538 2584 2113 2584 
z
M 3366 4563 
L 3366 3988 
Q 3128 4100 2886 4159 
Q 2644 4219 2406 4219 
Q 1781 4219 1451 3797 
Q 1122 3375 1075 2522 
Q 1259 2794 1537 2939 
Q 1816 3084 2150 3084 
Q 2853 3084 3261 2657 
Q 3669 2231 3669 1497 
Q 3669 778 3244 343 
Q 2819 -91 2113 -91 
Q 1303 -91 875 529 
Q 447 1150 447 2328 
Q 447 3434 972 4092 
Q 1497 4750 2381 4750 
Q 2619 4750 2861 4703 
Q 3103 4656 3366 4563 
z
" transform="scale(0.015625)"/>
       </defs>
       <use xlink:href="#DejaVuSans-36"/>
      </g>
     </g>
    </g>
    <g id="ytick_3">
     <g id="line2d_3">
      <path d="M 46.31125 206.275085 
L 483.98125 206.275085 
" clip-path="url(#pc6fffcbebf)" style="fill: none; stroke: #cccccc; stroke-linecap: round"/>
     </g>
     <g id="text_6">
      <!-- 8 -->
      <g style="fill: #262626" transform="translate(29.8125 210.454226) scale(0.11 -0.11)">
       <defs>
        <path id="DejaVuSans-38" d="M 2034 2216 
Q 1584 2216 1326 1975 
Q 1069 1734 1069 1313 
Q 1069 891 1326 650 
Q 1584 409 2034 409 
Q 2484 409 2743 651 
Q 3003 894 3003 1313 
Q 3003 1734 2745 1975 
Q 2488 2216 2034 2216 
z
M 1403 2484 
Q 997 2584 770 2862 
Q 544 3141 544 3541 
Q 544 4100 942 4425 
Q 1341 4750 2034 4750 
Q 2731 4750 3128 4425 
Q 3525 4100 3525 3541 
Q 3525 3141 3298 2862 
Q 3072 2584 2669 2484 
Q 3125 2378 3379 2068 
Q 3634 1759 3634 1313 
Q 3634 634 3220 271 
Q 2806 -91 2034 -91 
Q 1263 -91 848 271 
Q 434 634 434 1313 
Q 434 1759 690 2068 
Q 947 2378 1403 2484 
z
M 1172 3481 
Q 1172 3119 1398 2916 
Q 1625 2713 2034 2713 
Q 2441 2713 2670 2916 
Q 2900 3119 2900 3481 
Q 2900 3844 2670 4047 
Q 2441 4250 2034 4250 
Q 1625 4250 1398 4047 
Q 1172 3844 1172 3481 
z
" transform="scale(0.015625)"/>
       </defs>
       <use xlink:href="#DejaVuSans-38"/>
      </g>
     </g>
    </g>
    <g id="ytick_4">
     <g id="line2d_4">
      <path d="M 46.31125 171.640577 
L 483.98125 171.640577 
" clip-path="url(#pc6fffcbebf)" style="fill: none; stroke: #cccccc; stroke-linecap: round"/>
     </g>
     <g id="text_7">
      <!-- 10 -->
      <g style="fill: #262626" transform="translate(22.81375 175.819718) scale(0.11 -0.11)">
       <defs>
        <path id="DejaVuSans-31" d="M 794 531 
L 1825 531 
L 1825 4091 
L 703 3866 
L 703 4441 
L 1819 4666 
L 2450 4666 
L 2450 531 
L 3481 531 
L 3481 0 
L 794 0 
L 794 531 
z
" transform="scale(0.015625)"/>
        <path id="DejaVuSans-30" d="M 2034 4250 
Q 1547 4250 1301 3770 
Q 1056 3291 1056 2328 
Q 1056 1369 1301 889 
Q 1547 409 2034 409 
Q 2525 409 2770 889 
Q 3016 1369 3016 2328 
Q 3016 3291 2770 3770 
Q 2525 4250 2034 4250 
z
M 2034 4750 
Q 2819 4750 3233 4129 
Q 3647 3509 3647 2328 
Q 3647 1150 3233 529 
Q 2819 -91 2034 -91 
Q 1250 -91 836 529 
Q 422 1150 422 2328 
Q 422 3509 836 4129 
Q 1250 4750 2034 4750 
z
" transform="scale(0.015625)"/>
       </defs>
       <use xlink:href="#DejaVuSans-31"/>
       <use xlink:href="#DejaVuSans-30" transform="translate(63.623047 0)"/>
      </g>
     </g>
    </g>
    <g id="ytick_5">
     <g id="line2d_5">
      <path d="M 46.31125 137.006069 
L 483.98125 137.006069 
" clip-path="url(#pc6fffcbebf)" style="fill: none; stroke: #cccccc; stroke-linecap: round"/>
     </g>
     <g id="text_8">
      <!-- 12 -->
      <g style="fill: #262626" transform="translate(22.81375 141.185209) scale(0.11 -0.11)">
       <defs>
        <path id="DejaVuSans-32" d="M 1228 531 
L 3431 531 
L 3431 0 
L 469 0 
L 469 531 
Q 828 903 1448 1529 
Q 2069 2156 2228 2338 
Q 2531 2678 2651 2914 
Q 2772 3150 2772 3378 
Q 2772 3750 2511 3984 
Q 2250 4219 1831 4219 
Q 1534 4219 1204 4116 
Q 875 4013 500 3803 
L 500 4441 
Q 881 4594 1212 4672 
Q 1544 4750 1819 4750 
Q 2544 4750 2975 4387 
Q 3406 4025 3406 3419 
Q 3406 3131 3298 2873 
Q 3191 2616 2906 2266 
Q 2828 2175 2409 1742 
Q 1991 1309 1228 531 
z
" transform="scale(0.015625)"/>
       </defs>
       <use xlink:href="#DejaVuSans-31"/>
       <use xlink:href="#DejaVuSans-32" transform="translate(63.623047 0)"/>
      </g>
     </g>
    </g>
    <g id="ytick_6">
     <g id="line2d_6">
      <path d="M 46.31125 102.37156 
L 483.98125 102.37156 
" clip-path="url(#pc6fffcbebf)" style="fill: none; stroke: #cccccc; stroke-linecap: round"/>
     </g>
     <g id="text_9">
      <!-- 14 -->
      <g style="fill: #262626" transform="translate(22.81375 106.550701) scale(0.11 -0.11)">
       <use xlink:href="#DejaVuSans-31"/>
       <use xlink:href="#DejaVuSans-34" transform="translate(63.623047 0)"/>
      </g>
     </g>
    </g>
    <g id="ytick_7">
     <g id="line2d_7">
      <path d="M 46.31125 67.737052 
L 483.98125 67.737052 
" clip-path="url(#pc6fffcbebf)" style="fill: none; stroke: #cccccc; stroke-linecap: round"/>
     </g>
     <g id="text_10">
      <!-- 16 -->
      <g style="fill: #262626" transform="translate(22.81375 71.916192) scale(0.11 -0.11)">
       <use xlink:href="#DejaVuSans-31"/>
       <use xlink:href="#DejaVuSans-36" transform="translate(63.623047 0)"/>
      </g>
     </g>
    </g>
    <g id="ytick_8">
     <g id="line2d_8">
      <path d="M 46.31125 33.102543 
L 483.98125 33.102543 
" clip-path="url(#pc6fffcbebf)" style="fill: none; stroke: #cccccc; stroke-linecap: round"/>
     </g>
     <g id="text_11">
      <!-- 18 -->
      <g style="fill: #262626" transform="translate(22.81375 37.281684) scale(0.11 -0.11)">
       <use xlink:href="#DejaVuSans-31"/>
       <use xlink:href="#DejaVuSans-38" transform="translate(63.623047 0)"/>
      </g>
     </g>
    </g>
    <g id="text_12">
     <!-- Hemoglobin (g/dL) -->
     <g style="fill: #262626" transform="translate(16.318125 219.564375) rotate(-90) scale(0.12 -0.12)">
      <defs>
       <path id="DejaVuSans-48" d="M 628 4666 
L 1259 4666 
L 1259 2753 
L 3553 2753 
L 3553 4666 
L 4184 4666 
L 4184 0 
L 3553 0 
L 3553 2222 
L 1259 2222 
L 1259 0 
L 628 0 
L 628 4666 
z
" transform="scale(0.015625)"/>
       <path id="DejaVuSans-65" d="M 3597 1894 
L 3597 1613 
L 953 1613 
Q 991 1019 1311 708 
Q 1631 397 2203 397 
Q 2534 397 2845 478 
Q 3156 559 3463 722 
L 3463 178 
Q 3153 47 2828 -22 
Q 2503 -91 2169 -91 
Q 1331 -91 842 396 
Q 353 884 353 1716 
Q 353 2575 817 3079 
Q 1281 3584 2069 3584 
Q 2775 3584 3186 3129 
Q 3597 2675 3597 1894 
z
M 3022 2063 
Q 3016 2534 2758 2815 
Q 2500 3097 2075 3097 
Q 1594 3097 1305 2825 
Q 1016 2553 972 2059 
L 3022 2063 
z
" transform="scale(0.015625)"/>
       <path id="DejaVuSans-6d" d="M 3328 2828 
Q 3544 3216 3844 3400 
Q 4144 3584 4550 3584 
Q 5097 3584 5394 3201 
Q 5691 2819 5691 2113 
L 5691 0 
L 5113 0 
L 5113 2094 
Q 5113 2597 4934 2840 
Q 4756 3084 4391 3084 
Q 3944 3084 3684 2787 
Q 3425 2491 3425 1978 
L 3425 0 
L 2847 0 
L 2847 2094 
Q 2847 2600 2669 2842 
Q 2491 3084 2119 3084 
Q 1678 3084 1418 2786 
Q 1159 2488 1159 1978 
L 1159 0 
L 581 0 
L 581 3500 
L 1159 3500 
L 1159 2956 
Q 1356 3278 1631 3431 
Q 1906 3584 2284 3584 
Q 2666 3584 2933 3390 
Q 3200 3197 3328 2828 
z
" transform="scale(0.015625)"/>
       <path id="DejaVuSans-6c" d="M 603 4863 
L 1178 4863 
L 1178 0 
L 603 0 
L 603 4863 
z
" transform="scale(0.015625)"/>
       <path id="DejaVuSans-62" d="M 3116 1747 
Q 3116 2381 2855 2742 
Q 2594 3103 2138 3103 
Q 1681 3103 1420 2742 
Q 1159 2381 1159 1747 
Q 1159 1113 1420 752 
Q 1681 391 2138 391 
Q 2594 391 2855 752 
Q 3116 1113 3116 1747 
z
M 1159 2969 
Q 1341 3281 1617 3432 
Q 1894 3584 2278 3584 
Q 2916 3584 3314 3078 
Q 3713 2572 3713 1747 
Q 3713 922 3314 415 
Q 2916 -91 2278 -91 
Q 1894 -91 1617 61 
Q 1341 213 1159 525 
L 1159 0 
L 581 0 
L 581 4863 
L 1159 4863 
L 1159 2969 
z
" transform="scale(0.015625)"/>
       <path id="DejaVuSans-20" transform="scale(0.015625)"/>
       <path id="DejaVuSans-28" d="M 1984 4856 
Q 1566 4138 1362 3434 
Q 1159 2731 1159 2009 
Q 1159 1288 1364 580 
Q 1569 -128 1984 -844 
L 1484 -844 
Q 1016 -109 783 600 
Q 550 1309 550 2009 
Q 550 2706 781 3412 
Q 1013 4119 1484 4856 
L 1984 4856 
z
" transform="scale(0.015625)"/>
       <path id="DejaVuSans-2f" d="M 1625 4666 
L 2156 4666 
L 531 -594 
L 0 -594 
L 1625 4666 
z
" transform="scale(0.015625)"/>
       <path id="DejaVuSans-4c" d="M 628 4666 
L 1259 4666 
L 1259 531 
L 3531 531 
L 3531 0 
L 628 0 
L 628 4666 
z
" transform="scale(0.015625)"/>
       <path id="DejaVuSans-29" d="M 513 4856 
L 1013 4856 
Q 1481 4119 1714 3412 
Q 1947 2706 1947 2009 
Q 1947 1309 1714 600 
Q 1481 -109 1013 -844 
L 513 -844 
Q 928 -128 1133 580 
Q 1338 1288 1338 2009 
Q 1338 2731 1133 3434 
Q 928 4138 513 4856 
z
" transform="scale(0.015625)"/>
      </defs>
      <use xlink:href="#DejaVuSans-48"/>
      <use xlink:href="#DejaVuSans-65" transform="translate(75.195312 0)"/>
      <use xlink:href="#DejaVuSans-6d" transform="translate(136.71875 0)"/>
      <use xlink:href="#DejaVuSans-6f" transform="translate(234.130859 0)"/>
      <use xlink:href="#DejaVuSans-67" transform="translate(295.3125 0)"/>
      <use xlink:href="#DejaVuSans-6c" transform="translate(358.789062 0)"/>
      <use xlink:href="#DejaVuSans-6f" transform="translate(386.572266 0)"/>
      <use xlink:href="#DejaVuSans-62" transform="translate(447.753906 0)"/>
      <use xlink:href="#DejaVuSans-69" transform="translate(511.230469 0)"/>
      <use xlink:href="#DejaVuSans-6e" transform="translate(539.013672 0)"/>
      <use xlink:href="#DejaVuSans-20" transform="translate(602.392578 0)"/>
      <use xlink:href="#DejaVuSans-28" transform="translate(634.179688 0)"/>
      <use xlink:href="#DejaVuSans-67" transform="translate(673.193359 0)"/>
      <use xlink:href="#DejaVuSans-2f" transform="translate(736.669922 0)"/>
      <use xlink:href="#DejaVuSans-64" transform="translate(770.361328 0)"/>
      <use xlink:href="#DejaVuSans-4c" transform="translate(833.837891 0)"/>
      <use xlink:href="#DejaVuSans-29" transform="translate(889.550781 0)"/>
     </g>
    </g>
   </g>
   <g id="patch_3">
    <path d="M 95.549125 100.639835 
L 215.908375 100.639835 
L 215.908375 64.273601 
L 95.549125 64.273601 
L 95.549125 100.639835 
z
" clip-path="url(#pc6fffcbebf)" style="fill: #5875a4; stroke: #4c4c4c; stroke-width: 1.2; stroke-linejoin: miter"/>
   </g>
   <g id="line2d_9">
    <path d="M 155.72875 100.639835 
L 155.72875 119.688814 
" clip-path="url(#pc6fffcbebf)" style="fill: none; stroke: #4c4c4c; stroke-width: 1.2"/>
   </g>
   <g id="line2d_10">
    <path d="M 155.72875 64.273601 
L 155.72875 36.565994 
" clip-path="url(#pc6fffcbebf)" style="fill: none; stroke: #4c4c4c; stroke-width: 1.2"/>
   </g>
   <g id="line2d_11">
    <path d="M 125.638938 119.688814 
L 185.818563 119.688814 
" clip-path="url(#pc6fffcbebf)" style="fill: none; stroke: #4c4c4c; stroke-width: 1.2; stroke-linecap: round"/>
   </g>
   <g id="line2d_12">
    <path d="M 125.638938 36.565994 
L 185.818563 36.565994 
" clip-path="url(#pc6fffcbebf)" style="fill: none; stroke: #4c4c4c; stroke-width: 1.2; stroke-linecap: round"/>
   </g>
   <g id="line2d_13"/>
   <g id="patch_4">
    <path d="M 314.384125 180.732135 
L 434.743375 180.732135 
L 434.743375 136.573137 
L 314.384125 136.573137 
L 314.384125 180.732135 
z
" clip-path="url(#pc6fffcbebf)" style="fill: #b55d60; stroke: #4c4c4c; stroke-width: 1.2; stroke-linejoin: miter"/>
   </g>
   <g id="line2d_14">
    <path d="M 374.56375 180.732135 
L 374.56375 244.373044 
" clip-path="url(#pc6fffcbebf)" style="fill: none; stroke: #4c4c4c; stroke-width: 1.2"/>
   </g>
   <g id="line2d_15">
    <path d="M 374.56375 136.573137 
L 374.56375 74.663954 
" clip-path="url(#pc6fffcbebf)" style="fill: none; stroke: #4c4c4c; stroke-width: 1.2"/>
   </g>
   <g id="line2d_16">
    <path d="M 344.473938 244.373044 
L 404.653563 244.373044 
" clip-path="url(#pc6fffcbebf)" style="fill: none; stroke: #4c4c4c; stroke-width: 1.2; stroke-linecap: round"/>
   </g>
   <g id="line2d_17">
    <path d="M 344.473938 74.663954 
L 404.653563 74.663954 
" clip-path="url(#pc6fffcbebf)" style="fill: none; stroke: #4c4c4c; stroke-width: 1.2; stroke-linecap: round"/>
   </g>
   <g id="line2d_18">
    <defs>
     <path id="md4d5987248" d="M 0 1 
C 0.265203 1 0.51958 0.894634 0.707107 0.707107 
C 0.894634 0.51958 1 0.265203 1 0 
C 1 -0.265203 0.894634 -0.51958 0.707107 -0.707107 
C 0.51958 -0.894634 0.265203 -1 0 -1 
C -0.265203 -1 -0.51958 -0.894634 -0.707107 -0.707107 
C -0.894634 -0.51958 -1 -0.265203 -1 0 
C -1 0.265203 -0.894634 0.51958 -0.707107 0.707107 
C -0.51958 0.894634 -0.265203 1 0 1 
z
" style="stroke: #4c4c4c"/>
    </defs>
    <g clip-path="url(#pc6fffcbebf)">
     <use xlink:href="#md4d5987248" x="374.56375" y="247.836495" style="fill-opacity: 0; stroke: #4c4c4c"/>
     <use xlink:href="#md4d5987248" x="374.56375" y="261.690299" style="fill-opacity: 0; stroke: #4c4c4c"/>
     <use xlink:href="#md4d5987248" x="374.56375" y="249.568221" style="fill-opacity: 0; stroke: #4c4c4c"/>
     <use xlink:href="#md4d5987248" x="374.56375" y="291.129631" style="fill-opacity: 0; stroke: #4c4c4c"/>
     <use xlink:href="#md4d5987248" x="374.56375" y="66.005326" style="fill-opacity: 0; stroke: #4c4c4c"/>
    </g>
   </g>
   <g id="line2d_19">
    <path d="M 95.549125 85.054306 
L 215.908375 85.054306 
" clip-path="url(#pc6fffcbebf)" style="fill: none; stroke: #4c4c4c; stroke-width: 1.2"/>
   </g>
   <g id="line2d_20">
    <path d="M 314.384125 156.055048 
L 434.743375 156.055048 
" clip-path="url(#pc6fffcbebf)" style="fill: none; stroke: #4c4c4c; stroke-width: 1.2"/>
   </g>
   <g id="patch_5">
    <path d="M 46.31125 303.857812 
L 46.31125 23.837812 
" style="fill: none; stroke: #cccccc; stroke-width: 1.25; stroke-linejoin: miter; stroke-linecap: square"/>
   </g>
   <g id="patch_6">
    <path d="M 46.31125 303.857812 
L 483.98125 303.857812 
" style="fill: none; stroke: #cccccc; stroke-width: 1.25; stroke-linejoin: miter; stroke-linecap: square"/>
   </g>
   <g id="PathCollection_1">
    <defs>
     <path id="mad4d4bfadc" d="M 0 1 
C 0.265203 1 0.51958 0.894634 0.707107 0.707107 
C 0.894634 0.51958 1 0.265203 1 0 
C 1 -0.265203 0.894634 -0.51958 0.707107 -0.707107 
C 0.51958 -0.894634 0.265203 -1 0 -1 
C -0.265203 -1 -0.51958 -0.894634 -0.707107 -0.707107 
C -0.894634 -0.51958 -1 -0.265203 -1 0 
C -1 0.265203 -0.894634 0.51958 -0.707107 0.707107 
C -0.51958 0.894634 -0.265203 1 0 1 
z
"/>
    </defs>
    <g clip-path="url(#pc6fffcbebf)">
     <use xlink:href="#mad4d4bfadc" x="209.585485" y="85.054306" style="fill-opacity: 0.25"/>
     <use xlink:href="#mad4d4bfadc" x="160.967887" y="50.419798" style="fill-opacity: 0.25"/>
     <use xlink:href="#mad4d4bfadc" x="176.597712" y="69.468777" style="fill-opacity: 0.25"/>
     <use xlink:href="#mad4d4bfadc" x="140.706388" y="78.127404" style="fill-opacity: 0.25"/>
     <use xlink:href="#mad4d4bfadc" x="132.671693" y="119.688814" style="fill-opacity: 0.25"/>
     <use xlink:href="#mad4d4bfadc" x="136.22662" y="109.298462" style="fill-opacity: 0.25"/>
     <use xlink:href="#mad4d4bfadc" x="149.878868" y="93.712933" style="fill-opacity: 0.25"/>
     <use xlink:href="#mad4d4bfadc" x="195.375105" y="102.37156" style="fill-opacity: 0.25"/>
     <use xlink:href="#mad4d4bfadc" x="157.646665" y="104.103286" style="fill-opacity: 0.25"/>
     <use xlink:href="#mad4d4bfadc" x="177.160997" y="66.005326" style="fill-opacity: 0.25"/>
     <use xlink:href="#mad4d4bfadc" x="126.022266" y="100.639835" style="fill-opacity: 0.25"/>
     <use xlink:href="#mad4d4bfadc" x="206.658882" y="50.419798" style="fill-opacity: 0.25"/>
     <use xlink:href="#mad4d4bfadc" x="183.217595" y="76.395679" style="fill-opacity: 0.25"/>
     <use xlink:href="#mad4d4bfadc" x="194.931963" y="64.273601" style="fill-opacity: 0.25"/>
     <use xlink:href="#mad4d4bfadc" x="209.205589" y="95.444659" style="fill-opacity: 0.25"/>
     <use xlink:href="#mad4d4bfadc" x="155.371829" y="98.908109" style="fill-opacity: 0.25"/>
     <use xlink:href="#mad4d4bfadc" x="183.174189" y="116.225364" style="fill-opacity: 0.25"/>
     <use xlink:href="#mad4d4bfadc" x="151.766358" y="104.103286" style="fill-opacity: 0.25"/>
     <use xlink:href="#mad4d4bfadc" x="164.497771" y="62.541876" style="fill-opacity: 0.25"/>
     <use xlink:href="#mad4d4bfadc" x="209.390595" y="85.054306" style="fill-opacity: 0.25"/>
     <use xlink:href="#mad4d4bfadc" x="188.777057" y="97.176384" style="fill-opacity: 0.25"/>
     <use xlink:href="#mad4d4bfadc" x="199.858306" y="105.835011" style="fill-opacity: 0.25"/>
     <use xlink:href="#mad4d4bfadc" x="185.662694" y="88.517757" style="fill-opacity: 0.25"/>
     <use xlink:href="#mad4d4bfadc" x="165.057079" y="95.444659" style="fill-opacity: 0.25"/>
     <use xlink:href="#mad4d4bfadc" x="131.621121" y="59.078425" style="fill-opacity: 0.25"/>
     <use xlink:href="#mad4d4bfadc" x="161.211788" y="102.37156" style="fill-opacity: 0.25"/>
     <use xlink:href="#mad4d4bfadc" x="141.249996" y="72.932228" style="fill-opacity: 0.25"/>
     <use xlink:href="#mad4d4bfadc" x="153.915197" y="93.712933" style="fill-opacity: 0.25"/>
     <use xlink:href="#mad4d4bfadc" x="148.135242" y="62.541876" style="fill-opacity: 0.25"/>
     <use xlink:href="#mad4d4bfadc" x="134.277632" y="114.493638" style="fill-opacity: 0.25"/>
     <use xlink:href="#mad4d4bfadc" x="125.042619" y="76.395679" style="fill-opacity: 0.25"/>
     <use xlink:href="#mad4d4bfadc" x="195.740039" y="91.981208" style="fill-opacity: 0.25"/>
     <use xlink:href="#mad4d4bfadc" x="157.492641" y="60.81015" style="fill-opacity: 0.25"/>
     <use xlink:href="#mad4d4bfadc" x="182.576004" y="52.151523" style="fill-opacity: 0.25"/>
     <use xlink:href="#mad4d4bfadc" x="142.00457" y="67.737052" style="fill-opacity: 0.25"/>
     <use xlink:href="#mad4d4bfadc" x="120.038087" y="90.249482" style="fill-opacity: 0.25"/>
     <use xlink:href="#mad4d4bfadc" x="136.025935" y="112.761913" style="fill-opacity: 0.25"/>
     <use xlink:href="#mad4d4bfadc" x="108.814466" y="69.468777" style="fill-opacity: 0.25"/>
     <use xlink:href="#mad4d4bfadc" x="178.700577" y="57.346699" style="fill-opacity: 0.25"/>
     <use xlink:href="#mad4d4bfadc" x="107.402056" y="88.517757" style="fill-opacity: 0.25"/>
     <use xlink:href="#mad4d4bfadc" x="208.58569" y="86.786031" style="fill-opacity: 0.25"/>
     <use xlink:href="#mad4d4bfadc" x="194.457246" y="55.614974" style="fill-opacity: 0.25"/>
     <use xlink:href="#mad4d4bfadc" x="187.423479" y="86.786031" style="fill-opacity: 0.25"/>
     <use xlink:href="#mad4d4bfadc" x="209.001255" y="97.176384" style="fill-opacity: 0.25"/>
     <use xlink:href="#mad4d4bfadc" x="164.482029" y="85.054306" style="fill-opacity: 0.25"/>
     <use xlink:href="#mad4d4bfadc" x="163.573708" y="53.883248" style="fill-opacity: 0.25"/>
     <use xlink:href="#mad4d4bfadc" x="135.386065" y="71.200503" style="fill-opacity: 0.25"/>
     <use xlink:href="#mad4d4bfadc" x="199.539246" y="111.030187" style="fill-opacity: 0.25"/>
     <use xlink:href="#mad4d4bfadc" x="127.545016" y="83.322581" style="fill-opacity: 0.25"/>
     <use xlink:href="#mad4d4bfadc" x="194.895412" y="85.054306" style="fill-opacity: 0.25"/>
     <use xlink:href="#mad4d4bfadc" x="193.935254" y="52.151523" style="fill-opacity: 0.25"/>
     <use xlink:href="#mad4d4bfadc" x="115.803945" y="88.517757" style="fill-opacity: 0.25"/>
     <use xlink:href="#mad4d4bfadc" x="171.575177" y="50.419798" style="fill-opacity: 0.25"/>
     <use xlink:href="#mad4d4bfadc" x="159.865058" y="117.957089" style="fill-opacity: 0.25"/>
     <use xlink:href="#mad4d4bfadc" x="189.472517" y="48.688072" style="fill-opacity: 0.25"/>
     <use xlink:href="#mad4d4bfadc" x="143.945731" y="81.590855" style="fill-opacity: 0.25"/>
     <use xlink:href="#mad4d4bfadc" x="197.621678" y="109.298462" style="fill-opacity: 0.25"/>
     <use xlink:href="#mad4d4bfadc" x="176.342791" y="104.103286" style="fill-opacity: 0.25"/>
     <use xlink:href="#mad4d4bfadc" x="117.692076" y="46.956347" style="fill-opacity: 0.25"/>
     <use xlink:href="#mad4d4bfadc" x="130.766345" y="116.225364" style="fill-opacity: 0.25"/>
     <use xlink:href="#mad4d4bfadc" x="138.867049" y="107.566736" style="fill-opacity: 0.25"/>
     <use xlink:href="#mad4d4bfadc" x="200.881578" y="79.85913" style="fill-opacity: 0.25"/>
     <use xlink:href="#mad4d4bfadc" x="157.900205" y="45.224621" style="fill-opacity: 0.25"/>
     <use xlink:href="#mad4d4bfadc" x="117.829043" y="74.663954" style="fill-opacity: 0.25"/>
     <use xlink:href="#mad4d4bfadc" x="149.360672" y="105.835011" style="fill-opacity: 0.25"/>
     <use xlink:href="#mad4d4bfadc" x="149.612508" y="78.127404" style="fill-opacity: 0.25"/>
     <use xlink:href="#mad4d4bfadc" x="106.572333" y="85.054306" style="fill-opacity: 0.25"/>
     <use xlink:href="#mad4d4bfadc" x="174.042726" y="43.492896" style="fill-opacity: 0.25"/>
     <use xlink:href="#mad4d4bfadc" x="168.972364" y="72.932228" style="fill-opacity: 0.25"/>
     <use xlink:href="#mad4d4bfadc" x="103.204823" y="104.103286" style="fill-opacity: 0.25"/>
     <use xlink:href="#mad4d4bfadc" x="117.054425" y="67.737052" style="fill-opacity: 0.25"/>
     <use xlink:href="#mad4d4bfadc" x="128.893941" y="69.468777" style="fill-opacity: 0.25"/>
     <use xlink:href="#mad4d4bfadc" x="201.710874" y="102.37156" style="fill-opacity: 0.25"/>
     <use xlink:href="#mad4d4bfadc" x="105.31632" y="71.200503" style="fill-opacity: 0.25"/>
     <use xlink:href="#mad4d4bfadc" x="132.779175" y="112.761913" style="fill-opacity: 0.25"/>
     <use xlink:href="#mad4d4bfadc" x="166.799212" y="100.639835" style="fill-opacity: 0.25"/>
     <use xlink:href="#mad4d4bfadc" x="128.896976" y="111.030187" style="fill-opacity: 0.25"/>
     <use xlink:href="#mad4d4bfadc" x="169.629575" y="79.85913" style="fill-opacity: 0.25"/>
     <use xlink:href="#mad4d4bfadc" x="105.00596" y="38.29772" style="fill-opacity: 0.25"/>
     <use xlink:href="#mad4d4bfadc" x="188.986008" y="78.127404" style="fill-opacity: 0.25"/>
     <use xlink:href="#mad4d4bfadc" x="142.547349" y="98.908109" style="fill-opacity: 0.25"/>
     <use xlink:href="#mad4d4bfadc" x="186.134034" y="81.590855" style="fill-opacity: 0.25"/>
     <use xlink:href="#mad4d4bfadc" x="110.781791" y="102.37156" style="fill-opacity: 0.25"/>
     <use xlink:href="#mad4d4bfadc" x="185.829807" y="36.565994" style="fill-opacity: 0.25"/>
     <use xlink:href="#mad4d4bfadc" x="149.705545" y="114.493638" style="fill-opacity: 0.25"/>
     <use xlink:href="#mad4d4bfadc" x="149.194435" y="97.176384" style="fill-opacity: 0.25"/>
     <use xlink:href="#mad4d4bfadc" x="118.511011" y="112.761913" style="fill-opacity: 0.25"/>
     <use xlink:href="#mad4d4bfadc" x="207.892694" y="85.054306" style="fill-opacity: 0.25"/>
     <use xlink:href="#mad4d4bfadc" x="108.719858" y="64.273601" style="fill-opacity: 0.25"/>
     <use xlink:href="#mad4d4bfadc" x="171.844819" y="95.444659" style="fill-opacity: 0.25"/>
     <use xlink:href="#mad4d4bfadc" x="143.892679" y="111.030187" style="fill-opacity: 0.25"/>
     <use xlink:href="#mad4d4bfadc" x="202.819149" y="76.395679" style="fill-opacity: 0.25"/>
     <use xlink:href="#mad4d4bfadc" x="121.823386" y="36.565994" style="fill-opacity: 0.25"/>
     <use xlink:href="#mad4d4bfadc" x="200.974586" y="109.298462" style="fill-opacity: 0.25"/>
     <use xlink:href="#mad4d4bfadc" x="164.3873" y="93.712933" style="fill-opacity: 0.25"/>
     <use xlink:href="#mad4d4bfadc" x="117.707507" y="66.005326" style="fill-opacity: 0.25"/>
     <use xlink:href="#mad4d4bfadc" x="177.975457" y="41.761171" style="fill-opacity: 0.25"/>
     <use xlink:href="#mad4d4bfadc" x="124.883569" y="85.054306" style="fill-opacity: 0.25"/>
     <use xlink:href="#mad4d4bfadc" x="176.506035" y="109.298462" style="fill-opacity: 0.25"/>
     <use xlink:href="#mad4d4bfadc" x="122.971971" y="91.981208" style="fill-opacity: 0.25"/>
     <use xlink:href="#mad4d4bfadc" x="196.270577" y="85.054306" style="fill-opacity: 0.25"/>
     <use xlink:href="#mad4d4bfadc" x="192.308831" y="48.688072" style="fill-opacity: 0.25"/>
     <use xlink:href="#mad4d4bfadc" x="162.646605" y="109.298462" style="fill-opacity: 0.25"/>
     <use xlink:href="#mad4d4bfadc" x="140.281968" y="119.688814" style="fill-opacity: 0.25"/>
     <use xlink:href="#mad4d4bfadc" x="151.023511" y="46.956347" style="fill-opacity: 0.25"/>
     <use xlink:href="#mad4d4bfadc" x="105.948344" y="90.249482" style="fill-opacity: 0.25"/>
     <use xlink:href="#mad4d4bfadc" x="139.68457" y="107.566736" style="fill-opacity: 0.25"/>
     <use xlink:href="#mad4d4bfadc" x="153.818793" y="85.054306" style="fill-opacity: 0.25"/>
     <use xlink:href="#mad4d4bfadc" x="191.942973" y="36.565994" style="fill-opacity: 0.25"/>
     <use xlink:href="#mad4d4bfadc" x="125.155425" y="88.517757" style="fill-opacity: 0.25"/>
     <use xlink:href="#mad4d4bfadc" x="115.684252" y="85.054306" style="fill-opacity: 0.25"/>
     <use xlink:href="#mad4d4bfadc" x="122.082437" y="43.492896" style="fill-opacity: 0.25"/>
     <use xlink:href="#mad4d4bfadc" x="196.3763" y="86.786031" style="fill-opacity: 0.25"/>
     <use xlink:href="#mad4d4bfadc" x="103.880222" y="109.298462" style="fill-opacity: 0.25"/>
     <use xlink:href="#mad4d4bfadc" x="158.93199" y="64.273601" style="fill-opacity: 0.25"/>
     <use xlink:href="#mad4d4bfadc" x="136.428513" y="40.029445" style="fill-opacity: 0.25"/>
     <use xlink:href="#mad4d4bfadc" x="109.587574" y="85.054306" style="fill-opacity: 0.25"/>
     <use xlink:href="#mad4d4bfadc" x="177.813585" y="107.566736" style="fill-opacity: 0.25"/>
     <use xlink:href="#mad4d4bfadc" x="197.738868" y="62.541876" style="fill-opacity: 0.25"/>
     <use xlink:href="#mad4d4bfadc" x="128.634286" y="83.322581" style="fill-opacity: 0.25"/>
     <use xlink:href="#mad4d4bfadc" x="142.318529" y="60.81015" style="fill-opacity: 0.25"/>
     <use xlink:href="#mad4d4bfadc" x="191.786879" y="105.835011" style="fill-opacity: 0.25"/>
     <use xlink:href="#mad4d4bfadc" x="125.431421" y="81.590855" style="fill-opacity: 0.25"/>
     <use xlink:href="#mad4d4bfadc" x="196.622514" y="66.005326" style="fill-opacity: 0.25"/>
     <use xlink:href="#mad4d4bfadc" x="112.507549" y="79.85913" style="fill-opacity: 0.25"/>
     <use xlink:href="#mad4d4bfadc" x="122.546549" y="57.346699" style="fill-opacity: 0.25"/>
     <use xlink:href="#mad4d4bfadc" x="132.249261" y="53.883248" style="fill-opacity: 0.25"/>
     <use xlink:href="#mad4d4bfadc" x="180.875375" y="104.103286" style="fill-opacity: 0.25"/>
     <use xlink:href="#mad4d4bfadc" x="206.42951" y="78.127404" style="fill-opacity: 0.25"/>
     <use xlink:href="#mad4d4bfadc" x="159.078466" y="59.078425" style="fill-opacity: 0.25"/>
     <use xlink:href="#mad4d4bfadc" x="196.78396" y="60.81015" style="fill-opacity: 0.25"/>
     <use xlink:href="#mad4d4bfadc" x="135.640151" y="55.614974" style="fill-opacity: 0.25"/>
     <use xlink:href="#mad4d4bfadc" x="204.493532" y="76.395679" style="fill-opacity: 0.25"/>
     <use xlink:href="#mad4d4bfadc" x="173.862409" y="50.419798" style="fill-opacity: 0.25"/>
     <use xlink:href="#mad4d4bfadc" x="124.20424" y="85.054306" style="fill-opacity: 0.25"/>
     <use xlink:href="#mad4d4bfadc" x="186.846792" y="74.663954" style="fill-opacity: 0.25"/>
     <use xlink:href="#mad4d4bfadc" x="175.37083" y="88.517757" style="fill-opacity: 0.25"/>
     <use xlink:href="#mad4d4bfadc" x="148.119194" y="119.688814" style="fill-opacity: 0.25"/>
     <use xlink:href="#mad4d4bfadc" x="163.143892" y="100.639835" style="fill-opacity: 0.25"/>
     <use xlink:href="#mad4d4bfadc" x="115.053875" y="72.932228" style="fill-opacity: 0.25"/>
     <use xlink:href="#mad4d4bfadc" x="128.830729" y="59.078425" style="fill-opacity: 0.25"/>
     <use xlink:href="#mad4d4bfadc" x="153.945538" y="71.200503" style="fill-opacity: 0.25"/>
     <use xlink:href="#mad4d4bfadc" x="147.539392" y="98.908109" style="fill-opacity: 0.25"/>
     <use xlink:href="#mad4d4bfadc" x="156.69586" y="71.200503" style="fill-opacity: 0.25"/>
    </g>
   </g>
   <g id="PathCollection_2">
    <g clip-path="url(#pc6fffcbebf)">
     <use xlink:href="#mad4d4bfadc" x="323.373842" y="78.127404" style="fill-opacity: 0.25"/>
     <use xlink:href="#mad4d4bfadc" x="409.380183" y="149.128146" style="fill-opacity: 0.25"/>
     <use xlink:href="#mad4d4bfadc" x="336.942311" y="178.567479" style="fill-opacity: 0.25"/>
     <use xlink:href="#mad4d4bfadc" x="349.004152" y="150.859872" style="fill-opacity: 0.25"/>
     <use xlink:href="#mad4d4bfadc" x="349.635119" y="143.93297" style="fill-opacity: 0.25"/>
     <use xlink:href="#mad4d4bfadc" x="340.209175" y="133.542618" style="fill-opacity: 0.25"/>
     <use xlink:href="#mad4d4bfadc" x="341.470431" y="130.079167" style="fill-opacity: 0.25"/>
     <use xlink:href="#mad4d4bfadc" x="340.32856" y="130.079167" style="fill-opacity: 0.25"/>
     <use xlink:href="#mad4d4bfadc" x="423.434715" y="157.786774" style="fill-opacity: 0.25"/>
     <use xlink:href="#mad4d4bfadc" x="411.40208" y="180.299204" style="fill-opacity: 0.25"/>
     <use xlink:href="#mad4d4bfadc" x="342.906162" y="182.030929" style="fill-opacity: 0.25"/>
     <use xlink:href="#mad4d4bfadc" x="330.818092" y="157.786774" style="fill-opacity: 0.25"/>
     <use xlink:href="#mad4d4bfadc" x="372.29775" y="176.835753" style="fill-opacity: 0.25"/>
     <use xlink:href="#mad4d4bfadc" x="411.174834" y="175.104028" style="fill-opacity: 0.25"/>
     <use xlink:href="#mad4d4bfadc" x="382.332146" y="247.836495" style="fill-opacity: 0.25"/>
     <use xlink:href="#mad4d4bfadc" x="392.512721" y="213.201987" style="fill-opacity: 0.25"/>
     <use xlink:href="#mad4d4bfadc" x="383.514041" y="126.615716" style="fill-opacity: 0.25"/>
     <use xlink:href="#mad4d4bfadc" x="336.711811" y="135.274343" style="fill-opacity: 0.25"/>
     <use xlink:href="#mad4d4bfadc" x="321.204063" y="124.883991" style="fill-opacity: 0.25"/>
     <use xlink:href="#mad4d4bfadc" x="352.962997" y="166.445401" style="fill-opacity: 0.25"/>
     <use xlink:href="#mad4d4bfadc" x="405.836741" y="211.470261" style="fill-opacity: 0.25"/>
     <use xlink:href="#mad4d4bfadc" x="412.483632" y="156.055048" style="fill-opacity: 0.25"/>
     <use xlink:href="#mad4d4bfadc" x="346.256142" y="175.104028" style="fill-opacity: 0.25"/>
     <use xlink:href="#mad4d4bfadc" x="411.236969" y="152.591597" style="fill-opacity: 0.25"/>
     <use xlink:href="#mad4d4bfadc" x="378.467218" y="173.372302" style="fill-opacity: 0.25"/>
     <use xlink:href="#mad4d4bfadc" x="421.406149" y="143.93297" style="fill-opacity: 0.25"/>
     <use xlink:href="#mad4d4bfadc" x="373.498542" y="128.347441" style="fill-opacity: 0.25"/>
     <use xlink:href="#mad4d4bfadc" x="393.693654" y="121.42054" style="fill-opacity: 0.25"/>
     <use xlink:href="#mad4d4bfadc" x="423.985355" y="169.908851" style="fill-opacity: 0.25"/>
     <use xlink:href="#mad4d4bfadc" x="361.129975" y="149.128146" style="fill-opacity: 0.25"/>
     <use xlink:href="#mad4d4bfadc" x="348.302101" y="169.908851" style="fill-opacity: 0.25"/>
     <use xlink:href="#mad4d4bfadc" x="372.029589" y="137.006069" style="fill-opacity: 0.25"/>
     <use xlink:href="#mad4d4bfadc" x="398.358136" y="166.445401" style="fill-opacity: 0.25"/>
     <use xlink:href="#mad4d4bfadc" x="351.442436" y="176.835753" style="fill-opacity: 0.25"/>
     <use xlink:href="#mad4d4bfadc" x="369.073802" y="128.347441" style="fill-opacity: 0.25"/>
     <use xlink:href="#mad4d4bfadc" x="424.091317" y="119.688814" style="fill-opacity: 0.25"/>
     <use xlink:href="#mad4d4bfadc" x="327.718911" y="152.591597" style="fill-opacity: 0.25"/>
     <use xlink:href="#mad4d4bfadc" x="366.944568" y="176.835753" style="fill-opacity: 0.25"/>
     <use xlink:href="#mad4d4bfadc" x="340.805808" y="208.006811" style="fill-opacity: 0.25"/>
     <use xlink:href="#mad4d4bfadc" x="408.496801" y="176.835753" style="fill-opacity: 0.25"/>
     <use xlink:href="#mad4d4bfadc" x="404.657812" y="183.762655" style="fill-opacity: 0.25"/>
     <use xlink:href="#mad4d4bfadc" x="352.220898" y="130.079167" style="fill-opacity: 0.25"/>
     <use xlink:href="#mad4d4bfadc" x="381.048414" y="85.054306" style="fill-opacity: 0.25"/>
     <use xlink:href="#mad4d4bfadc" x="364.997674" y="171.640577" style="fill-opacity: 0.25"/>
     <use xlink:href="#mad4d4bfadc" x="381.044279" y="176.835753" style="fill-opacity: 0.25"/>
     <use xlink:href="#mad4d4bfadc" x="428.302231" y="195.884733" style="fill-opacity: 0.25"/>
     <use xlink:href="#mad4d4bfadc" x="421.924429" y="166.445401" style="fill-opacity: 0.25"/>
     <use xlink:href="#mad4d4bfadc" x="415.145905" y="156.055048" style="fill-opacity: 0.25"/>
     <use xlink:href="#mad4d4bfadc" x="376.726787" y="109.298462" style="fill-opacity: 0.25"/>
     <use xlink:href="#mad4d4bfadc" x="346.999596" y="119.688814" style="fill-opacity: 0.25"/>
     <use xlink:href="#mad4d4bfadc" x="341.907325" y="180.299204" style="fill-opacity: 0.25"/>
     <use xlink:href="#mad4d4bfadc" x="401.791257" y="168.177126" style="fill-opacity: 0.25"/>
     <use xlink:href="#mad4d4bfadc" x="344.952852" y="162.98195" style="fill-opacity: 0.25"/>
     <use xlink:href="#mad4d4bfadc" x="374.527487" y="230.519241" style="fill-opacity: 0.25"/>
     <use xlink:href="#mad4d4bfadc" x="422.259486" y="154.323323" style="fill-opacity: 0.25"/>
     <use xlink:href="#mad4d4bfadc" x="351.636627" y="214.933712" style="fill-opacity: 0.25"/>
     <use xlink:href="#mad4d4bfadc" x="347.250353" y="175.104028" style="fill-opacity: 0.25"/>
     <use xlink:href="#mad4d4bfadc" x="427.237213" y="85.054306" style="fill-opacity: 0.25"/>
     <use xlink:href="#mad4d4bfadc" x="342.798758" y="156.055048" style="fill-opacity: 0.25"/>
     <use xlink:href="#mad4d4bfadc" x="414.559554" y="74.663954" style="fill-opacity: 0.25"/>
     <use xlink:href="#mad4d4bfadc" x="342.061715" y="81.590855" style="fill-opacity: 0.25"/>
     <use xlink:href="#mad4d4bfadc" x="404.842447" y="175.104028" style="fill-opacity: 0.25"/>
     <use xlink:href="#mad4d4bfadc" x="372.598889" y="166.445401" style="fill-opacity: 0.25"/>
     <use xlink:href="#mad4d4bfadc" x="403.515395" y="261.690299" style="fill-opacity: 0.25"/>
     <use xlink:href="#mad4d4bfadc" x="401.569835" y="187.226106" style="fill-opacity: 0.25"/>
     <use xlink:href="#mad4d4bfadc" x="354.182842" y="204.54336" style="fill-opacity: 0.25"/>
     <use xlink:href="#mad4d4bfadc" x="427.093785" y="166.445401" style="fill-opacity: 0.25"/>
     <use xlink:href="#mad4d4bfadc" x="361.735374" y="138.737794" style="fill-opacity: 0.25"/>
     <use xlink:href="#mad4d4bfadc" x="337.126499" y="169.908851" style="fill-opacity: 0.25"/>
     <use xlink:href="#mad4d4bfadc" x="420.642671" y="111.030187" style="fill-opacity: 0.25"/>
     <use xlink:href="#mad4d4bfadc" x="404.577392" y="157.786774" style="fill-opacity: 0.25"/>
     <use xlink:href="#mad4d4bfadc" x="379.301045" y="201.079909" style="fill-opacity: 0.25"/>
     <use xlink:href="#mad4d4bfadc" x="398.437146" y="221.860614" style="fill-opacity: 0.25"/>
     <use xlink:href="#mad4d4bfadc" x="413.940922" y="173.372302" style="fill-opacity: 0.25"/>
     <use xlink:href="#mad4d4bfadc" x="392.35509" y="152.591597" style="fill-opacity: 0.25"/>
     <use xlink:href="#mad4d4bfadc" x="367.513916" y="119.688814" style="fill-opacity: 0.25"/>
     <use xlink:href="#mad4d4bfadc" x="353.144405" y="66.005326" style="fill-opacity: 0.25"/>
     <use xlink:href="#mad4d4bfadc" x="373.872038" y="164.713675" style="fill-opacity: 0.25"/>
     <use xlink:href="#mad4d4bfadc" x="326.601828" y="185.49438" style="fill-opacity: 0.25"/>
     <use xlink:href="#mad4d4bfadc" x="398.912749" y="143.93297" style="fill-opacity: 0.25"/>
     <use xlink:href="#mad4d4bfadc" x="359.382884" y="150.859872" style="fill-opacity: 0.25"/>
     <use xlink:href="#mad4d4bfadc" x="374.742163" y="171.640577" style="fill-opacity: 0.25"/>
     <use xlink:href="#mad4d4bfadc" x="398.43396" y="237.446143" style="fill-opacity: 0.25"/>
     <use xlink:href="#mad4d4bfadc" x="330.61581" y="150.859872" style="fill-opacity: 0.25"/>
     <use xlink:href="#mad4d4bfadc" x="411.935778" y="149.128146" style="fill-opacity: 0.25"/>
     <use xlink:href="#mad4d4bfadc" x="392.507483" y="104.103286" style="fill-opacity: 0.25"/>
     <use xlink:href="#mad4d4bfadc" x="413.590368" y="168.177126" style="fill-opacity: 0.25"/>
     <use xlink:href="#mad4d4bfadc" x="406.547538" y="100.639835" style="fill-opacity: 0.25"/>
     <use xlink:href="#mad4d4bfadc" x="344.12063" y="240.909594" style="fill-opacity: 0.25"/>
     <use xlink:href="#mad4d4bfadc" x="336.310713" y="150.859872" style="fill-opacity: 0.25"/>
     <use xlink:href="#mad4d4bfadc" x="346.199311" y="140.469519" style="fill-opacity: 0.25"/>
     <use xlink:href="#mad4d4bfadc" x="429.167928" y="142.201245" style="fill-opacity: 0.25"/>
     <use xlink:href="#mad4d4bfadc" x="341.578606" y="142.201245" style="fill-opacity: 0.25"/>
     <use xlink:href="#mad4d4bfadc" x="351.369584" y="171.640577" style="fill-opacity: 0.25"/>
     <use xlink:href="#mad4d4bfadc" x="406.557889" y="157.786774" style="fill-opacity: 0.25"/>
     <use xlink:href="#mad4d4bfadc" x="342.178122" y="135.274343" style="fill-opacity: 0.25"/>
     <use xlink:href="#mad4d4bfadc" x="330.631721" y="130.079167" style="fill-opacity: 0.25"/>
     <use xlink:href="#mad4d4bfadc" x="414.229168" y="128.347441" style="fill-opacity: 0.25"/>
     <use xlink:href="#mad4d4bfadc" x="337.40675" y="147.396421" style="fill-opacity: 0.25"/>
     <use xlink:href="#mad4d4bfadc" x="339.675276" y="126.615716" style="fill-opacity: 0.25"/>
     <use xlink:href="#mad4d4bfadc" x="369.715976" y="85.054306" style="fill-opacity: 0.25"/>
     <use xlink:href="#mad4d4bfadc" x="372.010652" y="240.909594" style="fill-opacity: 0.25"/>
     <use xlink:href="#mad4d4bfadc" x="332.107816" y="102.37156" style="fill-opacity: 0.25"/>
     <use xlink:href="#mad4d4bfadc" x="367.905614" y="187.226106" style="fill-opacity: 0.25"/>
     <use xlink:href="#mad4d4bfadc" x="388.858956" y="137.006069" style="fill-opacity: 0.25"/>
     <use xlink:href="#mad4d4bfadc" x="391.190852" y="147.396421" style="fill-opacity: 0.25"/>
     <use xlink:href="#mad4d4bfadc" x="336.123906" y="204.54336" style="fill-opacity: 0.25"/>
     <use xlink:href="#mad4d4bfadc" x="375.170292" y="152.591597" style="fill-opacity: 0.25"/>
     <use xlink:href="#mad4d4bfadc" x="389.567164" y="202.811634" style="fill-opacity: 0.25"/>
     <use xlink:href="#mad4d4bfadc" x="333.935621" y="140.469519" style="fill-opacity: 0.25"/>
     <use xlink:href="#mad4d4bfadc" x="353.040081" y="195.884733" style="fill-opacity: 0.25"/>
     <use xlink:href="#mad4d4bfadc" x="384.857017" y="137.006069" style="fill-opacity: 0.25"/>
     <use xlink:href="#mad4d4bfadc" x="357.405673" y="157.786774" style="fill-opacity: 0.25"/>
     <use xlink:href="#mad4d4bfadc" x="327.571251" y="116.225364" style="fill-opacity: 0.25"/>
     <use xlink:href="#mad4d4bfadc" x="372.95363" y="183.762655" style="fill-opacity: 0.25"/>
     <use xlink:href="#mad4d4bfadc" x="355.905641" y="171.640577" style="fill-opacity: 0.25"/>
     <use xlink:href="#mad4d4bfadc" x="402.436512" y="152.591597" style="fill-opacity: 0.25"/>
     <use xlink:href="#mad4d4bfadc" x="320.994942" y="239.177868" style="fill-opacity: 0.25"/>
     <use xlink:href="#mad4d4bfadc" x="368.098488" y="152.591597" style="fill-opacity: 0.25"/>
     <use xlink:href="#mad4d4bfadc" x="359.326777" y="206.275085" style="fill-opacity: 0.25"/>
     <use xlink:href="#mad4d4bfadc" x="387.593653" y="208.006811" style="fill-opacity: 0.25"/>
     <use xlink:href="#mad4d4bfadc" x="420.173978" y="162.98195" style="fill-opacity: 0.25"/>
     <use xlink:href="#mad4d4bfadc" x="342.273282" y="131.810892" style="fill-opacity: 0.25"/>
     <use xlink:href="#mad4d4bfadc" x="376.782308" y="178.567479" style="fill-opacity: 0.25"/>
     <use xlink:href="#mad4d4bfadc" x="361.568275" y="156.055048" style="fill-opacity: 0.25"/>
     <use xlink:href="#mad4d4bfadc" x="407.993574" y="201.079909" style="fill-opacity: 0.25"/>
     <use xlink:href="#mad4d4bfadc" x="403.705892" y="199.348184" style="fill-opacity: 0.25"/>
     <use xlink:href="#mad4d4bfadc" x="335.285405" y="152.591597" style="fill-opacity: 0.25"/>
     <use xlink:href="#mad4d4bfadc" x="352.27332" y="126.615716" style="fill-opacity: 0.25"/>
     <use xlink:href="#mad4d4bfadc" x="381.468497" y="156.055048" style="fill-opacity: 0.25"/>
     <use xlink:href="#mad4d4bfadc" x="339.888766" y="164.713675" style="fill-opacity: 0.25"/>
     <use xlink:href="#mad4d4bfadc" x="404.810055" y="156.055048" style="fill-opacity: 0.25"/>
     <use xlink:href="#mad4d4bfadc" x="336.687141" y="97.176384" style="fill-opacity: 0.25"/>
     <use xlink:href="#mad4d4bfadc" x="351.256016" y="175.104028" style="fill-opacity: 0.25"/>
     <use xlink:href="#mad4d4bfadc" x="340.79778" y="188.957831" style="fill-opacity: 0.25"/>
     <use xlink:href="#mad4d4bfadc" x="356.270393" y="97.176384" style="fill-opacity: 0.25"/>
     <use xlink:href="#mad4d4bfadc" x="412.057277" y="124.883991" style="fill-opacity: 0.25"/>
     <use xlink:href="#mad4d4bfadc" x="390.421614" y="154.323323" style="fill-opacity: 0.25"/>
     <use xlink:href="#mad4d4bfadc" x="395.937183" y="194.153007" style="fill-opacity: 0.25"/>
     <use xlink:href="#mad4d4bfadc" x="354.638087" y="128.347441" style="fill-opacity: 0.25"/>
     <use xlink:href="#mad4d4bfadc" x="376.465076" y="194.153007" style="fill-opacity: 0.25"/>
     <use xlink:href="#mad4d4bfadc" x="375.968724" y="161.250224" style="fill-opacity: 0.25"/>
     <use xlink:href="#mad4d4bfadc" x="421.7541" y="117.957089" style="fill-opacity: 0.25"/>
     <use xlink:href="#mad4d4bfadc" x="402.955577" y="154.323323" style="fill-opacity: 0.25"/>
     <use xlink:href="#mad4d4bfadc" x="355.069327" y="201.079909" style="fill-opacity: 0.25"/>
     <use xlink:href="#mad4d4bfadc" x="366.636382" y="116.225364" style="fill-opacity: 0.25"/>
     <use xlink:href="#mad4d4bfadc" x="334.925082" y="175.104028" style="fill-opacity: 0.25"/>
     <use xlink:href="#mad4d4bfadc" x="405.016608" y="138.737794" style="fill-opacity: 0.25"/>
     <use xlink:href="#mad4d4bfadc" x="340.156612" y="166.445401" style="fill-opacity: 0.25"/>
     <use xlink:href="#mad4d4bfadc" x="342.72298" y="171.640577" style="fill-opacity: 0.25"/>
     <use xlink:href="#mad4d4bfadc" x="418.116329" y="149.128146" style="fill-opacity: 0.25"/>
     <use xlink:href="#mad4d4bfadc" x="330.587784" y="149.128146" style="fill-opacity: 0.25"/>
     <use xlink:href="#mad4d4bfadc" x="367.790343" y="137.006069" style="fill-opacity: 0.25"/>
     <use xlink:href="#mad4d4bfadc" x="422.415973" y="159.518499" style="fill-opacity: 0.25"/>
     <use xlink:href="#mad4d4bfadc" x="358.613793" y="133.542618" style="fill-opacity: 0.25"/>
     <use xlink:href="#mad4d4bfadc" x="339.032894" y="180.299204" style="fill-opacity: 0.25"/>
     <use xlink:href="#mad4d4bfadc" x="370.353517" y="173.372302" style="fill-opacity: 0.25"/>
     <use xlink:href="#mad4d4bfadc" x="407.37096" y="187.226106" style="fill-opacity: 0.25"/>
     <use xlink:href="#mad4d4bfadc" x="424.939761" y="249.568221" style="fill-opacity: 0.25"/>
     <use xlink:href="#mad4d4bfadc" x="335.617507" y="244.373044" style="fill-opacity: 0.25"/>
     <use xlink:href="#mad4d4bfadc" x="399.817869" y="204.54336" style="fill-opacity: 0.25"/>
     <use xlink:href="#mad4d4bfadc" x="343.858507" y="227.05579" style="fill-opacity: 0.25"/>
     <use xlink:href="#mad4d4bfadc" x="328.876571" y="150.859872" style="fill-opacity: 0.25"/>
     <use xlink:href="#mad4d4bfadc" x="334.058258" y="192.421282" style="fill-opacity: 0.25"/>
     <use xlink:href="#mad4d4bfadc" x="363.160931" y="137.006069" style="fill-opacity: 0.25"/>
     <use xlink:href="#mad4d4bfadc" x="330.836739" y="208.006811" style="fill-opacity: 0.25"/>
     <use xlink:href="#mad4d4bfadc" x="324.053821" y="206.275085" style="fill-opacity: 0.25"/>
     <use xlink:href="#mad4d4bfadc" x="320.337461" y="197.616458" style="fill-opacity: 0.25"/>
     <use xlink:href="#mad4d4bfadc" x="319.869784" y="192.421282" style="fill-opacity: 0.25"/>
     <use xlink:href="#mad4d4bfadc" x="338.282997" y="126.615716" style="fill-opacity: 0.25"/>
     <use xlink:href="#mad4d4bfadc" x="409.535284" y="105.835011" style="fill-opacity: 0.25"/>
     <use xlink:href="#mad4d4bfadc" x="407.837596" y="137.006069" style="fill-opacity: 0.25"/>
     <use xlink:href="#mad4d4bfadc" x="357.659159" y="131.810892" style="fill-opacity: 0.25"/>
     <use xlink:href="#mad4d4bfadc" x="385.176443" y="145.664696" style="fill-opacity: 0.25"/>
     <use xlink:href="#mad4d4bfadc" x="413.666174" y="218.397163" style="fill-opacity: 0.25"/>
     <use xlink:href="#mad4d4bfadc" x="367.130684" y="156.055048" style="fill-opacity: 0.25"/>
     <use xlink:href="#mad4d4bfadc" x="325.439252" y="156.055048" style="fill-opacity: 0.25"/>
     <use xlink:href="#mad4d4bfadc" x="424.438173" y="107.566736" style="fill-opacity: 0.25"/>
     <use xlink:href="#mad4d4bfadc" x="358.579511" y="123.152265" style="fill-opacity: 0.25"/>
     <use xlink:href="#mad4d4bfadc" x="425.715362" y="133.542618" style="fill-opacity: 0.25"/>
     <use xlink:href="#mad4d4bfadc" x="419.40014" y="140.469519" style="fill-opacity: 0.25"/>
     <use xlink:href="#mad4d4bfadc" x="322.104071" y="175.104028" style="fill-opacity: 0.25"/>
     <use xlink:href="#mad4d4bfadc" x="364.46555" y="138.737794" style="fill-opacity: 0.25"/>
     <use xlink:href="#mad4d4bfadc" x="411.928649" y="119.688814" style="fill-opacity: 0.25"/>
     <use xlink:href="#mad4d4bfadc" x="321.553323" y="145.664696" style="fill-opacity: 0.25"/>
     <use xlink:href="#mad4d4bfadc" x="362.568618" y="208.006811" style="fill-opacity: 0.25"/>
     <use xlink:href="#mad4d4bfadc" x="346.274074" y="149.128146" style="fill-opacity: 0.25"/>
     <use xlink:href="#mad4d4bfadc" x="422.380911" y="178.567479" style="fill-opacity: 0.25"/>
     <use xlink:href="#mad4d4bfadc" x="367.30394" y="145.664696" style="fill-opacity: 0.25"/>
     <use xlink:href="#mad4d4bfadc" x="428.777453" y="85.054306" style="fill-opacity: 0.25"/>
     <use xlink:href="#mad4d4bfadc" x="363.388473" y="208.006811" style="fill-opacity: 0.25"/>
     <use xlink:href="#mad4d4bfadc" x="423.28234" y="187.226106" style="fill-opacity: 0.25"/>
     <use xlink:href="#mad4d4bfadc" x="377.415252" y="124.883991" style="fill-opacity: 0.25"/>
     <use xlink:href="#mad4d4bfadc" x="337.895629" y="182.030929" style="fill-opacity: 0.25"/>
     <use xlink:href="#mad4d4bfadc" x="411.76697" y="138.737794" style="fill-opacity: 0.25"/>
     <use xlink:href="#mad4d4bfadc" x="391.538335" y="147.396421" style="fill-opacity: 0.25"/>
     <use xlink:href="#mad4d4bfadc" x="405.811337" y="164.713675" style="fill-opacity: 0.25"/>
     <use xlink:href="#mad4d4bfadc" x="331.962733" y="182.030929" style="fill-opacity: 0.25"/>
     <use xlink:href="#mad4d4bfadc" x="410.929341" y="112.761913" style="fill-opacity: 0.25"/>
     <use xlink:href="#mad4d4bfadc" x="354.270145" y="133.542618" style="fill-opacity: 0.25"/>
     <use xlink:href="#mad4d4bfadc" x="367.855636" y="235.714417" style="fill-opacity: 0.25"/>
     <use xlink:href="#mad4d4bfadc" x="357.491289" y="195.884733" style="fill-opacity: 0.25"/>
     <use xlink:href="#mad4d4bfadc" x="380.892572" y="126.615716" style="fill-opacity: 0.25"/>
     <use xlink:href="#mad4d4bfadc" x="404.513366" y="291.129631" style="fill-opacity: 0.25"/>
    </g>
   </g>
   <g id="text_13">
    <!-- Hemoglobin by Class -->
    <g style="fill: #262626" transform="translate(182.783594 17.837812) scale(0.14 -0.14)">
     <defs>
      <path id="DejaVuSans-Bold-48" d="M 588 4666 
L 1791 4666 
L 1791 2888 
L 3566 2888 
L 3566 4666 
L 4769 4666 
L 4769 0 
L 3566 0 
L 3566 1978 
L 1791 1978 
L 1791 0 
L 588 0 
L 588 4666 
z
" transform="scale(0.015625)"/>
      <path id="DejaVuSans-Bold-65" d="M 4031 1759 
L 4031 1441 
L 1416 1441 
Q 1456 1047 1700 850 
Q 1944 653 2381 653 
Q 2734 653 3104 758 
Q 3475 863 3866 1075 
L 3866 213 
Q 3469 63 3072 -14 
Q 2675 -91 2278 -91 
Q 1328 -91 801 392 
Q 275 875 275 1747 
Q 275 2603 792 3093 
Q 1309 3584 2216 3584 
Q 3041 3584 3536 3087 
Q 4031 2591 4031 1759 
z
M 2881 2131 
Q 2881 2450 2695 2645 
Q 2509 2841 2209 2841 
Q 1884 2841 1681 2658 
Q 1478 2475 1428 2131 
L 2881 2131 
z
" transform="scale(0.015625)"/>
      <path id="DejaVuSans-Bold-6d" d="M 3781 2919 
Q 3994 3244 4286 3414 
Q 4578 3584 4928 3584 
Q 5531 3584 5847 3212 
Q 6163 2841 6163 2131 
L 6163 0 
L 5038 0 
L 5038 1825 
Q 5041 1866 5042 1909 
Q 5044 1953 5044 2034 
Q 5044 2406 4934 2573 
Q 4825 2741 4581 2741 
Q 4263 2741 4089 2478 
Q 3916 2216 3909 1719 
L 3909 0 
L 2784 0 
L 2784 1825 
Q 2784 2406 2684 2573 
Q 2584 2741 2328 2741 
Q 2006 2741 1831 2477 
Q 1656 2213 1656 1722 
L 1656 0 
L 531 0 
L 531 3500 
L 1656 3500 
L 1656 2988 
Q 1863 3284 2130 3434 
Q 2397 3584 2719 3584 
Q 3081 3584 3359 3409 
Q 3638 3234 3781 2919 
z
" transform="scale(0.015625)"/>
      <path id="DejaVuSans-Bold-6f" d="M 2203 2784 
Q 1831 2784 1636 2517 
Q 1441 2250 1441 1747 
Q 1441 1244 1636 976 
Q 1831 709 2203 709 
Q 2569 709 2762 976 
Q 2956 1244 2956 1747 
Q 2956 2250 2762 2517 
Q 2569 2784 2203 2784 
z
M 2203 3584 
Q 3106 3584 3614 3096 
Q 4122 2609 4122 1747 
Q 4122 884 3614 396 
Q 3106 -91 2203 -91 
Q 1297 -91 786 396 
Q 275 884 275 1747 
Q 275 2609 786 3096 
Q 1297 3584 2203 3584 
z
" transform="scale(0.015625)"/>
      <path id="DejaVuSans-Bold-67" d="M 2919 594 
Q 2688 288 2409 144 
Q 2131 0 1766 0 
Q 1125 0 706 504 
Q 288 1009 288 1791 
Q 288 2575 706 3076 
Q 1125 3578 1766 3578 
Q 2131 3578 2409 3434 
Q 2688 3291 2919 2981 
L 2919 3500 
L 4044 3500 
L 4044 353 
Q 4044 -491 3511 -936 
Q 2978 -1381 1966 -1381 
Q 1638 -1381 1331 -1331 
Q 1025 -1281 716 -1178 
L 716 -306 
Q 1009 -475 1290 -558 
Q 1572 -641 1856 -641 
Q 2406 -641 2662 -400 
Q 2919 -159 2919 353 
L 2919 594 
z
M 2181 2772 
Q 1834 2772 1640 2515 
Q 1447 2259 1447 1791 
Q 1447 1309 1634 1061 
Q 1822 813 2181 813 
Q 2531 813 2725 1069 
Q 2919 1325 2919 1791 
Q 2919 2259 2725 2515 
Q 2531 2772 2181 2772 
z
" transform="scale(0.015625)"/>
      <path id="DejaVuSans-Bold-6c" d="M 538 4863 
L 1656 4863 
L 1656 0 
L 538 0 
L 538 4863 
z
" transform="scale(0.015625)"/>
      <path id="DejaVuSans-Bold-62" d="M 2400 722 
Q 2759 722 2948 984 
Q 3138 1247 3138 1747 
Q 3138 2247 2948 2509 
Q 2759 2772 2400 2772 
Q 2041 2772 1848 2508 
Q 1656 2244 1656 1747 
Q 1656 1250 1848 986 
Q 2041 722 2400 722 
z
M 1656 2988 
Q 1888 3294 2169 3439 
Q 2450 3584 2816 3584 
Q 3463 3584 3878 3070 
Q 4294 2556 4294 1747 
Q 4294 938 3878 423 
Q 3463 -91 2816 -91 
Q 2450 -91 2169 54 
Q 1888 200 1656 506 
L 1656 0 
L 538 0 
L 538 4863 
L 1656 4863 
L 1656 2988 
z
" transform="scale(0.015625)"/>
      <path id="DejaVuSans-Bold-69" d="M 538 3500 
L 1656 3500 
L 1656 0 
L 538 0 
L 538 3500 
z
M 538 4863 
L 1656 4863 
L 1656 3950 
L 538 3950 
L 538 4863 
z
" transform="scale(0.015625)"/>
      <path id="DejaVuSans-Bold-6e" d="M 4056 2131 
L 4056 0 
L 2931 0 
L 2931 347 
L 2931 1631 
Q 2931 2084 2911 2256 
Q 2891 2428 2841 2509 
Q 2775 2619 2662 2680 
Q 2550 2741 2406 2741 
Q 2056 2741 1856 2470 
Q 1656 2200 1656 1722 
L 1656 0 
L 538 0 
L 538 3500 
L 1656 3500 
L 1656 2988 
Q 1909 3294 2193 3439 
Q 2478 3584 2822 3584 
Q 3428 3584 3742 3212 
Q 4056 2841 4056 2131 
z
" transform="scale(0.015625)"/>
      <path id="DejaVuSans-Bold-20" transform="scale(0.015625)"/>
      <path id="DejaVuSans-Bold-79" d="M 78 3500 
L 1197 3500 
L 2138 1125 
L 2938 3500 
L 4056 3500 
L 2584 -331 
Q 2363 -916 2067 -1148 
Q 1772 -1381 1288 -1381 
L 641 -1381 
L 641 -647 
L 991 -647 
Q 1275 -647 1404 -556 
Q 1534 -466 1606 -231 
L 1638 -134 
L 78 3500 
z
" transform="scale(0.015625)"/>
      <path id="DejaVuSans-Bold-43" d="M 4288 256 
Q 3956 84 3597 -3 
Q 3238 -91 2847 -91 
Q 1681 -91 1000 561 
Q 319 1213 319 2328 
Q 319 3447 1000 4098 
Q 1681 4750 2847 4750 
Q 3238 4750 3597 4662 
Q 3956 4575 4288 4403 
L 4288 3438 
Q 3953 3666 3628 3772 
Q 3303 3878 2944 3878 
Q 2300 3878 1931 3465 
Q 1563 3053 1563 2328 
Q 1563 1606 1931 1193 
Q 2300 781 2944 781 
Q 3303 781 3628 887 
Q 3953 994 4288 1222 
L 4288 256 
z
" transform="scale(0.015625)"/>
      <path id="DejaVuSans-Bold-61" d="M 2106 1575 
Q 1756 1575 1579 1456 
Q 1403 1338 1403 1106 
Q 1403 894 1545 773 
Q 1688 653 1941 653 
Q 2256 653 2472 879 
Q 2688 1106 2688 1447 
L 2688 1575 
L 2106 1575 
z
M 3816 1997 
L 3816 0 
L 2688 0 
L 2688 519 
Q 2463 200 2181 54 
Q 1900 -91 1497 -91 
Q 953 -91 614 226 
Q 275 544 275 1050 
Q 275 1666 698 1953 
Q 1122 2241 2028 2241 
L 2688 2241 
L 2688 2328 
Q 2688 2594 2478 2717 
Q 2269 2841 1825 2841 
Q 1466 2841 1156 2769 
Q 847 2697 581 2553 
L 581 3406 
Q 941 3494 1303 3539 
Q 1666 3584 2028 3584 
Q 2975 3584 3395 3211 
Q 3816 2838 3816 1997 
z
" transform="scale(0.015625)"/>
      <path id="DejaVuSans-Bold-73" d="M 3272 3391 
L 3272 2541 
Q 2913 2691 2578 2766 
Q 2244 2841 1947 2841 
Q 1628 2841 1473 2761 
Q 1319 2681 1319 2516 
Q 1319 2381 1436 2309 
Q 1553 2238 1856 2203 
L 2053 2175 
Q 2913 2066 3209 1816 
Q 3506 1566 3506 1031 
Q 3506 472 3093 190 
Q 2681 -91 1863 -91 
Q 1516 -91 1145 -36 
Q 775 19 384 128 
L 384 978 
Q 719 816 1070 734 
Q 1422 653 1784 653 
Q 2113 653 2278 743 
Q 2444 834 2444 1013 
Q 2444 1163 2330 1236 
Q 2216 1309 1875 1350 
L 1678 1375 
Q 931 1469 631 1722 
Q 331 1975 331 2491 
Q 331 3047 712 3315 
Q 1094 3584 1881 3584 
Q 2191 3584 2531 3537 
Q 2872 3491 3272 3391 
z
" transform="scale(0.015625)"/>
     </defs>
     <use xlink:href="#DejaVuSans-Bold-48"/>
     <use xlink:href="#DejaVuSans-Bold-65" transform="translate(83.691406 0)"/>
     <use xlink:href="#DejaVuSans-Bold-6d" transform="translate(151.513672 0)"/>
     <use xlink:href="#DejaVuSans-Bold-6f" transform="translate(255.712891 0)"/>
     <use xlink:href="#DejaVuSans-Bold-67" transform="translate(324.414062 0)"/>
     <use xlink:href="#DejaVuSans-Bold-6c" transform="translate(395.996094 0)"/>
     <use xlink:href="#DejaVuSans-Bold-6f" transform="translate(430.273438 0)"/>
     <use xlink:href="#DejaVuSans-Bold-62" transform="translate(498.974609 0)"/>
     <use xlink:href="#DejaVuSans-Bold-69" transform="translate(570.556641 0)"/>
     <use xlink:href="#DejaVuSans-Bold-6e" transform="translate(604.833984 0)"/>
     <use xlink:href="#DejaVuSans-Bold-20" transform="translate(676.025391 0)"/>
     <use xlink:href="#DejaVuSans-Bold-62" transform="translate(710.839844 0)"/>
     <use xlink:href="#DejaVuSans-Bold-79" transform="translate(782.421875 0)"/>
     <use xlink:href="#DejaVuSans-Bold-20" transform="translate(847.607422 0)"/>
     <use xlink:href="#DejaVuSans-Bold-43" transform="translate(882.421875 0)"/>
     <use xlink:href="#DejaVuSans-Bold-6c" transform="translate(955.810547 0)"/>
     <use xlink:href="#DejaVuSans-Bold-61" transform="translate(990.087891 0)"/>
     <use xlink:href="#DejaVuSans-Bold-73" transform="translate(1057.568359 0)"/>
     <use xlink:href="#DejaVuSans-Bold-73" transform="translate(1117.089844 0)"/>
    </g>
   </g>
  </g>
 </g>
 <defs>
  <clipPath id="pc6fffcbebf">
   <rect x="46.31125" y="23.837812" width="437.67" height="280.02"/>
  </clipPath>
 </defs>
</svg>
