<?xml version="1.0" encoding="utf-8" standalone="no"?>
<!DOCTYPE svg PUBLIC "-//W3C//DTD SVG 1.1//EN"
  "http://www.w3.org/Graphics/SVG/1.1/DTD/svg11.dtd">
<svg xmlns:xlink="http://www.w3.org/1999/xlink" width="491.18125pt" height="346.8175pt" viewBox="0 0 491.18125 346.8175" xmlns="http://www.w3.org/2000/svg" version="1.1">
 <metadata>
  <rdf:RDF xmlns:dc="http://purl.org/dc/elements/1.1/" xmlns:cc="http://creativecommons.org/ns#" xmlns:rdf="http://www.w3.org/1999/02/22-rdf-syntax-ns#">
   <cc:Work>
    <dc:type rdf:resource="http://purl.org/dc/dcmitype/StillImage"/>
    <dc:date>2026-03-09T02:06:41.023576</dc:date>
    <dc:format>image/svg+xml</dc:format>
    <dc:creator>
     <cc:Agent>
      <dc:title>Matplotlib v3.10.0, https://matplotlib.org/</dc:title>
     </cc:Agent>
    </dc:creator>
   </cc:Work>
  </rdf:RDF>
 </metadata>
 <defs>
  <style type="text/css">*{stroke-linejoin: round; stroke-linecap: butt}</style>
 </defs>
 <g id="figure_1">
  <g id="patch_1">
   <path d="M 0 346.8175 
L 491.18125 346.8175 
L 491.18125 0 
L 0 0 
z
" style="fill: #ffffff"/>
  </g>
  <g id="axes_1">
   <g id="patch_2">
    <path d="M 46.31125 303.857812 
L 483.98125 303.857812 
L 483.98125 23.837812 
L 46.31125 23.837812 
z
" style="fill: #ffffff"/>
   </g>
   <g id="matplotlib.axis_1">
    <g id="xtick_1">
     <g id="text_1">
      <!-- notckd -->
      <g style="fill: #262626" transform="translate(137.021016 321.716094) scale(0.11 -0.11)">
       <defs>
        <path id="DejaVuSans-6e" d="M 3513 2113 
L 3513 0 
L 2938 0 
L 2938 2094 
Q 2938 2591 2744 2837 
Q 2550 3084 2163 3084 
Q 1697 3084 1428 2787 
Q 1159 2491 1159 1978 
L 1159 0 
L 581 0 
L 581 3500 
L 1159 3500 
L 1159 2956 
Q 1366 3272 1645 3428 
Q 1925 3584 2291 3584 
Q 2894 3584 3203 3211 
Q 3513 2838 3513 2113 
z
" transform="scale(0.015625)"/>
        <path id="DejaVuSans-6f" d="M 1959 3097 
Q 1497 3097 1228 2736 
Q 959 2375 959 1747 
Q 959 1119 1226 758 
Q 1494 397 1959 397 
Q 2419 397 2687 759 
Q 2956 1122 2956 1747 
Q 2956 2369 2687 2733 
Q 2419 3097 1959 3097 
z
M 1959 3584 
Q 2709 3584 3137 3096 
Q 3566 2609 3566 1747 
Q 3566 888 3137 398 
Q 2709 -91 1959 -91 
Q 1206 -91 779 398 
Q 353 888 353 1747 
Q 353 2609 779 3096 
Q 1206 3584 1959 3584 
z
" transform="scale(0.015625)"/>
        <path id="DejaVuSans-74" d="M 1172 4494 
L 1172 3500 
L 2356 3500 
L 2356 3053 
L 1172 3053 
L 1172 1153 
Q 1172 725 1289 603 
Q 1406 481 1766 481 
L 2356 481 
L 2356 0 
L 1766 0 
Q 1100 0 847 248 
Q 594 497 594 1153 
L 594 3053 
L 172 3053 
L 172 3500 
L 594 3500 
L 594 4494 
L 1172 4494 
z
" transform="scale(0.015625)"/>
        <path id="DejaVuSans-63" d="M 3122 3366 
L 3122 2828 
Q 2878 2963 2633 3030 
Q 2388 3097 2138 3097 
Q 1578 3097 1268 2742 
Q 959 2388 959 1747 
Q 959 1106 1268 751 
Q 1578 397 2138 397 
Q 2388 397 2633 464 
Q 2878 531 3122 666 
L 3122 134 
Q 2881 22 2623 -34 
Q 2366 -91 2075 -91 
Q 1284 -91 818 406 
Q 353 903 353 1747 
Q 353 2603 823 3093 
Q 1294 3584 2113 3584 
Q 2378 3584 2631 3529 
Q 2884 3475 3122 3366 
z
" transform="scale(0.015625)"/>
        <path id="DejaVuSans-6b" d="M 581 4863 
L 1159 4863 
L 1159 1991 
L 2875 3500 
L 3609 3500 
L 1753 1863 
L 3688 0 
L 2938 0 
L 1159 1709 
L 1159 0 
L 581 0 
L 581 4863 
z
" transform="scale(0.015625)"/>
        <path id="DejaVuSans-64" d="M 2906 2969 
L 2906 4863 
L 3481 4863 
L 3481 0 
L 2906 0 
L 2906 525 
Q 2725 213 2448 61 
Q 2172 -91 1784 -91 
Q 1150 -91 751 415 
Q 353 922 353 1747 
Q 353 2572 751 3078 
Q 1150 3584 1784 3584 
Q 2172 3584 2448 3432 
Q 2725 3281 2906 2969 
z
M 947 1747 
Q 947 1113 1208 752 
Q 1469 391 1925 391 
Q 2381 391 2643 752 
Q 2906 1113 2906 1747 
Q 2906 2381 2643 2742 
Q 2381 3103 1925 3103 
Q 1469 3103 1208 2742 
Q 947 2381 947 1747 
z
" transform="scale(0.015625)"/>
       </defs>
       <use xlink:href="#DejaVuSans-6e"/>
       <use xlink:href="#DejaVuSans-6f" transform="translate(63.378906 0)"/>
       <use xlink:href="#DejaVuSans-74" transform="translate(124.560547 0)"/>
       <use xlink:href="#DejaVuSans-63" transform="translate(163.769531 0)"/>
       <use xlink:href="#DejaVuSans-6b" transform="translate(218.75 0)"/>
       <use xlink:href="#DejaVuSans-64" transform="translate(276.660156 0)"/>
      </g>
     </g>
    </g>
    <g id="xtick_2">
     <g id="text_2">
      <!-- ckd -->
      <g style="fill: #262626" transform="translate(364.863125 321.716094) scale(0.11 -0.11)">
       <use xlink:href="#DejaVuSans-63"/>
       <use xlink:href="#DejaVuSans-6b" transform="translate(54.980469 0)"/>
       <use xlink:href="#DejaVuSans-64" transform="translate(112.890625 0)"/>
      </g>
     </g>
    </g>
    <g id="text_3">
     <!-- Diagnosis -->
     <g style="fill: #262626" transform="translate(235.981562 337.121875) scale(0.12 -0.12)">
      <defs>
       <path id="DejaVuSans-44" d="M 1259 4147 
L 1259 519 
L 2022 519 
Q 2988 519 3436 956 
Q 3884 1394 3884 2338 
Q 3884 3275 3436 3711 
Q 2988 4147 2022 4147 
L 1259 4147 
z
M 628 4666 
L 1925 4666 
Q 3281 4666 3915 4102 
Q 4550 3538 4550 2338 
Q 4550 1131 3912 565 
Q 3275 0 1925 0 
L 628 0 
L 628 4666 
z
" transform="scale(0.015625)"/>
       <path id="DejaVuSans-69" d="M 603 3500 
L 1178 3500 
L 1178 0 
L 603 0 
L 603 3500 
z
M 603 4863 
L 1178 4863 
L 1178 4134 
L 603 4134 
L 603 4863 
z
" transform="scale(0.015625)"/>
       <path id="DejaVuSans-61" d="M 2194 1759 
Q 1497 1759 1228 1600 
Q 959 1441 959 1056 
Q 959 750 1161 570 
Q 1363 391 1709 391 
Q 2188 391 2477 730 
Q 2766 1069 2766 1631 
L 2766 1759 
L 2194 1759 
z
M 3341 1997 
L 3341 0 
L 2766 0 
L 2766 531 
Q 2569 213 2275 61 
Q 1981 -91 1556 -91 
Q 1019 -91 701 211 
Q 384 513 384 1019 
Q 384 1609 779 1909 
Q 1175 2209 1959 2209 
L 2766 2209 
L 2766 2266 
Q 2766 2663 2505 2880 
Q 2244 3097 1772 3097 
Q 1472 3097 1187 3025 
Q 903 2953 641 2809 
L 641 3341 
Q 956 3463 1253 3523 
Q 1550 3584 1831 3584 
Q 2591 3584 2966 3190 
Q 3341 2797 3341 1997 
z
" transform="scale(0.015625)"/>
       <path id="DejaVuSans-67" d="M 2906 1791 
Q 2906 2416 2648 2759 
Q 2391 3103 1925 3103 
Q 1463 3103 1205 2759 
Q 947 2416 947 1791 
Q 947 1169 1205 825 
Q 1463 481 1925 481 
Q 2391 481 2648 825 
Q 2906 1169 2906 1791 
z
M 3481 434 
Q 3481 -459 3084 -895 
Q 2688 -1331 1869 -1331 
Q 1566 -1331 1297 -1286 
Q 1028 -1241 775 -1147 
L 775 -588 
Q 1028 -725 1275 -790 
Q 1522 -856 1778 -856 
Q 2344 -856 2625 -561 
Q 2906 -266 2906 331 
L 2906 616 
Q 2728 306 2450 153 
Q 2172 0 1784 0 
Q 1141 0 747 490 
Q 353 981 353 1791 
Q 353 2603 747 3093 
Q 1141 3584 1784 3584 
Q 2172 3584 2450 3431 
Q 2728 3278 2906 2969 
L 2906 3500 
L 3481 3500 
L 3481 434 
z
" transform="scale(0.015625)"/>
       <path id="DejaVuSans-73" d="M 2834 3397 
L 2834 2853 
Q 2591 2978 2328 3040 
Q 2066 3103 1784 3103 
Q 1356 3103 1142 2972 
Q 928 2841 928 2578 
Q 928 2378 1081 2264 
Q 1234 2150 1697 2047 
L 1894 2003 
Q 2506 1872 2764 1633 
Q 3022 1394 3022 966 
Q 3022 478 2636 193 
Q 2250 -91 1575 -91 
Q 1294 -91 989 -36 
Q 684 19 347 128 
L 347 722 
Q 666 556 975 473 
Q 1284 391 1588 391 
Q 1994 391 2212 530 
Q 2431 669 2431 922 
Q 2431 1156 2273 1281 
Q 2116 1406 1581 1522 
L 1381 1569 
Q 847 1681 609 1914 
Q 372 2147 372 2553 
Q 372 3047 722 3315 
Q 1072 3584 1716 3584 
Q 2034 3584 2315 3537 
Q 2597 3491 2834 3397 
z
" transform="scale(0.015625)"/>
      </defs>
      <use xlink:href="#DejaVuSans-44"/>
      <use xlink:href="#DejaVuSans-69" transform="translate(77.001953 0)"/>
      <use xlink:href="#DejaVuSans-61" transform="translate(104.785156 0)"/>
      <use xlink:href="#DejaVuSans-67" transform="translate(166.064453 0)"/>
      <use xlink:href="#DejaVuSans-6e" transform="translate(229.541016 0)"/>
      <use xlink:href="#DejaVuSans-6f" transform="translate(292.919922 0)"/>
      <use xlink:href="#DejaVuSans-73" transform="translate(354.101562 0)"/>
      <use xlink:href="#DejaVuSans-69" transform="translate(406.201172 0)"/>
      <use xlink:href="#DejaVuSans-73" transform="translate(433.984375 0)"/>
     </g>
    </g>
   </g>
   <g id="matplotlib.axis_2">
    <g id="ytick_1">
     <g id="line2d_1">
      <path d="M 46.31125 292.476528 
L 483.98125 292.476528 
" clip-path="url(#p3b28b8c14a)" style="fill: none; stroke: #cccccc; stroke-linecap: round"/>
     </g>
     <g id="text_4">
      <!-- 0 -->
      <g style="fill: #262626" transform="translate(29.8125 296.655669) scale(0.11 -0.11)">
       <defs>
        <path id="DejaVuSans-30" d="M 2034 4250 
Q 1547 4250 1301 3770 
Q 1056 3291 1056 2328 
Q 1056 1369 1301 889 
Q 1547 409 2034 409 
Q 2525 409 2770 889 
Q 3016 1369 3016 2328 
Q 3016 3291 2770 3770 
Q 2525 4250 2034 4250 
z
M 2034 4750 
Q 2819 4750 3233 4129 
Q 3647 3509 3647 2328 
Q 3647 1150 3233 529 
Q 2819 -91 2034 -91 
Q 1250 -91 836 529 
Q 422 1150 422 2328 
Q 422 3509 836 4129 
Q 1250 4750 2034 4750 
z
" transform="scale(0.015625)"/>
       </defs>
       <use xlink:href="#DejaVuSans-30"/>
      </g>
     </g>
    </g>
    <g id="ytick_2">
     <g id="line2d_2">
      <path d="M 46.31125 258.80409 
L 483.98125 258.80409 
" clip-path="url(#p3b28b8c14a)" style="fill: none; stroke: #cccccc; stroke-linecap: round"/>
     </g>
     <g id="text_5">
      <!-- 10 -->
      <g style="fill: #262626" transform="translate(22.81375 262.98323) scale(0.11 -0.11)">
       <defs>
        <path id="DejaVuSans-31" d="M 794 531 
L 1825 531 
L 1825 4091 
L 703 3866 
L 703 4441 
L 1819 4666 
L 2450 4666 
L 2450 531 
L 3481 531 
L 3481 0 
L 794 0 
L 794 531 
z
" transform="scale(0.015625)"/>
       </defs>
       <use xlink:href="#DejaVuSans-31"/>
       <use xlink:href="#DejaVuSans-30" transform="translate(63.623047 0)"/>
      </g>
     </g>
    </g>
    <g id="ytick_3">
     <g id="line2d_3">
      <path d="M 46.31125 225.131651 
L 483.98125 225.131651 
" clip-path="url(#p3b28b8c14a)" style="fill: none; stroke: #cccccc; stroke-linecap: round"/>
     </g>
     <g id="text_6">
      <!-- 20 -->
      <g style="fill: #262626" transform="translate(22.81375 229.310792) scale(0.11 -0.11)">
       <defs>
        <path id="DejaVuSans-32" d="M 1228 531 
L 3431 531 
L 3431 0 
L 469 0 
L 469 531 
Q 828 903 1448 1529 
Q 2069 2156 2228 2338 
Q 2531 2678 2651 2914 
Q 2772 3150 2772 3378 
Q 2772 3750 2511 3984 
Q 2250 4219 1831 4219 
Q 1534 4219 1204 4116 
Q 875 4013 500 3803 
L 500 4441 
Q 881 4594 1212 4672 
Q 1544 4750 1819 4750 
Q 2544 4750 2975 4387 
Q 3406 4025 3406 3419 
Q 3406 3131 3298 2873 
Q 3191 2616 2906 2266 
Q 2828 2175 2409 1742 
Q 1991 1309 1228 531 
z
" transform="scale(0.015625)"/>
       </defs>
       <use xlink:href="#DejaVuSans-32"/>
       <use xlink:href="#DejaVuSans-30" transform="translate(63.623047 0)"/>
      </g>
     </g>
    </g>
    <g id="ytick_4">
     <g id="line2d_4">
      <path d="M 46.31125 191.459212 
L 483.98125 191.459212 
" clip-path="url(#p3b28b8c14a)" style="fill: none; stroke: #cccccc; stroke-linecap: round"/>
     </g>
     <g id="text_7">
      <!-- 30 -->
      <g style="fill: #262626" transform="translate(22.81375 195.638353) scale(0.11 -0.11)">
       <defs>
        <path id="DejaVuSans-33" d="M 2597 2516 
Q 3050 2419 3304 2112 
Q 3559 1806 3559 1356 
Q 3559 666 3084 287 
Q 2609 -91 1734 -91 
Q 1441 -91 1130 -33 
Q 819 25 488 141 
L 488 750 
Q 750 597 1062 519 
Q 1375 441 1716 441 
Q 2309 441 2620 675 
Q 2931 909 2931 1356 
Q 2931 1769 2642 2001 
Q 2353 2234 1838 2234 
L 1294 2234 
L 1294 2753 
L 1863 2753 
Q 2328 2753 2575 2939 
Q 2822 3125 2822 3475 
Q 2822 3834 2567 4026 
Q 2313 4219 1838 4219 
Q 1578 4219 1281 4162 
Q 984 4106 628 3988 
L 628 4550 
Q 988 4650 1302 4700 
Q 1616 4750 1894 4750 
Q 2613 4750 3031 4423 
Q 3450 4097 3450 3541 
Q 3450 3153 3228 2886 
Q 3006 2619 2597 2516 
z
" transform="scale(0.015625)"/>
       </defs>
       <use xlink:href="#DejaVuSans-33"/>
       <use xlink:href="#DejaVuSans-30" transform="translate(63.623047 0)"/>
      </g>
     </g>
    </g>
    <g id="ytick_5">
     <g id="line2d_5">
      <path d="M 46.31125 157.786774 
L 483.98125 157.786774 
" clip-path="url(#p3b28b8c14a)" style="fill: none; stroke: #cccccc; stroke-linecap: round"/>
     </g>
     <g id="text_8">
      <!-- 40 -->
      <g style="fill: #262626" transform="translate(22.81375 161.965914) scale(0.11 -0.11)">
       <defs>
        <path id="DejaVuSans-34" d="M 2419 4116 
L 825 1625 
L 2419 1625 
L 2419 4116 
z
M 2253 4666 
L 3047 4666 
L 3047 1625 
L 3713 1625 
L 3713 1100 
L 3047 1100 
L 3047 0 
L 2419 0 
L 2419 1100 
L 313 1100 
L 313 1709 
L 2253 4666 
z
" transform="scale(0.015625)"/>
       </defs>
       <use xlink:href="#DejaVuSans-34"/>
       <use xlink:href="#DejaVuSans-30" transform="translate(63.623047 0)"/>
      </g>
     </g>
    </g>
    <g id="ytick_6">
     <g id="line2d_6">
      <path d="M 46.31125 124.114335 
L 483.98125 124.114335 
" clip-path="url(#p3b28b8c14a)" style="fill: none; stroke: #cccccc; stroke-linecap: round"/>
     </g>
     <g id="text_9">
      <!-- 50 -->
      <g style="fill: #262626" transform="translate(22.81375 128.293475) scale(0.11 -0.11)">
       <defs>
        <path id="DejaVuSans-35" d="M 691 4666 
L 3169 4666 
L 3169 4134 
L 1269 4134 
L 1269 2991 
Q 1406 3038 1543 3061 
Q 1681 3084 1819 3084 
Q 2600 3084 3056 2656 
Q 3513 2228 3513 1497 
Q 3513 744 3044 326 
Q 2575 -91 1722 -91 
Q 1428 -91 1123 -41 
Q 819 9 494 109 
L 494 744 
Q 775 591 1075 516 
Q 1375 441 1709 441 
Q 2250 441 2565 725 
Q 2881 1009 2881 1497 
Q 2881 1984 2565 2268 
Q 2250 2553 1709 2553 
Q 1456 2553 1204 2497 
Q 953 2441 691 2322 
L 691 4666 
z
" transform="scale(0.015625)"/>
       </defs>
       <use xlink:href="#DejaVuSans-35"/>
       <use xlink:href="#DejaVuSans-30" transform="translate(63.623047 0)"/>
      </g>
     </g>
    </g>
    <g id="ytick_7">
     <g id="line2d_7">
      <path d="M 46.31125 90.441896 
L 483.98125 90.441896 
" clip-path="url(#p3b28b8c14a)" style="fill: none; stroke: #cccccc; stroke-linecap: round"/>
     </g>
     <g id="text_10">
      <!-- 60 -->
      <g style="fill: #262626" transform="translate(22.81375 94.621037) scale(0.11 -0.11)">
       <defs>
        <path id="DejaVuSans-36" d="M 2113 2584 
Q 1688 2584 1439 2293 
Q 1191 2003 1191 1497 
Q 1191 994 1439 701 
Q 1688 409 2113 409 
Q 2538 409 2786 701 
Q 3034 994 3034 1497 
Q 3034 2003 2786 2293 
Q 2538 2584 2113 2584 
z
M 3366 4563 
L 3366 3988 
Q 3128 4100 2886 4159 
Q 2644 4219 2406 4219 
Q 1781 4219 1451 3797 
Q 1122 3375 1075 2522 
Q 1259 2794 1537 2939 
Q 1816 3084 2150 3084 
Q 2853 3084 3261 2657 
Q 3669 2231 3669 1497 
Q 3669 778 3244 343 
Q 2819 -91 2113 -91 
Q 1303 -91 875 529 
Q 447 1150 447 2328 
Q 447 3434 972 4092 
Q 1497 4750 2381 4750 
Q 2619 4750 2861 4703 
Q 3103 4656 3366 4563 
z
" transform="scale(0.015625)"/>
       </defs>
       <use xlink:href="#DejaVuSans-36"/>
       <use xlink:href="#DejaVuSans-30" transform="translate(63.623047 0)"/>
      </g>
     </g>
    </g>
    <g id="ytick_8">
     <g id="line2d_8">
      <path d="M 46.31125 56.769458 
L 483.98125 56.769458 
" clip-path="url(#p3b28b8c14a)" style="fill: none; stroke: #cccccc; stroke-linecap: round"/>
     </g>
     <g id="text_11">
      <!-- 70 -->
      <g style="fill: #262626" transform="translate(22.81375 60.948598) scale(0.11 -0.11)">
       <defs>
        <path id="DejaVuSans-37" d="M 525 4666 
L 3525 4666 
L 3525 4397 
L 1831 0 
L 1172 0 
L 2766 4134 
L 525 4134 
L 525 4666 
z
" transform="scale(0.015625)"/>
       </defs>
       <use xlink:href="#DejaVuSans-37"/>
       <use xlink:href="#DejaVuSans-30" transform="translate(63.623047 0)"/>
      </g>
     </g>
    </g>
    <g id="text_12">
     <!-- Serum Creatinine (sc) -->
     <g style="fill: #262626" transform="translate(16.318125 229.255312) rotate(-90) scale(0.12 -0.12)">
      <defs>
       <path id="DejaVuSans-53" d="M 3425 4513 
L 3425 3897 
Q 3066 4069 2747 4153 
Q 2428 4238 2131 4238 
Q 1616 4238 1336 4038 
Q 1056 3838 1056 3469 
Q 1056 3159 1242 3001 
Q 1428 2844 1947 2747 
L 2328 2669 
Q 3034 2534 3370 2195 
Q 3706 1856 3706 1288 
Q 3706 609 3251 259 
Q 2797 -91 1919 -91 
Q 1588 -91 1214 -16 
Q 841 59 441 206 
L 441 856 
Q 825 641 1194 531 
Q 1563 422 1919 422 
Q 2459 422 2753 634 
Q 3047 847 3047 1241 
Q 3047 1584 2836 1778 
Q 2625 1972 2144 2069 
L 1759 2144 
Q 1053 2284 737 2584 
Q 422 2884 422 3419 
Q 422 4038 858 4394 
Q 1294 4750 2059 4750 
Q 2388 4750 2728 4690 
Q 3069 4631 3425 4513 
z
" transform="scale(0.015625)"/>
       <path id="DejaVuSans-65" d="M 3597 1894 
L 3597 1613 
L 953 1613 
Q 991 1019 1311 708 
Q 1631 397 2203 397 
Q 2534 397 2845 478 
Q 3156 559 3463 722 
L 3463 178 
Q 3153 47 2828 -22 
Q 2503 -91 2169 -91 
Q 1331 -91 842 396 
Q 353 884 353 1716 
Q 353 2575 817 3079 
Q 1281 3584 2069 3584 
Q 2775 3584 3186 3129 
Q 3597 2675 3597 1894 
z
M 3022 2063 
Q 3016 2534 2758 2815 
Q 2500 3097 2075 3097 
Q 1594 3097 1305 2825 
Q 1016 2553 972 2059 
L 3022 2063 
z
" transform="scale(0.015625)"/>
       <path id="DejaVuSans-72" d="M 2631 2963 
Q 2534 3019 2420 3045 
Q 2306 3072 2169 3072 
Q 1681 3072 1420 2755 
Q 1159 2438 1159 1844 
L 1159 0 
L 581 0 
L 581 3500 
L 1159 3500 
L 1159 2956 
Q 1341 3275 1631 3429 
Q 1922 3584 2338 3584 
Q 2397 3584 2469 3576 
Q 2541 3569 2628 3553 
L 2631 2963 
z
" transform="scale(0.015625)"/>
       <path id="DejaVuSans-75" d="M 544 1381 
L 544 3500 
L 1119 3500 
L 1119 1403 
Q 1119 906 1312 657 
Q 1506 409 1894 409 
Q 2359 409 2629 706 
Q 2900 1003 2900 1516 
L 2900 3500 
L 3475 3500 
L 3475 0 
L 2900 0 
L 2900 538 
Q 2691 219 2414 64 
Q 2138 -91 1772 -91 
Q 1169 -91 856 284 
Q 544 659 544 1381 
z
M 1991 3584 
L 1991 3584 
z
" transform="scale(0.015625)"/>
       <path id="DejaVuSans-6d" d="M 3328 2828 
Q 3544 3216 3844 3400 
Q 4144 3584 4550 3584 
Q 5097 3584 5394 3201 
Q 5691 2819 5691 2113 
L 5691 0 
L 5113 0 
L 5113 2094 
Q 5113 2597 4934 2840 
Q 4756 3084 4391 3084 
Q 3944 3084 3684 2787 
Q 3425 2491 3425 1978 
L 3425 0 
L 2847 0 
L 2847 2094 
Q 2847 2600 2669 2842 
Q 2491 3084 2119 3084 
Q 1678 3084 1418 2786 
Q 1159 2488 1159 1978 
L 1159 0 
L 581 0 
L 581 3500 
L 1159 3500 
L 1159 2956 
Q 1356 3278 1631 3431 
Q 1906 3584 2284 3584 
Q 2666 3584 2933 3390 
Q 3200 3197 3328 2828 
z
" transform="scale(0.015625)"/>
       <path id="DejaVuSans-20" transform="scale(0.015625)"/>
       <path id="DejaVuSans-43" d="M 4122 4306 
L 4122 3641 
Q 3803 3938 3442 4084 
Q 3081 4231 2675 4231 
Q 1875 4231 1450 3742 
Q 1025 3253 1025 2328 
Q 1025 1406 1450 917 
Q 1875 428 2675 428 
Q 3081 428 3442 575 
Q 3803 722 4122 1019 
L 4122 359 
Q 3791 134 3420 21 
Q 3050 -91 2638 -91 
Q 1578 -91 968 557 
Q 359 1206 359 2328 
Q 359 3453 968 4101 
Q 1578 4750 2638 4750 
Q 3056 4750 3426 4639 
Q 3797 4528 4122 4306 
z
" transform="scale(0.015625)"/>
       <path id="DejaVuSans-28" d="M 1984 4856 
Q 1566 4138 1362 3434 
Q 1159 2731 1159 2009 
Q 1159 1288 1364 580 
Q 1569 -128 1984 -844 
L 1484 -844 
Q 1016 -109 783 600 
Q 550 1309 550 2009 
Q 550 2706 781 3412 
Q 1013 4119 1484 4856 
L 1984 4856 
z
" transform="scale(0.015625)"/>
       <path id="DejaVuSans-29" d="M 513 4856 
L 1013 4856 
Q 1481 4119 1714 3412 
Q 1947 2706 1947 2009 
Q 1947 1309 1714 600 
Q 1481 -109 1013 -844 
L 513 -844 
Q 928 -128 1133 580 
Q 1338 1288 1338 2009 
Q 1338 2731 1133 3434 
Q 928 4138 513 4856 
z
" transform="scale(0.015625)"/>
      </defs>
      <use xlink:href="#DejaVuSans-53"/>
      <use xlink:href="#DejaVuSans-65" transform="translate(63.476562 0)"/>
      <use xlink:href="#DejaVuSans-72" transform="translate(125 0)"/>
      <use xlink:href="#DejaVuSans-75" transform="translate(166.113281 0)"/>
      <use xlink:href="#DejaVuSans-6d" transform="translate(229.492188 0)"/>
      <use xlink:href="#DejaVuSans-20" transform="translate(326.904297 0)"/>
      <use xlink:href="#DejaVuSans-43" transform="translate(358.691406 0)"/>
      <use xlink:href="#DejaVuSans-72" transform="translate(428.515625 0)"/>
      <use xlink:href="#DejaVuSans-65" transform="translate(467.378906 0)"/>
      <use xlink:href="#DejaVuSans-61" transform="translate(528.902344 0)"/>
      <use xlink:href="#DejaVuSans-74" transform="translate(590.181641 0)"/>
      <use xlink:href="#DejaVuSans-69" transform="translate(629.390625 0)"/>
      <use xlink:href="#DejaVuSans-6e" transform="translate(657.173828 0)"/>
      <use xlink:href="#DejaVuSans-69" transform="translate(720.552734 0)"/>
      <use xlink:href="#DejaVuSans-6e" transform="translate(748.335938 0)"/>
      <use xlink:href="#DejaVuSans-65" transform="translate(811.714844 0)"/>
      <use xlink:href="#DejaVuSans-20" transform="translate(873.238281 0)"/>
      <use xlink:href="#DejaVuSans-28" transform="translate(905.025391 0)"/>
      <use xlink:href="#DejaVuSans-73" transform="translate(944.039062 0)"/>
      <use xlink:href="#DejaVuSans-63" transform="translate(996.138672 0)"/>
      <use xlink:href="#DejaVuSans-29" transform="translate(1051.119141 0)"/>
     </g>
    </g>
   </g>
   <g id="patch_3">
    <path d="M 95.549125 290.456182 
L 215.908375 290.456182 
L 215.908375 288.77256 
L 95.549125 288.77256 
L 95.549125 290.456182 
z
" clip-path="url(#p3b28b8c14a)" style="fill: #5875a4; stroke: #4c4c4c; stroke-width: 1.2; stroke-linejoin: miter"/>
   </g>
   <g id="line2d_9">
    <path d="M 155.72875 290.456182 
L 155.72875 291.129631 
" clip-path="url(#p3b28b8c14a)" style="fill: none; stroke: #4c4c4c; stroke-width: 1.2"/>
   </g>
   <g id="line2d_10">
    <path d="M 155.72875 288.77256 
L 155.72875 288.435836 
" clip-path="url(#p3b28b8c14a)" style="fill: none; stroke: #4c4c4c; stroke-width: 1.2"/>
   </g>
   <g id="line2d_11">
    <path d="M 125.638938 291.129631 
L 185.818563 291.129631 
" clip-path="url(#p3b28b8c14a)" style="fill: none; stroke: #4c4c4c; stroke-width: 1.2; stroke-linecap: round"/>
   </g>
   <g id="line2d_12">
    <path d="M 125.638938 288.435836 
L 185.818563 288.435836 
" clip-path="url(#p3b28b8c14a)" style="fill: none; stroke: #4c4c4c; stroke-width: 1.2; stroke-linecap: round"/>
   </g>
   <g id="line2d_13"/>
   <g id="patch_4">
    <path d="M 314.384125 287.678206 
L 434.743375 287.678206 
L 434.743375 277.155569 
L 314.384125 277.155569 
L 314.384125 287.678206 
z
" clip-path="url(#p3b28b8c14a)" style="fill: #b55d60; stroke: #4c4c4c; stroke-width: 1.2; stroke-linejoin: miter"/>
   </g>
   <g id="line2d_14">
    <path d="M 374.56375 287.678206 
L 374.56375 290.792906 
" clip-path="url(#p3b28b8c14a)" style="fill: none; stroke: #4c4c4c; stroke-width: 1.2"/>
   </g>
   <g id="line2d_15">
    <path d="M 374.56375 277.155569 
L 374.56375 261.497885 
" clip-path="url(#p3b28b8c14a)" style="fill: none; stroke: #4c4c4c; stroke-width: 1.2"/>
   </g>
   <g id="line2d_16">
    <path d="M 344.473938 290.792906 
L 404.653563 290.792906 
" clip-path="url(#p3b28b8c14a)" style="fill: none; stroke: #4c4c4c; stroke-width: 1.2; stroke-linecap: round"/>
   </g>
   <g id="line2d_17">
    <path d="M 344.473938 261.497885 
L 404.653563 261.497885 
" clip-path="url(#p3b28b8c14a)" style="fill: none; stroke: #4c4c4c; stroke-width: 1.2; stroke-linecap: round"/>
   </g>
   <g id="line2d_18">
    <defs>
     <path id="m52a3caa96c" d="M 0 1 
C 0.265203 1 0.51958 0.894634 0.707107 0.707107 
C 0.894634 0.51958 1 0.265203 1 0 
C 1 -0.265203 0.894634 -0.51958 0.707107 -0.707107 
C 0.51958 -0.894634 0.265203 -1 0 -1 
C -0.265203 -1 -0.51958 -0.894634 -0.707107 -0.707107 
C -0.894634 -0.51958 -1 -0.265203 -1 0 
C -1 0.265203 -0.894634 0.51958 -0.707107 0.707107 
C -0.51958 0.894634 -0.265203 1 0 1 
z
" style="stroke: #4c4c4c"/>
    </defs>
    <g clip-path="url(#p3b28b8c14a)">
     <use xlink:href="#m52a3caa96c" x="374.56375" y="211.662675" style="fill-opacity: 0; stroke: #4c4c4c"/>
     <use xlink:href="#m52a3caa96c" x="374.56375" y="260.150987" style="fill-opacity: 0; stroke: #4c4c4c"/>
     <use xlink:href="#m52a3caa96c" x="374.56375" y="36.565994" style="fill-opacity: 0; stroke: #4c4c4c"/>
     <use xlink:href="#m52a3caa96c" x="374.56375" y="256.110294" style="fill-opacity: 0; stroke: #4c4c4c"/>
     <use xlink:href="#m52a3caa96c" x="374.56375" y="259.814263" style="fill-opacity: 0; stroke: #4c4c4c"/>
     <use xlink:href="#m52a3caa96c" x="374.56375" y="184.724724" style="fill-opacity: 0; stroke: #4c4c4c"/>
     <use xlink:href="#m52a3caa96c" x="374.56375" y="241.96787" style="fill-opacity: 0; stroke: #4c4c4c"/>
     <use xlink:href="#m52a3caa96c" x="374.56375" y="258.130641" style="fill-opacity: 0; stroke: #4c4c4c"/>
     <use xlink:href="#m52a3caa96c" x="374.56375" y="253.753224" style="fill-opacity: 0; stroke: #4c4c4c"/>
     <use xlink:href="#m52a3caa96c" x="374.56375" y="251.396153" style="fill-opacity: 0; stroke: #4c4c4c"/>
     <use xlink:href="#m52a3caa96c" x="374.56375" y="246.008563" style="fill-opacity: 0; stroke: #4c4c4c"/>
     <use xlink:href="#m52a3caa96c" x="374.56375" y="235.570107" style="fill-opacity: 0; stroke: #4c4c4c"/>
     <use xlink:href="#m52a3caa96c" x="374.56375" y="231.866139" style="fill-opacity: 0; stroke: #4c4c4c"/>
     <use xlink:href="#m52a3caa96c" x="374.56375" y="248.702358" style="fill-opacity: 0; stroke: #4c4c4c"/>
     <use xlink:href="#m52a3caa96c" x="374.56375" y="130.512098" style="fill-opacity: 0; stroke: #4c4c4c"/>
     <use xlink:href="#m52a3caa96c" x="374.56375" y="244.661665" style="fill-opacity: 0; stroke: #4c4c4c"/>
     <use xlink:href="#m52a3caa96c" x="374.56375" y="237.253729" style="fill-opacity: 0; stroke: #4c4c4c"/>
     <use xlink:href="#m52a3caa96c" x="374.56375" y="231.529414" style="fill-opacity: 0; stroke: #4c4c4c"/>
     <use xlink:href="#m52a3caa96c" x="374.56375" y="252.743051" style="fill-opacity: 0; stroke: #4c4c4c"/>
     <use xlink:href="#m52a3caa96c" x="374.56375" y="261.16116" style="fill-opacity: 0; stroke: #4c4c4c"/>
     <use xlink:href="#m52a3caa96c" x="374.56375" y="247.018736" style="fill-opacity: 0; stroke: #4c4c4c"/>
     <use xlink:href="#m52a3caa96c" x="374.56375" y="249.375807" style="fill-opacity: 0; stroke: #4c4c4c"/>
     <use xlink:href="#m52a3caa96c" x="374.56375" y="252.406326" style="fill-opacity: 0; stroke: #4c4c4c"/>
     <use xlink:href="#m52a3caa96c" x="374.56375" y="252.069602" style="fill-opacity: 0; stroke: #4c4c4c"/>
     <use xlink:href="#m52a3caa96c" x="374.56375" y="247.35546" style="fill-opacity: 0; stroke: #4c4c4c"/>
     <use xlink:href="#m52a3caa96c" x="374.56375" y="241.294421" style="fill-opacity: 0; stroke: #4c4c4c"/>
     <use xlink:href="#m52a3caa96c" x="374.56375" y="247.692185" style="fill-opacity: 0; stroke: #4c4c4c"/>
    </g>
   </g>
   <g id="line2d_19">
    <path d="M 95.549125 289.446009 
L 215.908375 289.446009 
" clip-path="url(#p3b28b8c14a)" style="fill: none; stroke: #4c4c4c; stroke-width: 1.2"/>
   </g>
   <g id="line2d_20">
    <path d="M 314.384125 284.90023 
L 434.743375 284.90023 
" clip-path="url(#p3b28b8c14a)" style="fill: none; stroke: #4c4c4c; stroke-width: 1.2"/>
   </g>
   <g id="patch_5">
    <path d="M 46.31125 303.857812 
L 46.31125 23.837812 
" style="fill: none; stroke: #cccccc; stroke-width: 1.25; stroke-linejoin: miter; stroke-linecap: square"/>
   </g>
   <g id="patch_6">
    <path d="M 46.31125 303.857812 
L 483.98125 303.857812 
" style="fill: none; stroke: #cccccc; stroke-width: 1.25; stroke-linejoin: miter; stroke-linecap: square"/>
   </g>
   <g id="PathCollection_1">
    <defs>
     <path id="me6d7303e29" d="M 0 1 
C 0.265203 1 0.51958 0.894634 0.707107 0.707107 
C 0.894634 0.51958 1 0.265203 1 0 
C 1 -0.265203 0.894634 -0.51958 0.707107 -0.707107 
C 0.51958 -0.894634 0.265203 -1 0 -1 
C -0.265203 -1 -0.51958 -0.894634 -0.707107 -0.707107 
C -0.894634 -0.51958 -1 -0.265203 -1 0 
C -1 0.265203 -0.894634 0.51958 -0.707107 0.707107 
C -0.51958 0.894634 -0.265203 1 0 1 
z
"/>
    </defs>
    <g clip-path="url(#p3b28b8c14a)">
     <use xlink:href="#me6d7303e29" x="139.088887" y="288.435836" style="fill-opacity: 0.25"/>
     <use xlink:href="#me6d7303e29" x="179.197018" y="289.109284" style="fill-opacity: 0.25"/>
     <use xlink:href="#me6d7303e29" x="209.781423" y="290.456182" style="fill-opacity: 0.25"/>
     <use xlink:href="#me6d7303e29" x="200.560759" y="288.435836" style="fill-opacity: 0.25"/>
     <use xlink:href="#me6d7303e29" x="118.604749" y="289.782733" style="fill-opacity: 0.25"/>
     <use xlink:href="#me6d7303e29" x="119.129969" y="288.435836" style="fill-opacity: 0.25"/>
     <use xlink:href="#me6d7303e29" x="165.107224" y="290.792906" style="fill-opacity: 0.25"/>
     <use xlink:href="#me6d7303e29" x="184.113756" y="290.119458" style="fill-opacity: 0.25"/>
     <use xlink:href="#me6d7303e29" x="104.082877" y="290.792906" style="fill-opacity: 0.25"/>
     <use xlink:href="#me6d7303e29" x="102.503277" y="288.435836" style="fill-opacity: 0.25"/>
     <use xlink:href="#me6d7303e29" x="160.138267" y="289.109284" style="fill-opacity: 0.25"/>
     <use xlink:href="#me6d7303e29" x="144.119148" y="288.435836" style="fill-opacity: 0.25"/>
     <use xlink:href="#me6d7303e29" x="172.046195" y="289.446009" style="fill-opacity: 0.25"/>
     <use xlink:href="#me6d7303e29" x="121.990555" y="288.435836" style="fill-opacity: 0.25"/>
     <use xlink:href="#me6d7303e29" x="107.727025" y="290.119458" style="fill-opacity: 0.25"/>
     <use xlink:href="#me6d7303e29" x="158.176791" y="290.456182" style="fill-opacity: 0.25"/>
     <use xlink:href="#me6d7303e29" x="131.457169" y="288.435836" style="fill-opacity: 0.25"/>
     <use xlink:href="#me6d7303e29" x="107.439824" y="289.446009" style="fill-opacity: 0.25"/>
     <use xlink:href="#me6d7303e29" x="190.153895" y="289.109284" style="fill-opacity: 0.25"/>
     <use xlink:href="#me6d7303e29" x="176.97076" y="288.435836" style="fill-opacity: 0.25"/>
     <use xlink:href="#me6d7303e29" x="179.534909" y="288.77256" style="fill-opacity: 0.25"/>
     <use xlink:href="#me6d7303e29" x="122.549364" y="290.792906" style="fill-opacity: 0.25"/>
     <use xlink:href="#me6d7303e29" x="177.372877" y="288.435836" style="fill-opacity: 0.25"/>
     <use xlink:href="#me6d7303e29" x="169.165148" y="289.446009" style="fill-opacity: 0.25"/>
     <use xlink:href="#me6d7303e29" x="127.936327" y="290.119458" style="fill-opacity: 0.25"/>
     <use xlink:href="#me6d7303e29" x="178.948474" y="288.435836" style="fill-opacity: 0.25"/>
     <use xlink:href="#me6d7303e29" x="186.683142" y="289.109284" style="fill-opacity: 0.25"/>
     <use xlink:href="#me6d7303e29" x="190.371195" y="288.435836" style="fill-opacity: 0.25"/>
     <use xlink:href="#me6d7303e29" x="209.771075" y="290.456182" style="fill-opacity: 0.25"/>
     <use xlink:href="#me6d7303e29" x="200.433924" y="289.446009" style="fill-opacity: 0.25"/>
     <use xlink:href="#me6d7303e29" x="155.170112" y="288.435836" style="fill-opacity: 0.25"/>
     <use xlink:href="#me6d7303e29" x="134.967133" y="289.109284" style="fill-opacity: 0.25"/>
     <use xlink:href="#me6d7303e29" x="172.636121" y="288.435836" style="fill-opacity: 0.25"/>
     <use xlink:href="#me6d7303e29" x="102.935529" y="290.119458" style="fill-opacity: 0.25"/>
     <use xlink:href="#me6d7303e29" x="109.366739" y="289.782733" style="fill-opacity: 0.25"/>
     <use xlink:href="#me6d7303e29" x="150.949145" y="290.456182" style="fill-opacity: 0.25"/>
     <use xlink:href="#me6d7303e29" x="181.168544" y="288.435836" style="fill-opacity: 0.25"/>
     <use xlink:href="#me6d7303e29" x="154.070341" y="289.446009" style="fill-opacity: 0.25"/>
     <use xlink:href="#me6d7303e29" x="111.593145" y="290.456182" style="fill-opacity: 0.25"/>
     <use xlink:href="#me6d7303e29" x="169.150609" y="289.109284" style="fill-opacity: 0.25"/>
     <use xlink:href="#me6d7303e29" x="167.387688" y="290.792906" style="fill-opacity: 0.25"/>
     <use xlink:href="#me6d7303e29" x="174.299124" y="288.435836" style="fill-opacity: 0.25"/>
     <use xlink:href="#me6d7303e29" x="141.858705" y="290.119458" style="fill-opacity: 0.25"/>
     <use xlink:href="#me6d7303e29" x="188.612116" y="289.446009" style="fill-opacity: 0.25"/>
     <use xlink:href="#me6d7303e29" x="163.923274" y="290.456182" style="fill-opacity: 0.25"/>
     <use xlink:href="#me6d7303e29" x="189.130274" y="289.109284" style="fill-opacity: 0.25"/>
     <use xlink:href="#me6d7303e29" x="139.645885" y="288.435836" style="fill-opacity: 0.25"/>
     <use xlink:href="#me6d7303e29" x="153.995942" y="290.792906" style="fill-opacity: 0.25"/>
     <use xlink:href="#me6d7303e29" x="116.897398" y="290.119458" style="fill-opacity: 0.25"/>
     <use xlink:href="#me6d7303e29" x="208.051018" y="289.446009" style="fill-opacity: 0.25"/>
     <use xlink:href="#me6d7303e29" x="177.912451" y="288.435836" style="fill-opacity: 0.25"/>
     <use xlink:href="#me6d7303e29" x="165.685376" y="288.77256" style="fill-opacity: 0.25"/>
     <use xlink:href="#me6d7303e29" x="203.00333" y="290.456182" style="fill-opacity: 0.25"/>
     <use xlink:href="#me6d7303e29" x="141.274054" y="289.782733" style="fill-opacity: 0.25"/>
     <use xlink:href="#me6d7303e29" x="189.021995" y="288.435836" style="fill-opacity: 0.25"/>
     <use xlink:href="#me6d7303e29" x="163.138682" y="290.792906" style="fill-opacity: 0.25"/>
     <use xlink:href="#me6d7303e29" x="174.194401" y="290.456182" style="fill-opacity: 0.25"/>
     <use xlink:href="#me6d7303e29" x="189.953556" y="288.435836" style="fill-opacity: 0.25"/>
     <use xlink:href="#me6d7303e29" x="109.392951" y="290.119458" style="fill-opacity: 0.25"/>
     <use xlink:href="#me6d7303e29" x="101.841101" y="288.77256" style="fill-opacity: 0.25"/>
     <use xlink:href="#me6d7303e29" x="152.1325" y="289.446009" style="fill-opacity: 0.25"/>
     <use xlink:href="#me6d7303e29" x="136.751465" y="290.456182" style="fill-opacity: 0.25"/>
     <use xlink:href="#me6d7303e29" x="139.179931" y="290.792906" style="fill-opacity: 0.25"/>
     <use xlink:href="#me6d7303e29" x="177.644099" y="288.435836" style="fill-opacity: 0.25"/>
     <use xlink:href="#me6d7303e29" x="131.89356" y="290.119458" style="fill-opacity: 0.25"/>
     <use xlink:href="#me6d7303e29" x="201.462222" y="288.77256" style="fill-opacity: 0.25"/>
     <use xlink:href="#me6d7303e29" x="167.588895" y="288.435836" style="fill-opacity: 0.25"/>
     <use xlink:href="#me6d7303e29" x="119.211661" y="289.109284" style="fill-opacity: 0.25"/>
     <use xlink:href="#me6d7303e29" x="145.820583" y="290.792906" style="fill-opacity: 0.25"/>
     <use xlink:href="#me6d7303e29" x="117.265052" y="288.77256" style="fill-opacity: 0.25"/>
     <use xlink:href="#me6d7303e29" x="189.482198" y="290.119458" style="fill-opacity: 0.25"/>
     <use xlink:href="#me6d7303e29" x="155.794198" y="288.435836" style="fill-opacity: 0.25"/>
     <use xlink:href="#me6d7303e29" x="150.04018" y="288.77256" style="fill-opacity: 0.25"/>
     <use xlink:href="#me6d7303e29" x="127.516849" y="289.782733" style="fill-opacity: 0.25"/>
     <use xlink:href="#me6d7303e29" x="184.080291" y="290.456182" style="fill-opacity: 0.25"/>
     <use xlink:href="#me6d7303e29" x="156.88753" y="289.446009" style="fill-opacity: 0.25"/>
     <use xlink:href="#me6d7303e29" x="115.861598" y="288.77256" style="fill-opacity: 0.25"/>
     <use xlink:href="#me6d7303e29" x="158.401999" y="290.119458" style="fill-opacity: 0.25"/>
     <use xlink:href="#me6d7303e29" x="204.824059" y="289.109284" style="fill-opacity: 0.25"/>
     <use xlink:href="#me6d7303e29" x="160.431655" y="288.435836" style="fill-opacity: 0.25"/>
     <use xlink:href="#me6d7303e29" x="132.21229" y="290.792906" style="fill-opacity: 0.25"/>
     <use xlink:href="#me6d7303e29" x="197.350927" y="290.792906" style="fill-opacity: 0.25"/>
     <use xlink:href="#me6d7303e29" x="104.218472" y="289.446009" style="fill-opacity: 0.25"/>
     <use xlink:href="#me6d7303e29" x="194.740574" y="289.782733" style="fill-opacity: 0.25"/>
     <use xlink:href="#me6d7303e29" x="129.05163" y="290.792906" style="fill-opacity: 0.25"/>
     <use xlink:href="#me6d7303e29" x="144.544462" y="288.77256" style="fill-opacity: 0.25"/>
     <use xlink:href="#me6d7303e29" x="143.878462" y="289.446009" style="fill-opacity: 0.25"/>
     <use xlink:href="#me6d7303e29" x="187.515235" y="290.792906" style="fill-opacity: 0.25"/>
     <use xlink:href="#me6d7303e29" x="190.134046" y="289.782733" style="fill-opacity: 0.25"/>
     <use xlink:href="#me6d7303e29" x="111.374164" y="290.119458" style="fill-opacity: 0.25"/>
     <use xlink:href="#me6d7303e29" x="142.728048" y="288.435836" style="fill-opacity: 0.25"/>
     <use xlink:href="#me6d7303e29" x="190.144653" y="289.446009" style="fill-opacity: 0.25"/>
     <use xlink:href="#me6d7303e29" x="163.954217" y="289.109284" style="fill-opacity: 0.25"/>
     <use xlink:href="#me6d7303e29" x="110.538705" y="290.792906" style="fill-opacity: 0.25"/>
     <use xlink:href="#me6d7303e29" x="195.897908" y="288.77256" style="fill-opacity: 0.25"/>
     <use xlink:href="#me6d7303e29" x="185.629429" y="289.109284" style="fill-opacity: 0.25"/>
     <use xlink:href="#me6d7303e29" x="101.74616" y="289.446009" style="fill-opacity: 0.25"/>
     <use xlink:href="#me6d7303e29" x="188.742115" y="288.77256" style="fill-opacity: 0.25"/>
     <use xlink:href="#me6d7303e29" x="132.243383" y="290.456182" style="fill-opacity: 0.25"/>
     <use xlink:href="#me6d7303e29" x="209.482627" y="291.129631" style="fill-opacity: 0.25"/>
     <use xlink:href="#me6d7303e29" x="145.891654" y="289.782733" style="fill-opacity: 0.25"/>
     <use xlink:href="#me6d7303e29" x="117.962012" y="290.792906" style="fill-opacity: 0.25"/>
     <use xlink:href="#me6d7303e29" x="141.69529" y="288.77256" style="fill-opacity: 0.25"/>
     <use xlink:href="#me6d7303e29" x="109.41524" y="288.435836" style="fill-opacity: 0.25"/>
     <use xlink:href="#me6d7303e29" x="183.228664" y="290.456182" style="fill-opacity: 0.25"/>
     <use xlink:href="#me6d7303e29" x="200.841398" y="290.792906" style="fill-opacity: 0.25"/>
     <use xlink:href="#me6d7303e29" x="192.762896" y="290.119458" style="fill-opacity: 0.25"/>
     <use xlink:href="#me6d7303e29" x="130.542463" y="288.77256" style="fill-opacity: 0.25"/>
     <use xlink:href="#me6d7303e29" x="134.458959" y="290.792906" style="fill-opacity: 0.25"/>
     <use xlink:href="#me6d7303e29" x="123.750429" y="290.119458" style="fill-opacity: 0.25"/>
     <use xlink:href="#me6d7303e29" x="166.830433" y="289.109284" style="fill-opacity: 0.25"/>
     <use xlink:href="#me6d7303e29" x="186.012923" y="290.792906" style="fill-opacity: 0.25"/>
     <use xlink:href="#me6d7303e29" x="186.57966" y="288.77256" style="fill-opacity: 0.25"/>
     <use xlink:href="#me6d7303e29" x="160.56235" y="290.119458" style="fill-opacity: 0.25"/>
     <use xlink:href="#me6d7303e29" x="130.05472" y="289.782733" style="fill-opacity: 0.25"/>
     <use xlink:href="#me6d7303e29" x="153.6309" y="288.435836" style="fill-opacity: 0.25"/>
     <use xlink:href="#me6d7303e29" x="195.636061" y="290.792906" style="fill-opacity: 0.25"/>
     <use xlink:href="#me6d7303e29" x="120.989224" y="289.446009" style="fill-opacity: 0.25"/>
     <use xlink:href="#me6d7303e29" x="124.463534" y="289.109284" style="fill-opacity: 0.25"/>
     <use xlink:href="#me6d7303e29" x="164.263554" y="288.435836" style="fill-opacity: 0.25"/>
     <use xlink:href="#me6d7303e29" x="150.682573" y="290.792906" style="fill-opacity: 0.25"/>
     <use xlink:href="#me6d7303e29" x="199.668773" y="288.77256" style="fill-opacity: 0.25"/>
     <use xlink:href="#me6d7303e29" x="205.964877" y="290.119458" style="fill-opacity: 0.25"/>
     <use xlink:href="#me6d7303e29" x="183.411484" y="289.446009" style="fill-opacity: 0.25"/>
     <use xlink:href="#me6d7303e29" x="199.132051" y="290.456182" style="fill-opacity: 0.25"/>
     <use xlink:href="#me6d7303e29" x="159.586884" y="288.77256" style="fill-opacity: 0.25"/>
     <use xlink:href="#me6d7303e29" x="168.048463" y="290.792906" style="fill-opacity: 0.25"/>
     <use xlink:href="#me6d7303e29" x="131.189162" y="289.782733" style="fill-opacity: 0.25"/>
     <use xlink:href="#me6d7303e29" x="131.430231" y="290.119458" style="fill-opacity: 0.25"/>
     <use xlink:href="#me6d7303e29" x="104.42071" y="288.77256" style="fill-opacity: 0.25"/>
     <use xlink:href="#me6d7303e29" x="199.538462" y="290.456182" style="fill-opacity: 0.25"/>
     <use xlink:href="#me6d7303e29" x="149.760551" y="290.792906" style="fill-opacity: 0.25"/>
     <use xlink:href="#me6d7303e29" x="132.169724" y="289.446009" style="fill-opacity: 0.25"/>
     <use xlink:href="#me6d7303e29" x="187.495816" y="288.435836" style="fill-opacity: 0.25"/>
     <use xlink:href="#me6d7303e29" x="111.735235" y="290.119458" style="fill-opacity: 0.25"/>
     <use xlink:href="#me6d7303e29" x="150.319365" y="289.782733" style="fill-opacity: 0.25"/>
     <use xlink:href="#me6d7303e29" x="171.789151" y="288.77256" style="fill-opacity: 0.25"/>
     <use xlink:href="#me6d7303e29" x="145.909995" y="288.435836" style="fill-opacity: 0.25"/>
     <use xlink:href="#me6d7303e29" x="110.580872" y="290.119458" style="fill-opacity: 0.25"/>
     <use xlink:href="#me6d7303e29" x="203.908475" y="289.782733" style="fill-opacity: 0.25"/>
     <use xlink:href="#me6d7303e29" x="121.611986" y="290.792906" style="fill-opacity: 0.25"/>
     <use xlink:href="#me6d7303e29" x="105.816701" y="288.435836" style="fill-opacity: 0.25"/>
     <use xlink:href="#me6d7303e29" x="120.404984" y="290.456182" style="fill-opacity: 0.25"/>
     <use xlink:href="#me6d7303e29" x="137.872697" y="289.109284" style="fill-opacity: 0.25"/>
     <use xlink:href="#me6d7303e29" x="175.996046" y="288.77256" style="fill-opacity: 0.25"/>
    </g>
   </g>
   <g id="PathCollection_2">
    <g clip-path="url(#p3b28b8c14a)">
     <use xlink:href="#me6d7303e29" x="379.927762" y="288.435836" style="fill-opacity: 0.25"/>
     <use xlink:href="#me6d7303e29" x="384.233127" y="289.782733" style="fill-opacity: 0.25"/>
     <use xlink:href="#me6d7303e29" x="331.945654" y="286.415489" style="fill-opacity: 0.25"/>
     <use xlink:href="#me6d7303e29" x="339.609497" y="279.681002" style="fill-opacity: 0.25"/>
     <use xlink:href="#me6d7303e29" x="353.922972" y="287.762387" style="fill-opacity: 0.25"/>
     <use xlink:href="#me6d7303e29" x="423.673546" y="288.77256" style="fill-opacity: 0.25"/>
     <use xlink:href="#me6d7303e29" x="356.846843" y="211.662675" style="fill-opacity: 0.25"/>
     <use xlink:href="#me6d7303e29" x="401.671393" y="288.77256" style="fill-opacity: 0.25"/>
     <use xlink:href="#me6d7303e29" x="407.447127" y="286.078765" style="fill-opacity: 0.25"/>
     <use xlink:href="#me6d7303e29" x="335.019949" y="268.232372" style="fill-opacity: 0.25"/>
     <use xlink:href="#me6d7303e29" x="427.7926" y="279.007553" style="fill-opacity: 0.25"/>
     <use xlink:href="#me6d7303e29" x="403.057527" y="283.38497" style="fill-opacity: 0.25"/>
     <use xlink:href="#me6d7303e29" x="324.613121" y="285.405316" style="fill-opacity: 0.25"/>
     <use xlink:href="#me6d7303e29" x="414.9856" y="276.987206" style="fill-opacity: 0.25"/>
     <use xlink:href="#me6d7303e29" x="339.43239" y="278.670828" style="fill-opacity: 0.25"/>
     <use xlink:href="#me6d7303e29" x="384.033158" y="260.150987" style="fill-opacity: 0.25"/>
     <use xlink:href="#me6d7303e29" x="369.364704" y="285.068592" style="fill-opacity: 0.25"/>
     <use xlink:href="#me6d7303e29" x="415.697711" y="274.96686" style="fill-opacity: 0.25"/>
     <use xlink:href="#me6d7303e29" x="414.070531" y="288.099111" style="fill-opacity: 0.25"/>
     <use xlink:href="#me6d7303e29" x="407.260949" y="287.088938" style="fill-opacity: 0.25"/>
     <use xlink:href="#me6d7303e29" x="346.037841" y="279.344277" style="fill-opacity: 0.25"/>
     <use xlink:href="#me6d7303e29" x="414.790701" y="36.565994" style="fill-opacity: 0.25"/>
     <use xlink:href="#me6d7303e29" x="396.088168" y="266.54875" style="fill-opacity: 0.25"/>
     <use xlink:href="#me6d7303e29" x="379.428547" y="287.762387" style="fill-opacity: 0.25"/>
     <use xlink:href="#me6d7303e29" x="380.922656" y="286.078765" style="fill-opacity: 0.25"/>
     <use xlink:href="#me6d7303e29" x="345.701331" y="284.395143" style="fill-opacity: 0.25"/>
     <use xlink:href="#me6d7303e29" x="372.218244" y="283.38497" style="fill-opacity: 0.25"/>
     <use xlink:href="#me6d7303e29" x="406.127203" y="287.762387" style="fill-opacity: 0.25"/>
     <use xlink:href="#me6d7303e29" x="420.443312" y="287.762387" style="fill-opacity: 0.25"/>
     <use xlink:href="#me6d7303e29" x="428.057987" y="267.895648" style="fill-opacity: 0.25"/>
     <use xlink:href="#me6d7303e29" x="342.334738" y="287.425662" style="fill-opacity: 0.25"/>
     <use xlink:href="#me6d7303e29" x="351.710955" y="287.425662" style="fill-opacity: 0.25"/>
     <use xlink:href="#me6d7303e29" x="358.30634" y="284.058419" style="fill-opacity: 0.25"/>
     <use xlink:href="#me6d7303e29" x="332.384498" y="274.96686" style="fill-opacity: 0.25"/>
     <use xlink:href="#me6d7303e29" x="343.033869" y="285.74204" style="fill-opacity: 0.25"/>
     <use xlink:href="#me6d7303e29" x="331.62265" y="286.415489" style="fill-opacity: 0.25"/>
     <use xlink:href="#me6d7303e29" x="321.195931" y="281.027899" style="fill-opacity: 0.25"/>
     <use xlink:href="#me6d7303e29" x="327.546297" y="278.670828" style="fill-opacity: 0.25"/>
     <use xlink:href="#me6d7303e29" x="387.357503" y="281.027899" style="fill-opacity: 0.25"/>
     <use xlink:href="#me6d7303e29" x="419.46129" y="285.405316" style="fill-opacity: 0.25"/>
     <use xlink:href="#me6d7303e29" x="422.40897" y="290.119458" style="fill-opacity: 0.25"/>
     <use xlink:href="#me6d7303e29" x="380.480028" y="289.109284" style="fill-opacity: 0.25"/>
     <use xlink:href="#me6d7303e29" x="334.693069" y="256.110294" style="fill-opacity: 0.25"/>
     <use xlink:href="#me6d7303e29" x="373.184581" y="271.262892" style="fill-opacity: 0.25"/>
     <use xlink:href="#me6d7303e29" x="367.167736" y="272.609789" style="fill-opacity: 0.25"/>
     <use xlink:href="#me6d7303e29" x="422.614664" y="288.435836" style="fill-opacity: 0.25"/>
     <use xlink:href="#me6d7303e29" x="325.277494" y="289.782733" style="fill-opacity: 0.25"/>
     <use xlink:href="#me6d7303e29" x="404.154868" y="289.446009" style="fill-opacity: 0.25"/>
     <use xlink:href="#me6d7303e29" x="357.519304" y="282.374797" style="fill-opacity: 0.25"/>
     <use xlink:href="#me6d7303e29" x="353.629465" y="281.532986" style="fill-opacity: 0.25"/>
     <use xlink:href="#me6d7303e29" x="349.976696" y="287.088938" style="fill-opacity: 0.25"/>
     <use xlink:href="#me6d7303e29" x="373.150884" y="285.068592" style="fill-opacity: 0.25"/>
     <use xlink:href="#me6d7303e29" x="352.17589" y="289.109284" style="fill-opacity: 0.25"/>
     <use xlink:href="#me6d7303e29" x="333.648574" y="281.027899" style="fill-opacity: 0.25"/>
     <use xlink:href="#me6d7303e29" x="348.53253" y="259.814263" style="fill-opacity: 0.25"/>
     <use xlink:href="#me6d7303e29" x="388.456347" y="267.895648" style="fill-opacity: 0.25"/>
     <use xlink:href="#me6d7303e29" x="378.793571" y="276.987206" style="fill-opacity: 0.25"/>
     <use xlink:href="#me6d7303e29" x="337.382721" y="270.926167" style="fill-opacity: 0.25"/>
     <use xlink:href="#me6d7303e29" x="412.746363" y="281.701348" style="fill-opacity: 0.25"/>
     <use xlink:href="#me6d7303e29" x="349.55249" y="184.724724" style="fill-opacity: 0.25"/>
     <use xlink:href="#me6d7303e29" x="325.99724" y="290.456182" style="fill-opacity: 0.25"/>
     <use xlink:href="#me6d7303e29" x="334.179473" y="271.936341" style="fill-opacity: 0.25"/>
     <use xlink:href="#me6d7303e29" x="415.793867" y="288.77256" style="fill-opacity: 0.25"/>
     <use xlink:href="#me6d7303e29" x="375.217364" y="287.088938" style="fill-opacity: 0.25"/>
     <use xlink:href="#me6d7303e29" x="425.672825" y="281.364623" style="fill-opacity: 0.25"/>
     <use xlink:href="#me6d7303e29" x="351.604024" y="288.77256" style="fill-opacity: 0.25"/>
     <use xlink:href="#me6d7303e29" x="348.452092" y="290.119458" style="fill-opacity: 0.25"/>
     <use xlink:href="#me6d7303e29" x="398.994711" y="281.364623" style="fill-opacity: 0.25"/>
     <use xlink:href="#me6d7303e29" x="343.552623" y="288.099111" style="fill-opacity: 0.25"/>
     <use xlink:href="#me6d7303e29" x="346.419067" y="269.915994" style="fill-opacity: 0.25"/>
     <use xlink:href="#me6d7303e29" x="362.218609" y="269.915994" style="fill-opacity: 0.25"/>
     <use xlink:href="#me6d7303e29" x="394.191461" y="290.119458" style="fill-opacity: 0.25"/>
     <use xlink:href="#me6d7303e29" x="402.406231" y="263.854955" style="fill-opacity: 0.25"/>
     <use xlink:href="#me6d7303e29" x="401.238498" y="281.701348" style="fill-opacity: 0.25"/>
     <use xlink:href="#me6d7303e29" x="393.0063" y="281.701348" style="fill-opacity: 0.25"/>
     <use xlink:href="#me6d7303e29" x="355.017757" y="286.415489" style="fill-opacity: 0.25"/>
     <use xlink:href="#me6d7303e29" x="423.158805" y="283.048245" style="fill-opacity: 0.25"/>
     <use xlink:href="#me6d7303e29" x="377.567255" y="284.395143" style="fill-opacity: 0.25"/>
     <use xlink:href="#me6d7303e29" x="409.74174" y="286.078765" style="fill-opacity: 0.25"/>
     <use xlink:href="#me6d7303e29" x="423.064177" y="289.109284" style="fill-opacity: 0.25"/>
     <use xlink:href="#me6d7303e29" x="339.749036" y="241.96787" style="fill-opacity: 0.25"/>
     <use xlink:href="#me6d7303e29" x="417.846716" y="287.425662" style="fill-opacity: 0.25"/>
     <use xlink:href="#me6d7303e29" x="360.126333" y="286.078765" style="fill-opacity: 0.25"/>
     <use xlink:href="#me6d7303e29" x="362.903095" y="282.711521" style="fill-opacity: 0.25"/>
     <use xlink:href="#me6d7303e29" x="402.673562" y="285.068592" style="fill-opacity: 0.25"/>
     <use xlink:href="#me6d7303e29" x="407.513621" y="287.762387" style="fill-opacity: 0.25"/>
     <use xlink:href="#me6d7303e29" x="398.811255" y="281.701348" style="fill-opacity: 0.25"/>
     <use xlink:href="#me6d7303e29" x="333.93966" y="286.752214" style="fill-opacity: 0.25"/>
     <use xlink:href="#me6d7303e29" x="389.418257" y="280.35445" style="fill-opacity: 0.25"/>
     <use xlink:href="#me6d7303e29" x="400.636054" y="273.619963" style="fill-opacity: 0.25"/>
     <use xlink:href="#me6d7303e29" x="342.852934" y="287.088938" style="fill-opacity: 0.25"/>
     <use xlink:href="#me6d7303e29" x="362.375676" y="288.77256" style="fill-opacity: 0.25"/>
     <use xlink:href="#me6d7303e29" x="427.659915" y="283.38497" style="fill-opacity: 0.25"/>
     <use xlink:href="#me6d7303e29" x="385.49978" y="285.068592" style="fill-opacity: 0.25"/>
     <use xlink:href="#me6d7303e29" x="404.695353" y="270.589443" style="fill-opacity: 0.25"/>
     <use xlink:href="#me6d7303e29" x="416.155143" y="288.435836" style="fill-opacity: 0.25"/>
     <use xlink:href="#me6d7303e29" x="401.725009" y="289.446009" style="fill-opacity: 0.25"/>
     <use xlink:href="#me6d7303e29" x="403.361554" y="277.660655" style="fill-opacity: 0.25"/>
     <use xlink:href="#me6d7303e29" x="383.967771" y="285.405316" style="fill-opacity: 0.25"/>
     <use xlink:href="#me6d7303e29" x="398.200594" y="258.130641" style="fill-opacity: 0.25"/>
     <use xlink:href="#me6d7303e29" x="321.249416" y="285.74204" style="fill-opacity: 0.25"/>
     <use xlink:href="#me6d7303e29" x="393.087708" y="253.753224" style="fill-opacity: 0.25"/>
     <use xlink:href="#me6d7303e29" x="413.34459" y="271.936341" style="fill-opacity: 0.25"/>
     <use xlink:href="#me6d7303e29" x="323.285651" y="283.048245" style="fill-opacity: 0.25"/>
     <use xlink:href="#me6d7303e29" x="325.447717" y="289.109284" style="fill-opacity: 0.25"/>
     <use xlink:href="#me6d7303e29" x="325.534546" y="286.078765" style="fill-opacity: 0.25"/>
     <use xlink:href="#me6d7303e29" x="323.133176" y="285.74204" style="fill-opacity: 0.25"/>
     <use xlink:href="#me6d7303e29" x="320.815747" y="277.660655" style="fill-opacity: 0.25"/>
     <use xlink:href="#me6d7303e29" x="351.5959" y="288.435836" style="fill-opacity: 0.25"/>
     <use xlink:href="#me6d7303e29" x="321.950231" y="286.415489" style="fill-opacity: 0.25"/>
     <use xlink:href="#me6d7303e29" x="354.594282" y="289.446009" style="fill-opacity: 0.25"/>
     <use xlink:href="#me6d7303e29" x="366.039777" y="290.792906" style="fill-opacity: 0.25"/>
     <use xlink:href="#me6d7303e29" x="341.413025" y="288.099111" style="fill-opacity: 0.25"/>
     <use xlink:href="#me6d7303e29" x="427.426425" y="288.435836" style="fill-opacity: 0.25"/>
     <use xlink:href="#me6d7303e29" x="346.159005" y="288.435836" style="fill-opacity: 0.25"/>
     <use xlink:href="#me6d7303e29" x="418.158896" y="285.068592" style="fill-opacity: 0.25"/>
     <use xlink:href="#me6d7303e29" x="328.88933" y="288.099111" style="fill-opacity: 0.25"/>
     <use xlink:href="#me6d7303e29" x="333.359282" y="251.396153" style="fill-opacity: 0.25"/>
     <use xlink:href="#me6d7303e29" x="422.924015" y="288.77256" style="fill-opacity: 0.25"/>
     <use xlink:href="#me6d7303e29" x="340.58572" y="284.058419" style="fill-opacity: 0.25"/>
     <use xlink:href="#me6d7303e29" x="328.984781" y="284.058419" style="fill-opacity: 0.25"/>
     <use xlink:href="#me6d7303e29" x="377.45817" y="279.007553" style="fill-opacity: 0.25"/>
     <use xlink:href="#me6d7303e29" x="406.755329" y="274.630136" style="fill-opacity: 0.25"/>
     <use xlink:href="#me6d7303e29" x="378.93886" y="273.619963" style="fill-opacity: 0.25"/>
     <use xlink:href="#me6d7303e29" x="355.531945" y="287.762387" style="fill-opacity: 0.25"/>
     <use xlink:href="#me6d7303e29" x="365.88169" y="261.497885" style="fill-opacity: 0.25"/>
     <use xlink:href="#me6d7303e29" x="321.581418" y="290.456182" style="fill-opacity: 0.25"/>
     <use xlink:href="#me6d7303e29" x="399.287287" y="246.008563" style="fill-opacity: 0.25"/>
     <use xlink:href="#me6d7303e29" x="353.439089" y="274.630136" style="fill-opacity: 0.25"/>
     <use xlink:href="#me6d7303e29" x="376.302902" y="235.570107" style="fill-opacity: 0.25"/>
     <use xlink:href="#me6d7303e29" x="337.843667" y="288.099111" style="fill-opacity: 0.25"/>
     <use xlink:href="#me6d7303e29" x="337.268061" y="283.048245" style="fill-opacity: 0.25"/>
     <use xlink:href="#me6d7303e29" x="351.410919" y="279.007553" style="fill-opacity: 0.25"/>
     <use xlink:href="#me6d7303e29" x="342.657007" y="287.088938" style="fill-opacity: 0.25"/>
     <use xlink:href="#me6d7303e29" x="419.598468" y="283.048245" style="fill-opacity: 0.25"/>
     <use xlink:href="#me6d7303e29" x="402.945908" y="288.435836" style="fill-opacity: 0.25"/>
     <use xlink:href="#me6d7303e29" x="420.689306" y="272.273065" style="fill-opacity: 0.25"/>
     <use xlink:href="#me6d7303e29" x="383.757998" y="268.569097" style="fill-opacity: 0.25"/>
     <use xlink:href="#me6d7303e29" x="371.810474" y="231.866139" style="fill-opacity: 0.25"/>
     <use xlink:href="#me6d7303e29" x="324.105276" y="284.731867" style="fill-opacity: 0.25"/>
     <use xlink:href="#me6d7303e29" x="372.036451" y="248.702358" style="fill-opacity: 0.25"/>
     <use xlink:href="#me6d7303e29" x="381.434478" y="289.109284" style="fill-opacity: 0.25"/>
     <use xlink:href="#me6d7303e29" x="360.165624" y="286.752214" style="fill-opacity: 0.25"/>
     <use xlink:href="#me6d7303e29" x="368.882529" y="130.512098" style="fill-opacity: 0.25"/>
     <use xlink:href="#me6d7303e29" x="332.639871" y="289.109284" style="fill-opacity: 0.25"/>
     <use xlink:href="#me6d7303e29" x="336.379021" y="289.446009" style="fill-opacity: 0.25"/>
     <use xlink:href="#me6d7303e29" x="383.175168" y="286.752214" style="fill-opacity: 0.25"/>
     <use xlink:href="#me6d7303e29" x="381.753961" y="289.782733" style="fill-opacity: 0.25"/>
     <use xlink:href="#me6d7303e29" x="359.409855" y="244.661665" style="fill-opacity: 0.25"/>
     <use xlink:href="#me6d7303e29" x="388.689687" y="237.253729" style="fill-opacity: 0.25"/>
     <use xlink:href="#me6d7303e29" x="408.048126" y="286.415489" style="fill-opacity: 0.25"/>
     <use xlink:href="#me6d7303e29" x="402.016396" y="281.364623" style="fill-opacity: 0.25"/>
     <use xlink:href="#me6d7303e29" x="338.695617" y="286.752214" style="fill-opacity: 0.25"/>
     <use xlink:href="#me6d7303e29" x="411.69704" y="287.425662" style="fill-opacity: 0.25"/>
     <use xlink:href="#me6d7303e29" x="325.999054" y="288.099111" style="fill-opacity: 0.25"/>
     <use xlink:href="#me6d7303e29" x="344.494906" y="285.405316" style="fill-opacity: 0.25"/>
     <use xlink:href="#me6d7303e29" x="396.585755" y="287.425662" style="fill-opacity: 0.25"/>
     <use xlink:href="#me6d7303e29" x="346.719354" y="285.74204" style="fill-opacity: 0.25"/>
     <use xlink:href="#me6d7303e29" x="334.33055" y="289.782733" style="fill-opacity: 0.25"/>
     <use xlink:href="#me6d7303e29" x="404.199976" y="279.344277" style="fill-opacity: 0.25"/>
     <use xlink:href="#me6d7303e29" x="423.578497" y="289.446009" style="fill-opacity: 0.25"/>
     <use xlink:href="#me6d7303e29" x="334.592138" y="287.425662" style="fill-opacity: 0.25"/>
     <use xlink:href="#me6d7303e29" x="367.383617" y="283.048245" style="fill-opacity: 0.25"/>
     <use xlink:href="#me6d7303e29" x="422.261279" y="286.752214" style="fill-opacity: 0.25"/>
     <use xlink:href="#me6d7303e29" x="349.857671" y="283.721694" style="fill-opacity: 0.25"/>
     <use xlink:href="#me6d7303e29" x="347.728946" y="282.711521" style="fill-opacity: 0.25"/>
     <use xlink:href="#me6d7303e29" x="424.264746" y="267.895648" style="fill-opacity: 0.25"/>
     <use xlink:href="#me6d7303e29" x="386.421285" y="267.222199" style="fill-opacity: 0.25"/>
     <use xlink:href="#me6d7303e29" x="332.172077" y="285.068592" style="fill-opacity: 0.25"/>
     <use xlink:href="#me6d7303e29" x="341.294886" y="286.752214" style="fill-opacity: 0.25"/>
     <use xlink:href="#me6d7303e29" x="375.387376" y="284.058419" style="fill-opacity: 0.25"/>
     <use xlink:href="#me6d7303e29" x="385.73401" y="283.38497" style="fill-opacity: 0.25"/>
     <use xlink:href="#me6d7303e29" x="366.695156" y="284.731867" style="fill-opacity: 0.25"/>
     <use xlink:href="#me6d7303e29" x="410.177227" y="286.078765" style="fill-opacity: 0.25"/>
     <use xlink:href="#me6d7303e29" x="342.059046" y="285.068592" style="fill-opacity: 0.25"/>
     <use xlink:href="#me6d7303e29" x="323.525704" y="289.782733" style="fill-opacity: 0.25"/>
     <use xlink:href="#me6d7303e29" x="385.158716" y="270.589443" style="fill-opacity: 0.25"/>
     <use xlink:href="#me6d7303e29" x="406.19907" y="281.364623" style="fill-opacity: 0.25"/>
     <use xlink:href="#me6d7303e29" x="382.179094" y="290.456182" style="fill-opacity: 0.25"/>
     <use xlink:href="#me6d7303e29" x="355.011707" y="289.109284" style="fill-opacity: 0.25"/>
     <use xlink:href="#me6d7303e29" x="355.914741" y="290.119458" style="fill-opacity: 0.25"/>
     <use xlink:href="#me6d7303e29" x="427.307277" y="284.058419" style="fill-opacity: 0.25"/>
     <use xlink:href="#me6d7303e29" x="361.62014" y="277.99738" style="fill-opacity: 0.25"/>
     <use xlink:href="#me6d7303e29" x="383.498096" y="289.109284" style="fill-opacity: 0.25"/>
     <use xlink:href="#me6d7303e29" x="388.941527" y="272.273065" style="fill-opacity: 0.25"/>
     <use xlink:href="#me6d7303e29" x="363.956974" y="289.446009" style="fill-opacity: 0.25"/>
     <use xlink:href="#me6d7303e29" x="374.486434" y="231.529414" style="fill-opacity: 0.25"/>
     <use xlink:href="#me6d7303e29" x="369.756537" y="288.435836" style="fill-opacity: 0.25"/>
     <use xlink:href="#me6d7303e29" x="377.406722" y="281.364623" style="fill-opacity: 0.25"/>
     <use xlink:href="#me6d7303e29" x="334.661964" y="252.743051" style="fill-opacity: 0.25"/>
     <use xlink:href="#me6d7303e29" x="425.857648" y="261.16116" style="fill-opacity: 0.25"/>
     <use xlink:href="#me6d7303e29" x="405.707593" y="281.701348" style="fill-opacity: 0.25"/>
     <use xlink:href="#me6d7303e29" x="352.05435" y="287.425662" style="fill-opacity: 0.25"/>
     <use xlink:href="#me6d7303e29" x="421.345189" y="282.374797" style="fill-opacity: 0.25"/>
     <use xlink:href="#me6d7303e29" x="428.499489" y="267.895648" style="fill-opacity: 0.25"/>
     <use xlink:href="#me6d7303e29" x="427.279297" y="282.711521" style="fill-opacity: 0.25"/>
     <use xlink:href="#me6d7303e29" x="352.986621" y="269.57927" style="fill-opacity: 0.25"/>
     <use xlink:href="#me6d7303e29" x="367.457025" y="247.018736" style="fill-opacity: 0.25"/>
     <use xlink:href="#me6d7303e29" x="355.621563" y="285.405316" style="fill-opacity: 0.25"/>
     <use xlink:href="#me6d7303e29" x="362.650117" y="279.344277" style="fill-opacity: 0.25"/>
     <use xlink:href="#me6d7303e29" x="360.867139" y="285.068592" style="fill-opacity: 0.25"/>
     <use xlink:href="#me6d7303e29" x="362.39418" y="287.425662" style="fill-opacity: 0.25"/>
     <use xlink:href="#me6d7303e29" x="328.483146" y="249.375807" style="fill-opacity: 0.25"/>
     <use xlink:href="#me6d7303e29" x="353.794951" y="288.435836" style="fill-opacity: 0.25"/>
     <use xlink:href="#me6d7303e29" x="330.010333" y="252.406326" style="fill-opacity: 0.25"/>
     <use xlink:href="#me6d7303e29" x="333.326957" y="279.344277" style="fill-opacity: 0.25"/>
     <use xlink:href="#me6d7303e29" x="326.697697" y="289.109284" style="fill-opacity: 0.25"/>
     <use xlink:href="#me6d7303e29" x="345.074634" y="286.415489" style="fill-opacity: 0.25"/>
     <use xlink:href="#me6d7303e29" x="369.782881" y="289.782733" style="fill-opacity: 0.25"/>
     <use xlink:href="#me6d7303e29" x="342.42405" y="284.058419" style="fill-opacity: 0.25"/>
     <use xlink:href="#me6d7303e29" x="337.328479" y="286.752214" style="fill-opacity: 0.25"/>
     <use xlink:href="#me6d7303e29" x="384.759844" y="286.415489" style="fill-opacity: 0.25"/>
     <use xlink:href="#me6d7303e29" x="423.833312" y="288.099111" style="fill-opacity: 0.25"/>
     <use xlink:href="#me6d7303e29" x="365.126441" y="285.068592" style="fill-opacity: 0.25"/>
     <use xlink:href="#me6d7303e29" x="328.421234" y="283.38497" style="fill-opacity: 0.25"/>
     <use xlink:href="#me6d7303e29" x="387.327596" y="268.232372" style="fill-opacity: 0.25"/>
     <use xlink:href="#me6d7303e29" x="421.710029" y="287.088938" style="fill-opacity: 0.25"/>
     <use xlink:href="#me6d7303e29" x="353.707249" y="284.058419" style="fill-opacity: 0.25"/>
     <use xlink:href="#me6d7303e29" x="358.61624" y="252.069602" style="fill-opacity: 0.25"/>
     <use xlink:href="#me6d7303e29" x="415.410837" y="286.752214" style="fill-opacity: 0.25"/>
     <use xlink:href="#me6d7303e29" x="334.113664" y="283.048245" style="fill-opacity: 0.25"/>
     <use xlink:href="#me6d7303e29" x="352.19155" y="287.088938" style="fill-opacity: 0.25"/>
     <use xlink:href="#me6d7303e29" x="324.472923" y="288.099111" style="fill-opacity: 0.25"/>
     <use xlink:href="#me6d7303e29" x="395.507773" y="284.731867" style="fill-opacity: 0.25"/>
     <use xlink:href="#me6d7303e29" x="364.523" y="285.74204" style="fill-opacity: 0.25"/>
     <use xlink:href="#me6d7303e29" x="348.406282" y="285.068592" style="fill-opacity: 0.25"/>
     <use xlink:href="#me6d7303e29" x="412.75212" y="247.35546" style="fill-opacity: 0.25"/>
     <use xlink:href="#me6d7303e29" x="394.772773" y="287.088938" style="fill-opacity: 0.25"/>
     <use xlink:href="#me6d7303e29" x="372.735445" y="287.762387" style="fill-opacity: 0.25"/>
     <use xlink:href="#me6d7303e29" x="393.703211" y="287.425662" style="fill-opacity: 0.25"/>
     <use xlink:href="#me6d7303e29" x="324.953818" y="271.262892" style="fill-opacity: 0.25"/>
     <use xlink:href="#me6d7303e29" x="340.815149" y="284.395143" style="fill-opacity: 0.25"/>
     <use xlink:href="#me6d7303e29" x="339.182965" y="283.048245" style="fill-opacity: 0.25"/>
     <use xlink:href="#me6d7303e29" x="331.739711" y="274.630136" style="fill-opacity: 0.25"/>
     <use xlink:href="#me6d7303e29" x="338.126645" y="241.294421" style="fill-opacity: 0.25"/>
     <use xlink:href="#me6d7303e29" x="387.036034" y="288.435836" style="fill-opacity: 0.25"/>
     <use xlink:href="#me6d7303e29" x="366.345205" y="286.752214" style="fill-opacity: 0.25"/>
     <use xlink:href="#me6d7303e29" x="336.779435" y="247.692185" style="fill-opacity: 0.25"/>
    </g>
   </g>
   <g id="text_13">
    <!-- Serum Creatinine by Class -->
    <g style="fill: #262626" transform="translate(161.230156 17.837812) scale(0.14 -0.14)">
     <defs>
      <path id="DejaVuSans-Bold-53" d="M 3834 4519 
L 3834 3531 
Q 3450 3703 3084 3790 
Q 2719 3878 2394 3878 
Q 1963 3878 1756 3759 
Q 1550 3641 1550 3391 
Q 1550 3203 1689 3098 
Q 1828 2994 2194 2919 
L 2706 2816 
Q 3484 2659 3812 2340 
Q 4141 2022 4141 1434 
Q 4141 663 3683 286 
Q 3225 -91 2284 -91 
Q 1841 -91 1394 -6 
Q 947 78 500 244 
L 500 1259 
Q 947 1022 1364 901 
Q 1781 781 2169 781 
Q 2563 781 2772 912 
Q 2981 1044 2981 1288 
Q 2981 1506 2839 1625 
Q 2697 1744 2272 1838 
L 1806 1941 
Q 1106 2091 782 2419 
Q 459 2747 459 3303 
Q 459 4000 909 4375 
Q 1359 4750 2203 4750 
Q 2588 4750 2994 4692 
Q 3400 4634 3834 4519 
z
" transform="scale(0.015625)"/>
      <path id="DejaVuSans-Bold-65" d="M 4031 1759 
L 4031 1441 
L 1416 1441 
Q 1456 1047 1700 850 
Q 1944 653 2381 653 
Q 2734 653 3104 758 
Q 3475 863 3866 1075 
L 3866 213 
Q 3469 63 3072 -14 
Q 2675 -91 2278 -91 
Q 1328 -91 801 392 
Q 275 875 275 1747 
Q 275 2603 792 3093 
Q 1309 3584 2216 3584 
Q 3041 3584 3536 3087 
Q 4031 2591 4031 1759 
z
M 2881 2131 
Q 2881 2450 2695 2645 
Q 2509 2841 2209 2841 
Q 1884 2841 1681 2658 
Q 1478 2475 1428 2131 
L 2881 2131 
z
" transform="scale(0.015625)"/>
      <path id="DejaVuSans-Bold-72" d="M 3138 2547 
Q 2991 2616 2845 2648 
Q 2700 2681 2553 2681 
Q 2122 2681 1889 2404 
Q 1656 2128 1656 1613 
L 1656 0 
L 538 0 
L 538 3500 
L 1656 3500 
L 1656 2925 
Q 1872 3269 2151 3426 
Q 2431 3584 2822 3584 
Q 2878 3584 2943 3579 
Q 3009 3575 3134 3559 
L 3138 2547 
z
" transform="scale(0.015625)"/>
      <path id="DejaVuSans-Bold-75" d="M 500 1363 
L 500 3500 
L 1625 3500 
L 1625 3150 
Q 1625 2866 1622 2436 
Q 1619 2006 1619 1863 
Q 1619 1441 1641 1255 
Q 1663 1069 1716 984 
Q 1784 875 1895 815 
Q 2006 756 2150 756 
Q 2500 756 2700 1025 
Q 2900 1294 2900 1772 
L 2900 3500 
L 4019 3500 
L 4019 0 
L 2900 0 
L 2900 506 
Q 2647 200 2364 54 
Q 2081 -91 1741 -91 
Q 1134 -91 817 281 
Q 500 653 500 1363 
z
" transform="scale(0.015625)"/>
      <path id="DejaVuSans-Bold-6d" d="M 3781 2919 
Q 3994 3244 4286 3414 
Q 4578 3584 4928 3584 
Q 5531 3584 5847 3212 
Q 6163 2841 6163 2131 
L 6163 0 
L 5038 0 
L 5038 1825 
Q 5041 1866 5042 1909 
Q 5044 1953 5044 2034 
Q 5044 2406 4934 2573 
Q 4825 2741 4581 2741 
Q 4263 2741 4089 2478 
Q 3916 2216 3909 1719 
L 3909 0 
L 2784 0 
L 2784 1825 
Q 2784 2406 2684 2573 
Q 2584 2741 2328 2741 
Q 2006 2741 1831 2477 
Q 1656 2213 1656 1722 
L 1656 0 
L 531 0 
L 531 3500 
L 1656 3500 
L 1656 2988 
Q 1863 3284 2130 3434 
Q 2397 3584 2719 3584 
Q 3081 3584 3359 3409 
Q 3638 3234 3781 2919 
z
" transform="scale(0.015625)"/>
      <path id="DejaVuSans-Bold-20" transform="scale(0.015625)"/>
      <path id="DejaVuSans-Bold-43" d="M 4288 256 
Q 3956 84 3597 -3 
Q 3238 -91 2847 -91 
Q 1681 -91 1000 561 
Q 319 1213 319 2328 
Q 319 3447 1000 4098 
Q 1681 4750 2847 4750 
Q 3238 4750 3597 4662 
Q 3956 4575 4288 4403 
L 4288 3438 
Q 3953 3666 3628 3772 
Q 3303 3878 2944 3878 
Q 2300 3878 1931 3465 
Q 1563 3053 1563 2328 
Q 1563 1606 1931 1193 
Q 2300 781 2944 781 
Q 3303 781 3628 887 
Q 3953 994 4288 1222 
L 4288 256 
z
" transform="scale(0.015625)"/>
      <path id="DejaVuSans-Bold-61" d="M 2106 1575 
Q 1756 1575 1579 1456 
Q 1403 1338 1403 1106 
Q 1403 894 1545 773 
Q 1688 653 1941 653 
Q 2256 653 2472 879 
Q 2688 1106 2688 1447 
L 2688 1575 
L 2106 1575 
z
M 3816 1997 
L 3816 0 
L 2688 0 
L 2688 519 
Q 2463 200 2181 54 
Q 1900 -91 1497 -91 
Q 953 -91 614 226 
Q 275 544 275 1050 
Q 275 1666 698 1953 
Q 1122 2241 2028 2241 
L 2688 2241 
L 2688 2328 
Q 2688 2594 2478 2717 
Q 2269 2841 1825 2841 
Q 1466 2841 1156 2769 
Q 847 2697 581 2553 
L 581 3406 
Q 941 3494 1303 3539 
Q 1666 3584 2028 3584 
Q 2975 3584 3395 3211 
Q 3816 2838 3816 1997 
z
" transform="scale(0.015625)"/>
      <path id="DejaVuSans-Bold-74" d="M 1759 4494 
L 1759 3500 
L 2913 3500 
L 2913 2700 
L 1759 2700 
L 1759 1216 
Q 1759 972 1856 886 
Q 1953 800 2241 800 
L 2816 800 
L 2816 0 
L 1856 0 
Q 1194 0 917 276 
Q 641 553 641 1216 
L 641 2700 
L 84 2700 
L 84 3500 
L 641 3500 
L 641 4494 
L 1759 4494 
z
" transform="scale(0.015625)"/>
      <path id="DejaVuSans-Bold-69" d="M 538 3500 
L 1656 3500 
L 1656 0 
L 538 0 
L 538 3500 
z
M 538 4863 
L 1656 4863 
L 1656 3950 
L 538 3950 
L 538 4863 
z
" transform="scale(0.015625)"/>
      <path id="DejaVuSans-Bold-6e" d="M 4056 2131 
L 4056 0 
L 2931 0 
L 2931 347 
L 2931 1631 
Q 2931 2084 2911 2256 
Q 2891 2428 2841 2509 
Q 2775 2619 2662 2680 
Q 2550 2741 2406 2741 
Q 2056 2741 1856 2470 
Q 1656 2200 1656 1722 
L 1656 0 
L 538 0 
L 538 3500 
L 1656 3500 
L 1656 2988 
Q 1909 3294 2193 3439 
Q 2478 3584 2822 3584 
Q 3428 3584 3742 3212 
Q 4056 2841 4056 2131 
z
" transform="scale(0.015625)"/>
      <path id="DejaVuSans-Bold-62" d="M 2400 722 
Q 2759 722 2948 984 
Q 3138 1247 3138 1747 
Q 3138 2247 2948 2509 
Q 2759 2772 2400 2772 
Q 2041 2772 1848 2508 
Q 1656 2244 1656 1747 
Q 1656 1250 1848 986 
Q 2041 722 2400 722 
z
M 1656 2988 
Q 1888 3294 2169 3439 
Q 2450 3584 2816 3584 
Q 3463 3584 3878 3070 
Q 4294 2556 4294 1747 
Q 4294 938 3878 423 
Q 3463 -91 2816 -91 
Q 2450 -91 2169 54 
Q 1888 200 1656 506 
L 1656 0 
L 538 0 
L 538 4863 
L 1656 4863 
L 1656 2988 
z
" transform="scale(0.015625)"/>
      <path id="DejaVuSans-Bold-79" d="M 78 3500 
L 1197 3500 
L 2138 1125 
L 2938 3500 
L 4056 3500 
L 2584 -331 
Q 2363 -916 2067 -1148 
Q 1772 -1381 1288 -1381 
L 641 -1381 
L 641 -647 
L 991 -647 
Q 1275 -647 1404 -556 
Q 1534 -466 1606 -231 
L 1638 -134 
L 78 3500 
z
" transform="scale(0.015625)"/>
      <path id="DejaVuSans-Bold-6c" d="M 538 4863 
L 1656 4863 
L 1656 0 
L 538 0 
L 538 4863 
z
" transform="scale(0.015625)"/>
      <path id="DejaVuSans-Bold-73" d="M 3272 3391 
L 3272 2541 
Q 2913 2691 2578 2766 
Q 2244 2841 1947 2841 
Q 1628 2841 1473 2761 
Q 1319 2681 1319 2516 
Q 1319 2381 1436 2309 
Q 1553 2238 1856 2203 
L 2053 2175 
Q 2913 2066 3209 1816 
Q 3506 1566 3506 1031 
Q 3506 472 3093 190 
Q 2681 -91 1863 -91 
Q 1516 -91 1145 -36 
Q 775 19 384 128 
L 384 978 
Q 719 816 1070 734 
Q 1422 653 1784 653 
Q 2113 653 2278 743 
Q 2444 834 2444 1013 
Q 2444 1163 2330 1236 
Q 2216 1309 1875 1350 
L 1678 1375 
Q 931 1469 631 1722 
Q 331 1975 331 2491 
Q 331 3047 712 3315 
Q 1094 3584 1881 3584 
Q 2191 3584 2531 3537 
Q 2872 3491 3272 3391 
z
" transform="scale(0.015625)"/>
     </defs>
     <use xlink:href="#DejaVuSans-Bold-53"/>
     <use xlink:href="#DejaVuSans-Bold-65" transform="translate(72.021484 0)"/>
     <use xlink:href="#DejaVuSans-Bold-72" transform="translate(139.84375 0)"/>
     <use xlink:href="#DejaVuSans-Bold-75" transform="translate(189.160156 0)"/>
     <use xlink:href="#DejaVuSans-Bold-6d" transform="translate(260.351562 0)"/>
     <use xlink:href="#DejaVuSans-Bold-20" transform="translate(364.550781 0)"/>
     <use xlink:href="#DejaVuSans-Bold-43" transform="translate(399.365234 0)"/>
     <use xlink:href="#DejaVuSans-Bold-72" transform="translate(472.753906 0)"/>
     <use xlink:href="#DejaVuSans-Bold-65" transform="translate(522.070312 0)"/>
     <use xlink:href="#DejaVuSans-Bold-61" transform="translate(589.892578 0)"/>
     <use xlink:href="#DejaVuSans-Bold-74" transform="translate(657.373047 0)"/>
     <use xlink:href="#DejaVuSans-Bold-69" transform="translate(705.175781 0)"/>
     <use xlink:href="#DejaVuSans-Bold-6e" transform="translate(739.453125 0)"/>
     <use xlink:href="#DejaVuSans-Bold-69" transform="translate(810.644531 0)"/>
     <use xlink:href="#DejaVuSans-Bold-6e" transform="translate(844.921875 0)"/>
     <use xlink:href="#DejaVuSans-Bold-65" transform="translate(916.113281 0)"/>
     <use xlink:href="#DejaVuSans-Bold-20" transform="translate(983.935547 0)"/>
     <use xlink:href="#DejaVuSans-Bold-62" transform="translate(1018.75 0)"/>
     <use xlink:href="#DejaVuSans-Bold-79" transform="translate(1090.332031 0)"/>
     <use xlink:href="#DejaVuSans-Bold-20" transform="translate(1155.517578 0)"/>
     <use xlink:href="#DejaVuSans-Bold-43" transform="translate(1190.332031 0)"/>
     <use xlink:href="#DejaVuSans-Bold-6c" transform="translate(1263.720703 0)"/>
     <use xlink:href="#DejaVuSans-Bold-61" transform="translate(1297.998047 0)"/>
     <use xlink:href="#DejaVuSans-Bold-73" transform="translate(1365.478516 0)"/>
     <use xlink:href="#DejaVuSans-Bold-73" transform="translate(1425 0)"/>
    </g>
   </g>
  </g>
 </g>
 <defs>
  <clipPath id="p3b28b8c14a">
   <rect x="46.31125" y="23.837812" width="437.67" height="280.02"/>
  </clipPath>
 </defs>
</svg>
