<?xml version="1.0" encoding="utf-8" standalone="no"?>
<!DOCTYPE svg PUBLIC "-//W3C//DTD SVG 1.1//EN"
  "http://www.w3.org/Graphics/SVG/1.1/DTD/svg11.dtd">
<svg xmlns:xlink="http://www.w3.org/1999/xlink" width="1571.066789pt" height="514.484672pt" viewBox="0 0 1571.066789 514.484672" xmlns="http://www.w3.org/2000/svg" version="1.1">
 <metadata>
  <rdf:RDF xmlns:dc="http://purl.org/dc/elements/1.1/" xmlns:cc="http://creativecommons.org/ns#" xmlns:rdf="http://www.w3.org/1999/02/22-rdf-syntax-ns#">
   <cc:Work>
    <dc:type rdf:resource="http://purl.org/dc/dcmitype/StillImage"/>
    <dc:date>2026-03-09T02:34:44.955170</dc:date>
    <dc:format>image/svg+xml</dc:format>
    <dc:creator>
     <cc:Agent>
      <dc:title>Matplotlib v3.10.0, https://matplotlib.org/</dc:title>
     </cc:Agent>
    </dc:creator>
   </cc:Work>
  </rdf:RDF>
 </metadata>
 <defs>
  <style type="text/css">*{stroke-linejoin: round; stroke-linecap: butt}</style>
 </defs>
 <g id="figure_1">
  <g id="patch_1">
   <path d="M 0 514.484672 
L 1571.066789 514.484672 
L 1571.066789 0 
L 0 0 
z
" style="fill: #ffffff"/>
  </g>
  <g id="axes_1">
   <g id="patch_2">
    <path d="M 105.322789 470.412 
L 524.368128 470.412 
L 524.368128 89.952 
L 105.322789 89.952 
z
" style="fill: #ffffff"/>
   </g>
   <g id="matplotlib.axis_1">
    <g id="xtick_1">
     <g id="line2d_1">
      <path d="M 105.322789 470.412 
L 105.322789 89.952 
" clip-path="url(#pe7d515d54f)" style="fill: none; stroke: #cccccc; stroke-linecap: round"/>
     </g>
     <g id="text_1">
      <!-- 0.0 -->
      <g style="fill: #262626" transform="translate(96.138734 488.688195) scale(0.1155 -0.1155)">
       <defs>
        <path id="DejaVuSans-30" d="M 2034 4250 
Q 1547 4250 1301 3770 
Q 1056 3291 1056 2328 
Q 1056 1369 1301 889 
Q 1547 409 2034 409 
Q 2525 409 2770 889 
Q 3016 1369 3016 2328 
Q 3016 3291 2770 3770 
Q 2525 4250 2034 4250 
z
M 2034 4750 
Q 2819 4750 3233 4129 
Q 3647 3509 3647 2328 
Q 3647 1150 3233 529 
Q 2819 -91 2034 -91 
Q 1250 -91 836 529 
Q 422 1150 422 2328 
Q 422 3509 836 4129 
Q 1250 4750 2034 4750 
z
" transform="scale(0.015625)"/>
        <path id="DejaVuSans-2e" d="M 684 794 
L 1344 794 
L 1344 0 
L 684 0 
L 684 794 
z
" transform="scale(0.015625)"/>
       </defs>
       <use xlink:href="#DejaVuSans-30"/>
       <use xlink:href="#DejaVuSans-2e" transform="translate(63.623047 0)"/>
       <use xlink:href="#DejaVuSans-30" transform="translate(95.410156 0)"/>
      </g>
     </g>
    </g>
    <g id="xtick_2">
     <g id="line2d_2">
      <path d="M 164.15198 470.412 
L 164.15198 89.952 
" clip-path="url(#pe7d515d54f)" style="fill: none; stroke: #cccccc; stroke-linecap: round"/>
     </g>
     <g id="text_2">
      <!-- 0.1 -->
      <g style="fill: #262626" transform="translate(154.967925 488.688195) scale(0.1155 -0.1155)">
       <defs>
        <path id="DejaVuSans-31" d="M 794 531 
L 1825 531 
L 1825 4091 
L 703 3866 
L 703 4441 
L 1819 4666 
L 2450 4666 
L 2450 531 
L 3481 531 
L 3481 0 
L 794 0 
L 794 531 
z
" transform="scale(0.015625)"/>
       </defs>
       <use xlink:href="#DejaVuSans-30"/>
       <use xlink:href="#DejaVuSans-2e" transform="translate(63.623047 0)"/>
       <use xlink:href="#DejaVuSans-31" transform="translate(95.410156 0)"/>
      </g>
     </g>
    </g>
    <g id="xtick_3">
     <g id="line2d_3">
      <path d="M 222.981171 470.412 
L 222.981171 89.952 
" clip-path="url(#pe7d515d54f)" style="fill: none; stroke: #cccccc; stroke-linecap: round"/>
     </g>
     <g id="text_3">
      <!-- 0.2 -->
      <g style="fill: #262626" transform="translate(213.797117 488.688195) scale(0.1155 -0.1155)">
       <defs>
        <path id="DejaVuSans-32" d="M 1228 531 
L 3431 531 
L 3431 0 
L 469 0 
L 469 531 
Q 828 903 1448 1529 
Q 2069 2156 2228 2338 
Q 2531 2678 2651 2914 
Q 2772 3150 2772 3378 
Q 2772 3750 2511 3984 
Q 2250 4219 1831 4219 
Q 1534 4219 1204 4116 
Q 875 4013 500 3803 
L 500 4441 
Q 881 4594 1212 4672 
Q 1544 4750 1819 4750 
Q 2544 4750 2975 4387 
Q 3406 4025 3406 3419 
Q 3406 3131 3298 2873 
Q 3191 2616 2906 2266 
Q 2828 2175 2409 1742 
Q 1991 1309 1228 531 
z
" transform="scale(0.015625)"/>
       </defs>
       <use xlink:href="#DejaVuSans-30"/>
       <use xlink:href="#DejaVuSans-2e" transform="translate(63.623047 0)"/>
       <use xlink:href="#DejaVuSans-32" transform="translate(95.410156 0)"/>
      </g>
     </g>
    </g>
    <g id="xtick_4">
     <g id="line2d_4">
      <path d="M 281.810362 470.412 
L 281.810362 89.952 
" clip-path="url(#pe7d515d54f)" style="fill: none; stroke: #cccccc; stroke-linecap: round"/>
     </g>
     <g id="text_4">
      <!-- 0.3 -->
      <g style="fill: #262626" transform="translate(272.626308 488.688195) scale(0.1155 -0.1155)">
       <defs>
        <path id="DejaVuSans-33" d="M 2597 2516 
Q 3050 2419 3304 2112 
Q 3559 1806 3559 1356 
Q 3559 666 3084 287 
Q 2609 -91 1734 -91 
Q 1441 -91 1130 -33 
Q 819 25 488 141 
L 488 750 
Q 750 597 1062 519 
Q 1375 441 1716 441 
Q 2309 441 2620 675 
Q 2931 909 2931 1356 
Q 2931 1769 2642 2001 
Q 2353 2234 1838 2234 
L 1294 2234 
L 1294 2753 
L 1863 2753 
Q 2328 2753 2575 2939 
Q 2822 3125 2822 3475 
Q 2822 3834 2567 4026 
Q 2313 4219 1838 4219 
Q 1578 4219 1281 4162 
Q 984 4106 628 3988 
L 628 4550 
Q 988 4650 1302 4700 
Q 1616 4750 1894 4750 
Q 2613 4750 3031 4423 
Q 3450 4097 3450 3541 
Q 3450 3153 3228 2886 
Q 3006 2619 2597 2516 
z
" transform="scale(0.015625)"/>
       </defs>
       <use xlink:href="#DejaVuSans-30"/>
       <use xlink:href="#DejaVuSans-2e" transform="translate(63.623047 0)"/>
       <use xlink:href="#DejaVuSans-33" transform="translate(95.410156 0)"/>
      </g>
     </g>
    </g>
    <g id="xtick_5">
     <g id="line2d_5">
      <path d="M 340.639554 470.412 
L 340.639554 89.952 
" clip-path="url(#pe7d515d54f)" style="fill: none; stroke: #cccccc; stroke-linecap: round"/>
     </g>
     <g id="text_5">
      <!-- 0.4 -->
      <g style="fill: #262626" transform="translate(331.455499 488.688195) scale(0.1155 -0.1155)">
       <defs>
        <path id="DejaVuSans-34" d="M 2419 4116 
L 825 1625 
L 2419 1625 
L 2419 4116 
z
M 2253 4666 
L 3047 4666 
L 3047 1625 
L 3713 1625 
L 3713 1100 
L 3047 1100 
L 3047 0 
L 2419 0 
L 2419 1100 
L 313 1100 
L 313 1709 
L 2253 4666 
z
" transform="scale(0.015625)"/>
       </defs>
       <use xlink:href="#DejaVuSans-30"/>
       <use xlink:href="#DejaVuSans-2e" transform="translate(63.623047 0)"/>
       <use xlink:href="#DejaVuSans-34" transform="translate(95.410156 0)"/>
      </g>
     </g>
    </g>
    <g id="xtick_6">
     <g id="line2d_6">
      <path d="M 399.468745 470.412 
L 399.468745 89.952 
" clip-path="url(#pe7d515d54f)" style="fill: none; stroke: #cccccc; stroke-linecap: round"/>
     </g>
     <g id="text_6">
      <!-- 0.5 -->
      <g style="fill: #262626" transform="translate(390.28469 488.688195) scale(0.1155 -0.1155)">
       <defs>
        <path id="DejaVuSans-35" d="M 691 4666 
L 3169 4666 
L 3169 4134 
L 1269 4134 
L 1269 2991 
Q 1406 3038 1543 3061 
Q 1681 3084 1819 3084 
Q 2600 3084 3056 2656 
Q 3513 2228 3513 1497 
Q 3513 744 3044 326 
Q 2575 -91 1722 -91 
Q 1428 -91 1123 -41 
Q 819 9 494 109 
L 494 744 
Q 775 591 1075 516 
Q 1375 441 1709 441 
Q 2250 441 2565 725 
Q 2881 1009 2881 1497 
Q 2881 1984 2565 2268 
Q 2250 2553 1709 2553 
Q 1456 2553 1204 2497 
Q 953 2441 691 2322 
L 691 4666 
z
" transform="scale(0.015625)"/>
       </defs>
       <use xlink:href="#DejaVuSans-30"/>
       <use xlink:href="#DejaVuSans-2e" transform="translate(63.623047 0)"/>
       <use xlink:href="#DejaVuSans-35" transform="translate(95.410156 0)"/>
      </g>
     </g>
    </g>
    <g id="xtick_7">
     <g id="line2d_7">
      <path d="M 458.297936 470.412 
L 458.297936 89.952 
" clip-path="url(#pe7d515d54f)" style="fill: none; stroke: #cccccc; stroke-linecap: round"/>
     </g>
     <g id="text_7">
      <!-- 0.6 -->
      <g style="fill: #262626" transform="translate(449.113881 488.688195) scale(0.1155 -0.1155)">
       <defs>
        <path id="DejaVuSans-36" d="M 2113 2584 
Q 1688 2584 1439 2293 
Q 1191 2003 1191 1497 
Q 1191 994 1439 701 
Q 1688 409 2113 409 
Q 2538 409 2786 701 
Q 3034 994 3034 1497 
Q 3034 2003 2786 2293 
Q 2538 2584 2113 2584 
z
M 3366 4563 
L 3366 3988 
Q 3128 4100 2886 4159 
Q 2644 4219 2406 4219 
Q 1781 4219 1451 3797 
Q 1122 3375 1075 2522 
Q 1259 2794 1537 2939 
Q 1816 3084 2150 3084 
Q 2853 3084 3261 2657 
Q 3669 2231 3669 1497 
Q 3669 778 3244 343 
Q 2819 -91 2113 -91 
Q 1303 -91 875 529 
Q 447 1150 447 2328 
Q 447 3434 972 4092 
Q 1497 4750 2381 4750 
Q 2619 4750 2861 4703 
Q 3103 4656 3366 4563 
z
" transform="scale(0.015625)"/>
       </defs>
       <use xlink:href="#DejaVuSans-30"/>
       <use xlink:href="#DejaVuSans-2e" transform="translate(63.623047 0)"/>
       <use xlink:href="#DejaVuSans-36" transform="translate(95.410156 0)"/>
      </g>
     </g>
    </g>
    <g id="xtick_8">
     <g id="line2d_8">
      <path d="M 517.127127 470.412 
L 517.127127 89.952 
" clip-path="url(#pe7d515d54f)" style="fill: none; stroke: #cccccc; stroke-linecap: round"/>
     </g>
     <g id="text_8">
      <!-- 0.7 -->
      <g style="fill: #262626" transform="translate(507.943072 488.688195) scale(0.1155 -0.1155)">
       <defs>
        <path id="DejaVuSans-37" d="M 525 4666 
L 3525 4666 
L 3525 4397 
L 1831 0 
L 1172 0 
L 2766 4134 
L 525 4134 
L 525 4666 
z
" transform="scale(0.015625)"/>
       </defs>
       <use xlink:href="#DejaVuSans-30"/>
       <use xlink:href="#DejaVuSans-2e" transform="translate(63.623047 0)"/>
       <use xlink:href="#DejaVuSans-37" transform="translate(95.410156 0)"/>
      </g>
     </g>
    </g>
    <g id="text_9">
     <!-- Importance -->
     <g style="fill: #262626" transform="translate(278.742521 504.664266) scale(0.126 -0.126)">
      <defs>
       <path id="DejaVuSans-49" d="M 628 4666 
L 1259 4666 
L 1259 0 
L 628 0 
L 628 4666 
z
" transform="scale(0.015625)"/>
       <path id="DejaVuSans-6d" d="M 3328 2828 
Q 3544 3216 3844 3400 
Q 4144 3584 4550 3584 
Q 5097 3584 5394 3201 
Q 5691 2819 5691 2113 
L 5691 0 
L 5113 0 
L 5113 2094 
Q 5113 2597 4934 2840 
Q 4756 3084 4391 3084 
Q 3944 3084 3684 2787 
Q 3425 2491 3425 1978 
L 3425 0 
L 2847 0 
L 2847 2094 
Q 2847 2600 2669 2842 
Q 2491 3084 2119 3084 
Q 1678 3084 1418 2786 
Q 1159 2488 1159 1978 
L 1159 0 
L 581 0 
L 581 3500 
L 1159 3500 
L 1159 2956 
Q 1356 3278 1631 3431 
Q 1906 3584 2284 3584 
Q 2666 3584 2933 3390 
Q 3200 3197 3328 2828 
z
" transform="scale(0.015625)"/>
       <path id="DejaVuSans-70" d="M 1159 525 
L 1159 -1331 
L 581 -1331 
L 581 3500 
L 1159 3500 
L 1159 2969 
Q 1341 3281 1617 3432 
Q 1894 3584 2278 3584 
Q 2916 3584 3314 3078 
Q 3713 2572 3713 1747 
Q 3713 922 3314 415 
Q 2916 -91 2278 -91 
Q 1894 -91 1617 61 
Q 1341 213 1159 525 
z
M 3116 1747 
Q 3116 2381 2855 2742 
Q 2594 3103 2138 3103 
Q 1681 3103 1420 2742 
Q 1159 2381 1159 1747 
Q 1159 1113 1420 752 
Q 1681 391 2138 391 
Q 2594 391 2855 752 
Q 3116 1113 3116 1747 
z
" transform="scale(0.015625)"/>
       <path id="DejaVuSans-6f" d="M 1959 3097 
Q 1497 3097 1228 2736 
Q 959 2375 959 1747 
Q 959 1119 1226 758 
Q 1494 397 1959 397 
Q 2419 397 2687 759 
Q 2956 1122 2956 1747 
Q 2956 2369 2687 2733 
Q 2419 3097 1959 3097 
z
M 1959 3584 
Q 2709 3584 3137 3096 
Q 3566 2609 3566 1747 
Q 3566 888 3137 398 
Q 2709 -91 1959 -91 
Q 1206 -91 779 398 
Q 353 888 353 1747 
Q 353 2609 779 3096 
Q 1206 3584 1959 3584 
z
" transform="scale(0.015625)"/>
       <path id="DejaVuSans-72" d="M 2631 2963 
Q 2534 3019 2420 3045 
Q 2306 3072 2169 3072 
Q 1681 3072 1420 2755 
Q 1159 2438 1159 1844 
L 1159 0 
L 581 0 
L 581 3500 
L 1159 3500 
L 1159 2956 
Q 1341 3275 1631 3429 
Q 1922 3584 2338 3584 
Q 2397 3584 2469 3576 
Q 2541 3569 2628 3553 
L 2631 2963 
z
" transform="scale(0.015625)"/>
       <path id="DejaVuSans-74" d="M 1172 4494 
L 1172 3500 
L 2356 3500 
L 2356 3053 
L 1172 3053 
L 1172 1153 
Q 1172 725 1289 603 
Q 1406 481 1766 481 
L 2356 481 
L 2356 0 
L 1766 0 
Q 1100 0 847 248 
Q 594 497 594 1153 
L 594 3053 
L 172 3053 
L 172 3500 
L 594 3500 
L 594 4494 
L 1172 4494 
z
" transform="scale(0.015625)"/>
       <path id="DejaVuSans-61" d="M 2194 1759 
Q 1497 1759 1228 1600 
Q 959 1441 959 1056 
Q 959 750 1161 570 
Q 1363 391 1709 391 
Q 2188 391 2477 730 
Q 2766 1069 2766 1631 
L 2766 1759 
L 2194 1759 
z
M 3341 1997 
L 3341 0 
L 2766 0 
L 2766 531 
Q 2569 213 2275 61 
Q 1981 -91 1556 -91 
Q 1019 -91 701 211 
Q 384 513 384 1019 
Q 384 1609 779 1909 
Q 1175 2209 1959 2209 
L 2766 2209 
L 2766 2266 
Q 2766 2663 2505 2880 
Q 2244 3097 1772 3097 
Q 1472 3097 1187 3025 
Q 903 2953 641 2809 
L 641 3341 
Q 956 3463 1253 3523 
Q 1550 3584 1831 3584 
Q 2591 3584 2966 3190 
Q 3341 2797 3341 1997 
z
" transform="scale(0.015625)"/>
       <path id="DejaVuSans-6e" d="M 3513 2113 
L 3513 0 
L 2938 0 
L 2938 2094 
Q 2938 2591 2744 2837 
Q 2550 3084 2163 3084 
Q 1697 3084 1428 2787 
Q 1159 2491 1159 1978 
L 1159 0 
L 581 0 
L 581 3500 
L 1159 3500 
L 1159 2956 
Q 1366 3272 1645 3428 
Q 1925 3584 2291 3584 
Q 2894 3584 3203 3211 
Q 3513 2838 3513 2113 
z
" transform="scale(0.015625)"/>
       <path id="DejaVuSans-63" d="M 3122 3366 
L 3122 2828 
Q 2878 2963 2633 3030 
Q 2388 3097 2138 3097 
Q 1578 3097 1268 2742 
Q 959 2388 959 1747 
Q 959 1106 1268 751 
Q 1578 397 2138 397 
Q 2388 397 2633 464 
Q 2878 531 3122 666 
L 3122 134 
Q 2881 22 2623 -34 
Q 2366 -91 2075 -91 
Q 1284 -91 818 406 
Q 353 903 353 1747 
Q 353 2603 823 3093 
Q 1294 3584 2113 3584 
Q 2378 3584 2631 3529 
Q 2884 3475 3122 3366 
z
" transform="scale(0.015625)"/>
       <path id="DejaVuSans-65" d="M 3597 1894 
L 3597 1613 
L 953 1613 
Q 991 1019 1311 708 
Q 1631 397 2203 397 
Q 2534 397 2845 478 
Q 3156 559 3463 722 
L 3463 178 
Q 3153 47 2828 -22 
Q 2503 -91 2169 -91 
Q 1331 -91 842 396 
Q 353 884 353 1716 
Q 353 2575 817 3079 
Q 1281 3584 2069 3584 
Q 2775 3584 3186 3129 
Q 3597 2675 3597 1894 
z
M 3022 2063 
Q 3016 2534 2758 2815 
Q 2500 3097 2075 3097 
Q 1594 3097 1305 2825 
Q 1016 2553 972 2059 
L 3022 2063 
z
" transform="scale(0.015625)"/>
      </defs>
      <use xlink:href="#DejaVuSans-49"/>
      <use xlink:href="#DejaVuSans-6d" transform="translate(29.492188 0)"/>
      <use xlink:href="#DejaVuSans-70" transform="translate(126.904297 0)"/>
      <use xlink:href="#DejaVuSans-6f" transform="translate(190.380859 0)"/>
      <use xlink:href="#DejaVuSans-72" transform="translate(251.5625 0)"/>
      <use xlink:href="#DejaVuSans-74" transform="translate(292.675781 0)"/>
      <use xlink:href="#DejaVuSans-61" transform="translate(331.884766 0)"/>
      <use xlink:href="#DejaVuSans-6e" transform="translate(393.164062 0)"/>
      <use xlink:href="#DejaVuSans-63" transform="translate(456.542969 0)"/>
      <use xlink:href="#DejaVuSans-65" transform="translate(511.523438 0)"/>
     </g>
    </g>
   </g>
   <g id="matplotlib.axis_2">
    <g id="ytick_1">
     <g id="line2d_9">
      <path d="M 105.322789 457.73 
L 524.368128 457.73 
" clip-path="url(#pe7d515d54f)" style="fill: none; stroke: #cccccc; stroke-linecap: round"/>
     </g>
     <g id="text_10">
      <!-- sod -->
      <g style="fill: #262626" transform="translate(75.406359 462.118098) scale(0.1155 -0.1155)">
       <defs>
        <path id="DejaVuSans-73" d="M 2834 3397 
L 2834 2853 
Q 2591 2978 2328 3040 
Q 2066 3103 1784 3103 
Q 1356 3103 1142 2972 
Q 928 2841 928 2578 
Q 928 2378 1081 2264 
Q 1234 2150 1697 2047 
L 1894 2003 
Q 2506 1872 2764 1633 
Q 3022 1394 3022 966 
Q 3022 478 2636 193 
Q 2250 -91 1575 -91 
Q 1294 -91 989 -36 
Q 684 19 347 128 
L 347 722 
Q 666 556 975 473 
Q 1284 391 1588 391 
Q 1994 391 2212 530 
Q 2431 669 2431 922 
Q 2431 1156 2273 1281 
Q 2116 1406 1581 1522 
L 1381 1569 
Q 847 1681 609 1914 
Q 372 2147 372 2553 
Q 372 3047 722 3315 
Q 1072 3584 1716 3584 
Q 2034 3584 2315 3537 
Q 2597 3491 2834 3397 
z
" transform="scale(0.015625)"/>
        <path id="DejaVuSans-64" d="M 2906 2969 
L 2906 4863 
L 3481 4863 
L 3481 0 
L 2906 0 
L 2906 525 
Q 2725 213 2448 61 
Q 2172 -91 1784 -91 
Q 1150 -91 751 415 
Q 353 922 353 1747 
Q 353 2572 751 3078 
Q 1150 3584 1784 3584 
Q 2172 3584 2448 3432 
Q 2725 3281 2906 2969 
z
M 947 1747 
Q 947 1113 1208 752 
Q 1469 391 1925 391 
Q 2381 391 2643 752 
Q 2906 1113 2906 1747 
Q 2906 2381 2643 2742 
Q 2381 3103 1925 3103 
Q 1469 3103 1208 2742 
Q 947 2381 947 1747 
z
" transform="scale(0.015625)"/>
       </defs>
       <use xlink:href="#DejaVuSans-73"/>
       <use xlink:href="#DejaVuSans-6f" transform="translate(52.099609 0)"/>
       <use xlink:href="#DejaVuSans-64" transform="translate(113.28125 0)"/>
      </g>
     </g>
    </g>
    <g id="ytick_2">
     <g id="line2d_10">
      <path d="M 105.322789 432.366 
L 524.368128 432.366 
" clip-path="url(#pe7d515d54f)" style="fill: none; stroke: #cccccc; stroke-linecap: round"/>
     </g>
     <g id="text_11">
      <!-- rbc_normal -->
      <g style="fill: #262626" transform="translate(31.146398 436.754098) scale(0.1155 -0.1155)">
       <defs>
        <path id="DejaVuSans-62" d="M 3116 1747 
Q 3116 2381 2855 2742 
Q 2594 3103 2138 3103 
Q 1681 3103 1420 2742 
Q 1159 2381 1159 1747 
Q 1159 1113 1420 752 
Q 1681 391 2138 391 
Q 2594 391 2855 752 
Q 3116 1113 3116 1747 
z
M 1159 2969 
Q 1341 3281 1617 3432 
Q 1894 3584 2278 3584 
Q 2916 3584 3314 3078 
Q 3713 2572 3713 1747 
Q 3713 922 3314 415 
Q 2916 -91 2278 -91 
Q 1894 -91 1617 61 
Q 1341 213 1159 525 
L 1159 0 
L 581 0 
L 581 4863 
L 1159 4863 
L 1159 2969 
z
" transform="scale(0.015625)"/>
        <path id="DejaVuSans-5f" d="M 3263 -1063 
L 3263 -1509 
L -63 -1509 
L -63 -1063 
L 3263 -1063 
z
" transform="scale(0.015625)"/>
        <path id="DejaVuSans-6c" d="M 603 4863 
L 1178 4863 
L 1178 0 
L 603 0 
L 603 4863 
z
" transform="scale(0.015625)"/>
       </defs>
       <use xlink:href="#DejaVuSans-72"/>
       <use xlink:href="#DejaVuSans-62" transform="translate(41.113281 0)"/>
       <use xlink:href="#DejaVuSans-63" transform="translate(104.589844 0)"/>
       <use xlink:href="#DejaVuSans-5f" transform="translate(159.570312 0)"/>
       <use xlink:href="#DejaVuSans-6e" transform="translate(209.570312 0)"/>
       <use xlink:href="#DejaVuSans-6f" transform="translate(272.949219 0)"/>
       <use xlink:href="#DejaVuSans-72" transform="translate(334.130859 0)"/>
       <use xlink:href="#DejaVuSans-6d" transform="translate(373.494141 0)"/>
       <use xlink:href="#DejaVuSans-61" transform="translate(470.90625 0)"/>
       <use xlink:href="#DejaVuSans-6c" transform="translate(532.185547 0)"/>
      </g>
     </g>
    </g>
    <g id="ytick_3">
     <g id="line2d_11">
      <path d="M 105.322789 407.002 
L 524.368128 407.002 
" clip-path="url(#pe7d515d54f)" style="fill: none; stroke: #cccccc; stroke-linecap: round"/>
     </g>
     <g id="text_12">
      <!-- wc -->
      <g style="fill: #262626" transform="translate(80.026359 411.390098) scale(0.1155 -0.1155)">
       <defs>
        <path id="DejaVuSans-77" d="M 269 3500 
L 844 3500 
L 1563 769 
L 2278 3500 
L 2956 3500 
L 3675 769 
L 4391 3500 
L 4966 3500 
L 4050 0 
L 3372 0 
L 2619 2869 
L 1863 0 
L 1184 0 
L 269 3500 
z
" transform="scale(0.015625)"/>
       </defs>
       <use xlink:href="#DejaVuSans-77"/>
       <use xlink:href="#DejaVuSans-63" transform="translate(81.787109 0)"/>
      </g>
     </g>
    </g>
    <g id="ytick_4">
     <g id="line2d_12">
      <path d="M 105.322789 381.638 
L 524.368128 381.638 
" clip-path="url(#pe7d515d54f)" style="fill: none; stroke: #cccccc; stroke-linecap: round"/>
     </g>
     <g id="text_13">
      <!-- rbc_abnormal -->
      <g style="fill: #262626" transform="translate(16.735969 386.026098) scale(0.1155 -0.1155)">
       <use xlink:href="#DejaVuSans-72"/>
       <use xlink:href="#DejaVuSans-62" transform="translate(41.113281 0)"/>
       <use xlink:href="#DejaVuSans-63" transform="translate(104.589844 0)"/>
       <use xlink:href="#DejaVuSans-5f" transform="translate(159.570312 0)"/>
       <use xlink:href="#DejaVuSans-61" transform="translate(209.570312 0)"/>
       <use xlink:href="#DejaVuSans-62" transform="translate(270.849609 0)"/>
       <use xlink:href="#DejaVuSans-6e" transform="translate(334.326172 0)"/>
       <use xlink:href="#DejaVuSans-6f" transform="translate(397.705078 0)"/>
       <use xlink:href="#DejaVuSans-72" transform="translate(458.886719 0)"/>
       <use xlink:href="#DejaVuSans-6d" transform="translate(498.25 0)"/>
       <use xlink:href="#DejaVuSans-61" transform="translate(595.662109 0)"/>
       <use xlink:href="#DejaVuSans-6c" transform="translate(656.941406 0)"/>
      </g>
     </g>
    </g>
    <g id="ytick_5">
     <g id="line2d_13">
      <path d="M 105.322789 356.274 
L 524.368128 356.274 
" clip-path="url(#pe7d515d54f)" style="fill: none; stroke: #cccccc; stroke-linecap: round"/>
     </g>
     <g id="text_14">
      <!-- ba_notpresent -->
      <g style="fill: #262626" transform="translate(12.823406 360.662098) scale(0.1155 -0.1155)">
       <use xlink:href="#DejaVuSans-62"/>
       <use xlink:href="#DejaVuSans-61" transform="translate(63.476562 0)"/>
       <use xlink:href="#DejaVuSans-5f" transform="translate(124.755859 0)"/>
       <use xlink:href="#DejaVuSans-6e" transform="translate(174.755859 0)"/>
       <use xlink:href="#DejaVuSans-6f" transform="translate(238.134766 0)"/>
       <use xlink:href="#DejaVuSans-74" transform="translate(299.316406 0)"/>
       <use xlink:href="#DejaVuSans-70" transform="translate(338.525391 0)"/>
       <use xlink:href="#DejaVuSans-72" transform="translate(402.001953 0)"/>
       <use xlink:href="#DejaVuSans-65" transform="translate(440.865234 0)"/>
       <use xlink:href="#DejaVuSans-73" transform="translate(502.388672 0)"/>
       <use xlink:href="#DejaVuSans-65" transform="translate(554.488281 0)"/>
       <use xlink:href="#DejaVuSans-6e" transform="translate(616.011719 0)"/>
       <use xlink:href="#DejaVuSans-74" transform="translate(679.390625 0)"/>
      </g>
     </g>
    </g>
    <g id="ytick_6">
     <g id="line2d_14">
      <path d="M 105.322789 330.91 
L 524.368128 330.91 
" clip-path="url(#pe7d515d54f)" style="fill: none; stroke: #cccccc; stroke-linecap: round"/>
     </g>
     <g id="text_15">
      <!-- pcc_present -->
      <g style="fill: #262626" transform="translate(26.11493 335.13748) scale(0.1155 -0.1155)">
       <use xlink:href="#DejaVuSans-70"/>
       <use xlink:href="#DejaVuSans-63" transform="translate(63.476562 0)"/>
       <use xlink:href="#DejaVuSans-63" transform="translate(118.457031 0)"/>
       <use xlink:href="#DejaVuSans-5f" transform="translate(173.4375 0)"/>
       <use xlink:href="#DejaVuSans-70" transform="translate(223.4375 0)"/>
       <use xlink:href="#DejaVuSans-72" transform="translate(286.914062 0)"/>
       <use xlink:href="#DejaVuSans-65" transform="translate(325.777344 0)"/>
       <use xlink:href="#DejaVuSans-73" transform="translate(387.300781 0)"/>
       <use xlink:href="#DejaVuSans-65" transform="translate(439.400391 0)"/>
       <use xlink:href="#DejaVuSans-6e" transform="translate(500.923828 0)"/>
       <use xlink:href="#DejaVuSans-74" transform="translate(564.302734 0)"/>
      </g>
     </g>
    </g>
    <g id="ytick_7">
     <g id="line2d_15">
      <path d="M 105.322789 305.546 
L 524.368128 305.546 
" clip-path="url(#pe7d515d54f)" style="fill: none; stroke: #cccccc; stroke-linecap: round"/>
     </g>
     <g id="text_16">
      <!-- pcc_notpresent -->
      <g style="fill: #262626" transform="translate(7.2 309.77348) scale(0.1155 -0.1155)">
       <use xlink:href="#DejaVuSans-70"/>
       <use xlink:href="#DejaVuSans-63" transform="translate(63.476562 0)"/>
       <use xlink:href="#DejaVuSans-63" transform="translate(118.457031 0)"/>
       <use xlink:href="#DejaVuSans-5f" transform="translate(173.4375 0)"/>
       <use xlink:href="#DejaVuSans-6e" transform="translate(223.4375 0)"/>
       <use xlink:href="#DejaVuSans-6f" transform="translate(286.816406 0)"/>
       <use xlink:href="#DejaVuSans-74" transform="translate(347.998047 0)"/>
       <use xlink:href="#DejaVuSans-70" transform="translate(387.207031 0)"/>
       <use xlink:href="#DejaVuSans-72" transform="translate(450.683594 0)"/>
       <use xlink:href="#DejaVuSans-65" transform="translate(489.546875 0)"/>
       <use xlink:href="#DejaVuSans-73" transform="translate(551.070312 0)"/>
       <use xlink:href="#DejaVuSans-65" transform="translate(603.169922 0)"/>
       <use xlink:href="#DejaVuSans-6e" transform="translate(664.693359 0)"/>
       <use xlink:href="#DejaVuSans-74" transform="translate(728.072266 0)"/>
      </g>
     </g>
    </g>
    <g id="ytick_8">
     <g id="line2d_16">
      <path d="M 105.322789 280.182 
L 524.368128 280.182 
" clip-path="url(#pe7d515d54f)" style="fill: none; stroke: #cccccc; stroke-linecap: round"/>
     </g>
     <g id="text_17">
      <!-- pc_normal -->
      <g style="fill: #262626" transform="translate(35.894531 284.570098) scale(0.1155 -0.1155)">
       <use xlink:href="#DejaVuSans-70"/>
       <use xlink:href="#DejaVuSans-63" transform="translate(63.476562 0)"/>
       <use xlink:href="#DejaVuSans-5f" transform="translate(118.457031 0)"/>
       <use xlink:href="#DejaVuSans-6e" transform="translate(168.457031 0)"/>
       <use xlink:href="#DejaVuSans-6f" transform="translate(231.835938 0)"/>
       <use xlink:href="#DejaVuSans-72" transform="translate(293.017578 0)"/>
       <use xlink:href="#DejaVuSans-6d" transform="translate(332.380859 0)"/>
       <use xlink:href="#DejaVuSans-61" transform="translate(429.792969 0)"/>
       <use xlink:href="#DejaVuSans-6c" transform="translate(491.072266 0)"/>
      </g>
     </g>
    </g>
    <g id="ytick_9">
     <g id="line2d_17">
      <path d="M 105.322789 254.818 
L 524.368128 254.818 
" clip-path="url(#pe7d515d54f)" style="fill: none; stroke: #cccccc; stroke-linecap: round"/>
     </g>
     <g id="text_18">
      <!-- pc_abnormal -->
      <g style="fill: #262626" transform="translate(21.484102 259.206098) scale(0.1155 -0.1155)">
       <use xlink:href="#DejaVuSans-70"/>
       <use xlink:href="#DejaVuSans-63" transform="translate(63.476562 0)"/>
       <use xlink:href="#DejaVuSans-5f" transform="translate(118.457031 0)"/>
       <use xlink:href="#DejaVuSans-61" transform="translate(168.457031 0)"/>
       <use xlink:href="#DejaVuSans-62" transform="translate(229.736328 0)"/>
       <use xlink:href="#DejaVuSans-6e" transform="translate(293.212891 0)"/>
       <use xlink:href="#DejaVuSans-6f" transform="translate(356.591797 0)"/>
       <use xlink:href="#DejaVuSans-72" transform="translate(417.773438 0)"/>
       <use xlink:href="#DejaVuSans-6d" transform="translate(457.136719 0)"/>
       <use xlink:href="#DejaVuSans-61" transform="translate(554.548828 0)"/>
       <use xlink:href="#DejaVuSans-6c" transform="translate(615.828125 0)"/>
      </g>
     </g>
    </g>
    <g id="ytick_10">
     <g id="line2d_18">
      <path d="M 105.322789 229.454 
L 524.368128 229.454 
" clip-path="url(#pe7d515d54f)" style="fill: none; stroke: #cccccc; stroke-linecap: round"/>
     </g>
     <g id="text_19">
      <!-- ba_present -->
      <g style="fill: #262626" transform="translate(31.738336 233.842098) scale(0.1155 -0.1155)">
       <use xlink:href="#DejaVuSans-62"/>
       <use xlink:href="#DejaVuSans-61" transform="translate(63.476562 0)"/>
       <use xlink:href="#DejaVuSans-5f" transform="translate(124.755859 0)"/>
       <use xlink:href="#DejaVuSans-70" transform="translate(174.755859 0)"/>
       <use xlink:href="#DejaVuSans-72" transform="translate(238.232422 0)"/>
       <use xlink:href="#DejaVuSans-65" transform="translate(277.095703 0)"/>
       <use xlink:href="#DejaVuSans-73" transform="translate(338.619141 0)"/>
       <use xlink:href="#DejaVuSans-65" transform="translate(390.71875 0)"/>
       <use xlink:href="#DejaVuSans-6e" transform="translate(452.242188 0)"/>
       <use xlink:href="#DejaVuSans-74" transform="translate(515.621094 0)"/>
      </g>
     </g>
    </g>
    <g id="ytick_11">
     <g id="line2d_19">
      <path d="M 105.322789 204.09 
L 524.368128 204.09 
" clip-path="url(#pe7d515d54f)" style="fill: none; stroke: #cccccc; stroke-linecap: round"/>
     </g>
     <g id="text_20">
      <!-- rc -->
      <g style="fill: #262626" transform="translate(84.983836 208.478098) scale(0.1155 -0.1155)">
       <use xlink:href="#DejaVuSans-72"/>
       <use xlink:href="#DejaVuSans-63" transform="translate(38.863281 0)"/>
      </g>
     </g>
    </g>
    <g id="ytick_12">
     <g id="line2d_20">
      <path d="M 105.322789 178.726 
L 524.368128 178.726 
" clip-path="url(#pe7d515d54f)" style="fill: none; stroke: #cccccc; stroke-linecap: round"/>
     </g>
     <g id="text_21">
      <!-- pcv -->
      <g style="fill: #262626" transform="translate(75.303492 183.114098) scale(0.1155 -0.1155)">
       <defs>
        <path id="DejaVuSans-76" d="M 191 3500 
L 800 3500 
L 1894 563 
L 2988 3500 
L 3597 3500 
L 2284 0 
L 1503 0 
L 191 3500 
z
" transform="scale(0.015625)"/>
       </defs>
       <use xlink:href="#DejaVuSans-70"/>
       <use xlink:href="#DejaVuSans-63" transform="translate(63.476562 0)"/>
       <use xlink:href="#DejaVuSans-76" transform="translate(118.457031 0)"/>
      </g>
     </g>
    </g>
    <g id="ytick_13">
     <g id="line2d_21">
      <path d="M 105.322789 153.362 
L 524.368128 153.362 
" clip-path="url(#pe7d515d54f)" style="fill: none; stroke: #cccccc; stroke-linecap: round"/>
     </g>
     <g id="text_22">
      <!-- sc -->
      <g style="fill: #262626" transform="translate(83.455266 157.750098) scale(0.1155 -0.1155)">
       <use xlink:href="#DejaVuSans-73"/>
       <use xlink:href="#DejaVuSans-63" transform="translate(52.099609 0)"/>
      </g>
     </g>
    </g>
    <g id="ytick_14">
     <g id="line2d_22">
      <path d="M 105.322789 127.998 
L 524.368128 127.998 
" clip-path="url(#pe7d515d54f)" style="fill: none; stroke: #cccccc; stroke-linecap: round"/>
     </g>
     <g id="text_23">
      <!-- sg -->
      <g style="fill: #262626" transform="translate(82.473516 132.386098) scale(0.1155 -0.1155)">
       <defs>
        <path id="DejaVuSans-67" d="M 2906 1791 
Q 2906 2416 2648 2759 
Q 2391 3103 1925 3103 
Q 1463 3103 1205 2759 
Q 947 2416 947 1791 
Q 947 1169 1205 825 
Q 1463 481 1925 481 
Q 2391 481 2648 825 
Q 2906 1169 2906 1791 
z
M 3481 434 
Q 3481 -459 3084 -895 
Q 2688 -1331 1869 -1331 
Q 1566 -1331 1297 -1286 
Q 1028 -1241 775 -1147 
L 775 -588 
Q 1028 -725 1275 -790 
Q 1522 -856 1778 -856 
Q 2344 -856 2625 -561 
Q 2906 -266 2906 331 
L 2906 616 
Q 2728 306 2450 153 
Q 2172 0 1784 0 
Q 1141 0 747 490 
Q 353 981 353 1791 
Q 353 2603 747 3093 
Q 1141 3584 1784 3584 
Q 2172 3584 2450 3431 
Q 2728 3278 2906 2969 
L 2906 3500 
L 3481 3500 
L 3481 434 
z
" transform="scale(0.015625)"/>
       </defs>
       <use xlink:href="#DejaVuSans-73"/>
       <use xlink:href="#DejaVuSans-67" transform="translate(52.099609 0)"/>
      </g>
     </g>
    </g>
    <g id="ytick_15">
     <g id="line2d_23">
      <path d="M 105.322789 102.634 
L 524.368128 102.634 
" clip-path="url(#pe7d515d54f)" style="fill: none; stroke: #cccccc; stroke-linecap: round"/>
     </g>
     <g id="text_24">
      <!-- hemo -->
      <g style="fill: #262626" transform="translate(63.078539 107.022098) scale(0.1155 -0.1155)">
       <defs>
        <path id="DejaVuSans-68" d="M 3513 2113 
L 3513 0 
L 2938 0 
L 2938 2094 
Q 2938 2591 2744 2837 
Q 2550 3084 2163 3084 
Q 1697 3084 1428 2787 
Q 1159 2491 1159 1978 
L 1159 0 
L 581 0 
L 581 4863 
L 1159 4863 
L 1159 2956 
Q 1366 3272 1645 3428 
Q 1925 3584 2291 3584 
Q 2894 3584 3203 3211 
Q 3513 2838 3513 2113 
z
" transform="scale(0.015625)"/>
       </defs>
       <use xlink:href="#DejaVuSans-68"/>
       <use xlink:href="#DejaVuSans-65" transform="translate(63.378906 0)"/>
       <use xlink:href="#DejaVuSans-6d" transform="translate(124.902344 0)"/>
       <use xlink:href="#DejaVuSans-6f" transform="translate(222.314453 0)"/>
      </g>
     </g>
    </g>
   </g>
   <g id="patch_3">
    <path d="M 105.322789 464.071 
L 105.322789 464.071 
L 105.322789 451.389 
L 105.322789 451.389 
z
" clip-path="url(#pe7d515d54f)" style="fill: #4c72b0; stroke: #ffffff; stroke-linejoin: miter"/>
   </g>
   <g id="patch_4">
    <path d="M 105.322789 438.707 
L 105.322789 438.707 
L 105.322789 426.025 
L 105.322789 426.025 
z
" clip-path="url(#pe7d515d54f)" style="fill: #4c72b0; stroke: #ffffff; stroke-linejoin: miter"/>
   </g>
   <g id="patch_5">
    <path d="M 105.322789 413.343 
L 105.322789 413.343 
L 105.322789 400.661 
L 105.322789 400.661 
z
" clip-path="url(#pe7d515d54f)" style="fill: #4c72b0; stroke: #ffffff; stroke-linejoin: miter"/>
   </g>
   <g id="patch_6">
    <path d="M 105.322789 387.979 
L 105.322789 387.979 
L 105.322789 375.297 
L 105.322789 375.297 
z
" clip-path="url(#pe7d515d54f)" style="fill: #4c72b0; stroke: #ffffff; stroke-linejoin: miter"/>
   </g>
   <g id="patch_7">
    <path d="M 105.322789 362.615 
L 105.322789 362.615 
L 105.322789 349.933 
L 105.322789 349.933 
z
" clip-path="url(#pe7d515d54f)" style="fill: #4c72b0; stroke: #ffffff; stroke-linejoin: miter"/>
   </g>
   <g id="patch_8">
    <path d="M 105.322789 337.251 
L 105.322789 337.251 
L 105.322789 324.569 
L 105.322789 324.569 
z
" clip-path="url(#pe7d515d54f)" style="fill: #4c72b0; stroke: #ffffff; stroke-linejoin: miter"/>
   </g>
   <g id="patch_9">
    <path d="M 105.322789 311.887 
L 105.322789 311.887 
L 105.322789 299.205 
L 105.322789 299.205 
z
" clip-path="url(#pe7d515d54f)" style="fill: #4c72b0; stroke: #ffffff; stroke-linejoin: miter"/>
   </g>
   <g id="patch_10">
    <path d="M 105.322789 286.523 
L 105.322789 286.523 
L 105.322789 273.841 
L 105.322789 273.841 
z
" clip-path="url(#pe7d515d54f)" style="fill: #4c72b0; stroke: #ffffff; stroke-linejoin: miter"/>
   </g>
   <g id="patch_11">
    <path d="M 105.322789 261.159 
L 105.322789 261.159 
L 105.322789 248.477 
L 105.322789 248.477 
z
" clip-path="url(#pe7d515d54f)" style="fill: #4c72b0; stroke: #ffffff; stroke-linejoin: miter"/>
   </g>
   <g id="patch_12">
    <path d="M 105.322789 235.795 
L 105.322789 235.795 
L 105.322789 223.113 
L 105.322789 223.113 
z
" clip-path="url(#pe7d515d54f)" style="fill: #4c72b0; stroke: #ffffff; stroke-linejoin: miter"/>
   </g>
   <g id="patch_13">
    <path d="M 105.322789 210.431 
L 109.512615 210.431 
L 109.512615 197.749 
L 105.322789 197.749 
z
" clip-path="url(#pe7d515d54f)" style="fill: #4c72b0; stroke: #ffffff; stroke-linejoin: miter"/>
   </g>
   <g id="patch_14">
    <path d="M 105.322789 185.067 
L 130.624576 185.067 
L 130.624576 172.385 
L 105.322789 172.385 
z
" clip-path="url(#pe7d515d54f)" style="fill: #4c72b0; stroke: #ffffff; stroke-linejoin: miter"/>
   </g>
   <g id="patch_15">
    <path d="M 105.322789 159.703 
L 144.016391 159.703 
L 144.016391 147.021 
L 105.322789 147.021 
z
" clip-path="url(#pe7d515d54f)" style="fill: #4c72b0; stroke: #ffffff; stroke-linejoin: miter"/>
   </g>
   <g id="patch_16">
    <path d="M 105.322789 134.339 
L 226.338686 134.339 
L 226.338686 121.657 
L 105.322789 121.657 
z
" clip-path="url(#pe7d515d54f)" style="fill: #4c72b0; stroke: #ffffff; stroke-linejoin: miter"/>
   </g>
   <g id="patch_17">
    <path d="M 105.322789 108.975 
L 504.413588 108.975 
L 504.413588 96.293 
L 105.322789 96.293 
z
" clip-path="url(#pe7d515d54f)" style="fill: #4c72b0; stroke: #ffffff; stroke-linejoin: miter"/>
   </g>
   <g id="patch_18">
    <path d="M 105.322789 470.412 
L 105.322789 89.952 
" style="fill: none; stroke: #cccccc; stroke-width: 1.25; stroke-linejoin: miter; stroke-linecap: square"/>
   </g>
   <g id="patch_19">
    <path d="M 524.368128 470.412 
L 524.368128 89.952 
" style="fill: none; stroke: #cccccc; stroke-width: 1.25; stroke-linejoin: miter; stroke-linecap: square"/>
   </g>
   <g id="patch_20">
    <path d="M 105.322789 470.412 
L 524.368128 470.412 
" style="fill: none; stroke: #cccccc; stroke-width: 1.25; stroke-linejoin: miter; stroke-linecap: square"/>
   </g>
   <g id="patch_21">
    <path d="M 105.322789 89.952 
L 524.368128 89.952 
" style="fill: none; stroke: #cccccc; stroke-width: 1.25; stroke-linejoin: miter; stroke-linecap: square"/>
   </g>
   <g id="text_25">
    <!-- Decision Tree -->
    <g style="fill: #262626" transform="translate(265.764365 69.394844) scale(0.13 -0.13)">
     <defs>
      <path id="DejaVuSans-Bold-44" d="M 1791 3756 
L 1791 909 
L 2222 909 
Q 2959 909 3348 1275 
Q 3738 1641 3738 2338 
Q 3738 3031 3350 3393 
Q 2963 3756 2222 3756 
L 1791 3756 
z
M 588 4666 
L 1856 4666 
Q 2919 4666 3439 4514 
Q 3959 4363 4331 4000 
Q 4659 3684 4818 3271 
Q 4978 2859 4978 2338 
Q 4978 1809 4818 1395 
Q 4659 981 4331 666 
Q 3956 303 3431 151 
Q 2906 0 1856 0 
L 588 0 
L 588 4666 
z
" transform="scale(0.015625)"/>
      <path id="DejaVuSans-Bold-65" d="M 4031 1759 
L 4031 1441 
L 1416 1441 
Q 1456 1047 1700 850 
Q 1944 653 2381 653 
Q 2734 653 3104 758 
Q 3475 863 3866 1075 
L 3866 213 
Q 3469 63 3072 -14 
Q 2675 -91 2278 -91 
Q 1328 -91 801 392 
Q 275 875 275 1747 
Q 275 2603 792 3093 
Q 1309 3584 2216 3584 
Q 3041 3584 3536 3087 
Q 4031 2591 4031 1759 
z
M 2881 2131 
Q 2881 2450 2695 2645 
Q 2509 2841 2209 2841 
Q 1884 2841 1681 2658 
Q 1478 2475 1428 2131 
L 2881 2131 
z
" transform="scale(0.015625)"/>
      <path id="DejaVuSans-Bold-63" d="M 3366 3391 
L 3366 2478 
Q 3138 2634 2908 2709 
Q 2678 2784 2431 2784 
Q 1963 2784 1702 2511 
Q 1441 2238 1441 1747 
Q 1441 1256 1702 982 
Q 1963 709 2431 709 
Q 2694 709 2930 787 
Q 3166 866 3366 1019 
L 3366 103 
Q 3103 6 2833 -42 
Q 2563 -91 2291 -91 
Q 1344 -91 809 395 
Q 275 881 275 1747 
Q 275 2613 809 3098 
Q 1344 3584 2291 3584 
Q 2566 3584 2833 3536 
Q 3100 3488 3366 3391 
z
" transform="scale(0.015625)"/>
      <path id="DejaVuSans-Bold-69" d="M 538 3500 
L 1656 3500 
L 1656 0 
L 538 0 
L 538 3500 
z
M 538 4863 
L 1656 4863 
L 1656 3950 
L 538 3950 
L 538 4863 
z
" transform="scale(0.015625)"/>
      <path id="DejaVuSans-Bold-73" d="M 3272 3391 
L 3272 2541 
Q 2913 2691 2578 2766 
Q 2244 2841 1947 2841 
Q 1628 2841 1473 2761 
Q 1319 2681 1319 2516 
Q 1319 2381 1436 2309 
Q 1553 2238 1856 2203 
L 2053 2175 
Q 2913 2066 3209 1816 
Q 3506 1566 3506 1031 
Q 3506 472 3093 190 
Q 2681 -91 1863 -91 
Q 1516 -91 1145 -36 
Q 775 19 384 128 
L 384 978 
Q 719 816 1070 734 
Q 1422 653 1784 653 
Q 2113 653 2278 743 
Q 2444 834 2444 1013 
Q 2444 1163 2330 1236 
Q 2216 1309 1875 1350 
L 1678 1375 
Q 931 1469 631 1722 
Q 331 1975 331 2491 
Q 331 3047 712 3315 
Q 1094 3584 1881 3584 
Q 2191 3584 2531 3537 
Q 2872 3491 3272 3391 
z
" transform="scale(0.015625)"/>
      <path id="DejaVuSans-Bold-6f" d="M 2203 2784 
Q 1831 2784 1636 2517 
Q 1441 2250 1441 1747 
Q 1441 1244 1636 976 
Q 1831 709 2203 709 
Q 2569 709 2762 976 
Q 2956 1244 2956 1747 
Q 2956 2250 2762 2517 
Q 2569 2784 2203 2784 
z
M 2203 3584 
Q 3106 3584 3614 3096 
Q 4122 2609 4122 1747 
Q 4122 884 3614 396 
Q 3106 -91 2203 -91 
Q 1297 -91 786 396 
Q 275 884 275 1747 
Q 275 2609 786 3096 
Q 1297 3584 2203 3584 
z
" transform="scale(0.015625)"/>
      <path id="DejaVuSans-Bold-6e" d="M 4056 2131 
L 4056 0 
L 2931 0 
L 2931 347 
L 2931 1631 
Q 2931 2084 2911 2256 
Q 2891 2428 2841 2509 
Q 2775 2619 2662 2680 
Q 2550 2741 2406 2741 
Q 2056 2741 1856 2470 
Q 1656 2200 1656 1722 
L 1656 0 
L 538 0 
L 538 3500 
L 1656 3500 
L 1656 2988 
Q 1909 3294 2193 3439 
Q 2478 3584 2822 3584 
Q 3428 3584 3742 3212 
Q 4056 2841 4056 2131 
z
" transform="scale(0.015625)"/>
      <path id="DejaVuSans-Bold-20" transform="scale(0.015625)"/>
      <path id="DejaVuSans-Bold-54" d="M 31 4666 
L 4331 4666 
L 4331 3756 
L 2784 3756 
L 2784 0 
L 1581 0 
L 1581 3756 
L 31 3756 
L 31 4666 
z
" transform="scale(0.015625)"/>
      <path id="DejaVuSans-Bold-72" d="M 3138 2547 
Q 2991 2616 2845 2648 
Q 2700 2681 2553 2681 
Q 2122 2681 1889 2404 
Q 1656 2128 1656 1613 
L 1656 0 
L 538 0 
L 538 3500 
L 1656 3500 
L 1656 2925 
Q 1872 3269 2151 3426 
Q 2431 3584 2822 3584 
Q 2878 3584 2943 3579 
Q 3009 3575 3134 3559 
L 3138 2547 
z
" transform="scale(0.015625)"/>
     </defs>
     <use xlink:href="#DejaVuSans-Bold-44"/>
     <use xlink:href="#DejaVuSans-Bold-65" transform="translate(83.007812 0)"/>
     <use xlink:href="#DejaVuSans-Bold-63" transform="translate(150.830078 0)"/>
     <use xlink:href="#DejaVuSans-Bold-69" transform="translate(210.107422 0)"/>
     <use xlink:href="#DejaVuSans-Bold-73" transform="translate(244.384766 0)"/>
     <use xlink:href="#DejaVuSans-Bold-69" transform="translate(303.90625 0)"/>
     <use xlink:href="#DejaVuSans-Bold-6f" transform="translate(338.183594 0)"/>
     <use xlink:href="#DejaVuSans-Bold-6e" transform="translate(406.884766 0)"/>
     <use xlink:href="#DejaVuSans-Bold-20" transform="translate(478.076172 0)"/>
     <use xlink:href="#DejaVuSans-Bold-54" transform="translate(512.890625 0)"/>
     <use xlink:href="#DejaVuSans-Bold-72" transform="translate(570.103516 0)"/>
     <use xlink:href="#DejaVuSans-Bold-65" transform="translate(619.419922 0)"/>
     <use xlink:href="#DejaVuSans-Bold-65" transform="translate(687.242188 0)"/>
    </g>
    <!-- Top 15 Features -->
    <g style="fill: #262626" transform="translate(256.391162 83.952) scale(0.13 -0.13)">
     <defs>
      <path id="DejaVuSans-Bold-70" d="M 1656 506 
L 1656 -1331 
L 538 -1331 
L 538 3500 
L 1656 3500 
L 1656 2988 
Q 1888 3294 2169 3439 
Q 2450 3584 2816 3584 
Q 3463 3584 3878 3070 
Q 4294 2556 4294 1747 
Q 4294 938 3878 423 
Q 3463 -91 2816 -91 
Q 2450 -91 2169 54 
Q 1888 200 1656 506 
z
M 2400 2772 
Q 2041 2772 1848 2508 
Q 1656 2244 1656 1747 
Q 1656 1250 1848 986 
Q 2041 722 2400 722 
Q 2759 722 2948 984 
Q 3138 1247 3138 1747 
Q 3138 2247 2948 2509 
Q 2759 2772 2400 2772 
z
" transform="scale(0.015625)"/>
      <path id="DejaVuSans-Bold-31" d="M 750 831 
L 1813 831 
L 1813 3847 
L 722 3622 
L 722 4441 
L 1806 4666 
L 2950 4666 
L 2950 831 
L 4013 831 
L 4013 0 
L 750 0 
L 750 831 
z
" transform="scale(0.015625)"/>
      <path id="DejaVuSans-Bold-35" d="M 678 4666 
L 3669 4666 
L 3669 3781 
L 1638 3781 
L 1638 3059 
Q 1775 3097 1914 3117 
Q 2053 3138 2203 3138 
Q 3056 3138 3531 2711 
Q 4006 2284 4006 1522 
Q 4006 766 3489 337 
Q 2972 -91 2053 -91 
Q 1656 -91 1267 -14 
Q 878 63 494 219 
L 494 1166 
Q 875 947 1217 837 
Q 1559 728 1863 728 
Q 2300 728 2551 942 
Q 2803 1156 2803 1522 
Q 2803 1891 2551 2103 
Q 2300 2316 1863 2316 
Q 1603 2316 1309 2248 
Q 1016 2181 678 2041 
L 678 4666 
z
" transform="scale(0.015625)"/>
      <path id="DejaVuSans-Bold-46" d="M 588 4666 
L 3834 4666 
L 3834 3756 
L 1791 3756 
L 1791 2888 
L 3713 2888 
L 3713 1978 
L 1791 1978 
L 1791 0 
L 588 0 
L 588 4666 
z
" transform="scale(0.015625)"/>
      <path id="DejaVuSans-Bold-61" d="M 2106 1575 
Q 1756 1575 1579 1456 
Q 1403 1338 1403 1106 
Q 1403 894 1545 773 
Q 1688 653 1941 653 
Q 2256 653 2472 879 
Q 2688 1106 2688 1447 
L 2688 1575 
L 2106 1575 
z
M 3816 1997 
L 3816 0 
L 2688 0 
L 2688 519 
Q 2463 200 2181 54 
Q 1900 -91 1497 -91 
Q 953 -91 614 226 
Q 275 544 275 1050 
Q 275 1666 698 1953 
Q 1122 2241 2028 2241 
L 2688 2241 
L 2688 2328 
Q 2688 2594 2478 2717 
Q 2269 2841 1825 2841 
Q 1466 2841 1156 2769 
Q 847 2697 581 2553 
L 581 3406 
Q 941 3494 1303 3539 
Q 1666 3584 2028 3584 
Q 2975 3584 3395 3211 
Q 3816 2838 3816 1997 
z
" transform="scale(0.015625)"/>
      <path id="DejaVuSans-Bold-74" d="M 1759 4494 
L 1759 3500 
L 2913 3500 
L 2913 2700 
L 1759 2700 
L 1759 1216 
Q 1759 972 1856 886 
Q 1953 800 2241 800 
L 2816 800 
L 2816 0 
L 1856 0 
Q 1194 0 917 276 
Q 641 553 641 1216 
L 641 2700 
L 84 2700 
L 84 3500 
L 641 3500 
L 641 4494 
L 1759 4494 
z
" transform="scale(0.015625)"/>
      <path id="DejaVuSans-Bold-75" d="M 500 1363 
L 500 3500 
L 1625 3500 
L 1625 3150 
Q 1625 2866 1622 2436 
Q 1619 2006 1619 1863 
Q 1619 1441 1641 1255 
Q 1663 1069 1716 984 
Q 1784 875 1895 815 
Q 2006 756 2150 756 
Q 2500 756 2700 1025 
Q 2900 1294 2900 1772 
L 2900 3500 
L 4019 3500 
L 4019 0 
L 2900 0 
L 2900 506 
Q 2647 200 2364 54 
Q 2081 -91 1741 -91 
Q 1134 -91 817 281 
Q 500 653 500 1363 
z
" transform="scale(0.015625)"/>
     </defs>
     <use xlink:href="#DejaVuSans-Bold-54"/>
     <use xlink:href="#DejaVuSans-Bold-6f" transform="translate(54.962891 0)"/>
     <use xlink:href="#DejaVuSans-Bold-70" transform="translate(123.664062 0)"/>
     <use xlink:href="#DejaVuSans-Bold-20" transform="translate(195.246094 0)"/>
     <use xlink:href="#DejaVuSans-Bold-31" transform="translate(230.060547 0)"/>
     <use xlink:href="#DejaVuSans-Bold-35" transform="translate(299.640625 0)"/>
     <use xlink:href="#DejaVuSans-Bold-20" transform="translate(369.220703 0)"/>
     <use xlink:href="#DejaVuSans-Bold-46" transform="translate(404.035156 0)"/>
     <use xlink:href="#DejaVuSans-Bold-65" transform="translate(468.345703 0)"/>
     <use xlink:href="#DejaVuSans-Bold-61" transform="translate(536.167969 0)"/>
     <use xlink:href="#DejaVuSans-Bold-74" transform="translate(603.648438 0)"/>
     <use xlink:href="#DejaVuSans-Bold-75" transform="translate(651.451172 0)"/>
     <use xlink:href="#DejaVuSans-Bold-72" transform="translate(722.642578 0)"/>
     <use xlink:href="#DejaVuSans-Bold-65" transform="translate(771.958984 0)"/>
     <use xlink:href="#DejaVuSans-Bold-73" transform="translate(839.78125 0)"/>
    </g>
   </g>
  </g>
  <g id="axes_2">
   <g id="patch_22">
    <path d="M 625.07212 470.412 
L 1044.117458 470.412 
L 1044.117458 89.952 
L 625.07212 89.952 
z
" style="fill: #ffffff"/>
   </g>
   <g id="matplotlib.axis_3">
    <g id="xtick_9">
     <g id="line2d_24">
      <path d="M 625.07212 470.412 
L 625.07212 89.952 
" clip-path="url(#p8a7688fd8d)" style="fill: none; stroke: #cccccc; stroke-linecap: round"/>
     </g>
     <g id="text_26">
      <!-- 0.000 -->
      <g style="fill: #262626" transform="translate(608.539377 488.688195) scale(0.1155 -0.1155)">
       <use xlink:href="#DejaVuSans-30"/>
       <use xlink:href="#DejaVuSans-2e" transform="translate(63.623047 0)"/>
       <use xlink:href="#DejaVuSans-30" transform="translate(95.410156 0)"/>
       <use xlink:href="#DejaVuSans-30" transform="translate(159.033203 0)"/>
       <use xlink:href="#DejaVuSans-30" transform="translate(222.65625 0)"/>
      </g>
     </g>
    </g>
    <g id="xtick_10">
     <g id="line2d_25">
      <path d="M 674.517485 470.412 
L 674.517485 89.952 
" clip-path="url(#p8a7688fd8d)" style="fill: none; stroke: #cccccc; stroke-linecap: round"/>
     </g>
     <g id="text_27">
      <!-- 0.025 -->
      <g style="fill: #262626" transform="translate(657.984743 488.688195) scale(0.1155 -0.1155)">
       <use xlink:href="#DejaVuSans-30"/>
       <use xlink:href="#DejaVuSans-2e" transform="translate(63.623047 0)"/>
       <use xlink:href="#DejaVuSans-30" transform="translate(95.410156 0)"/>
       <use xlink:href="#DejaVuSans-32" transform="translate(159.033203 0)"/>
       <use xlink:href="#DejaVuSans-35" transform="translate(222.65625 0)"/>
      </g>
     </g>
    </g>
    <g id="xtick_11">
     <g id="line2d_26">
      <path d="M 723.96285 470.412 
L 723.96285 89.952 
" clip-path="url(#p8a7688fd8d)" style="fill: none; stroke: #cccccc; stroke-linecap: round"/>
     </g>
     <g id="text_28">
      <!-- 0.050 -->
      <g style="fill: #262626" transform="translate(707.430108 488.688195) scale(0.1155 -0.1155)">
       <use xlink:href="#DejaVuSans-30"/>
       <use xlink:href="#DejaVuSans-2e" transform="translate(63.623047 0)"/>
       <use xlink:href="#DejaVuSans-30" transform="translate(95.410156 0)"/>
       <use xlink:href="#DejaVuSans-35" transform="translate(159.033203 0)"/>
       <use xlink:href="#DejaVuSans-30" transform="translate(222.65625 0)"/>
      </g>
     </g>
    </g>
    <g id="xtick_12">
     <g id="line2d_27">
      <path d="M 773.408215 470.412 
L 773.408215 89.952 
" clip-path="url(#p8a7688fd8d)" style="fill: none; stroke: #cccccc; stroke-linecap: round"/>
     </g>
     <g id="text_29">
      <!-- 0.075 -->
      <g style="fill: #262626" transform="translate(756.875473 488.688195) scale(0.1155 -0.1155)">
       <use xlink:href="#DejaVuSans-30"/>
       <use xlink:href="#DejaVuSans-2e" transform="translate(63.623047 0)"/>
       <use xlink:href="#DejaVuSans-30" transform="translate(95.410156 0)"/>
       <use xlink:href="#DejaVuSans-37" transform="translate(159.033203 0)"/>
       <use xlink:href="#DejaVuSans-35" transform="translate(222.65625 0)"/>
      </g>
     </g>
    </g>
    <g id="xtick_13">
     <g id="line2d_28">
      <path d="M 822.85358 470.412 
L 822.85358 89.952 
" clip-path="url(#p8a7688fd8d)" style="fill: none; stroke: #cccccc; stroke-linecap: round"/>
     </g>
     <g id="text_30">
      <!-- 0.100 -->
      <g style="fill: #262626" transform="translate(806.320838 488.688195) scale(0.1155 -0.1155)">
       <use xlink:href="#DejaVuSans-30"/>
       <use xlink:href="#DejaVuSans-2e" transform="translate(63.623047 0)"/>
       <use xlink:href="#DejaVuSans-31" transform="translate(95.410156 0)"/>
       <use xlink:href="#DejaVuSans-30" transform="translate(159.033203 0)"/>
       <use xlink:href="#DejaVuSans-30" transform="translate(222.65625 0)"/>
      </g>
     </g>
    </g>
    <g id="xtick_14">
     <g id="line2d_29">
      <path d="M 872.298945 470.412 
L 872.298945 89.952 
" clip-path="url(#p8a7688fd8d)" style="fill: none; stroke: #cccccc; stroke-linecap: round"/>
     </g>
     <g id="text_31">
      <!-- 0.125 -->
      <g style="fill: #262626" transform="translate(855.766203 488.688195) scale(0.1155 -0.1155)">
       <use xlink:href="#DejaVuSans-30"/>
       <use xlink:href="#DejaVuSans-2e" transform="translate(63.623047 0)"/>
       <use xlink:href="#DejaVuSans-31" transform="translate(95.410156 0)"/>
       <use xlink:href="#DejaVuSans-32" transform="translate(159.033203 0)"/>
       <use xlink:href="#DejaVuSans-35" transform="translate(222.65625 0)"/>
      </g>
     </g>
    </g>
    <g id="xtick_15">
     <g id="line2d_30">
      <path d="M 921.74431 470.412 
L 921.74431 89.952 
" clip-path="url(#p8a7688fd8d)" style="fill: none; stroke: #cccccc; stroke-linecap: round"/>
     </g>
     <g id="text_32">
      <!-- 0.150 -->
      <g style="fill: #262626" transform="translate(905.211568 488.688195) scale(0.1155 -0.1155)">
       <use xlink:href="#DejaVuSans-30"/>
       <use xlink:href="#DejaVuSans-2e" transform="translate(63.623047 0)"/>
       <use xlink:href="#DejaVuSans-31" transform="translate(95.410156 0)"/>
       <use xlink:href="#DejaVuSans-35" transform="translate(159.033203 0)"/>
       <use xlink:href="#DejaVuSans-30" transform="translate(222.65625 0)"/>
      </g>
     </g>
    </g>
    <g id="xtick_16">
     <g id="line2d_31">
      <path d="M 971.189675 470.412 
L 971.189675 89.952 
" clip-path="url(#p8a7688fd8d)" style="fill: none; stroke: #cccccc; stroke-linecap: round"/>
     </g>
     <g id="text_33">
      <!-- 0.175 -->
      <g style="fill: #262626" transform="translate(954.656933 488.688195) scale(0.1155 -0.1155)">
       <use xlink:href="#DejaVuSans-30"/>
       <use xlink:href="#DejaVuSans-2e" transform="translate(63.623047 0)"/>
       <use xlink:href="#DejaVuSans-31" transform="translate(95.410156 0)"/>
       <use xlink:href="#DejaVuSans-37" transform="translate(159.033203 0)"/>
       <use xlink:href="#DejaVuSans-35" transform="translate(222.65625 0)"/>
      </g>
     </g>
    </g>
    <g id="xtick_17">
     <g id="line2d_32">
      <path d="M 1020.63504 470.412 
L 1020.63504 89.952 
" clip-path="url(#p8a7688fd8d)" style="fill: none; stroke: #cccccc; stroke-linecap: round"/>
     </g>
     <g id="text_34">
      <!-- 0.200 -->
      <g style="fill: #262626" transform="translate(1004.102298 488.688195) scale(0.1155 -0.1155)">
       <use xlink:href="#DejaVuSans-30"/>
       <use xlink:href="#DejaVuSans-2e" transform="translate(63.623047 0)"/>
       <use xlink:href="#DejaVuSans-32" transform="translate(95.410156 0)"/>
       <use xlink:href="#DejaVuSans-30" transform="translate(159.033203 0)"/>
       <use xlink:href="#DejaVuSans-30" transform="translate(222.65625 0)"/>
      </g>
     </g>
    </g>
    <g id="text_35">
     <!-- Importance -->
     <g style="fill: #262626" transform="translate(798.491852 504.664266) scale(0.126 -0.126)">
      <use xlink:href="#DejaVuSans-49"/>
      <use xlink:href="#DejaVuSans-6d" transform="translate(29.492188 0)"/>
      <use xlink:href="#DejaVuSans-70" transform="translate(126.904297 0)"/>
      <use xlink:href="#DejaVuSans-6f" transform="translate(190.380859 0)"/>
      <use xlink:href="#DejaVuSans-72" transform="translate(251.5625 0)"/>
      <use xlink:href="#DejaVuSans-74" transform="translate(292.675781 0)"/>
      <use xlink:href="#DejaVuSans-61" transform="translate(331.884766 0)"/>
      <use xlink:href="#DejaVuSans-6e" transform="translate(393.164062 0)"/>
      <use xlink:href="#DejaVuSans-63" transform="translate(456.542969 0)"/>
      <use xlink:href="#DejaVuSans-65" transform="translate(511.523438 0)"/>
     </g>
    </g>
   </g>
   <g id="matplotlib.axis_4">
    <g id="ytick_16">
     <g id="line2d_33">
      <path d="M 625.07212 457.73 
L 1044.117458 457.73 
" clip-path="url(#p8a7688fd8d)" style="fill: none; stroke: #cccccc; stroke-linecap: round"/>
     </g>
     <g id="text_36">
      <!-- wc -->
      <g style="fill: #262626" transform="translate(599.77569 462.118098) scale(0.1155 -0.1155)">
       <use xlink:href="#DejaVuSans-77"/>
       <use xlink:href="#DejaVuSans-63" transform="translate(81.787109 0)"/>
      </g>
     </g>
    </g>
    <g id="ytick_17">
     <g id="line2d_34">
      <path d="M 625.07212 432.366 
L 1044.117458 432.366 
" clip-path="url(#p8a7688fd8d)" style="fill: none; stroke: #cccccc; stroke-linecap: round"/>
     </g>
     <g id="text_37">
      <!-- pc_abnormal -->
      <g style="fill: #262626" transform="translate(541.233432 436.754098) scale(0.1155 -0.1155)">
       <use xlink:href="#DejaVuSans-70"/>
       <use xlink:href="#DejaVuSans-63" transform="translate(63.476562 0)"/>
       <use xlink:href="#DejaVuSans-5f" transform="translate(118.457031 0)"/>
       <use xlink:href="#DejaVuSans-61" transform="translate(168.457031 0)"/>
       <use xlink:href="#DejaVuSans-62" transform="translate(229.736328 0)"/>
       <use xlink:href="#DejaVuSans-6e" transform="translate(293.212891 0)"/>
       <use xlink:href="#DejaVuSans-6f" transform="translate(356.591797 0)"/>
       <use xlink:href="#DejaVuSans-72" transform="translate(417.773438 0)"/>
       <use xlink:href="#DejaVuSans-6d" transform="translate(457.136719 0)"/>
       <use xlink:href="#DejaVuSans-61" transform="translate(554.548828 0)"/>
       <use xlink:href="#DejaVuSans-6c" transform="translate(615.828125 0)"/>
      </g>
     </g>
    </g>
    <g id="ytick_18">
     <g id="line2d_35">
      <path d="M 625.07212 407.002 
L 1044.117458 407.002 
" clip-path="url(#p8a7688fd8d)" style="fill: none; stroke: #cccccc; stroke-linecap: round"/>
     </g>
     <g id="text_38">
      <!-- age -->
      <g style="fill: #262626" transform="translate(594.054831 411.390098) scale(0.1155 -0.1155)">
       <use xlink:href="#DejaVuSans-61"/>
       <use xlink:href="#DejaVuSans-67" transform="translate(61.279297 0)"/>
       <use xlink:href="#DejaVuSans-65" transform="translate(124.755859 0)"/>
      </g>
     </g>
    </g>
    <g id="ytick_19">
     <g id="line2d_36">
      <path d="M 625.07212 381.638 
L 1044.117458 381.638 
" clip-path="url(#p8a7688fd8d)" style="fill: none; stroke: #cccccc; stroke-linecap: round"/>
     </g>
     <g id="text_39">
      <!-- pc_normal -->
      <g style="fill: #262626" transform="translate(555.643862 386.026098) scale(0.1155 -0.1155)">
       <use xlink:href="#DejaVuSans-70"/>
       <use xlink:href="#DejaVuSans-63" transform="translate(63.476562 0)"/>
       <use xlink:href="#DejaVuSans-5f" transform="translate(118.457031 0)"/>
       <use xlink:href="#DejaVuSans-6e" transform="translate(168.457031 0)"/>
       <use xlink:href="#DejaVuSans-6f" transform="translate(231.835938 0)"/>
       <use xlink:href="#DejaVuSans-72" transform="translate(293.017578 0)"/>
       <use xlink:href="#DejaVuSans-6d" transform="translate(332.380859 0)"/>
       <use xlink:href="#DejaVuSans-61" transform="translate(429.792969 0)"/>
       <use xlink:href="#DejaVuSans-6c" transform="translate(491.072266 0)"/>
      </g>
     </g>
    </g>
    <g id="ytick_20">
     <g id="line2d_37">
      <path d="M 625.07212 356.274 
L 1044.117458 356.274 
" clip-path="url(#p8a7688fd8d)" style="fill: none; stroke: #cccccc; stroke-linecap: round"/>
     </g>
     <g id="text_40">
      <!-- bp -->
      <g style="fill: #262626" transform="translate(600.907229 360.662098) scale(0.1155 -0.1155)">
       <use xlink:href="#DejaVuSans-62"/>
       <use xlink:href="#DejaVuSans-70" transform="translate(63.476562 0)"/>
      </g>
     </g>
    </g>
    <g id="ytick_21">
     <g id="line2d_38">
      <path d="M 625.07212 330.91 
L 1044.117458 330.91 
" clip-path="url(#p8a7688fd8d)" style="fill: none; stroke: #cccccc; stroke-linecap: round"/>
     </g>
     <g id="text_41">
      <!-- su -->
      <g style="fill: #262626" transform="translate(602.235479 335.298098) scale(0.1155 -0.1155)">
       <defs>
        <path id="DejaVuSans-75" d="M 544 1381 
L 544 3500 
L 1119 3500 
L 1119 1403 
Q 1119 906 1312 657 
Q 1506 409 1894 409 
Q 2359 409 2629 706 
Q 2900 1003 2900 1516 
L 2900 3500 
L 3475 3500 
L 3475 0 
L 2900 0 
L 2900 538 
Q 2691 219 2414 64 
Q 2138 -91 1772 -91 
Q 1169 -91 856 284 
Q 544 659 544 1381 
z
M 1991 3584 
L 1991 3584 
z
" transform="scale(0.015625)"/>
       </defs>
       <use xlink:href="#DejaVuSans-73"/>
       <use xlink:href="#DejaVuSans-75" transform="translate(52.099609 0)"/>
      </g>
     </g>
    </g>
    <g id="ytick_22">
     <g id="line2d_39">
      <path d="M 625.07212 305.546 
L 1044.117458 305.546 
" clip-path="url(#p8a7688fd8d)" style="fill: none; stroke: #cccccc; stroke-linecap: round"/>
     </g>
     <g id="text_42">
      <!-- sod -->
      <g style="fill: #262626" transform="translate(595.15569 309.934098) scale(0.1155 -0.1155)">
       <use xlink:href="#DejaVuSans-73"/>
       <use xlink:href="#DejaVuSans-6f" transform="translate(52.099609 0)"/>
       <use xlink:href="#DejaVuSans-64" transform="translate(113.28125 0)"/>
      </g>
     </g>
    </g>
    <g id="ytick_23">
     <g id="line2d_40">
      <path d="M 625.07212 280.182 
L 1044.117458 280.182 
" clip-path="url(#p8a7688fd8d)" style="fill: none; stroke: #cccccc; stroke-linecap: round"/>
     </g>
     <g id="text_43">
      <!-- bu -->
      <g style="fill: #262626" transform="translate(600.919862 284.570098) scale(0.1155 -0.1155)">
       <use xlink:href="#DejaVuSans-62"/>
       <use xlink:href="#DejaVuSans-75" transform="translate(63.476562 0)"/>
      </g>
     </g>
    </g>
    <g id="ytick_24">
     <g id="line2d_41">
      <path d="M 625.07212 254.818 
L 1044.117458 254.818 
" clip-path="url(#p8a7688fd8d)" style="fill: none; stroke: #cccccc; stroke-linecap: round"/>
     </g>
     <g id="text_44">
      <!-- bgr -->
      <g style="fill: #262626" transform="translate(596.159096 259.206098) scale(0.1155 -0.1155)">
       <use xlink:href="#DejaVuSans-62"/>
       <use xlink:href="#DejaVuSans-67" transform="translate(63.476562 0)"/>
       <use xlink:href="#DejaVuSans-72" transform="translate(126.953125 0)"/>
      </g>
     </g>
    </g>
    <g id="ytick_25">
     <g id="line2d_42">
      <path d="M 625.07212 229.454 
L 1044.117458 229.454 
" clip-path="url(#p8a7688fd8d)" style="fill: none; stroke: #cccccc; stroke-linecap: round"/>
     </g>
     <g id="text_45">
      <!-- rc -->
      <g style="fill: #262626" transform="translate(604.733167 233.842098) scale(0.1155 -0.1155)">
       <use xlink:href="#DejaVuSans-72"/>
       <use xlink:href="#DejaVuSans-63" transform="translate(38.863281 0)"/>
      </g>
     </g>
    </g>
    <g id="ytick_26">
     <g id="line2d_43">
      <path d="M 625.07212 204.09 
L 1044.117458 204.09 
" clip-path="url(#p8a7688fd8d)" style="fill: none; stroke: #cccccc; stroke-linecap: round"/>
     </g>
     <g id="text_46">
      <!-- al -->
      <g style="fill: #262626" transform="translate(605.285401 208.478098) scale(0.1155 -0.1155)">
       <use xlink:href="#DejaVuSans-61"/>
       <use xlink:href="#DejaVuSans-6c" transform="translate(61.279297 0)"/>
      </g>
     </g>
    </g>
    <g id="ytick_27">
     <g id="line2d_44">
      <path d="M 625.07212 178.726 
L 1044.117458 178.726 
" clip-path="url(#p8a7688fd8d)" style="fill: none; stroke: #cccccc; stroke-linecap: round"/>
     </g>
     <g id="text_47">
      <!-- pcv -->
      <g style="fill: #262626" transform="translate(595.052823 183.114098) scale(0.1155 -0.1155)">
       <use xlink:href="#DejaVuSans-70"/>
       <use xlink:href="#DejaVuSans-63" transform="translate(63.476562 0)"/>
       <use xlink:href="#DejaVuSans-76" transform="translate(118.457031 0)"/>
      </g>
     </g>
    </g>
    <g id="ytick_28">
     <g id="line2d_45">
      <path d="M 625.07212 153.362 
L 1044.117458 153.362 
" clip-path="url(#p8a7688fd8d)" style="fill: none; stroke: #cccccc; stroke-linecap: round"/>
     </g>
     <g id="text_48">
      <!-- sc -->
      <g style="fill: #262626" transform="translate(603.204596 157.750098) scale(0.1155 -0.1155)">
       <use xlink:href="#DejaVuSans-73"/>
       <use xlink:href="#DejaVuSans-63" transform="translate(52.099609 0)"/>
      </g>
     </g>
    </g>
    <g id="ytick_29">
     <g id="line2d_46">
      <path d="M 625.07212 127.998 
L 1044.117458 127.998 
" clip-path="url(#p8a7688fd8d)" style="fill: none; stroke: #cccccc; stroke-linecap: round"/>
     </g>
     <g id="text_49">
      <!-- hemo -->
      <g style="fill: #262626" transform="translate(582.82787 132.386098) scale(0.1155 -0.1155)">
       <use xlink:href="#DejaVuSans-68"/>
       <use xlink:href="#DejaVuSans-65" transform="translate(63.378906 0)"/>
       <use xlink:href="#DejaVuSans-6d" transform="translate(124.902344 0)"/>
       <use xlink:href="#DejaVuSans-6f" transform="translate(222.314453 0)"/>
      </g>
     </g>
    </g>
    <g id="ytick_30">
     <g id="line2d_47">
      <path d="M 625.07212 102.634 
L 1044.117458 102.634 
" clip-path="url(#p8a7688fd8d)" style="fill: none; stroke: #cccccc; stroke-linecap: round"/>
     </g>
     <g id="text_50">
      <!-- sg -->
      <g style="fill: #262626" transform="translate(602.222846 107.022098) scale(0.1155 -0.1155)">
       <use xlink:href="#DejaVuSans-73"/>
       <use xlink:href="#DejaVuSans-67" transform="translate(52.099609 0)"/>
      </g>
     </g>
    </g>
   </g>
   <g id="patch_23">
    <path d="M 625.07212 464.071 
L 640.871205 464.071 
L 640.871205 451.389 
L 625.07212 451.389 
z
" clip-path="url(#p8a7688fd8d)" style="fill: #55a868; stroke: #ffffff; stroke-linejoin: miter"/>
   </g>
   <g id="patch_24">
    <path d="M 625.07212 438.707 
L 641.83667 438.707 
L 641.83667 426.025 
L 625.07212 426.025 
z
" clip-path="url(#p8a7688fd8d)" style="fill: #55a868; stroke: #ffffff; stroke-linejoin: miter"/>
   </g>
   <g id="patch_25">
    <path d="M 625.07212 413.343 
L 645.523518 413.343 
L 645.523518 400.661 
L 625.07212 400.661 
z
" clip-path="url(#p8a7688fd8d)" style="fill: #55a868; stroke: #ffffff; stroke-linejoin: miter"/>
   </g>
   <g id="patch_26">
    <path d="M 625.07212 387.979 
L 649.46353 387.979 
L 649.46353 375.297 
L 625.07212 375.297 
z
" clip-path="url(#p8a7688fd8d)" style="fill: #55a868; stroke: #ffffff; stroke-linejoin: miter"/>
   </g>
   <g id="patch_27">
    <path d="M 625.07212 362.615 
L 650.488154 362.615 
L 650.488154 349.933 
L 625.07212 349.933 
z
" clip-path="url(#p8a7688fd8d)" style="fill: #55a868; stroke: #ffffff; stroke-linejoin: miter"/>
   </g>
   <g id="patch_28">
    <path d="M 625.07212 337.251 
L 656.163154 337.251 
L 656.163154 324.569 
L 625.07212 324.569 
z
" clip-path="url(#p8a7688fd8d)" style="fill: #55a868; stroke: #ffffff; stroke-linejoin: miter"/>
   </g>
   <g id="patch_29">
    <path d="M 625.07212 311.887 
L 667.296136 311.887 
L 667.296136 299.205 
L 625.07212 299.205 
z
" clip-path="url(#p8a7688fd8d)" style="fill: #55a868; stroke: #ffffff; stroke-linejoin: miter"/>
   </g>
   <g id="patch_30">
    <path d="M 625.07212 286.523 
L 673.54032 286.523 
L 673.54032 273.841 
L 625.07212 273.841 
z
" clip-path="url(#p8a7688fd8d)" style="fill: #55a868; stroke: #ffffff; stroke-linejoin: miter"/>
   </g>
   <g id="patch_31">
    <path d="M 625.07212 261.159 
L 694.938142 261.159 
L 694.938142 248.477 
L 625.07212 248.477 
z
" clip-path="url(#p8a7688fd8d)" style="fill: #55a868; stroke: #ffffff; stroke-linejoin: miter"/>
   </g>
   <g id="patch_32">
    <path d="M 625.07212 235.795 
L 743.93622 235.795 
L 743.93622 223.113 
L 625.07212 223.113 
z
" clip-path="url(#p8a7688fd8d)" style="fill: #55a868; stroke: #ffffff; stroke-linejoin: miter"/>
   </g>
   <g id="patch_33">
    <path d="M 625.07212 210.431 
L 772.66518 210.431 
L 772.66518 197.749 
L 625.07212 197.749 
z
" clip-path="url(#p8a7688fd8d)" style="fill: #55a868; stroke: #ffffff; stroke-linejoin: miter"/>
   </g>
   <g id="patch_34">
    <path d="M 625.07212 185.067 
L 884.846158 185.067 
L 884.846158 172.385 
L 625.07212 172.385 
z
" clip-path="url(#p8a7688fd8d)" style="fill: #55a868; stroke: #ffffff; stroke-linejoin: miter"/>
   </g>
   <g id="patch_35">
    <path d="M 625.07212 159.703 
L 980.39083 159.703 
L 980.39083 147.021 
L 625.07212 147.021 
z
" clip-path="url(#p8a7688fd8d)" style="fill: #55a868; stroke: #ffffff; stroke-linejoin: miter"/>
   </g>
   <g id="patch_36">
    <path d="M 625.07212 134.339 
L 1001.258045 134.339 
L 1001.258045 121.657 
L 625.07212 121.657 
z
" clip-path="url(#p8a7688fd8d)" style="fill: #55a868; stroke: #ffffff; stroke-linejoin: miter"/>
   </g>
   <g id="patch_37">
    <path d="M 625.07212 108.975 
L 1024.162919 108.975 
L 1024.162919 96.293 
L 625.07212 96.293 
z
" clip-path="url(#p8a7688fd8d)" style="fill: #55a868; stroke: #ffffff; stroke-linejoin: miter"/>
   </g>
   <g id="patch_38">
    <path d="M 625.07212 470.412 
L 625.07212 89.952 
" style="fill: none; stroke: #cccccc; stroke-width: 1.25; stroke-linejoin: miter; stroke-linecap: square"/>
   </g>
   <g id="patch_39">
    <path d="M 1044.117458 470.412 
L 1044.117458 89.952 
" style="fill: none; stroke: #cccccc; stroke-width: 1.25; stroke-linejoin: miter; stroke-linecap: square"/>
   </g>
   <g id="patch_40">
    <path d="M 625.07212 470.412 
L 1044.117458 470.412 
" style="fill: none; stroke: #cccccc; stroke-width: 1.25; stroke-linejoin: miter; stroke-linecap: square"/>
   </g>
   <g id="patch_41">
    <path d="M 625.07212 89.952 
L 1044.117458 89.952 
" style="fill: none; stroke: #cccccc; stroke-width: 1.25; stroke-linejoin: miter; stroke-linecap: square"/>
   </g>
   <g id="text_51">
    <!-- Random Forest -->
    <g style="fill: #262626" transform="translate(779.186352 69.394844) scale(0.13 -0.13)">
     <defs>
      <path id="DejaVuSans-Bold-52" d="M 2297 2597 
Q 2675 2597 2839 2737 
Q 3003 2878 3003 3200 
Q 3003 3519 2839 3656 
Q 2675 3794 2297 3794 
L 1791 3794 
L 1791 2597 
L 2297 2597 
z
M 1791 1766 
L 1791 0 
L 588 0 
L 588 4666 
L 2425 4666 
Q 3347 4666 3776 4356 
Q 4206 4047 4206 3378 
Q 4206 2916 3982 2619 
Q 3759 2322 3309 2181 
Q 3556 2125 3751 1926 
Q 3947 1728 4147 1325 
L 4800 0 
L 3519 0 
L 2950 1159 
Q 2778 1509 2601 1637 
Q 2425 1766 2131 1766 
L 1791 1766 
z
" transform="scale(0.015625)"/>
      <path id="DejaVuSans-Bold-64" d="M 2919 2988 
L 2919 4863 
L 4044 4863 
L 4044 0 
L 2919 0 
L 2919 506 
Q 2688 197 2409 53 
Q 2131 -91 1766 -91 
Q 1119 -91 703 423 
Q 288 938 288 1747 
Q 288 2556 703 3070 
Q 1119 3584 1766 3584 
Q 2128 3584 2408 3439 
Q 2688 3294 2919 2988 
z
M 2181 722 
Q 2541 722 2730 984 
Q 2919 1247 2919 1747 
Q 2919 2247 2730 2509 
Q 2541 2772 2181 2772 
Q 1825 2772 1636 2509 
Q 1447 2247 1447 1747 
Q 1447 1247 1636 984 
Q 1825 722 2181 722 
z
" transform="scale(0.015625)"/>
      <path id="DejaVuSans-Bold-6d" d="M 3781 2919 
Q 3994 3244 4286 3414 
Q 4578 3584 4928 3584 
Q 5531 3584 5847 3212 
Q 6163 2841 6163 2131 
L 6163 0 
L 5038 0 
L 5038 1825 
Q 5041 1866 5042 1909 
Q 5044 1953 5044 2034 
Q 5044 2406 4934 2573 
Q 4825 2741 4581 2741 
Q 4263 2741 4089 2478 
Q 3916 2216 3909 1719 
L 3909 0 
L 2784 0 
L 2784 1825 
Q 2784 2406 2684 2573 
Q 2584 2741 2328 2741 
Q 2006 2741 1831 2477 
Q 1656 2213 1656 1722 
L 1656 0 
L 531 0 
L 531 3500 
L 1656 3500 
L 1656 2988 
Q 1863 3284 2130 3434 
Q 2397 3584 2719 3584 
Q 3081 3584 3359 3409 
Q 3638 3234 3781 2919 
z
" transform="scale(0.015625)"/>
     </defs>
     <use xlink:href="#DejaVuSans-Bold-52"/>
     <use xlink:href="#DejaVuSans-Bold-61" transform="translate(77.001953 0)"/>
     <use xlink:href="#DejaVuSans-Bold-6e" transform="translate(144.482422 0)"/>
     <use xlink:href="#DejaVuSans-Bold-64" transform="translate(215.673828 0)"/>
     <use xlink:href="#DejaVuSans-Bold-6f" transform="translate(287.255859 0)"/>
     <use xlink:href="#DejaVuSans-Bold-6d" transform="translate(355.957031 0)"/>
     <use xlink:href="#DejaVuSans-Bold-20" transform="translate(460.15625 0)"/>
     <use xlink:href="#DejaVuSans-Bold-46" transform="translate(494.970703 0)"/>
     <use xlink:href="#DejaVuSans-Bold-6f" transform="translate(559.28125 0)"/>
     <use xlink:href="#DejaVuSans-Bold-72" transform="translate(627.982422 0)"/>
     <use xlink:href="#DejaVuSans-Bold-65" transform="translate(677.298828 0)"/>
     <use xlink:href="#DejaVuSans-Bold-73" transform="translate(745.121094 0)"/>
     <use xlink:href="#DejaVuSans-Bold-74" transform="translate(804.642578 0)"/>
    </g>
    <!-- Top 15 Features -->
    <g style="fill: #262626" transform="translate(776.140492 83.952) scale(0.13 -0.13)">
     <use xlink:href="#DejaVuSans-Bold-54"/>
     <use xlink:href="#DejaVuSans-Bold-6f" transform="translate(54.962891 0)"/>
     <use xlink:href="#DejaVuSans-Bold-70" transform="translate(123.664062 0)"/>
     <use xlink:href="#DejaVuSans-Bold-20" transform="translate(195.246094 0)"/>
     <use xlink:href="#DejaVuSans-Bold-31" transform="translate(230.060547 0)"/>
     <use xlink:href="#DejaVuSans-Bold-35" transform="translate(299.640625 0)"/>
     <use xlink:href="#DejaVuSans-Bold-20" transform="translate(369.220703 0)"/>
     <use xlink:href="#DejaVuSans-Bold-46" transform="translate(404.035156 0)"/>
     <use xlink:href="#DejaVuSans-Bold-65" transform="translate(468.345703 0)"/>
     <use xlink:href="#DejaVuSans-Bold-61" transform="translate(536.167969 0)"/>
     <use xlink:href="#DejaVuSans-Bold-74" transform="translate(603.648438 0)"/>
     <use xlink:href="#DejaVuSans-Bold-75" transform="translate(651.451172 0)"/>
     <use xlink:href="#DejaVuSans-Bold-72" transform="translate(722.642578 0)"/>
     <use xlink:href="#DejaVuSans-Bold-65" transform="translate(771.958984 0)"/>
     <use xlink:href="#DejaVuSans-Bold-73" transform="translate(839.78125 0)"/>
    </g>
   </g>
  </g>
  <g id="axes_3">
   <g id="patch_42">
    <path d="M 1144.82145 470.412 
L 1563.866789 470.412 
L 1563.866789 89.952 
L 1144.82145 89.952 
z
" style="fill: #ffffff"/>
   </g>
   <g id="matplotlib.axis_5">
    <g id="xtick_18">
     <g id="line2d_48">
      <path d="M 1144.82145 470.412 
L 1144.82145 89.952 
" clip-path="url(#p80df4e7f42)" style="fill: none; stroke: #cccccc; stroke-linecap: round"/>
     </g>
     <g id="text_52">
      <!-- 0.00 -->
      <g style="fill: #262626" transform="translate(1131.963052 488.688195) scale(0.1155 -0.1155)">
       <use xlink:href="#DejaVuSans-30"/>
       <use xlink:href="#DejaVuSans-2e" transform="translate(63.623047 0)"/>
       <use xlink:href="#DejaVuSans-30" transform="translate(95.410156 0)"/>
       <use xlink:href="#DejaVuSans-30" transform="translate(159.033203 0)"/>
      </g>
     </g>
    </g>
    <g id="xtick_19">
     <g id="line2d_49">
      <path d="M 1214.78551 470.412 
L 1214.78551 89.952 
" clip-path="url(#p80df4e7f42)" style="fill: none; stroke: #cccccc; stroke-linecap: round"/>
     </g>
     <g id="text_53">
      <!-- 0.05 -->
      <g style="fill: #262626" transform="translate(1201.927111 488.688195) scale(0.1155 -0.1155)">
       <use xlink:href="#DejaVuSans-30"/>
       <use xlink:href="#DejaVuSans-2e" transform="translate(63.623047 0)"/>
       <use xlink:href="#DejaVuSans-30" transform="translate(95.410156 0)"/>
       <use xlink:href="#DejaVuSans-35" transform="translate(159.033203 0)"/>
      </g>
     </g>
    </g>
    <g id="xtick_20">
     <g id="line2d_50">
      <path d="M 1284.749569 470.412 
L 1284.749569 89.952 
" clip-path="url(#p80df4e7f42)" style="fill: none; stroke: #cccccc; stroke-linecap: round"/>
     </g>
     <g id="text_54">
      <!-- 0.10 -->
      <g style="fill: #262626" transform="translate(1271.89117 488.688195) scale(0.1155 -0.1155)">
       <use xlink:href="#DejaVuSans-30"/>
       <use xlink:href="#DejaVuSans-2e" transform="translate(63.623047 0)"/>
       <use xlink:href="#DejaVuSans-31" transform="translate(95.410156 0)"/>
       <use xlink:href="#DejaVuSans-30" transform="translate(159.033203 0)"/>
      </g>
     </g>
    </g>
    <g id="xtick_21">
     <g id="line2d_51">
      <path d="M 1354.713628 470.412 
L 1354.713628 89.952 
" clip-path="url(#p80df4e7f42)" style="fill: none; stroke: #cccccc; stroke-linecap: round"/>
     </g>
     <g id="text_55">
      <!-- 0.15 -->
      <g style="fill: #262626" transform="translate(1341.85523 488.688195) scale(0.1155 -0.1155)">
       <use xlink:href="#DejaVuSans-30"/>
       <use xlink:href="#DejaVuSans-2e" transform="translate(63.623047 0)"/>
       <use xlink:href="#DejaVuSans-31" transform="translate(95.410156 0)"/>
       <use xlink:href="#DejaVuSans-35" transform="translate(159.033203 0)"/>
      </g>
     </g>
    </g>
    <g id="xtick_22">
     <g id="line2d_52">
      <path d="M 1424.677687 470.412 
L 1424.677687 89.952 
" clip-path="url(#p80df4e7f42)" style="fill: none; stroke: #cccccc; stroke-linecap: round"/>
     </g>
     <g id="text_56">
      <!-- 0.20 -->
      <g style="fill: #262626" transform="translate(1411.819289 488.688195) scale(0.1155 -0.1155)">
       <use xlink:href="#DejaVuSans-30"/>
       <use xlink:href="#DejaVuSans-2e" transform="translate(63.623047 0)"/>
       <use xlink:href="#DejaVuSans-32" transform="translate(95.410156 0)"/>
       <use xlink:href="#DejaVuSans-30" transform="translate(159.033203 0)"/>
      </g>
     </g>
    </g>
    <g id="xtick_23">
     <g id="line2d_53">
      <path d="M 1494.641747 470.412 
L 1494.641747 89.952 
" clip-path="url(#p80df4e7f42)" style="fill: none; stroke: #cccccc; stroke-linecap: round"/>
     </g>
     <g id="text_57">
      <!-- 0.25 -->
      <g style="fill: #262626" transform="translate(1481.783348 488.688195) scale(0.1155 -0.1155)">
       <use xlink:href="#DejaVuSans-30"/>
       <use xlink:href="#DejaVuSans-2e" transform="translate(63.623047 0)"/>
       <use xlink:href="#DejaVuSans-32" transform="translate(95.410156 0)"/>
       <use xlink:href="#DejaVuSans-35" transform="translate(159.033203 0)"/>
      </g>
     </g>
    </g>
    <g id="text_58">
     <!-- Importance -->
     <g style="fill: #262626" transform="translate(1318.241182 504.664266) scale(0.126 -0.126)">
      <use xlink:href="#DejaVuSans-49"/>
      <use xlink:href="#DejaVuSans-6d" transform="translate(29.492188 0)"/>
      <use xlink:href="#DejaVuSans-70" transform="translate(126.904297 0)"/>
      <use xlink:href="#DejaVuSans-6f" transform="translate(190.380859 0)"/>
      <use xlink:href="#DejaVuSans-72" transform="translate(251.5625 0)"/>
      <use xlink:href="#DejaVuSans-74" transform="translate(292.675781 0)"/>
      <use xlink:href="#DejaVuSans-61" transform="translate(331.884766 0)"/>
      <use xlink:href="#DejaVuSans-6e" transform="translate(393.164062 0)"/>
      <use xlink:href="#DejaVuSans-63" transform="translate(456.542969 0)"/>
      <use xlink:href="#DejaVuSans-65" transform="translate(511.523438 0)"/>
     </g>
    </g>
   </g>
   <g id="matplotlib.axis_6">
    <g id="ytick_31">
     <g id="line2d_54">
      <path d="M 1144.82145 457.73 
L 1563.866789 457.73 
" clip-path="url(#p80df4e7f42)" style="fill: none; stroke: #cccccc; stroke-linecap: round"/>
     </g>
     <g id="text_59">
      <!-- pc_abnormal -->
      <g style="fill: #262626" transform="translate(1060.982763 462.118098) scale(0.1155 -0.1155)">
       <use xlink:href="#DejaVuSans-70"/>
       <use xlink:href="#DejaVuSans-63" transform="translate(63.476562 0)"/>
       <use xlink:href="#DejaVuSans-5f" transform="translate(118.457031 0)"/>
       <use xlink:href="#DejaVuSans-61" transform="translate(168.457031 0)"/>
       <use xlink:href="#DejaVuSans-62" transform="translate(229.736328 0)"/>
       <use xlink:href="#DejaVuSans-6e" transform="translate(293.212891 0)"/>
       <use xlink:href="#DejaVuSans-6f" transform="translate(356.591797 0)"/>
       <use xlink:href="#DejaVuSans-72" transform="translate(417.773438 0)"/>
       <use xlink:href="#DejaVuSans-6d" transform="translate(457.136719 0)"/>
       <use xlink:href="#DejaVuSans-61" transform="translate(554.548828 0)"/>
       <use xlink:href="#DejaVuSans-6c" transform="translate(615.828125 0)"/>
      </g>
     </g>
    </g>
    <g id="ytick_32">
     <g id="line2d_55">
      <path d="M 1144.82145 432.366 
L 1563.866789 432.366 
" clip-path="url(#p80df4e7f42)" style="fill: none; stroke: #cccccc; stroke-linecap: round"/>
     </g>
     <g id="text_60">
      <!-- pot -->
      <g style="fill: #262626" transform="translate(1116.393888 436.754098) scale(0.1155 -0.1155)">
       <use xlink:href="#DejaVuSans-70"/>
       <use xlink:href="#DejaVuSans-6f" transform="translate(63.476562 0)"/>
       <use xlink:href="#DejaVuSans-74" transform="translate(124.658203 0)"/>
      </g>
     </g>
    </g>
    <g id="ytick_33">
     <g id="line2d_56">
      <path d="M 1144.82145 407.002 
L 1563.866789 407.002 
" clip-path="url(#p80df4e7f42)" style="fill: none; stroke: #cccccc; stroke-linecap: round"/>
     </g>
     <g id="text_61">
      <!-- bu -->
      <g style="fill: #262626" transform="translate(1120.669192 411.390098) scale(0.1155 -0.1155)">
       <use xlink:href="#DejaVuSans-62"/>
       <use xlink:href="#DejaVuSans-75" transform="translate(63.476562 0)"/>
      </g>
     </g>
    </g>
    <g id="ytick_34">
     <g id="line2d_57">
      <path d="M 1144.82145 381.638 
L 1563.866789 381.638 
" clip-path="url(#p80df4e7f42)" style="fill: none; stroke: #cccccc; stroke-linecap: round"/>
     </g>
     <g id="text_62">
      <!-- bp -->
      <g style="fill: #262626" transform="translate(1120.65656 386.026098) scale(0.1155 -0.1155)">
       <use xlink:href="#DejaVuSans-62"/>
       <use xlink:href="#DejaVuSans-70" transform="translate(63.476562 0)"/>
      </g>
     </g>
    </g>
    <g id="ytick_35">
     <g id="line2d_58">
      <path d="M 1144.82145 356.274 
L 1563.866789 356.274 
" clip-path="url(#p80df4e7f42)" style="fill: none; stroke: #cccccc; stroke-linecap: round"/>
     </g>
     <g id="text_63">
      <!-- age -->
      <g style="fill: #262626" transform="translate(1113.804161 360.662098) scale(0.1155 -0.1155)">
       <use xlink:href="#DejaVuSans-61"/>
       <use xlink:href="#DejaVuSans-67" transform="translate(61.279297 0)"/>
       <use xlink:href="#DejaVuSans-65" transform="translate(124.755859 0)"/>
      </g>
     </g>
    </g>
    <g id="ytick_36">
     <g id="line2d_59">
      <path d="M 1144.82145 330.91 
L 1563.866789 330.91 
" clip-path="url(#p80df4e7f42)" style="fill: none; stroke: #cccccc; stroke-linecap: round"/>
     </g>
     <g id="text_64">
      <!-- wc -->
      <g style="fill: #262626" transform="translate(1119.525021 335.298098) scale(0.1155 -0.1155)">
       <use xlink:href="#DejaVuSans-77"/>
       <use xlink:href="#DejaVuSans-63" transform="translate(81.787109 0)"/>
      </g>
     </g>
    </g>
    <g id="ytick_37">
     <g id="line2d_60">
      <path d="M 1144.82145 305.546 
L 1563.866789 305.546 
" clip-path="url(#p80df4e7f42)" style="fill: none; stroke: #cccccc; stroke-linecap: round"/>
     </g>
     <g id="text_65">
      <!-- bgr -->
      <g style="fill: #262626" transform="translate(1115.908427 309.934098) scale(0.1155 -0.1155)">
       <use xlink:href="#DejaVuSans-62"/>
       <use xlink:href="#DejaVuSans-67" transform="translate(63.476562 0)"/>
       <use xlink:href="#DejaVuSans-72" transform="translate(126.953125 0)"/>
      </g>
     </g>
    </g>
    <g id="ytick_38">
     <g id="line2d_61">
      <path d="M 1144.82145 280.182 
L 1563.866789 280.182 
" clip-path="url(#p80df4e7f42)" style="fill: none; stroke: #cccccc; stroke-linecap: round"/>
     </g>
     <g id="text_66">
      <!-- pcv -->
      <g style="fill: #262626" transform="translate(1114.802153 284.570098) scale(0.1155 -0.1155)">
       <use xlink:href="#DejaVuSans-70"/>
       <use xlink:href="#DejaVuSans-63" transform="translate(63.476562 0)"/>
       <use xlink:href="#DejaVuSans-76" transform="translate(118.457031 0)"/>
      </g>
     </g>
    </g>
    <g id="ytick_39">
     <g id="line2d_62">
      <path d="M 1144.82145 254.818 
L 1563.866789 254.818 
" clip-path="url(#p80df4e7f42)" style="fill: none; stroke: #cccccc; stroke-linecap: round"/>
     </g>
     <g id="text_67">
      <!-- sod -->
      <g style="fill: #262626" transform="translate(1114.905021 259.206098) scale(0.1155 -0.1155)">
       <use xlink:href="#DejaVuSans-73"/>
       <use xlink:href="#DejaVuSans-6f" transform="translate(52.099609 0)"/>
       <use xlink:href="#DejaVuSans-64" transform="translate(113.28125 0)"/>
      </g>
     </g>
    </g>
    <g id="ytick_40">
     <g id="line2d_63">
      <path d="M 1144.82145 229.454 
L 1563.866789 229.454 
" clip-path="url(#p80df4e7f42)" style="fill: none; stroke: #cccccc; stroke-linecap: round"/>
     </g>
     <g id="text_68">
      <!-- rc -->
      <g style="fill: #262626" transform="translate(1124.482497 233.842098) scale(0.1155 -0.1155)">
       <use xlink:href="#DejaVuSans-72"/>
       <use xlink:href="#DejaVuSans-63" transform="translate(38.863281 0)"/>
      </g>
     </g>
    </g>
    <g id="ytick_41">
     <g id="line2d_64">
      <path d="M 1144.82145 204.09 
L 1563.866789 204.09 
" clip-path="url(#p80df4e7f42)" style="fill: none; stroke: #cccccc; stroke-linecap: round"/>
     </g>
     <g id="text_69">
      <!-- su -->
      <g style="fill: #262626" transform="translate(1121.98481 208.478098) scale(0.1155 -0.1155)">
       <use xlink:href="#DejaVuSans-73"/>
       <use xlink:href="#DejaVuSans-75" transform="translate(52.099609 0)"/>
      </g>
     </g>
    </g>
    <g id="ytick_42">
     <g id="line2d_65">
      <path d="M 1144.82145 178.726 
L 1563.866789 178.726 
" clip-path="url(#p80df4e7f42)" style="fill: none; stroke: #cccccc; stroke-linecap: round"/>
     </g>
     <g id="text_70">
      <!-- al -->
      <g style="fill: #262626" transform="translate(1125.034732 183.114098) scale(0.1155 -0.1155)">
       <use xlink:href="#DejaVuSans-61"/>
       <use xlink:href="#DejaVuSans-6c" transform="translate(61.279297 0)"/>
      </g>
     </g>
    </g>
    <g id="ytick_43">
     <g id="line2d_66">
      <path d="M 1144.82145 153.362 
L 1563.866789 153.362 
" clip-path="url(#p80df4e7f42)" style="fill: none; stroke: #cccccc; stroke-linecap: round"/>
     </g>
     <g id="text_71">
      <!-- sc -->
      <g style="fill: #262626" transform="translate(1122.953927 157.750098) scale(0.1155 -0.1155)">
       <use xlink:href="#DejaVuSans-73"/>
       <use xlink:href="#DejaVuSans-63" transform="translate(52.099609 0)"/>
      </g>
     </g>
    </g>
    <g id="ytick_44">
     <g id="line2d_67">
      <path d="M 1144.82145 127.998 
L 1563.866789 127.998 
" clip-path="url(#p80df4e7f42)" style="fill: none; stroke: #cccccc; stroke-linecap: round"/>
     </g>
     <g id="text_72">
      <!-- sg -->
      <g style="fill: #262626" transform="translate(1121.972177 132.386098) scale(0.1155 -0.1155)">
       <use xlink:href="#DejaVuSans-73"/>
       <use xlink:href="#DejaVuSans-67" transform="translate(52.099609 0)"/>
      </g>
     </g>
    </g>
    <g id="ytick_45">
     <g id="line2d_68">
      <path d="M 1144.82145 102.634 
L 1563.866789 102.634 
" clip-path="url(#p80df4e7f42)" style="fill: none; stroke: #cccccc; stroke-linecap: round"/>
     </g>
     <g id="text_73">
      <!-- hemo -->
      <g style="fill: #262626" transform="translate(1102.5772 107.022098) scale(0.1155 -0.1155)">
       <use xlink:href="#DejaVuSans-68"/>
       <use xlink:href="#DejaVuSans-65" transform="translate(63.378906 0)"/>
       <use xlink:href="#DejaVuSans-6d" transform="translate(124.902344 0)"/>
       <use xlink:href="#DejaVuSans-6f" transform="translate(222.314453 0)"/>
      </g>
     </g>
    </g>
   </g>
   <g id="patch_43">
    <path d="M 1144.82145 464.071 
L 1144.82145 464.071 
L 1144.82145 451.389 
L 1144.82145 451.389 
z
" clip-path="url(#p80df4e7f42)" style="fill: #c44e52; stroke: #ffffff; stroke-linejoin: miter"/>
   </g>
   <g id="patch_44">
    <path d="M 1144.82145 438.707 
L 1153.976799 438.707 
L 1153.976799 426.025 
L 1144.82145 426.025 
z
" clip-path="url(#p80df4e7f42)" style="fill: #c44e52; stroke: #ffffff; stroke-linejoin: miter"/>
   </g>
   <g id="patch_45">
    <path d="M 1144.82145 413.343 
L 1155.115261 413.343 
L 1155.115261 400.661 
L 1144.82145 400.661 
z
" clip-path="url(#p80df4e7f42)" style="fill: #c44e52; stroke: #ffffff; stroke-linejoin: miter"/>
   </g>
   <g id="patch_46">
    <path d="M 1144.82145 387.979 
L 1155.265834 387.979 
L 1155.265834 375.297 
L 1144.82145 375.297 
z
" clip-path="url(#p80df4e7f42)" style="fill: #c44e52; stroke: #ffffff; stroke-linejoin: miter"/>
   </g>
   <g id="patch_47">
    <path d="M 1144.82145 362.615 
L 1156.778857 362.615 
L 1156.778857 349.933 
L 1144.82145 349.933 
z
" clip-path="url(#p80df4e7f42)" style="fill: #c44e52; stroke: #ffffff; stroke-linejoin: miter"/>
   </g>
   <g id="patch_48">
    <path d="M 1144.82145 337.251 
L 1158.945934 337.251 
L 1158.945934 324.569 
L 1144.82145 324.569 
z
" clip-path="url(#p80df4e7f42)" style="fill: #c44e52; stroke: #ffffff; stroke-linejoin: miter"/>
   </g>
   <g id="patch_49">
    <path d="M 1144.82145 311.887 
L 1160.91997 311.887 
L 1160.91997 299.205 
L 1144.82145 299.205 
z
" clip-path="url(#p80df4e7f42)" style="fill: #c44e52; stroke: #ffffff; stroke-linejoin: miter"/>
   </g>
   <g id="patch_50">
    <path d="M 1144.82145 286.523 
L 1163.725004 286.523 
L 1163.725004 273.841 
L 1144.82145 273.841 
z
" clip-path="url(#p80df4e7f42)" style="fill: #c44e52; stroke: #ffffff; stroke-linejoin: miter"/>
   </g>
   <g id="patch_51">
    <path d="M 1144.82145 261.159 
L 1164.115937 261.159 
L 1164.115937 248.477 
L 1144.82145 248.477 
z
" clip-path="url(#p80df4e7f42)" style="fill: #c44e52; stroke: #ffffff; stroke-linejoin: miter"/>
   </g>
   <g id="patch_52">
    <path d="M 1144.82145 235.795 
L 1173.331317 235.795 
L 1173.331317 223.113 
L 1144.82145 223.113 
z
" clip-path="url(#p80df4e7f42)" style="fill: #c44e52; stroke: #ffffff; stroke-linejoin: miter"/>
   </g>
   <g id="patch_53">
    <path d="M 1144.82145 210.431 
L 1307.449909 210.431 
L 1307.449909 197.749 
L 1144.82145 197.749 
z
" clip-path="url(#p80df4e7f42)" style="fill: #c44e52; stroke: #ffffff; stroke-linejoin: miter"/>
   </g>
   <g id="patch_54">
    <path d="M 1144.82145 185.067 
L 1328.006326 185.067 
L 1328.006326 172.385 
L 1144.82145 172.385 
z
" clip-path="url(#p80df4e7f42)" style="fill: #c44e52; stroke: #ffffff; stroke-linejoin: miter"/>
   </g>
   <g id="patch_55">
    <path d="M 1144.82145 159.703 
L 1344.57465 159.703 
L 1344.57465 147.021 
L 1144.82145 147.021 
z
" clip-path="url(#p80df4e7f42)" style="fill: #c44e52; stroke: #ffffff; stroke-linejoin: miter"/>
   </g>
   <g id="patch_56">
    <path d="M 1144.82145 134.339 
L 1460.663409 134.339 
L 1460.663409 121.657 
L 1144.82145 121.657 
z
" clip-path="url(#p80df4e7f42)" style="fill: #c44e52; stroke: #ffffff; stroke-linejoin: miter"/>
   </g>
   <g id="patch_57">
    <path d="M 1144.82145 108.975 
L 1543.912249 108.975 
L 1543.912249 96.293 
L 1144.82145 96.293 
z
" clip-path="url(#p80df4e7f42)" style="fill: #c44e52; stroke: #ffffff; stroke-linejoin: miter"/>
   </g>
   <g id="patch_58">
    <path d="M 1144.82145 470.412 
L 1144.82145 89.952 
" style="fill: none; stroke: #cccccc; stroke-width: 1.25; stroke-linejoin: miter; stroke-linecap: square"/>
   </g>
   <g id="patch_59">
    <path d="M 1563.866789 470.412 
L 1563.866789 89.952 
" style="fill: none; stroke: #cccccc; stroke-width: 1.25; stroke-linejoin: miter; stroke-linecap: square"/>
   </g>
   <g id="patch_60">
    <path d="M 1144.82145 470.412 
L 1563.866789 470.412 
" style="fill: none; stroke: #cccccc; stroke-width: 1.25; stroke-linejoin: miter; stroke-linecap: square"/>
   </g>
   <g id="patch_61">
    <path d="M 1144.82145 89.952 
L 1563.866789 89.952 
" style="fill: none; stroke: #cccccc; stroke-width: 1.25; stroke-linejoin: miter; stroke-linecap: square"/>
   </g>
   <g id="text_74">
    <!-- XGBoost -->
    <g style="fill: #262626" transform="translate(1323.13701 69.394844) scale(0.13 -0.13)">
     <defs>
      <path id="DejaVuSans-Bold-58" d="M 3188 2381 
L 4806 0 
L 3553 0 
L 2463 1594 
L 1381 0 
L 122 0 
L 1741 2381 
L 184 4666 
L 1441 4666 
L 2463 3163 
L 3481 4666 
L 4744 4666 
L 3188 2381 
z
" transform="scale(0.015625)"/>
      <path id="DejaVuSans-Bold-47" d="M 4781 347 
Q 4331 128 3847 18 
Q 3363 -91 2847 -91 
Q 1681 -91 1000 561 
Q 319 1213 319 2328 
Q 319 3456 1012 4103 
Q 1706 4750 2913 4750 
Q 3378 4750 3804 4662 
Q 4231 4575 4609 4403 
L 4609 3438 
Q 4219 3659 3833 3768 
Q 3447 3878 3059 3878 
Q 2341 3878 1952 3476 
Q 1563 3075 1563 2328 
Q 1563 1588 1938 1184 
Q 2313 781 3003 781 
Q 3191 781 3352 804 
Q 3513 828 3641 878 
L 3641 1784 
L 2906 1784 
L 2906 2591 
L 4781 2591 
L 4781 347 
z
" transform="scale(0.015625)"/>
      <path id="DejaVuSans-Bold-42" d="M 2456 2859 
Q 2741 2859 2887 2984 
Q 3034 3109 3034 3353 
Q 3034 3594 2887 3720 
Q 2741 3847 2456 3847 
L 1791 3847 
L 1791 2859 
L 2456 2859 
z
M 2497 819 
Q 2859 819 3042 972 
Q 3225 1125 3225 1434 
Q 3225 1738 3044 1889 
Q 2863 2041 2497 2041 
L 1791 2041 
L 1791 819 
L 2497 819 
z
M 3616 2497 
Q 4003 2384 4215 2081 
Q 4428 1778 4428 1338 
Q 4428 663 3972 331 
Q 3516 0 2584 0 
L 588 0 
L 588 4666 
L 2394 4666 
Q 3366 4666 3802 4372 
Q 4238 4078 4238 3431 
Q 4238 3091 4078 2852 
Q 3919 2613 3616 2497 
z
" transform="scale(0.015625)"/>
     </defs>
     <use xlink:href="#DejaVuSans-Bold-58"/>
     <use xlink:href="#DejaVuSans-Bold-47" transform="translate(77.099609 0)"/>
     <use xlink:href="#DejaVuSans-Bold-42" transform="translate(159.179688 0)"/>
     <use xlink:href="#DejaVuSans-Bold-6f" transform="translate(235.400391 0)"/>
     <use xlink:href="#DejaVuSans-Bold-6f" transform="translate(304.101562 0)"/>
     <use xlink:href="#DejaVuSans-Bold-73" transform="translate(372.802734 0)"/>
     <use xlink:href="#DejaVuSans-Bold-74" transform="translate(432.324219 0)"/>
    </g>
    <!-- Top 15 Features -->
    <g style="fill: #262626" transform="translate(1295.889823 83.952) scale(0.13 -0.13)">
     <use xlink:href="#DejaVuSans-Bold-54"/>
     <use xlink:href="#DejaVuSans-Bold-6f" transform="translate(54.962891 0)"/>
     <use xlink:href="#DejaVuSans-Bold-70" transform="translate(123.664062 0)"/>
     <use xlink:href="#DejaVuSans-Bold-20" transform="translate(195.246094 0)"/>
     <use xlink:href="#DejaVuSans-Bold-31" transform="translate(230.060547 0)"/>
     <use xlink:href="#DejaVuSans-Bold-35" transform="translate(299.640625 0)"/>
     <use xlink:href="#DejaVuSans-Bold-20" transform="translate(369.220703 0)"/>
     <use xlink:href="#DejaVuSans-Bold-46" transform="translate(404.035156 0)"/>
     <use xlink:href="#DejaVuSans-Bold-65" transform="translate(468.345703 0)"/>
     <use xlink:href="#DejaVuSans-Bold-61" transform="translate(536.167969 0)"/>
     <use xlink:href="#DejaVuSans-Bold-74" transform="translate(603.648438 0)"/>
     <use xlink:href="#DejaVuSans-Bold-75" transform="translate(651.451172 0)"/>
     <use xlink:href="#DejaVuSans-Bold-72" transform="translate(722.642578 0)"/>
     <use xlink:href="#DejaVuSans-Bold-65" transform="translate(771.958984 0)"/>
     <use xlink:href="#DejaVuSans-Bold-73" transform="translate(839.78125 0)"/>
    </g>
   </g>
  </g>
  <g id="text_75">
   <!-- Feature Importance — Tree-Based Models -->
   <g style="fill: #262626" transform="translate(597.689789 19.3575) scale(0.16 -0.16)">
    <defs>
     <path id="DejaVuSans-Bold-49" d="M 588 4666 
L 1791 4666 
L 1791 0 
L 588 0 
L 588 4666 
z
" transform="scale(0.015625)"/>
     <path id="DejaVuSans-Bold-2014" d="M 344 2156 
L 6056 2156 
L 6056 1350 
L 344 1350 
L 344 2156 
z
" transform="scale(0.015625)"/>
     <path id="DejaVuSans-Bold-2d" d="M 347 2297 
L 2309 2297 
L 2309 1388 
L 347 1388 
L 347 2297 
z
" transform="scale(0.015625)"/>
     <path id="DejaVuSans-Bold-4d" d="M 588 4666 
L 2119 4666 
L 3181 2169 
L 4250 4666 
L 5778 4666 
L 5778 0 
L 4641 0 
L 4641 3413 
L 3566 897 
L 2803 897 
L 1728 3413 
L 1728 0 
L 588 0 
L 588 4666 
z
" transform="scale(0.015625)"/>
     <path id="DejaVuSans-Bold-6c" d="M 538 4863 
L 1656 4863 
L 1656 0 
L 538 0 
L 538 4863 
z
" transform="scale(0.015625)"/>
    </defs>
    <use xlink:href="#DejaVuSans-Bold-46"/>
    <use xlink:href="#DejaVuSans-Bold-65" transform="translate(64.310547 0)"/>
    <use xlink:href="#DejaVuSans-Bold-61" transform="translate(132.132812 0)"/>
    <use xlink:href="#DejaVuSans-Bold-74" transform="translate(199.613281 0)"/>
    <use xlink:href="#DejaVuSans-Bold-75" transform="translate(247.416016 0)"/>
    <use xlink:href="#DejaVuSans-Bold-72" transform="translate(318.607422 0)"/>
    <use xlink:href="#DejaVuSans-Bold-65" transform="translate(367.923828 0)"/>
    <use xlink:href="#DejaVuSans-Bold-20" transform="translate(435.746094 0)"/>
    <use xlink:href="#DejaVuSans-Bold-49" transform="translate(470.560547 0)"/>
    <use xlink:href="#DejaVuSans-Bold-6d" transform="translate(507.767578 0)"/>
    <use xlink:href="#DejaVuSans-Bold-70" transform="translate(611.966797 0)"/>
    <use xlink:href="#DejaVuSans-Bold-6f" transform="translate(683.548828 0)"/>
    <use xlink:href="#DejaVuSans-Bold-72" transform="translate(752.25 0)"/>
    <use xlink:href="#DejaVuSans-Bold-74" transform="translate(801.566406 0)"/>
    <use xlink:href="#DejaVuSans-Bold-61" transform="translate(849.369141 0)"/>
    <use xlink:href="#DejaVuSans-Bold-6e" transform="translate(916.849609 0)"/>
    <use xlink:href="#DejaVuSans-Bold-63" transform="translate(988.041016 0)"/>
    <use xlink:href="#DejaVuSans-Bold-65" transform="translate(1047.318359 0)"/>
    <use xlink:href="#DejaVuSans-Bold-20" transform="translate(1115.140625 0)"/>
    <use xlink:href="#DejaVuSans-Bold-2014" transform="translate(1149.955078 0)"/>
    <use xlink:href="#DejaVuSans-Bold-20" transform="translate(1249.955078 0)"/>
    <use xlink:href="#DejaVuSans-Bold-54" transform="translate(1284.769531 0)"/>
    <use xlink:href="#DejaVuSans-Bold-72" transform="translate(1341.982422 0)"/>
    <use xlink:href="#DejaVuSans-Bold-65" transform="translate(1391.298828 0)"/>
    <use xlink:href="#DejaVuSans-Bold-65" transform="translate(1459.121094 0)"/>
    <use xlink:href="#DejaVuSans-Bold-2d" transform="translate(1526.943359 0)"/>
    <use xlink:href="#DejaVuSans-Bold-42" transform="translate(1568.447266 0)"/>
    <use xlink:href="#DejaVuSans-Bold-61" transform="translate(1644.667969 0)"/>
    <use xlink:href="#DejaVuSans-Bold-73" transform="translate(1712.148438 0)"/>
    <use xlink:href="#DejaVuSans-Bold-65" transform="translate(1771.669922 0)"/>
    <use xlink:href="#DejaVuSans-Bold-64" transform="translate(1839.492188 0)"/>
    <use xlink:href="#DejaVuSans-Bold-20" transform="translate(1911.074219 0)"/>
    <use xlink:href="#DejaVuSans-Bold-4d" transform="translate(1945.888672 0)"/>
    <use xlink:href="#DejaVuSans-Bold-6f" transform="translate(2045.400391 0)"/>
    <use xlink:href="#DejaVuSans-Bold-64" transform="translate(2114.101562 0)"/>
    <use xlink:href="#DejaVuSans-Bold-65" transform="translate(2185.683594 0)"/>
    <use xlink:href="#DejaVuSans-Bold-6c" transform="translate(2253.505859 0)"/>
    <use xlink:href="#DejaVuSans-Bold-73" transform="translate(2287.783203 0)"/>
   </g>
  </g>
 </g>
 <defs>
  <clipPath id="pe7d515d54f">
   <rect x="105.322789" y="89.952" width="419.045339" height="380.46"/>
  </clipPath>
  <clipPath id="p8a7688fd8d">
   <rect x="625.07212" y="89.952" width="419.045339" height="380.46"/>
  </clipPath>
  <clipPath id="p80df4e7f42">
   <rect x="1144.82145" y="89.952" width="419.045339" height="380.46"/>
  </clipPath>
 </defs>
</svg>
