<?xml version="1.0" encoding="utf-8" standalone="no"?>
<!DOCTYPE svg PUBLIC "-//W3C//DTD SVG 1.1//EN"
  "http://www.w3.org/Graphics/SVG/1.1/DTD/svg11.dtd">
<svg xmlns:xlink="http://www.w3.org/1999/xlink" width="558.2184pt" height="484.469015pt" viewBox="0 0 558.2184 484.469015" xmlns="http://www.w3.org/2000/svg" version="1.1">
 <metadata>
  <rdf:RDF xmlns:dc="http://purl.org/dc/elements/1.1/" xmlns:cc="http://creativecommons.org/ns#" xmlns:rdf="http://www.w3.org/1999/02/22-rdf-syntax-ns#">
   <cc:Work>
    <dc:type rdf:resource="http://purl.org/dc/dcmitype/StillImage"/>
    <dc:date>2026-03-09T02:34:28.273594</dc:date>
    <dc:format>image/svg+xml</dc:format>
    <dc:creator>
     <cc:Agent>
      <dc:title>Matplotlib v3.10.0, https://matplotlib.org/</dc:title>
     </cc:Agent>
    </dc:creator>
   </cc:Work>
  </rdf:RDF>
 </metadata>
 <defs>
  <style type="text/css">*{stroke-linejoin: round; stroke-linecap: butt}</style>
 </defs>
 <g id="figure_1">
  <g id="patch_1">
   <path d="M 0 484.469015 
L 558.2184 484.469015 
L 558.2184 0 
L 0 0 
z
" style="fill: #ffffff"/>
  </g>
  <g id="axes_1">
   <g id="patch_2">
    <path d="M 429.368 255.5008 
C 429.368 227.781503 423.907903 200.331741 413.300187 174.72245 
C 402.692472 149.113159 387.143431 125.842375 367.542928 106.241872 
C 347.942425 86.641369 324.671641 71.092328 299.06235 60.484613 
C 273.453059 49.876897 246.003297 44.4168 218.284 44.4168 
C 190.564703 44.4168 163.114941 49.876897 137.50565 60.484613 
C 111.896359 71.092328 88.625575 86.641369 69.025072 106.241872 
C 49.424569 125.842375 33.875528 149.113159 23.267813 174.72245 
C 12.660097 200.331741 7.2 227.781503 7.2 255.5008 
C 7.2 283.220097 12.660097 310.669859 23.267813 336.27915 
C 33.875528 361.888441 49.424569 385.159225 69.025072 404.759728 
C 88.625575 424.360231 111.896359 439.909272 137.50565 450.516987 
C 163.114941 461.124703 190.564703 466.5848 218.284 466.5848 
C 246.003297 466.5848 273.453059 461.124703 299.06235 450.516987 
C 324.671641 439.909272 347.942425 424.360231 367.542928 404.759728 
C 387.143431 385.159225 402.692472 361.888441 413.300187 336.27915 
C 423.907903 310.669859 429.368 283.220097 429.368 255.5008 
M 218.284 255.5008 
C 218.284 255.5008 218.284 255.5008 218.284 255.5008 
C 218.284 255.5008 218.284 255.5008 218.284 255.5008 
C 218.284 255.5008 218.284 255.5008 218.284 255.5008 
C 218.284 255.5008 218.284 255.5008 218.284 255.5008 
C 218.284 255.5008 218.284 255.5008 218.284 255.5008 
C 218.284 255.5008 218.284 255.5008 218.284 255.5008 
C 218.284 255.5008 218.284 255.5008 218.284 255.5008 
C 218.284 255.5008 218.284 255.5008 218.284 255.5008 
C 218.284 255.5008 218.284 255.5008 218.284 255.5008 
C 218.284 255.5008 218.284 255.5008 218.284 255.5008 
C 218.284 255.5008 218.284 255.5008 218.284 255.5008 
C 218.284 255.5008 218.284 255.5008 218.284 255.5008 
C 218.284 255.5008 218.284 255.5008 218.284 255.5008 
C 218.284 255.5008 218.284 255.5008 218.284 255.5008 
C 218.284 255.5008 218.284 255.5008 218.284 255.5008 
C 218.284 255.5008 218.284 255.5008 218.284 255.5008 
z
" style="fill: #ffffff"/>
   </g>
   <g id="matplotlib.axis_1">
    <g id="xtick_1">
     <g id="line2d_1">
      <path d="M 218.284 255.5008 
L 429.368 255.5008 
" clip-path="url(#p49404fcfe7)" style="fill: none; stroke: #cccccc; stroke-linecap: round"/>
     </g>
     <g id="text_1">
      <!-- Accuracy -->
      <g style="fill: #262626" transform="translate(420.757063 258.536113) scale(0.11 -0.11)">
       <defs>
        <path id="DejaVuSans-41" d="M 2188 4044 
L 1331 1722 
L 3047 1722 
L 2188 4044 
z
M 1831 4666 
L 2547 4666 
L 4325 0 
L 3669 0 
L 3244 1197 
L 1141 1197 
L 716 0 
L 50 0 
L 1831 4666 
z
" transform="scale(0.015625)"/>
        <path id="DejaVuSans-63" d="M 3122 3366 
L 3122 2828 
Q 2878 2963 2633 3030 
Q 2388 3097 2138 3097 
Q 1578 3097 1268 2742 
Q 959 2388 959 1747 
Q 959 1106 1268 751 
Q 1578 397 2138 397 
Q 2388 397 2633 464 
Q 2878 531 3122 666 
L 3122 134 
Q 2881 22 2623 -34 
Q 2366 -91 2075 -91 
Q 1284 -91 818 406 
Q 353 903 353 1747 
Q 353 2603 823 3093 
Q 1294 3584 2113 3584 
Q 2378 3584 2631 3529 
Q 2884 3475 3122 3366 
z
" transform="scale(0.015625)"/>
        <path id="DejaVuSans-75" d="M 544 1381 
L 544 3500 
L 1119 3500 
L 1119 1403 
Q 1119 906 1312 657 
Q 1506 409 1894 409 
Q 2359 409 2629 706 
Q 2900 1003 2900 1516 
L 2900 3500 
L 3475 3500 
L 3475 0 
L 2900 0 
L 2900 538 
Q 2691 219 2414 64 
Q 2138 -91 1772 -91 
Q 1169 -91 856 284 
Q 544 659 544 1381 
z
M 1991 3584 
L 1991 3584 
z
" transform="scale(0.015625)"/>
        <path id="DejaVuSans-72" d="M 2631 2963 
Q 2534 3019 2420 3045 
Q 2306 3072 2169 3072 
Q 1681 3072 1420 2755 
Q 1159 2438 1159 1844 
L 1159 0 
L 581 0 
L 581 3500 
L 1159 3500 
L 1159 2956 
Q 1341 3275 1631 3429 
Q 1922 3584 2338 3584 
Q 2397 3584 2469 3576 
Q 2541 3569 2628 3553 
L 2631 2963 
z
" transform="scale(0.015625)"/>
        <path id="DejaVuSans-61" d="M 2194 1759 
Q 1497 1759 1228 1600 
Q 959 1441 959 1056 
Q 959 750 1161 570 
Q 1363 391 1709 391 
Q 2188 391 2477 730 
Q 2766 1069 2766 1631 
L 2766 1759 
L 2194 1759 
z
M 3341 1997 
L 3341 0 
L 2766 0 
L 2766 531 
Q 2569 213 2275 61 
Q 1981 -91 1556 -91 
Q 1019 -91 701 211 
Q 384 513 384 1019 
Q 384 1609 779 1909 
Q 1175 2209 1959 2209 
L 2766 2209 
L 2766 2266 
Q 2766 2663 2505 2880 
Q 2244 3097 1772 3097 
Q 1472 3097 1187 3025 
Q 903 2953 641 2809 
L 641 3341 
Q 956 3463 1253 3523 
Q 1550 3584 1831 3584 
Q 2591 3584 2966 3190 
Q 3341 2797 3341 1997 
z
" transform="scale(0.015625)"/>
        <path id="DejaVuSans-79" d="M 2059 -325 
Q 1816 -950 1584 -1140 
Q 1353 -1331 966 -1331 
L 506 -1331 
L 506 -850 
L 844 -850 
Q 1081 -850 1212 -737 
Q 1344 -625 1503 -206 
L 1606 56 
L 191 3500 
L 800 3500 
L 1894 763 
L 2988 3500 
L 3597 3500 
L 2059 -325 
z
" transform="scale(0.015625)"/>
       </defs>
       <use xlink:href="#DejaVuSans-41"/>
       <use xlink:href="#DejaVuSans-63" transform="translate(66.658203 0)"/>
       <use xlink:href="#DejaVuSans-63" transform="translate(121.638672 0)"/>
       <use xlink:href="#DejaVuSans-75" transform="translate(176.619141 0)"/>
       <use xlink:href="#DejaVuSans-72" transform="translate(239.998047 0)"/>
       <use xlink:href="#DejaVuSans-61" transform="translate(281.111328 0)"/>
       <use xlink:href="#DejaVuSans-63" transform="translate(342.390625 0)"/>
       <use xlink:href="#DejaVuSans-79" transform="translate(397.371094 0)"/>
      </g>
     </g>
    </g>
    <g id="xtick_2">
     <g id="line2d_2">
      <path d="M 218.284 255.5008 
L 283.512543 54.747986 
" clip-path="url(#p49404fcfe7)" style="fill: none; stroke: #cccccc; stroke-linecap: round"/>
     </g>
     <g id="text_2">
      <!-- Precision -->
      <g style="fill: #262626" transform="translate(264.073589 42.090866) scale(0.11 -0.11)">
       <defs>
        <path id="DejaVuSans-50" d="M 1259 4147 
L 1259 2394 
L 2053 2394 
Q 2494 2394 2734 2622 
Q 2975 2850 2975 3272 
Q 2975 3691 2734 3919 
Q 2494 4147 2053 4147 
L 1259 4147 
z
M 628 4666 
L 2053 4666 
Q 2838 4666 3239 4311 
Q 3641 3956 3641 3272 
Q 3641 2581 3239 2228 
Q 2838 1875 2053 1875 
L 1259 1875 
L 1259 0 
L 628 0 
L 628 4666 
z
" transform="scale(0.015625)"/>
        <path id="DejaVuSans-65" d="M 3597 1894 
L 3597 1613 
L 953 1613 
Q 991 1019 1311 708 
Q 1631 397 2203 397 
Q 2534 397 2845 478 
Q 3156 559 3463 722 
L 3463 178 
Q 3153 47 2828 -22 
Q 2503 -91 2169 -91 
Q 1331 -91 842 396 
Q 353 884 353 1716 
Q 353 2575 817 3079 
Q 1281 3584 2069 3584 
Q 2775 3584 3186 3129 
Q 3597 2675 3597 1894 
z
M 3022 2063 
Q 3016 2534 2758 2815 
Q 2500 3097 2075 3097 
Q 1594 3097 1305 2825 
Q 1016 2553 972 2059 
L 3022 2063 
z
" transform="scale(0.015625)"/>
        <path id="DejaVuSans-69" d="M 603 3500 
L 1178 3500 
L 1178 0 
L 603 0 
L 603 3500 
z
M 603 4863 
L 1178 4863 
L 1178 4134 
L 603 4134 
L 603 4863 
z
" transform="scale(0.015625)"/>
        <path id="DejaVuSans-73" d="M 2834 3397 
L 2834 2853 
Q 2591 2978 2328 3040 
Q 2066 3103 1784 3103 
Q 1356 3103 1142 2972 
Q 928 2841 928 2578 
Q 928 2378 1081 2264 
Q 1234 2150 1697 2047 
L 1894 2003 
Q 2506 1872 2764 1633 
Q 3022 1394 3022 966 
Q 3022 478 2636 193 
Q 2250 -91 1575 -91 
Q 1294 -91 989 -36 
Q 684 19 347 128 
L 347 722 
Q 666 556 975 473 
Q 1284 391 1588 391 
Q 1994 391 2212 530 
Q 2431 669 2431 922 
Q 2431 1156 2273 1281 
Q 2116 1406 1581 1522 
L 1381 1569 
Q 847 1681 609 1914 
Q 372 2147 372 2553 
Q 372 3047 722 3315 
Q 1072 3584 1716 3584 
Q 2034 3584 2315 3537 
Q 2597 3491 2834 3397 
z
" transform="scale(0.015625)"/>
        <path id="DejaVuSans-6f" d="M 1959 3097 
Q 1497 3097 1228 2736 
Q 959 2375 959 1747 
Q 959 1119 1226 758 
Q 1494 397 1959 397 
Q 2419 397 2687 759 
Q 2956 1122 2956 1747 
Q 2956 2369 2687 2733 
Q 2419 3097 1959 3097 
z
M 1959 3584 
Q 2709 3584 3137 3096 
Q 3566 2609 3566 1747 
Q 3566 888 3137 398 
Q 2709 -91 1959 -91 
Q 1206 -91 779 398 
Q 353 888 353 1747 
Q 353 2609 779 3096 
Q 1206 3584 1959 3584 
z
" transform="scale(0.015625)"/>
        <path id="DejaVuSans-6e" d="M 3513 2113 
L 3513 0 
L 2938 0 
L 2938 2094 
Q 2938 2591 2744 2837 
Q 2550 3084 2163 3084 
Q 1697 3084 1428 2787 
Q 1159 2491 1159 1978 
L 1159 0 
L 581 0 
L 581 3500 
L 1159 3500 
L 1159 2956 
Q 1366 3272 1645 3428 
Q 1925 3584 2291 3584 
Q 2894 3584 3203 3211 
Q 3513 2838 3513 2113 
z
" transform="scale(0.015625)"/>
       </defs>
       <use xlink:href="#DejaVuSans-50"/>
       <use xlink:href="#DejaVuSans-72" transform="translate(58.552734 0)"/>
       <use xlink:href="#DejaVuSans-65" transform="translate(97.416016 0)"/>
       <use xlink:href="#DejaVuSans-63" transform="translate(158.939453 0)"/>
       <use xlink:href="#DejaVuSans-69" transform="translate(213.919922 0)"/>
       <use xlink:href="#DejaVuSans-73" transform="translate(241.703125 0)"/>
       <use xlink:href="#DejaVuSans-69" transform="translate(293.802734 0)"/>
       <use xlink:href="#DejaVuSans-6f" transform="translate(321.585938 0)"/>
       <use xlink:href="#DejaVuSans-6e" transform="translate(382.767578 0)"/>
      </g>
     </g>
    </g>
    <g id="xtick_3">
     <g id="line2d_3">
      <path d="M 218.284 255.5008 
L 47.513457 131.428738 
" clip-path="url(#p49404fcfe7)" style="fill: none; stroke: #cccccc; stroke-linecap: round"/>
     </g>
     <g id="text_3">
      <!-- Recall -->
      <g style="fill: #262626" transform="translate(17.75577 124.765594) scale(0.11 -0.11)">
       <defs>
        <path id="DejaVuSans-52" d="M 2841 2188 
Q 3044 2119 3236 1894 
Q 3428 1669 3622 1275 
L 4263 0 
L 3584 0 
L 2988 1197 
Q 2756 1666 2539 1819 
Q 2322 1972 1947 1972 
L 1259 1972 
L 1259 0 
L 628 0 
L 628 4666 
L 2053 4666 
Q 2853 4666 3247 4331 
Q 3641 3997 3641 3322 
Q 3641 2881 3436 2590 
Q 3231 2300 2841 2188 
z
M 1259 4147 
L 1259 2491 
L 2053 2491 
Q 2509 2491 2742 2702 
Q 2975 2913 2975 3322 
Q 2975 3731 2742 3939 
Q 2509 4147 2053 4147 
L 1259 4147 
z
" transform="scale(0.015625)"/>
        <path id="DejaVuSans-6c" d="M 603 4863 
L 1178 4863 
L 1178 0 
L 603 0 
L 603 4863 
z
" transform="scale(0.015625)"/>
       </defs>
       <use xlink:href="#DejaVuSans-52"/>
       <use xlink:href="#DejaVuSans-65" transform="translate(64.982422 0)"/>
       <use xlink:href="#DejaVuSans-63" transform="translate(126.505859 0)"/>
       <use xlink:href="#DejaVuSans-61" transform="translate(181.486328 0)"/>
       <use xlink:href="#DejaVuSans-6c" transform="translate(242.765625 0)"/>
       <use xlink:href="#DejaVuSans-6c" transform="translate(270.548828 0)"/>
      </g>
     </g>
    </g>
    <g id="xtick_4">
     <g id="line2d_4">
      <path d="M 218.284 255.5008 
L 47.513457 379.572862 
" clip-path="url(#p49404fcfe7)" style="fill: none; stroke: #cccccc; stroke-linecap: round"/>
     </g>
     <g id="text_4">
      <!-- F1-Score -->
      <g style="fill: #262626" transform="translate(10.115067 392.306631) scale(0.11 -0.11)">
       <defs>
        <path id="DejaVuSans-46" d="M 628 4666 
L 3309 4666 
L 3309 4134 
L 1259 4134 
L 1259 2759 
L 3109 2759 
L 3109 2228 
L 1259 2228 
L 1259 0 
L 628 0 
L 628 4666 
z
" transform="scale(0.015625)"/>
        <path id="DejaVuSans-31" d="M 794 531 
L 1825 531 
L 1825 4091 
L 703 3866 
L 703 4441 
L 1819 4666 
L 2450 4666 
L 2450 531 
L 3481 531 
L 3481 0 
L 794 0 
L 794 531 
z
" transform="scale(0.015625)"/>
        <path id="DejaVuSans-2d" d="M 313 2009 
L 1997 2009 
L 1997 1497 
L 313 1497 
L 313 2009 
z
" transform="scale(0.015625)"/>
        <path id="DejaVuSans-53" d="M 3425 4513 
L 3425 3897 
Q 3066 4069 2747 4153 
Q 2428 4238 2131 4238 
Q 1616 4238 1336 4038 
Q 1056 3838 1056 3469 
Q 1056 3159 1242 3001 
Q 1428 2844 1947 2747 
L 2328 2669 
Q 3034 2534 3370 2195 
Q 3706 1856 3706 1288 
Q 3706 609 3251 259 
Q 2797 -91 1919 -91 
Q 1588 -91 1214 -16 
Q 841 59 441 206 
L 441 856 
Q 825 641 1194 531 
Q 1563 422 1919 422 
Q 2459 422 2753 634 
Q 3047 847 3047 1241 
Q 3047 1584 2836 1778 
Q 2625 1972 2144 2069 
L 1759 2144 
Q 1053 2284 737 2584 
Q 422 2884 422 3419 
Q 422 4038 858 4394 
Q 1294 4750 2059 4750 
Q 2388 4750 2728 4690 
Q 3069 4631 3425 4513 
z
" transform="scale(0.015625)"/>
       </defs>
       <use xlink:href="#DejaVuSans-46"/>
       <use xlink:href="#DejaVuSans-31" transform="translate(57.519531 0)"/>
       <use xlink:href="#DejaVuSans-2d" transform="translate(121.142578 0)"/>
       <use xlink:href="#DejaVuSans-53" transform="translate(157.226562 0)"/>
       <use xlink:href="#DejaVuSans-63" transform="translate(220.703125 0)"/>
       <use xlink:href="#DejaVuSans-6f" transform="translate(275.683594 0)"/>
       <use xlink:href="#DejaVuSans-72" transform="translate(336.865234 0)"/>
       <use xlink:href="#DejaVuSans-65" transform="translate(375.728516 0)"/>
      </g>
     </g>
    </g>
    <g id="xtick_5">
     <g id="line2d_5">
      <path d="M 218.284 255.5008 
L 283.512543 456.253614 
" clip-path="url(#p49404fcfe7)" style="fill: none; stroke: #cccccc; stroke-linecap: round"/>
     </g>
     <g id="text_5">
      <!-- ROC-AUC -->
      <g style="fill: #262626" transform="translate(263.130855 474.981359) scale(0.11 -0.11)">
       <defs>
        <path id="DejaVuSans-4f" d="M 2522 4238 
Q 1834 4238 1429 3725 
Q 1025 3213 1025 2328 
Q 1025 1447 1429 934 
Q 1834 422 2522 422 
Q 3209 422 3611 934 
Q 4013 1447 4013 2328 
Q 4013 3213 3611 3725 
Q 3209 4238 2522 4238 
z
M 2522 4750 
Q 3503 4750 4090 4092 
Q 4678 3434 4678 2328 
Q 4678 1225 4090 567 
Q 3503 -91 2522 -91 
Q 1538 -91 948 565 
Q 359 1222 359 2328 
Q 359 3434 948 4092 
Q 1538 4750 2522 4750 
z
" transform="scale(0.015625)"/>
        <path id="DejaVuSans-43" d="M 4122 4306 
L 4122 3641 
Q 3803 3938 3442 4084 
Q 3081 4231 2675 4231 
Q 1875 4231 1450 3742 
Q 1025 3253 1025 2328 
Q 1025 1406 1450 917 
Q 1875 428 2675 428 
Q 3081 428 3442 575 
Q 3803 722 4122 1019 
L 4122 359 
Q 3791 134 3420 21 
Q 3050 -91 2638 -91 
Q 1578 -91 968 557 
Q 359 1206 359 2328 
Q 359 3453 968 4101 
Q 1578 4750 2638 4750 
Q 3056 4750 3426 4639 
Q 3797 4528 4122 4306 
z
" transform="scale(0.015625)"/>
        <path id="DejaVuSans-55" d="M 556 4666 
L 1191 4666 
L 1191 1831 
Q 1191 1081 1462 751 
Q 1734 422 2344 422 
Q 2950 422 3222 751 
Q 3494 1081 3494 1831 
L 3494 4666 
L 4128 4666 
L 4128 1753 
Q 4128 841 3676 375 
Q 3225 -91 2344 -91 
Q 1459 -91 1007 375 
Q 556 841 556 1753 
L 556 4666 
z
" transform="scale(0.015625)"/>
       </defs>
       <use xlink:href="#DejaVuSans-52"/>
       <use xlink:href="#DejaVuSans-4f" transform="translate(69.482422 0)"/>
       <use xlink:href="#DejaVuSans-43" transform="translate(148.193359 0)"/>
       <use xlink:href="#DejaVuSans-2d" transform="translate(218.017578 0)"/>
       <use xlink:href="#DejaVuSans-41" transform="translate(251.851562 0)"/>
       <use xlink:href="#DejaVuSans-55" transform="translate(320.259766 0)"/>
       <use xlink:href="#DejaVuSans-43" transform="translate(393.453125 0)"/>
      </g>
     </g>
    </g>
   </g>
   <g id="matplotlib.axis_2">
    <g id="ytick_1">
     <g id="line2d_6">
      <path d="M 256.662909 255.5008 
C 256.662909 250.460928 255.670164 245.470062 253.741489 240.813827 
C 251.812813 236.157593 248.985715 231.926541 245.421987 228.362813 
C 241.858259 224.799085 237.627207 221.971987 232.970973 220.043311 
C 228.314738 218.114636 223.323872 217.121891 218.284 217.121891 
C 213.244128 217.121891 208.253262 218.114636 203.597027 220.043311 
C 198.940793 221.971987 194.709741 224.799085 191.146013 228.362813 
C 187.582285 231.926541 184.755187 236.157593 182.826511 240.813827 
C 180.897836 245.470062 179.905091 250.460928 179.905091 255.5008 
C 179.905091 260.540672 180.897836 265.531538 182.826511 270.187773 
C 184.755187 274.844007 187.582285 279.075059 191.146013 282.638787 
C 194.709741 286.202515 198.940793 289.029613 203.597027 290.958289 
C 208.253262 292.886964 213.244128 293.879709 218.284 293.879709 
C 223.323872 293.879709 228.314738 292.886964 232.970973 290.958289 
C 237.627207 289.029613 241.858259 286.202515 245.421987 282.638787 
C 248.985715 279.075059 251.812813 274.844007 253.741489 270.187773 
C 255.670164 265.531538 256.662909 260.540672 256.662909 255.5008 
" clip-path="url(#p49404fcfe7)" style="fill: none; stroke: #cccccc; stroke-linecap: round"/>
     </g>
     <g id="text_6">
      <!-- 0.6 -->
      <g style="fill: #262626" transform="translate(253.741489 238.411788) scale(0.1155 -0.1155)">
       <defs>
        <path id="DejaVuSans-30" d="M 2034 4250 
Q 1547 4250 1301 3770 
Q 1056 3291 1056 2328 
Q 1056 1369 1301 889 
Q 1547 409 2034 409 
Q 2525 409 2770 889 
Q 3016 1369 3016 2328 
Q 3016 3291 2770 3770 
Q 2525 4250 2034 4250 
z
M 2034 4750 
Q 2819 4750 3233 4129 
Q 3647 3509 3647 2328 
Q 3647 1150 3233 529 
Q 2819 -91 2034 -91 
Q 1250 -91 836 529 
Q 422 1150 422 2328 
Q 422 3509 836 4129 
Q 1250 4750 2034 4750 
z
" transform="scale(0.015625)"/>
        <path id="DejaVuSans-2e" d="M 684 794 
L 1344 794 
L 1344 0 
L 684 0 
L 684 794 
z
" transform="scale(0.015625)"/>
        <path id="DejaVuSans-36" d="M 2113 2584 
Q 1688 2584 1439 2293 
Q 1191 2003 1191 1497 
Q 1191 994 1439 701 
Q 1688 409 2113 409 
Q 2538 409 2786 701 
Q 3034 994 3034 1497 
Q 3034 2003 2786 2293 
Q 2538 2584 2113 2584 
z
M 3366 4563 
L 3366 3988 
Q 3128 4100 2886 4159 
Q 2644 4219 2406 4219 
Q 1781 4219 1451 3797 
Q 1122 3375 1075 2522 
Q 1259 2794 1537 2939 
Q 1816 3084 2150 3084 
Q 2853 3084 3261 2657 
Q 3669 2231 3669 1497 
Q 3669 778 3244 343 
Q 2819 -91 2113 -91 
Q 1303 -91 875 529 
Q 447 1150 447 2328 
Q 447 3434 972 4092 
Q 1497 4750 2381 4750 
Q 2619 4750 2861 4703 
Q 3103 4656 3366 4563 
z
" transform="scale(0.015625)"/>
       </defs>
       <use xlink:href="#DejaVuSans-30"/>
       <use xlink:href="#DejaVuSans-2e" transform="translate(63.623047 0)"/>
       <use xlink:href="#DejaVuSans-36" transform="translate(95.410156 0)"/>
      </g>
     </g>
    </g>
    <g id="ytick_2">
     <g id="line2d_7">
      <path d="M 295.041818 255.5008 
C 295.041818 245.421056 293.056328 235.439324 289.198977 226.126855 
C 285.341626 216.814385 279.687429 208.352282 272.559974 201.224826 
C 265.432518 194.097371 256.970415 188.443174 247.657945 184.585823 
C 238.345476 180.728472 228.363744 178.742982 218.284 178.742982 
C 208.204256 178.742982 198.222524 180.728472 188.910055 184.585823 
C 179.597585 188.443174 171.135482 194.097371 164.008026 201.224826 
C 156.880571 208.352282 151.226374 216.814385 147.369023 226.126855 
C 143.511672 235.439324 141.526182 245.421056 141.526182 255.5008 
C 141.526182 265.580544 143.511672 275.562276 147.369023 284.874745 
C 151.226374 294.187215 156.880571 302.649318 164.008026 309.776774 
C 171.135482 316.904229 179.597585 322.558426 188.910055 326.415777 
C 198.222524 330.273128 208.204256 332.258618 218.284 332.258618 
C 228.363744 332.258618 238.345476 330.273128 247.657945 326.415777 
C 256.970415 322.558426 265.432518 316.904229 272.559974 309.776774 
C 279.687429 302.649318 285.341626 294.187215 289.198977 284.874745 
C 293.056328 275.562276 295.041818 265.580544 295.041818 255.5008 
" clip-path="url(#p49404fcfe7)" style="fill: none; stroke: #cccccc; stroke-linecap: round"/>
     </g>
     <g id="text_7">
      <!-- 0.7 -->
      <g style="fill: #262626" transform="translate(289.198977 223.724816) scale(0.1155 -0.1155)">
       <defs>
        <path id="DejaVuSans-37" d="M 525 4666 
L 3525 4666 
L 3525 4397 
L 1831 0 
L 1172 0 
L 2766 4134 
L 525 4134 
L 525 4666 
z
" transform="scale(0.015625)"/>
       </defs>
       <use xlink:href="#DejaVuSans-30"/>
       <use xlink:href="#DejaVuSans-2e" transform="translate(63.623047 0)"/>
       <use xlink:href="#DejaVuSans-37" transform="translate(95.410156 0)"/>
      </g>
     </g>
    </g>
    <g id="ytick_3">
     <g id="line2d_8">
      <path d="M 333.420727 255.5008 
C 333.420727 240.381184 330.442493 225.408586 324.656466 211.439882 
C 318.870439 197.471178 310.389144 184.778023 299.697961 174.086839 
C 289.006777 163.395656 276.313622 154.914361 262.344918 149.128334 
C 248.376214 143.342307 233.403616 140.364073 218.284 140.364073 
C 203.164384 140.364073 188.191786 143.342307 174.223082 149.128334 
C 160.254378 154.914361 147.561223 163.395656 136.870039 174.086839 
C 126.178856 184.778023 117.697561 197.471178 111.911534 211.439882 
C 106.125507 225.408586 103.147273 240.381184 103.147273 255.5008 
C 103.147273 270.620416 106.125507 285.593014 111.911534 299.561718 
C 117.697561 313.530422 126.178856 326.223577 136.870039 336.914761 
C 147.561223 347.605944 160.254378 356.087239 174.223082 361.873266 
C 188.191786 367.659293 203.164384 370.637527 218.284 370.637527 
C 233.403616 370.637527 248.376214 367.659293 262.344918 361.873266 
C 276.313622 356.087239 289.006777 347.605944 299.697961 336.914761 
C 310.389144 326.223577 318.870439 313.530422 324.656466 299.561718 
C 330.442493 285.593014 333.420727 270.620416 333.420727 255.5008 
" clip-path="url(#p49404fcfe7)" style="fill: none; stroke: #cccccc; stroke-linecap: round"/>
     </g>
     <g id="text_8">
      <!-- 0.8 -->
      <g style="fill: #262626" transform="translate(324.656466 209.037843) scale(0.1155 -0.1155)">
       <defs>
        <path id="DejaVuSans-38" d="M 2034 2216 
Q 1584 2216 1326 1975 
Q 1069 1734 1069 1313 
Q 1069 891 1326 650 
Q 1584 409 2034 409 
Q 2484 409 2743 651 
Q 3003 894 3003 1313 
Q 3003 1734 2745 1975 
Q 2488 2216 2034 2216 
z
M 1403 2484 
Q 997 2584 770 2862 
Q 544 3141 544 3541 
Q 544 4100 942 4425 
Q 1341 4750 2034 4750 
Q 2731 4750 3128 4425 
Q 3525 4100 3525 3541 
Q 3525 3141 3298 2862 
Q 3072 2584 2669 2484 
Q 3125 2378 3379 2068 
Q 3634 1759 3634 1313 
Q 3634 634 3220 271 
Q 2806 -91 2034 -91 
Q 1263 -91 848 271 
Q 434 634 434 1313 
Q 434 1759 690 2068 
Q 947 2378 1403 2484 
z
M 1172 3481 
Q 1172 3119 1398 2916 
Q 1625 2713 2034 2713 
Q 2441 2713 2670 2916 
Q 2900 3119 2900 3481 
Q 2900 3844 2670 4047 
Q 2441 4250 2034 4250 
Q 1625 4250 1398 4047 
Q 1172 3844 1172 3481 
z
" transform="scale(0.015625)"/>
       </defs>
       <use xlink:href="#DejaVuSans-30"/>
       <use xlink:href="#DejaVuSans-2e" transform="translate(63.623047 0)"/>
       <use xlink:href="#DejaVuSans-38" transform="translate(95.410156 0)"/>
      </g>
     </g>
    </g>
    <g id="ytick_4">
     <g id="line2d_9">
      <path d="M 371.799636 255.5008 
C 371.799636 235.341311 367.828657 215.377848 360.113954 196.752909 
C 352.399252 178.12797 341.090859 161.203764 326.835947 146.948853 
C 312.581036 132.693941 295.65683 121.385548 277.031891 113.670846 
C 258.406952 105.956143 238.443489 101.985164 218.284 101.985164 
C 198.124511 101.985164 178.161048 105.956143 159.536109 113.670846 
C 140.91117 121.385548 123.986964 132.693941 109.732053 146.948853 
C 95.477141 161.203764 84.168748 178.12797 76.454046 196.752909 
C 68.739343 215.377848 64.768364 235.341311 64.768364 255.5008 
C 64.768364 275.660289 68.739343 295.623752 76.454046 314.248691 
C 84.168748 332.87363 95.477141 349.797836 109.732053 364.052747 
C 123.986964 378.307659 140.91117 389.616052 159.536109 397.330754 
C 178.161048 405.045457 198.124511 409.016436 218.284 409.016436 
C 238.443489 409.016436 258.406952 405.045457 277.031891 397.330754 
C 295.65683 389.616052 312.581036 378.307659 326.835947 364.052747 
C 341.090859 349.797836 352.399252 332.87363 360.113954 314.248691 
C 367.828657 295.623752 371.799636 275.660289 371.799636 255.5008 
" clip-path="url(#p49404fcfe7)" style="fill: none; stroke: #cccccc; stroke-linecap: round"/>
     </g>
     <g id="text_9">
      <!-- 0.9 -->
      <g style="fill: #262626" transform="translate(360.113954 194.35087) scale(0.1155 -0.1155)">
       <defs>
        <path id="DejaVuSans-39" d="M 703 97 
L 703 672 
Q 941 559 1184 500 
Q 1428 441 1663 441 
Q 2288 441 2617 861 
Q 2947 1281 2994 2138 
Q 2813 1869 2534 1725 
Q 2256 1581 1919 1581 
Q 1219 1581 811 2004 
Q 403 2428 403 3163 
Q 403 3881 828 4315 
Q 1253 4750 1959 4750 
Q 2769 4750 3195 4129 
Q 3622 3509 3622 2328 
Q 3622 1225 3098 567 
Q 2575 -91 1691 -91 
Q 1453 -91 1209 -44 
Q 966 3 703 97 
z
M 1959 2075 
Q 2384 2075 2632 2365 
Q 2881 2656 2881 3163 
Q 2881 3666 2632 3958 
Q 2384 4250 1959 4250 
Q 1534 4250 1286 3958 
Q 1038 3666 1038 3163 
Q 1038 2656 1286 2365 
Q 1534 2075 1959 2075 
z
" transform="scale(0.015625)"/>
       </defs>
       <use xlink:href="#DejaVuSans-30"/>
       <use xlink:href="#DejaVuSans-2e" transform="translate(63.623047 0)"/>
       <use xlink:href="#DejaVuSans-39" transform="translate(95.410156 0)"/>
      </g>
     </g>
    </g>
    <g id="ytick_5">
     <g id="line2d_10">
      <path d="M 410.178545 255.5008 
C 410.178545 230.301439 405.214821 205.34711 395.571443 182.065937 
C 385.928065 158.784763 371.792573 137.629505 353.973934 119.810866 
C 336.155295 101.992227 315.000037 87.856735 291.718863 78.213357 
C 268.43769 68.569979 243.483361 63.606255 218.284 63.606255 
C 193.084639 63.606255 168.13031 68.569979 144.849137 78.213357 
C 121.567963 87.856735 100.412705 101.992227 82.594066 119.810866 
C 64.775427 137.629505 50.639935 158.784763 40.996557 182.065937 
C 31.353179 205.34711 26.389455 230.301439 26.389455 255.5008 
C 26.389455 280.700161 31.353179 305.65449 40.996557 328.935663 
C 50.639935 352.216837 64.775427 373.372095 82.594066 391.190734 
C 100.412705 409.009373 121.567963 423.144865 144.849137 432.788243 
C 168.13031 442.431621 193.084639 447.395345 218.284 447.395345 
C 243.483361 447.395345 268.43769 442.431621 291.718863 432.788243 
C 315.000037 423.144865 336.155295 409.009373 353.973934 391.190734 
C 371.792573 373.372095 385.928065 352.216837 395.571443 328.935663 
C 405.214821 305.65449 410.178545 280.700161 410.178545 255.5008 
" clip-path="url(#p49404fcfe7)" style="fill: none; stroke: #cccccc; stroke-linecap: round"/>
     </g>
     <g id="text_10">
      <!-- 1.0 -->
      <g style="fill: #262626" transform="translate(395.571443 179.663898) scale(0.1155 -0.1155)">
       <use xlink:href="#DejaVuSans-31"/>
       <use xlink:href="#DejaVuSans-2e" transform="translate(63.623047 0)"/>
       <use xlink:href="#DejaVuSans-30" transform="translate(95.410156 0)"/>
      </g>
     </g>
    </g>
   </g>
   <g id="patch_3">
    <path d="M 390.989091 255.5008 
L 277.582676 72.998242 
L 87.877403 160.754862 
L 75.975214 358.894185 
L 276.871092 435.813327 
z
" clip-path="url(#p49404fcfe7)" style="fill: #c44e52; opacity: 0.1; stroke: #c44e52; stroke-linejoin: miter"/>
   </g>
   <g id="patch_4">
    <path d="M 386.191727 255.5008 
L 275.059328 80.764308 
L 87.877403 160.754862 
L 79.042789 356.665462 
L 275.368858 431.189929 
z
" clip-path="url(#p49404fcfe7)" style="fill: #4c72b0; opacity: 0.1; stroke: #4c72b0; stroke-linejoin: miter"/>
   </g>
   <g id="patch_5">
    <path d="M 400.583818 255.5008 
L 275.210729 80.298344 
L 69.24789 147.219728 
L 69.24789 363.781872 
L 277.503611 437.760021 
z
" clip-path="url(#p49404fcfe7)" style="fill: #55a868; opacity: 0.1; stroke: #55a868; stroke-linejoin: miter"/>
   </g>
   <g id="patch_6">
    <path d="M 381.394364 255.5008 
L 277.582676 72.998242 
L 100.297079 169.778284 
L 82.856683 353.894505 
L 276.950156 436.056664 
z
" clip-path="url(#p49404fcfe7)" style="fill: #8172b2; opacity: 0.1; stroke: #8172b2; stroke-linejoin: miter"/>
   </g>
   <g id="patch_7">
    <path d="M 400.583818 255.5008 
L 275.210729 80.298344 
L 69.24789 147.219728 
L 69.24789 363.781872 
L 277.345481 437.273348 
z
" clip-path="url(#p49404fcfe7)" style="fill: #ccb974; opacity: 0.1; stroke: #ccb974; stroke-linejoin: miter"/>
   </g>
   <g id="line2d_11">
    <path d="M 390.989091 255.5008 
L 277.582676 72.998242 
L 87.877403 160.754862 
L 75.975214 358.894185 
L 276.871092 435.813327 
L 390.989091 255.5008 
" clip-path="url(#p49404fcfe7)" style="fill: none; stroke: #c44e52; stroke-width: 2; stroke-linecap: round"/>
    <defs>
     <path id="m0dfef110c0" d="M 0 3 
C 0.795609 3 1.55874 2.683901 2.12132 2.12132 
C 2.683901 1.55874 3 0.795609 3 0 
C 3 -0.795609 2.683901 -1.55874 2.12132 -2.12132 
C 1.55874 -2.683901 0.795609 -3 0 -3 
C -0.795609 -3 -1.55874 -2.683901 -2.12132 -2.12132 
C -2.683901 -1.55874 -3 -0.795609 -3 0 
C -3 0.795609 -2.683901 1.55874 -2.12132 2.12132 
C -1.55874 2.683901 -0.795609 3 0 3 
z
" style="stroke: #c44e52"/>
    </defs>
    <g clip-path="url(#p49404fcfe7)">
     <use xlink:href="#m0dfef110c0" x="390.989091" y="255.5008" style="fill: #c44e52; stroke: #c44e52"/>
     <use xlink:href="#m0dfef110c0" x="277.582676" y="72.998242" style="fill: #c44e52; stroke: #c44e52"/>
     <use xlink:href="#m0dfef110c0" x="87.877403" y="160.754862" style="fill: #c44e52; stroke: #c44e52"/>
     <use xlink:href="#m0dfef110c0" x="75.975214" y="358.894185" style="fill: #c44e52; stroke: #c44e52"/>
     <use xlink:href="#m0dfef110c0" x="276.871092" y="435.813327" style="fill: #c44e52; stroke: #c44e52"/>
     <use xlink:href="#m0dfef110c0" x="390.989091" y="255.5008" style="fill: #c44e52; stroke: #c44e52"/>
    </g>
   </g>
   <g id="line2d_12">
    <path d="M 386.191727 255.5008 
L 275.059328 80.764308 
L 87.877403 160.754862 
L 79.042789 356.665462 
L 275.368858 431.189929 
L 386.191727 255.5008 
" clip-path="url(#p49404fcfe7)" style="fill: none; stroke: #4c72b0; stroke-width: 2; stroke-linecap: round"/>
    <defs>
     <path id="me3ee94cc87" d="M 0 3 
C 0.795609 3 1.55874 2.683901 2.12132 2.12132 
C 2.683901 1.55874 3 0.795609 3 0 
C 3 -0.795609 2.683901 -1.55874 2.12132 -2.12132 
C 1.55874 -2.683901 0.795609 -3 0 -3 
C -0.795609 -3 -1.55874 -2.683901 -2.12132 -2.12132 
C -2.683901 -1.55874 -3 -0.795609 -3 0 
C -3 0.795609 -2.683901 1.55874 -2.12132 2.12132 
C -1.55874 2.683901 -0.795609 3 0 3 
z
" style="stroke: #4c72b0"/>
    </defs>
    <g clip-path="url(#p49404fcfe7)">
     <use xlink:href="#me3ee94cc87" x="386.191727" y="255.5008" style="fill: #4c72b0; stroke: #4c72b0"/>
     <use xlink:href="#me3ee94cc87" x="275.059328" y="80.764308" style="fill: #4c72b0; stroke: #4c72b0"/>
     <use xlink:href="#me3ee94cc87" x="87.877403" y="160.754862" style="fill: #4c72b0; stroke: #4c72b0"/>
     <use xlink:href="#me3ee94cc87" x="79.042789" y="356.665462" style="fill: #4c72b0; stroke: #4c72b0"/>
     <use xlink:href="#me3ee94cc87" x="275.368858" y="431.189929" style="fill: #4c72b0; stroke: #4c72b0"/>
     <use xlink:href="#me3ee94cc87" x="386.191727" y="255.5008" style="fill: #4c72b0; stroke: #4c72b0"/>
    </g>
   </g>
   <g id="line2d_13">
    <path d="M 400.583818 255.5008 
L 275.210729 80.298344 
L 69.24789 147.219728 
L 69.24789 363.781872 
L 277.503611 437.760021 
L 400.583818 255.5008 
" clip-path="url(#p49404fcfe7)" style="fill: none; stroke: #55a868; stroke-width: 2; stroke-linecap: round"/>
    <defs>
     <path id="mfd63301948" d="M 0 3 
C 0.795609 3 1.55874 2.683901 2.12132 2.12132 
C 2.683901 1.55874 3 0.795609 3 0 
C 3 -0.795609 2.683901 -1.55874 2.12132 -2.12132 
C 1.55874 -2.683901 0.795609 -3 0 -3 
C -0.795609 -3 -1.55874 -2.683901 -2.12132 -2.12132 
C -2.683901 -1.55874 -3 -0.795609 -3 0 
C -3 0.795609 -2.683901 1.55874 -2.12132 2.12132 
C -1.55874 2.683901 -0.795609 3 0 3 
z
" style="stroke: #55a868"/>
    </defs>
    <g clip-path="url(#p49404fcfe7)">
     <use xlink:href="#mfd63301948" x="400.583818" y="255.5008" style="fill: #55a868; stroke: #55a868"/>
     <use xlink:href="#mfd63301948" x="275.210729" y="80.298344" style="fill: #55a868; stroke: #55a868"/>
     <use xlink:href="#mfd63301948" x="69.24789" y="147.219728" style="fill: #55a868; stroke: #55a868"/>
     <use xlink:href="#mfd63301948" x="69.24789" y="363.781872" style="fill: #55a868; stroke: #55a868"/>
     <use xlink:href="#mfd63301948" x="277.503611" y="437.760021" style="fill: #55a868; stroke: #55a868"/>
     <use xlink:href="#mfd63301948" x="400.583818" y="255.5008" style="fill: #55a868; stroke: #55a868"/>
    </g>
   </g>
   <g id="line2d_14">
    <path d="M 381.394364 255.5008 
L 277.582676 72.998242 
L 100.297079 169.778284 
L 82.856683 353.894505 
L 276.950156 436.056664 
L 381.394364 255.5008 
" clip-path="url(#p49404fcfe7)" style="fill: none; stroke: #8172b2; stroke-width: 2; stroke-linecap: round"/>
    <defs>
     <path id="m0b0b4c4544" d="M 0 3 
C 0.795609 3 1.55874 2.683901 2.12132 2.12132 
C 2.683901 1.55874 3 0.795609 3 0 
C 3 -0.795609 2.683901 -1.55874 2.12132 -2.12132 
C 1.55874 -2.683901 0.795609 -3 0 -3 
C -0.795609 -3 -1.55874 -2.683901 -2.12132 -2.12132 
C -2.683901 -1.55874 -3 -0.795609 -3 0 
C -3 0.795609 -2.683901 1.55874 -2.12132 2.12132 
C -1.55874 2.683901 -0.795609 3 0 3 
z
" style="stroke: #8172b2"/>
    </defs>
    <g clip-path="url(#p49404fcfe7)">
     <use xlink:href="#m0b0b4c4544" x="381.394364" y="255.5008" style="fill: #8172b2; stroke: #8172b2"/>
     <use xlink:href="#m0b0b4c4544" x="277.582676" y="72.998242" style="fill: #8172b2; stroke: #8172b2"/>
     <use xlink:href="#m0b0b4c4544" x="100.297079" y="169.778284" style="fill: #8172b2; stroke: #8172b2"/>
     <use xlink:href="#m0b0b4c4544" x="82.856683" y="353.894505" style="fill: #8172b2; stroke: #8172b2"/>
     <use xlink:href="#m0b0b4c4544" x="276.950156" y="436.056664" style="fill: #8172b2; stroke: #8172b2"/>
     <use xlink:href="#m0b0b4c4544" x="381.394364" y="255.5008" style="fill: #8172b2; stroke: #8172b2"/>
    </g>
   </g>
   <g id="line2d_15">
    <path d="M 400.583818 255.5008 
L 275.210729 80.298344 
L 69.24789 147.219728 
L 69.24789 363.781872 
L 277.345481 437.273348 
L 400.583818 255.5008 
" clip-path="url(#p49404fcfe7)" style="fill: none; stroke: #ccb974; stroke-width: 2; stroke-linecap: round"/>
    <defs>
     <path id="m1314236392" d="M 0 3 
C 0.795609 3 1.55874 2.683901 2.12132 2.12132 
C 2.683901 1.55874 3 0.795609 3 0 
C 3 -0.795609 2.683901 -1.55874 2.12132 -2.12132 
C 1.55874 -2.683901 0.795609 -3 0 -3 
C -0.795609 -3 -1.55874 -2.683901 -2.12132 -2.12132 
C -2.683901 -1.55874 -3 -0.795609 -3 0 
C -3 0.795609 -2.683901 1.55874 -2.12132 2.12132 
C -1.55874 2.683901 -0.795609 3 0 3 
z
" style="stroke: #ccb974"/>
    </defs>
    <g clip-path="url(#p49404fcfe7)">
     <use xlink:href="#m1314236392" x="400.583818" y="255.5008" style="fill: #ccb974; stroke: #ccb974"/>
     <use xlink:href="#m1314236392" x="275.210729" y="80.298344" style="fill: #ccb974; stroke: #ccb974"/>
     <use xlink:href="#m1314236392" x="69.24789" y="147.219728" style="fill: #ccb974; stroke: #ccb974"/>
     <use xlink:href="#m1314236392" x="69.24789" y="363.781872" style="fill: #ccb974; stroke: #ccb974"/>
     <use xlink:href="#m1314236392" x="277.345481" y="437.273348" style="fill: #ccb974; stroke: #ccb974"/>
     <use xlink:href="#m1314236392" x="400.583818" y="255.5008" style="fill: #ccb974; stroke: #ccb974"/>
    </g>
   </g>
   <g id="patch_8">
    <path d="M 429.368 255.5008 
C 429.368 227.781503 423.907903 200.331741 413.300187 174.72245 
C 402.692472 149.113159 387.143431 125.842375 367.542928 106.241872 
C 347.942425 86.641369 324.671641 71.092328 299.06235 60.484613 
C 273.453059 49.876897 246.003297 44.4168 218.284 44.4168 
C 190.564703 44.4168 163.114941 49.876897 137.50565 60.484613 
C 111.896359 71.092328 88.625575 86.641369 69.025072 106.241872 
C 49.424569 125.842375 33.875528 149.113159 23.267813 174.72245 
C 12.660097 200.331741 7.2 227.781503 7.2 255.5008 
C 7.2 283.220097 12.660097 310.669859 23.267813 336.27915 
C 33.875528 361.888441 49.424569 385.159225 69.025072 404.759728 
C 88.625575 424.360231 111.896359 439.909272 137.50565 450.516987 
C 163.114941 461.124703 190.564703 466.5848 218.284 466.5848 
C 246.003297 466.5848 273.453059 461.124703 299.06235 450.516987 
C 324.671641 439.909272 347.942425 424.360231 367.542928 404.759728 
C 387.143431 385.159225 402.692472 361.888441 413.300187 336.27915 
C 423.907903 310.669859 429.368 283.220097 429.368 255.5008 
" style="fill: none; stroke: #cccccc; stroke-width: 1.25; stroke-linejoin: miter; stroke-linecap: square"/>
   </g>
   <g id="text_11">
    <!-- Model Performance — Radar Chart -->
    <g style="fill: #262626" transform="translate(82.12525 19.4168) scale(0.14 -0.14)">
     <defs>
      <path id="DejaVuSans-Bold-4d" d="M 588 4666 
L 2119 4666 
L 3181 2169 
L 4250 4666 
L 5778 4666 
L 5778 0 
L 4641 0 
L 4641 3413 
L 3566 897 
L 2803 897 
L 1728 3413 
L 1728 0 
L 588 0 
L 588 4666 
z
" transform="scale(0.015625)"/>
      <path id="DejaVuSans-Bold-6f" d="M 2203 2784 
Q 1831 2784 1636 2517 
Q 1441 2250 1441 1747 
Q 1441 1244 1636 976 
Q 1831 709 2203 709 
Q 2569 709 2762 976 
Q 2956 1244 2956 1747 
Q 2956 2250 2762 2517 
Q 2569 2784 2203 2784 
z
M 2203 3584 
Q 3106 3584 3614 3096 
Q 4122 2609 4122 1747 
Q 4122 884 3614 396 
Q 3106 -91 2203 -91 
Q 1297 -91 786 396 
Q 275 884 275 1747 
Q 275 2609 786 3096 
Q 1297 3584 2203 3584 
z
" transform="scale(0.015625)"/>
      <path id="DejaVuSans-Bold-64" d="M 2919 2988 
L 2919 4863 
L 4044 4863 
L 4044 0 
L 2919 0 
L 2919 506 
Q 2688 197 2409 53 
Q 2131 -91 1766 -91 
Q 1119 -91 703 423 
Q 288 938 288 1747 
Q 288 2556 703 3070 
Q 1119 3584 1766 3584 
Q 2128 3584 2408 3439 
Q 2688 3294 2919 2988 
z
M 2181 722 
Q 2541 722 2730 984 
Q 2919 1247 2919 1747 
Q 2919 2247 2730 2509 
Q 2541 2772 2181 2772 
Q 1825 2772 1636 2509 
Q 1447 2247 1447 1747 
Q 1447 1247 1636 984 
Q 1825 722 2181 722 
z
" transform="scale(0.015625)"/>
      <path id="DejaVuSans-Bold-65" d="M 4031 1759 
L 4031 1441 
L 1416 1441 
Q 1456 1047 1700 850 
Q 1944 653 2381 653 
Q 2734 653 3104 758 
Q 3475 863 3866 1075 
L 3866 213 
Q 3469 63 3072 -14 
Q 2675 -91 2278 -91 
Q 1328 -91 801 392 
Q 275 875 275 1747 
Q 275 2603 792 3093 
Q 1309 3584 2216 3584 
Q 3041 3584 3536 3087 
Q 4031 2591 4031 1759 
z
M 2881 2131 
Q 2881 2450 2695 2645 
Q 2509 2841 2209 2841 
Q 1884 2841 1681 2658 
Q 1478 2475 1428 2131 
L 2881 2131 
z
" transform="scale(0.015625)"/>
      <path id="DejaVuSans-Bold-6c" d="M 538 4863 
L 1656 4863 
L 1656 0 
L 538 0 
L 538 4863 
z
" transform="scale(0.015625)"/>
      <path id="DejaVuSans-Bold-20" transform="scale(0.015625)"/>
      <path id="DejaVuSans-Bold-50" d="M 588 4666 
L 2584 4666 
Q 3475 4666 3951 4270 
Q 4428 3875 4428 3144 
Q 4428 2409 3951 2014 
Q 3475 1619 2584 1619 
L 1791 1619 
L 1791 0 
L 588 0 
L 588 4666 
z
M 1791 3794 
L 1791 2491 
L 2456 2491 
Q 2806 2491 2997 2661 
Q 3188 2831 3188 3144 
Q 3188 3456 2997 3625 
Q 2806 3794 2456 3794 
L 1791 3794 
z
" transform="scale(0.015625)"/>
      <path id="DejaVuSans-Bold-72" d="M 3138 2547 
Q 2991 2616 2845 2648 
Q 2700 2681 2553 2681 
Q 2122 2681 1889 2404 
Q 1656 2128 1656 1613 
L 1656 0 
L 538 0 
L 538 3500 
L 1656 3500 
L 1656 2925 
Q 1872 3269 2151 3426 
Q 2431 3584 2822 3584 
Q 2878 3584 2943 3579 
Q 3009 3575 3134 3559 
L 3138 2547 
z
" transform="scale(0.015625)"/>
      <path id="DejaVuSans-Bold-66" d="M 2841 4863 
L 2841 4128 
L 2222 4128 
Q 1984 4128 1890 4042 
Q 1797 3956 1797 3744 
L 1797 3500 
L 2753 3500 
L 2753 2700 
L 1797 2700 
L 1797 0 
L 678 0 
L 678 2700 
L 122 2700 
L 122 3500 
L 678 3500 
L 678 3744 
Q 678 4316 997 4589 
Q 1316 4863 1984 4863 
L 2841 4863 
z
" transform="scale(0.015625)"/>
      <path id="DejaVuSans-Bold-6d" d="M 3781 2919 
Q 3994 3244 4286 3414 
Q 4578 3584 4928 3584 
Q 5531 3584 5847 3212 
Q 6163 2841 6163 2131 
L 6163 0 
L 5038 0 
L 5038 1825 
Q 5041 1866 5042 1909 
Q 5044 1953 5044 2034 
Q 5044 2406 4934 2573 
Q 4825 2741 4581 2741 
Q 4263 2741 4089 2478 
Q 3916 2216 3909 1719 
L 3909 0 
L 2784 0 
L 2784 1825 
Q 2784 2406 2684 2573 
Q 2584 2741 2328 2741 
Q 2006 2741 1831 2477 
Q 1656 2213 1656 1722 
L 1656 0 
L 531 0 
L 531 3500 
L 1656 3500 
L 1656 2988 
Q 1863 3284 2130 3434 
Q 2397 3584 2719 3584 
Q 3081 3584 3359 3409 
Q 3638 3234 3781 2919 
z
" transform="scale(0.015625)"/>
      <path id="DejaVuSans-Bold-61" d="M 2106 1575 
Q 1756 1575 1579 1456 
Q 1403 1338 1403 1106 
Q 1403 894 1545 773 
Q 1688 653 1941 653 
Q 2256 653 2472 879 
Q 2688 1106 2688 1447 
L 2688 1575 
L 2106 1575 
z
M 3816 1997 
L 3816 0 
L 2688 0 
L 2688 519 
Q 2463 200 2181 54 
Q 1900 -91 1497 -91 
Q 953 -91 614 226 
Q 275 544 275 1050 
Q 275 1666 698 1953 
Q 1122 2241 2028 2241 
L 2688 2241 
L 2688 2328 
Q 2688 2594 2478 2717 
Q 2269 2841 1825 2841 
Q 1466 2841 1156 2769 
Q 847 2697 581 2553 
L 581 3406 
Q 941 3494 1303 3539 
Q 1666 3584 2028 3584 
Q 2975 3584 3395 3211 
Q 3816 2838 3816 1997 
z
" transform="scale(0.015625)"/>
      <path id="DejaVuSans-Bold-6e" d="M 4056 2131 
L 4056 0 
L 2931 0 
L 2931 347 
L 2931 1631 
Q 2931 2084 2911 2256 
Q 2891 2428 2841 2509 
Q 2775 2619 2662 2680 
Q 2550 2741 2406 2741 
Q 2056 2741 1856 2470 
Q 1656 2200 1656 1722 
L 1656 0 
L 538 0 
L 538 3500 
L 1656 3500 
L 1656 2988 
Q 1909 3294 2193 3439 
Q 2478 3584 2822 3584 
Q 3428 3584 3742 3212 
Q 4056 2841 4056 2131 
z
" transform="scale(0.015625)"/>
      <path id="DejaVuSans-Bold-63" d="M 3366 3391 
L 3366 2478 
Q 3138 2634 2908 2709 
Q 2678 2784 2431 2784 
Q 1963 2784 1702 2511 
Q 1441 2238 1441 1747 
Q 1441 1256 1702 982 
Q 1963 709 2431 709 
Q 2694 709 2930 787 
Q 3166 866 3366 1019 
L 3366 103 
Q 3103 6 2833 -42 
Q 2563 -91 2291 -91 
Q 1344 -91 809 395 
Q 275 881 275 1747 
Q 275 2613 809 3098 
Q 1344 3584 2291 3584 
Q 2566 3584 2833 3536 
Q 3100 3488 3366 3391 
z
" transform="scale(0.015625)"/>
      <path id="DejaVuSans-Bold-2014" d="M 344 2156 
L 6056 2156 
L 6056 1350 
L 344 1350 
L 344 2156 
z
" transform="scale(0.015625)"/>
      <path id="DejaVuSans-Bold-52" d="M 2297 2597 
Q 2675 2597 2839 2737 
Q 3003 2878 3003 3200 
Q 3003 3519 2839 3656 
Q 2675 3794 2297 3794 
L 1791 3794 
L 1791 2597 
L 2297 2597 
z
M 1791 1766 
L 1791 0 
L 588 0 
L 588 4666 
L 2425 4666 
Q 3347 4666 3776 4356 
Q 4206 4047 4206 3378 
Q 4206 2916 3982 2619 
Q 3759 2322 3309 2181 
Q 3556 2125 3751 1926 
Q 3947 1728 4147 1325 
L 4800 0 
L 3519 0 
L 2950 1159 
Q 2778 1509 2601 1637 
Q 2425 1766 2131 1766 
L 1791 1766 
z
" transform="scale(0.015625)"/>
      <path id="DejaVuSans-Bold-43" d="M 4288 256 
Q 3956 84 3597 -3 
Q 3238 -91 2847 -91 
Q 1681 -91 1000 561 
Q 319 1213 319 2328 
Q 319 3447 1000 4098 
Q 1681 4750 2847 4750 
Q 3238 4750 3597 4662 
Q 3956 4575 4288 4403 
L 4288 3438 
Q 3953 3666 3628 3772 
Q 3303 3878 2944 3878 
Q 2300 3878 1931 3465 
Q 1563 3053 1563 2328 
Q 1563 1606 1931 1193 
Q 2300 781 2944 781 
Q 3303 781 3628 887 
Q 3953 994 4288 1222 
L 4288 256 
z
" transform="scale(0.015625)"/>
      <path id="DejaVuSans-Bold-68" d="M 4056 2131 
L 4056 0 
L 2931 0 
L 2931 347 
L 2931 1625 
Q 2931 2084 2911 2256 
Q 2891 2428 2841 2509 
Q 2775 2619 2662 2680 
Q 2550 2741 2406 2741 
Q 2056 2741 1856 2470 
Q 1656 2200 1656 1722 
L 1656 0 
L 538 0 
L 538 4863 
L 1656 4863 
L 1656 2988 
Q 1909 3294 2193 3439 
Q 2478 3584 2822 3584 
Q 3428 3584 3742 3212 
Q 4056 2841 4056 2131 
z
" transform="scale(0.015625)"/>
      <path id="DejaVuSans-Bold-74" d="M 1759 4494 
L 1759 3500 
L 2913 3500 
L 2913 2700 
L 1759 2700 
L 1759 1216 
Q 1759 972 1856 886 
Q 1953 800 2241 800 
L 2816 800 
L 2816 0 
L 1856 0 
Q 1194 0 917 276 
Q 641 553 641 1216 
L 641 2700 
L 84 2700 
L 84 3500 
L 641 3500 
L 641 4494 
L 1759 4494 
z
" transform="scale(0.015625)"/>
     </defs>
     <use xlink:href="#DejaVuSans-Bold-4d"/>
     <use xlink:href="#DejaVuSans-Bold-6f" transform="translate(99.511719 0)"/>
     <use xlink:href="#DejaVuSans-Bold-64" transform="translate(168.212891 0)"/>
     <use xlink:href="#DejaVuSans-Bold-65" transform="translate(239.794922 0)"/>
     <use xlink:href="#DejaVuSans-Bold-6c" transform="translate(307.617188 0)"/>
     <use xlink:href="#DejaVuSans-Bold-20" transform="translate(341.894531 0)"/>
     <use xlink:href="#DejaVuSans-Bold-50" transform="translate(376.708984 0)"/>
     <use xlink:href="#DejaVuSans-Bold-65" transform="translate(450 0)"/>
     <use xlink:href="#DejaVuSans-Bold-72" transform="translate(517.822266 0)"/>
     <use xlink:href="#DejaVuSans-Bold-66" transform="translate(567.138672 0)"/>
     <use xlink:href="#DejaVuSans-Bold-6f" transform="translate(610.644531 0)"/>
     <use xlink:href="#DejaVuSans-Bold-72" transform="translate(679.345703 0)"/>
     <use xlink:href="#DejaVuSans-Bold-6d" transform="translate(728.662109 0)"/>
     <use xlink:href="#DejaVuSans-Bold-61" transform="translate(832.861328 0)"/>
     <use xlink:href="#DejaVuSans-Bold-6e" transform="translate(900.341797 0)"/>
     <use xlink:href="#DejaVuSans-Bold-63" transform="translate(971.533203 0)"/>
     <use xlink:href="#DejaVuSans-Bold-65" transform="translate(1030.810547 0)"/>
     <use xlink:href="#DejaVuSans-Bold-20" transform="translate(1098.632812 0)"/>
     <use xlink:href="#DejaVuSans-Bold-2014" transform="translate(1133.447266 0)"/>
     <use xlink:href="#DejaVuSans-Bold-20" transform="translate(1233.447266 0)"/>
     <use xlink:href="#DejaVuSans-Bold-52" transform="translate(1268.261719 0)"/>
     <use xlink:href="#DejaVuSans-Bold-61" transform="translate(1345.263672 0)"/>
     <use xlink:href="#DejaVuSans-Bold-64" transform="translate(1412.744141 0)"/>
     <use xlink:href="#DejaVuSans-Bold-61" transform="translate(1484.326172 0)"/>
     <use xlink:href="#DejaVuSans-Bold-72" transform="translate(1551.806641 0)"/>
     <use xlink:href="#DejaVuSans-Bold-20" transform="translate(1601.123047 0)"/>
     <use xlink:href="#DejaVuSans-Bold-43" transform="translate(1635.9375 0)"/>
     <use xlink:href="#DejaVuSans-Bold-68" transform="translate(1709.326172 0)"/>
     <use xlink:href="#DejaVuSans-Bold-61" transform="translate(1780.517578 0)"/>
     <use xlink:href="#DejaVuSans-Bold-72" transform="translate(1847.998047 0)"/>
     <use xlink:href="#DejaVuSans-Bold-74" transform="translate(1897.314453 0)"/>
    </g>
   </g>
   <g id="legend_1">
    <g id="patch_9">
     <path d="M 421.09965 83.590625 
L 549.0184 83.590625 
Q 551.0184 83.590625 551.0184 81.590625 
L 551.0184 9.2 
Q 551.0184 7.2 549.0184 7.2 
L 421.09965 7.2 
Q 419.09965 7.2 419.09965 9.2 
L 419.09965 81.590625 
Q 419.09965 83.590625 421.09965 83.590625 
z
" style="fill: #ffffff; opacity: 0.8; stroke: #cccccc; stroke-linejoin: miter"/>
    </g>
    <g id="line2d_16">
     <path d="M 423.09965 15.298438 
L 433.09965 15.298438 
L 443.09965 15.298438 
" style="fill: none; stroke: #c44e52; stroke-width: 2; stroke-linecap: round"/>
     <g>
      <use xlink:href="#m0dfef110c0" x="433.09965" y="15.298438" style="fill: #c44e52; stroke: #c44e52"/>
     </g>
    </g>
    <g id="text_12">
     <!-- Logistic Regression -->
     <g style="fill: #262626" transform="translate(451.09965 18.798438) scale(0.1 -0.1)">
      <defs>
       <path id="DejaVuSans-4c" d="M 628 4666 
L 1259 4666 
L 1259 531 
L 3531 531 
L 3531 0 
L 628 0 
L 628 4666 
z
" transform="scale(0.015625)"/>
       <path id="DejaVuSans-67" d="M 2906 1791 
Q 2906 2416 2648 2759 
Q 2391 3103 1925 3103 
Q 1463 3103 1205 2759 
Q 947 2416 947 1791 
Q 947 1169 1205 825 
Q 1463 481 1925 481 
Q 2391 481 2648 825 
Q 2906 1169 2906 1791 
z
M 3481 434 
Q 3481 -459 3084 -895 
Q 2688 -1331 1869 -1331 
Q 1566 -1331 1297 -1286 
Q 1028 -1241 775 -1147 
L 775 -588 
Q 1028 -725 1275 -790 
Q 1522 -856 1778 -856 
Q 2344 -856 2625 -561 
Q 2906 -266 2906 331 
L 2906 616 
Q 2728 306 2450 153 
Q 2172 0 1784 0 
Q 1141 0 747 490 
Q 353 981 353 1791 
Q 353 2603 747 3093 
Q 1141 3584 1784 3584 
Q 2172 3584 2450 3431 
Q 2728 3278 2906 2969 
L 2906 3500 
L 3481 3500 
L 3481 434 
z
" transform="scale(0.015625)"/>
       <path id="DejaVuSans-74" d="M 1172 4494 
L 1172 3500 
L 2356 3500 
L 2356 3053 
L 1172 3053 
L 1172 1153 
Q 1172 725 1289 603 
Q 1406 481 1766 481 
L 2356 481 
L 2356 0 
L 1766 0 
Q 1100 0 847 248 
Q 594 497 594 1153 
L 594 3053 
L 172 3053 
L 172 3500 
L 594 3500 
L 594 4494 
L 1172 4494 
z
" transform="scale(0.015625)"/>
       <path id="DejaVuSans-20" transform="scale(0.015625)"/>
      </defs>
      <use xlink:href="#DejaVuSans-4c"/>
      <use xlink:href="#DejaVuSans-6f" transform="translate(53.962891 0)"/>
      <use xlink:href="#DejaVuSans-67" transform="translate(115.144531 0)"/>
      <use xlink:href="#DejaVuSans-69" transform="translate(178.621094 0)"/>
      <use xlink:href="#DejaVuSans-73" transform="translate(206.404297 0)"/>
      <use xlink:href="#DejaVuSans-74" transform="translate(258.503906 0)"/>
      <use xlink:href="#DejaVuSans-69" transform="translate(297.712891 0)"/>
      <use xlink:href="#DejaVuSans-63" transform="translate(325.496094 0)"/>
      <use xlink:href="#DejaVuSans-20" transform="translate(380.476562 0)"/>
      <use xlink:href="#DejaVuSans-52" transform="translate(412.263672 0)"/>
      <use xlink:href="#DejaVuSans-65" transform="translate(477.246094 0)"/>
      <use xlink:href="#DejaVuSans-67" transform="translate(538.769531 0)"/>
      <use xlink:href="#DejaVuSans-72" transform="translate(602.246094 0)"/>
      <use xlink:href="#DejaVuSans-65" transform="translate(641.109375 0)"/>
      <use xlink:href="#DejaVuSans-73" transform="translate(702.632812 0)"/>
      <use xlink:href="#DejaVuSans-73" transform="translate(754.732422 0)"/>
      <use xlink:href="#DejaVuSans-69" transform="translate(806.832031 0)"/>
      <use xlink:href="#DejaVuSans-6f" transform="translate(834.615234 0)"/>
      <use xlink:href="#DejaVuSans-6e" transform="translate(895.796875 0)"/>
     </g>
    </g>
    <g id="line2d_17">
     <path d="M 423.09965 29.976563 
L 433.09965 29.976563 
L 443.09965 29.976563 
" style="fill: none; stroke: #4c72b0; stroke-width: 2; stroke-linecap: round"/>
     <g>
      <use xlink:href="#me3ee94cc87" x="433.09965" y="29.976563" style="fill: #4c72b0; stroke: #4c72b0"/>
     </g>
    </g>
    <g id="text_13">
     <!-- Decision Tree -->
     <g style="fill: #262626" transform="translate(451.09965 33.476563) scale(0.1 -0.1)">
      <defs>
       <path id="DejaVuSans-44" d="M 1259 4147 
L 1259 519 
L 2022 519 
Q 2988 519 3436 956 
Q 3884 1394 3884 2338 
Q 3884 3275 3436 3711 
Q 2988 4147 2022 4147 
L 1259 4147 
z
M 628 4666 
L 1925 4666 
Q 3281 4666 3915 4102 
Q 4550 3538 4550 2338 
Q 4550 1131 3912 565 
Q 3275 0 1925 0 
L 628 0 
L 628 4666 
z
" transform="scale(0.015625)"/>
       <path id="DejaVuSans-54" d="M -19 4666 
L 3928 4666 
L 3928 4134 
L 2272 4134 
L 2272 0 
L 1638 0 
L 1638 4134 
L -19 4134 
L -19 4666 
z
" transform="scale(0.015625)"/>
      </defs>
      <use xlink:href="#DejaVuSans-44"/>
      <use xlink:href="#DejaVuSans-65" transform="translate(77.001953 0)"/>
      <use xlink:href="#DejaVuSans-63" transform="translate(138.525391 0)"/>
      <use xlink:href="#DejaVuSans-69" transform="translate(193.505859 0)"/>
      <use xlink:href="#DejaVuSans-73" transform="translate(221.289062 0)"/>
      <use xlink:href="#DejaVuSans-69" transform="translate(273.388672 0)"/>
      <use xlink:href="#DejaVuSans-6f" transform="translate(301.171875 0)"/>
      <use xlink:href="#DejaVuSans-6e" transform="translate(362.353516 0)"/>
      <use xlink:href="#DejaVuSans-20" transform="translate(425.732422 0)"/>
      <use xlink:href="#DejaVuSans-54" transform="translate(457.519531 0)"/>
      <use xlink:href="#DejaVuSans-72" transform="translate(503.853516 0)"/>
      <use xlink:href="#DejaVuSans-65" transform="translate(542.716797 0)"/>
      <use xlink:href="#DejaVuSans-65" transform="translate(604.240234 0)"/>
     </g>
    </g>
    <g id="line2d_18">
     <path d="M 423.09965 44.654688 
L 433.09965 44.654688 
L 443.09965 44.654688 
" style="fill: none; stroke: #55a868; stroke-width: 2; stroke-linecap: round"/>
     <g>
      <use xlink:href="#mfd63301948" x="433.09965" y="44.654688" style="fill: #55a868; stroke: #55a868"/>
     </g>
    </g>
    <g id="text_14">
     <!-- Random Forest -->
     <g style="fill: #262626" transform="translate(451.09965 48.154688) scale(0.1 -0.1)">
      <defs>
       <path id="DejaVuSans-64" d="M 2906 2969 
L 2906 4863 
L 3481 4863 
L 3481 0 
L 2906 0 
L 2906 525 
Q 2725 213 2448 61 
Q 2172 -91 1784 -91 
Q 1150 -91 751 415 
Q 353 922 353 1747 
Q 353 2572 751 3078 
Q 1150 3584 1784 3584 
Q 2172 3584 2448 3432 
Q 2725 3281 2906 2969 
z
M 947 1747 
Q 947 1113 1208 752 
Q 1469 391 1925 391 
Q 2381 391 2643 752 
Q 2906 1113 2906 1747 
Q 2906 2381 2643 2742 
Q 2381 3103 1925 3103 
Q 1469 3103 1208 2742 
Q 947 2381 947 1747 
z
" transform="scale(0.015625)"/>
       <path id="DejaVuSans-6d" d="M 3328 2828 
Q 3544 3216 3844 3400 
Q 4144 3584 4550 3584 
Q 5097 3584 5394 3201 
Q 5691 2819 5691 2113 
L 5691 0 
L 5113 0 
L 5113 2094 
Q 5113 2597 4934 2840 
Q 4756 3084 4391 3084 
Q 3944 3084 3684 2787 
Q 3425 2491 3425 1978 
L 3425 0 
L 2847 0 
L 2847 2094 
Q 2847 2600 2669 2842 
Q 2491 3084 2119 3084 
Q 1678 3084 1418 2786 
Q 1159 2488 1159 1978 
L 1159 0 
L 581 0 
L 581 3500 
L 1159 3500 
L 1159 2956 
Q 1356 3278 1631 3431 
Q 1906 3584 2284 3584 
Q 2666 3584 2933 3390 
Q 3200 3197 3328 2828 
z
" transform="scale(0.015625)"/>
      </defs>
      <use xlink:href="#DejaVuSans-52"/>
      <use xlink:href="#DejaVuSans-61" transform="translate(67.232422 0)"/>
      <use xlink:href="#DejaVuSans-6e" transform="translate(128.511719 0)"/>
      <use xlink:href="#DejaVuSans-64" transform="translate(191.890625 0)"/>
      <use xlink:href="#DejaVuSans-6f" transform="translate(255.367188 0)"/>
      <use xlink:href="#DejaVuSans-6d" transform="translate(316.548828 0)"/>
      <use xlink:href="#DejaVuSans-20" transform="translate(413.960938 0)"/>
      <use xlink:href="#DejaVuSans-46" transform="translate(445.748047 0)"/>
      <use xlink:href="#DejaVuSans-6f" transform="translate(499.642578 0)"/>
      <use xlink:href="#DejaVuSans-72" transform="translate(560.824219 0)"/>
      <use xlink:href="#DejaVuSans-65" transform="translate(599.6875 0)"/>
      <use xlink:href="#DejaVuSans-73" transform="translate(661.210938 0)"/>
      <use xlink:href="#DejaVuSans-74" transform="translate(713.310547 0)"/>
     </g>
    </g>
    <g id="line2d_19">
     <path d="M 423.09965 59.332813 
L 433.09965 59.332813 
L 443.09965 59.332813 
" style="fill: none; stroke: #8172b2; stroke-width: 2; stroke-linecap: round"/>
     <g>
      <use xlink:href="#m0b0b4c4544" x="433.09965" y="59.332813" style="fill: #8172b2; stroke: #8172b2"/>
     </g>
    </g>
    <g id="text_15">
     <!-- SVM -->
     <g style="fill: #262626" transform="translate(451.09965 62.832813) scale(0.1 -0.1)">
      <defs>
       <path id="DejaVuSans-56" d="M 1831 0 
L 50 4666 
L 709 4666 
L 2188 738 
L 3669 4666 
L 4325 4666 
L 2547 0 
L 1831 0 
z
" transform="scale(0.015625)"/>
       <path id="DejaVuSans-4d" d="M 628 4666 
L 1569 4666 
L 2759 1491 
L 3956 4666 
L 4897 4666 
L 4897 0 
L 4281 0 
L 4281 4097 
L 3078 897 
L 2444 897 
L 1241 4097 
L 1241 0 
L 628 0 
L 628 4666 
z
" transform="scale(0.015625)"/>
      </defs>
      <use xlink:href="#DejaVuSans-53"/>
      <use xlink:href="#DejaVuSans-56" transform="translate(63.476562 0)"/>
      <use xlink:href="#DejaVuSans-4d" transform="translate(131.884766 0)"/>
     </g>
    </g>
    <g id="line2d_20">
     <path d="M 423.09965 74.010938 
L 433.09965 74.010938 
L 443.09965 74.010938 
" style="fill: none; stroke: #ccb974; stroke-width: 2; stroke-linecap: round"/>
     <g>
      <use xlink:href="#m1314236392" x="433.09965" y="74.010938" style="fill: #ccb974; stroke: #ccb974"/>
     </g>
    </g>
    <g id="text_16">
     <!-- XGBoost -->
     <g style="fill: #262626" transform="translate(451.09965 77.510938) scale(0.1 -0.1)">
      <defs>
       <path id="DejaVuSans-58" d="M 403 4666 
L 1081 4666 
L 2241 2931 
L 3406 4666 
L 4084 4666 
L 2584 2425 
L 4184 0 
L 3506 0 
L 2194 1984 
L 872 0 
L 191 0 
L 1856 2491 
L 403 4666 
z
" transform="scale(0.015625)"/>
       <path id="DejaVuSans-47" d="M 3809 666 
L 3809 1919 
L 2778 1919 
L 2778 2438 
L 4434 2438 
L 4434 434 
Q 4069 175 3628 42 
Q 3188 -91 2688 -91 
Q 1594 -91 976 548 
Q 359 1188 359 2328 
Q 359 3472 976 4111 
Q 1594 4750 2688 4750 
Q 3144 4750 3555 4637 
Q 3966 4525 4313 4306 
L 4313 3634 
Q 3963 3931 3569 4081 
Q 3175 4231 2741 4231 
Q 1884 4231 1454 3753 
Q 1025 3275 1025 2328 
Q 1025 1384 1454 906 
Q 1884 428 2741 428 
Q 3075 428 3337 486 
Q 3600 544 3809 666 
z
" transform="scale(0.015625)"/>
       <path id="DejaVuSans-42" d="M 1259 2228 
L 1259 519 
L 2272 519 
Q 2781 519 3026 730 
Q 3272 941 3272 1375 
Q 3272 1813 3026 2020 
Q 2781 2228 2272 2228 
L 1259 2228 
z
M 1259 4147 
L 1259 2741 
L 2194 2741 
Q 2656 2741 2882 2914 
Q 3109 3088 3109 3444 
Q 3109 3797 2882 3972 
Q 2656 4147 2194 4147 
L 1259 4147 
z
M 628 4666 
L 2241 4666 
Q 2963 4666 3353 4366 
Q 3744 4066 3744 3513 
Q 3744 3084 3544 2831 
Q 3344 2578 2956 2516 
Q 3422 2416 3680 2098 
Q 3938 1781 3938 1306 
Q 3938 681 3513 340 
Q 3088 0 2303 0 
L 628 0 
L 628 4666 
z
" transform="scale(0.015625)"/>
      </defs>
      <use xlink:href="#DejaVuSans-58"/>
      <use xlink:href="#DejaVuSans-47" transform="translate(68.505859 0)"/>
      <use xlink:href="#DejaVuSans-42" transform="translate(145.996094 0)"/>
      <use xlink:href="#DejaVuSans-6f" transform="translate(214.599609 0)"/>
      <use xlink:href="#DejaVuSans-6f" transform="translate(275.78125 0)"/>
      <use xlink:href="#DejaVuSans-73" transform="translate(336.962891 0)"/>
      <use xlink:href="#DejaVuSans-74" transform="translate(389.0625 0)"/>
     </g>
    </g>
   </g>
  </g>
 </g>
 <defs>
  <clipPath id="p49404fcfe7">
   <path d="M 429.368 255.5008 
C 429.368 227.781503 423.907903 200.331741 413.300187 174.72245 
C 402.692472 149.113159 387.143431 125.842375 367.542928 106.241872 
C 347.942425 86.641369 324.671641 71.092328 299.06235 60.484613 
C 273.453059 49.876897 246.003297 44.4168 218.284 44.4168 
C 190.564703 44.4168 163.114941 49.876897 137.50565 60.484613 
C 111.896359 71.092328 88.625575 86.641369 69.025072 106.241872 
C 49.424569 125.842375 33.875528 149.113159 23.267813 174.72245 
C 12.660097 200.331741 7.2 227.781503 7.2 255.5008 
C 7.2 283.220097 12.660097 310.669859 23.267813 336.27915 
C 33.875528 361.888441 49.424569 385.159225 69.025072 404.759728 
C 88.625575 424.360231 111.896359 439.909272 137.50565 450.516987 
C 163.114941 461.124703 190.564703 466.5848 218.284 466.5848 
C 246.003297 466.5848 273.453059 461.124703 299.06235 450.516987 
C 324.671641 439.909272 347.942425 424.360231 367.542928 404.759728 
C 387.143431 385.159225 402.692472 361.888441 413.300187 336.27915 
C 423.907903 310.669859 429.368 283.220097 429.368 255.5008 
M 218.284 255.5008 
C 218.284 255.5008 218.284 255.5008 218.284 255.5008 
C 218.284 255.5008 218.284 255.5008 218.284 255.5008 
C 218.284 255.5008 218.284 255.5008 218.284 255.5008 
C 218.284 255.5008 218.284 255.5008 218.284 255.5008 
C 218.284 255.5008 218.284 255.5008 218.284 255.5008 
C 218.284 255.5008 218.284 255.5008 218.284 255.5008 
C 218.284 255.5008 218.284 255.5008 218.284 255.5008 
C 218.284 255.5008 218.284 255.5008 218.284 255.5008 
C 218.284 255.5008 218.284 255.5008 218.284 255.5008 
C 218.284 255.5008 218.284 255.5008 218.284 255.5008 
C 218.284 255.5008 218.284 255.5008 218.284 255.5008 
C 218.284 255.5008 218.284 255.5008 218.284 255.5008 
C 218.284 255.5008 218.284 255.5008 218.284 255.5008 
C 218.284 255.5008 218.284 255.5008 218.284 255.5008 
C 218.284 255.5008 218.284 255.5008 218.284 255.5008 
C 218.284 255.5008 218.284 255.5008 218.284 255.5008 
z
"/>
  </clipPath>
 </defs>
</svg>
