<?xml version="1.0" encoding="utf-8" standalone="no"?>
<!DOCTYPE svg PUBLIC "-//W3C//DTD SVG 1.1//EN"
  "http://www.w3.org/Graphics/SVG/1.1/DTD/svg11.dtd">
<svg xmlns:xlink="http://www.w3.org/1999/xlink" width="567.556699pt" height="628.6755pt" viewBox="0 0 567.556699 628.6755" xmlns="http://www.w3.org/2000/svg" version="1.1">
 <metadata>
  <rdf:RDF xmlns:dc="http://purl.org/dc/elements/1.1/" xmlns:cc="http://creativecommons.org/ns#" xmlns:rdf="http://www.w3.org/1999/02/22-rdf-syntax-ns#">
   <cc:Work>
    <dc:type rdf:resource="http://purl.org/dc/dcmitype/StillImage"/>
    <dc:date>2026-03-09T02:44:15.068972</dc:date>
    <dc:format>image/svg+xml</dc:format>
    <dc:creator>
     <cc:Agent>
      <dc:title>Matplotlib v3.10.0, https://matplotlib.org/</dc:title>
     </cc:Agent>
    </dc:creator>
   </cc:Work>
  </rdf:RDF>
 </metadata>
 <defs>
  <style type="text/css">*{stroke-linejoin: round; stroke-linecap: butt}</style>
 </defs>
 <g id="figure_1">
  <g id="patch_1">
   <path d="M 0 628.6755 
L 567.556699 628.6755 
L 567.556699 0 
L 0 0 
z
" style="fill: #ffffff"/>
  </g>
  <g id="axes_1">
   <g id="patch_2">
    <path d="M 127.799219 585.924375 
L 529.663846 585.924375 
L 529.663846 67.817125 
L 127.799219 67.817125 
z
" style="fill: #ffffff"/>
   </g>
   <g id="line2d_1">
    <path d="M 180.065792 148.65204 
L 180.065792 91.367455 
" clip-path="url(#p3660bd1e1c)" style="fill: none; stroke-dasharray: 1.85,0.8; stroke-dashoffset: 0; stroke: #bbbbbb; stroke-width: 0.5"/>
   </g>
   <g id="line2d_2">
    <path d="M 256.062251 180.47681 
L 256.062251 123.192224 
" clip-path="url(#p3660bd1e1c)" style="fill: none; stroke-dasharray: 1.85,0.8; stroke-dashoffset: 0; stroke: #bbbbbb; stroke-width: 0.5"/>
   </g>
   <g id="line2d_3">
    <path d="M 318.178393 212.301579 
L 318.178393 155.016994 
" clip-path="url(#p3660bd1e1c)" style="fill: none; stroke-dasharray: 1.85,0.8; stroke-dashoffset: 0; stroke: #bbbbbb; stroke-width: 0.5"/>
   </g>
   <g id="line2d_4">
    <path d="M 379.163469 244.126349 
L 379.163469 186.841764 
" clip-path="url(#p3660bd1e1c)" style="fill: none; stroke-dasharray: 1.85,0.8; stroke-dashoffset: 0; stroke: #bbbbbb; stroke-width: 0.5"/>
   </g>
   <g id="line2d_5">
    <path d="M 416.904784 275.951119 
L 416.904784 218.666533 
" clip-path="url(#p3660bd1e1c)" style="fill: none; stroke-dasharray: 1.85,0.8; stroke-dashoffset: 0; stroke: #bbbbbb; stroke-width: 0.5"/>
   </g>
   <g id="line2d_6">
    <path d="M 446.861968 307.775888 
L 446.861968 250.491303 
" clip-path="url(#p3660bd1e1c)" style="fill: none; stroke-dasharray: 1.85,0.8; stroke-dashoffset: 0; stroke: #bbbbbb; stroke-width: 0.5"/>
   </g>
   <g id="line2d_7">
    <path d="M 459.741096 339.600658 
L 459.741096 282.316072 
" clip-path="url(#p3660bd1e1c)" style="fill: none; stroke-dasharray: 1.85,0.8; stroke-dashoffset: 0; stroke: #bbbbbb; stroke-width: 0.5"/>
   </g>
   <g id="line2d_8">
    <path d="M 470.175253 371.425428 
L 470.175253 314.140842 
" clip-path="url(#p3660bd1e1c)" style="fill: none; stroke-dasharray: 1.85,0.8; stroke-dashoffset: 0; stroke: #bbbbbb; stroke-width: 0.5"/>
   </g>
   <g id="line2d_9">
    <path d="M 477.397273 403.250197 
L 477.397273 345.965612 
" clip-path="url(#p3660bd1e1c)" style="fill: none; stroke-dasharray: 1.85,0.8; stroke-dashoffset: 0; stroke: #bbbbbb; stroke-width: 0.5"/>
   </g>
   <g id="line2d_10">
    <path d="M 470.441065 435.074967 
L 470.441065 377.790381 
" clip-path="url(#p3660bd1e1c)" style="fill: none; stroke-dasharray: 1.85,0.8; stroke-dashoffset: 0; stroke: #bbbbbb; stroke-width: 0.5"/>
   </g>
   <g id="line2d_11">
    <path d="M 477.332172 466.899736 
L 477.332172 409.615151 
" clip-path="url(#p3660bd1e1c)" style="fill: none; stroke-dasharray: 1.85,0.8; stroke-dashoffset: 0; stroke: #bbbbbb; stroke-width: 0.5"/>
   </g>
   <g id="line2d_12">
    <path d="M 482.072737 498.724506 
L 482.072737 441.439921 
" clip-path="url(#p3660bd1e1c)" style="fill: none; stroke-dasharray: 1.85,0.8; stroke-dashoffset: 0; stroke: #bbbbbb; stroke-width: 0.5"/>
   </g>
   <g id="line2d_13">
    <path d="M 485.222403 530.549276 
L 485.222403 473.26469 
" clip-path="url(#p3660bd1e1c)" style="fill: none; stroke-dasharray: 1.85,0.8; stroke-dashoffset: 0; stroke: #bbbbbb; stroke-width: 0.5"/>
   </g>
   <g id="line2d_14">
    <path d="M 488.352657 562.374045 
L 488.352657 505.08946 
" clip-path="url(#p3660bd1e1c)" style="fill: none; stroke-dasharray: 1.85,0.8; stroke-dashoffset: 0; stroke: #bbbbbb; stroke-width: 0.5"/>
   </g>
   <g id="line2d_15">
    <path d="M 127.799219 549.644138 
L 529.663846 549.644138 
" clip-path="url(#p3660bd1e1c)" style="fill: none; stroke-dasharray: 0.5,2.5; stroke-dashoffset: 0; stroke: #cccccc; stroke-width: 0.5"/>
   </g>
   <g id="line2d_16">
    <path d="M 127.799219 517.819368 
L 529.663846 517.819368 
" clip-path="url(#p3660bd1e1c)" style="fill: none; stroke-dasharray: 0.5,2.5; stroke-dashoffset: 0; stroke: #cccccc; stroke-width: 0.5"/>
   </g>
   <g id="line2d_17">
    <path d="M 127.799219 485.994598 
L 529.663846 485.994598 
" clip-path="url(#p3660bd1e1c)" style="fill: none; stroke-dasharray: 0.5,2.5; stroke-dashoffset: 0; stroke: #cccccc; stroke-width: 0.5"/>
   </g>
   <g id="line2d_18">
    <path d="M 127.799219 454.169829 
L 529.663846 454.169829 
" clip-path="url(#p3660bd1e1c)" style="fill: none; stroke-dasharray: 0.5,2.5; stroke-dashoffset: 0; stroke: #cccccc; stroke-width: 0.5"/>
   </g>
   <g id="line2d_19">
    <path d="M 127.799219 422.345059 
L 529.663846 422.345059 
" clip-path="url(#p3660bd1e1c)" style="fill: none; stroke-dasharray: 0.5,2.5; stroke-dashoffset: 0; stroke: #cccccc; stroke-width: 0.5"/>
   </g>
   <g id="line2d_20">
    <path d="M 127.799219 390.520289 
L 529.663846 390.520289 
" clip-path="url(#p3660bd1e1c)" style="fill: none; stroke-dasharray: 0.5,2.5; stroke-dashoffset: 0; stroke: #cccccc; stroke-width: 0.5"/>
   </g>
   <g id="line2d_21">
    <path d="M 127.799219 358.69552 
L 529.663846 358.69552 
" clip-path="url(#p3660bd1e1c)" style="fill: none; stroke-dasharray: 0.5,2.5; stroke-dashoffset: 0; stroke: #cccccc; stroke-width: 0.5"/>
   </g>
   <g id="line2d_22">
    <path d="M 127.799219 326.87075 
L 529.663846 326.87075 
" clip-path="url(#p3660bd1e1c)" style="fill: none; stroke-dasharray: 0.5,2.5; stroke-dashoffset: 0; stroke: #cccccc; stroke-width: 0.5"/>
   </g>
   <g id="line2d_23">
    <path d="M 127.799219 295.04598 
L 529.663846 295.04598 
" clip-path="url(#p3660bd1e1c)" style="fill: none; stroke-dasharray: 0.5,2.5; stroke-dashoffset: 0; stroke: #cccccc; stroke-width: 0.5"/>
   </g>
   <g id="line2d_24">
    <path d="M 127.799219 263.221211 
L 529.663846 263.221211 
" clip-path="url(#p3660bd1e1c)" style="fill: none; stroke-dasharray: 0.5,2.5; stroke-dashoffset: 0; stroke: #cccccc; stroke-width: 0.5"/>
   </g>
   <g id="line2d_25">
    <path d="M 127.799219 231.396441 
L 529.663846 231.396441 
" clip-path="url(#p3660bd1e1c)" style="fill: none; stroke-dasharray: 0.5,2.5; stroke-dashoffset: 0; stroke: #cccccc; stroke-width: 0.5"/>
   </g>
   <g id="line2d_26">
    <path d="M 127.799219 199.571671 
L 529.663846 199.571671 
" clip-path="url(#p3660bd1e1c)" style="fill: none; stroke-dasharray: 0.5,2.5; stroke-dashoffset: 0; stroke: #cccccc; stroke-width: 0.5"/>
   </g>
   <g id="line2d_27">
    <path d="M 127.799219 167.746902 
L 529.663846 167.746902 
" clip-path="url(#p3660bd1e1c)" style="fill: none; stroke-dasharray: 0.5,2.5; stroke-dashoffset: 0; stroke: #cccccc; stroke-width: 0.5"/>
   </g>
   <g id="line2d_28">
    <path d="M 127.799219 135.922132 
L 529.663846 135.922132 
" clip-path="url(#p3660bd1e1c)" style="fill: none; stroke-dasharray: 0.5,2.5; stroke-dashoffset: 0; stroke: #cccccc; stroke-width: 0.5"/>
   </g>
   <g id="line2d_29">
    <path d="M 127.799219 104.097362 
L 529.663846 104.097362 
" clip-path="url(#p3660bd1e1c)" style="fill: none; stroke-dasharray: 0.5,2.5; stroke-dashoffset: 0; stroke: #cccccc; stroke-width: 0.5"/>
   </g>
   <g id="line2d_30">
    <path d="M 489.156699 585.924375 
L 489.156699 551.383892 
" clip-path="url(#p3660bd1e1c)" style="fill: none; stroke-dasharray: 1.85,0.8; stroke-dashoffset: 0; stroke: #bbbbbb; stroke-width: 0.5"/>
   </g>
   <g id="line2d_31">
    <path d="M 340.758994 585.924375 
L 340.758994 67.817125 
" clip-path="url(#p3660bd1e1c)" style="fill: none; stroke-dasharray: 1.85,0.8; stroke-dashoffset: 0; stroke: #bbbbbb; stroke-width: 0.5"/>
   </g>
   <g id="matplotlib.axis_1">
    <g id="xtick_1">
     <g id="line2d_32">
      <path d="M 178.840459 585.924375 
L 178.840459 67.817125 
" clip-path="url(#p3660bd1e1c)" style="fill: none; stroke: #cccccc; stroke-linecap: round"/>
     </g>
     <g id="line2d_33">
      <defs>
       <path id="mc588f1a1ff" d="M 0 0 
L 0 6 
" style="stroke: #262626; stroke-width: 1.25"/>
      </defs>
      <g>
       <use xlink:href="#mc588f1a1ff" x="178.840459" y="585.924375" style="fill: #262626; stroke: #262626; stroke-width: 1.25"/>
      </g>
     </g>
     <g id="text_1">
      <!-- 0.2 -->
      <g style="fill: #262626" transform="translate(168.503428 605.302344) scale(0.13 -0.13)">
       <defs>
        <path id="DejaVuSans-30" d="M 2034 4250 
Q 1547 4250 1301 3770 
Q 1056 3291 1056 2328 
Q 1056 1369 1301 889 
Q 1547 409 2034 409 
Q 2525 409 2770 889 
Q 3016 1369 3016 2328 
Q 3016 3291 2770 3770 
Q 2525 4250 2034 4250 
z
M 2034 4750 
Q 2819 4750 3233 4129 
Q 3647 3509 3647 2328 
Q 3647 1150 3233 529 
Q 2819 -91 2034 -91 
Q 1250 -91 836 529 
Q 422 1150 422 2328 
Q 422 3509 836 4129 
Q 1250 4750 2034 4750 
z
" transform="scale(0.015625)"/>
        <path id="DejaVuSans-2e" d="M 684 794 
L 1344 794 
L 1344 0 
L 684 0 
L 684 794 
z
" transform="scale(0.015625)"/>
        <path id="DejaVuSans-32" d="M 1228 531 
L 3431 531 
L 3431 0 
L 469 0 
L 469 531 
Q 828 903 1448 1529 
Q 2069 2156 2228 2338 
Q 2531 2678 2651 2914 
Q 2772 3150 2772 3378 
Q 2772 3750 2511 3984 
Q 2250 4219 1831 4219 
Q 1534 4219 1204 4116 
Q 875 4013 500 3803 
L 500 4441 
Q 881 4594 1212 4672 
Q 1544 4750 1819 4750 
Q 2544 4750 2975 4387 
Q 3406 4025 3406 3419 
Q 3406 3131 3298 2873 
Q 3191 2616 2906 2266 
Q 2828 2175 2409 1742 
Q 1991 1309 1228 531 
z
" transform="scale(0.015625)"/>
       </defs>
       <use xlink:href="#DejaVuSans-30"/>
       <use xlink:href="#DejaVuSans-2e" transform="translate(63.623047 0)"/>
       <use xlink:href="#DejaVuSans-32" transform="translate(95.410156 0)"/>
      </g>
     </g>
    </g>
    <g id="xtick_2">
     <g id="line2d_34">
      <path d="M 252.190434 585.924375 
L 252.190434 67.817125 
" clip-path="url(#p3660bd1e1c)" style="fill: none; stroke: #cccccc; stroke-linecap: round"/>
     </g>
     <g id="line2d_35">
      <g>
       <use xlink:href="#mc588f1a1ff" x="252.190434" y="585.924375" style="fill: #262626; stroke: #262626; stroke-width: 1.25"/>
      </g>
     </g>
     <g id="text_2">
      <!-- 0.3 -->
      <g style="fill: #262626" transform="translate(241.853403 605.302344) scale(0.13 -0.13)">
       <defs>
        <path id="DejaVuSans-33" d="M 2597 2516 
Q 3050 2419 3304 2112 
Q 3559 1806 3559 1356 
Q 3559 666 3084 287 
Q 2609 -91 1734 -91 
Q 1441 -91 1130 -33 
Q 819 25 488 141 
L 488 750 
Q 750 597 1062 519 
Q 1375 441 1716 441 
Q 2309 441 2620 675 
Q 2931 909 2931 1356 
Q 2931 1769 2642 2001 
Q 2353 2234 1838 2234 
L 1294 2234 
L 1294 2753 
L 1863 2753 
Q 2328 2753 2575 2939 
Q 2822 3125 2822 3475 
Q 2822 3834 2567 4026 
Q 2313 4219 1838 4219 
Q 1578 4219 1281 4162 
Q 984 4106 628 3988 
L 628 4550 
Q 988 4650 1302 4700 
Q 1616 4750 1894 4750 
Q 2613 4750 3031 4423 
Q 3450 4097 3450 3541 
Q 3450 3153 3228 2886 
Q 3006 2619 2597 2516 
z
" transform="scale(0.015625)"/>
       </defs>
       <use xlink:href="#DejaVuSans-30"/>
       <use xlink:href="#DejaVuSans-2e" transform="translate(63.623047 0)"/>
       <use xlink:href="#DejaVuSans-33" transform="translate(95.410156 0)"/>
      </g>
     </g>
    </g>
    <g id="xtick_3">
     <g id="line2d_36">
      <path d="M 325.54041 585.924375 
L 325.54041 67.817125 
" clip-path="url(#p3660bd1e1c)" style="fill: none; stroke: #cccccc; stroke-linecap: round"/>
     </g>
     <g id="line2d_37">
      <g>
       <use xlink:href="#mc588f1a1ff" x="325.54041" y="585.924375" style="fill: #262626; stroke: #262626; stroke-width: 1.25"/>
      </g>
     </g>
     <g id="text_3">
      <!-- 0.4 -->
      <g style="fill: #262626" transform="translate(315.203379 605.302344) scale(0.13 -0.13)">
       <defs>
        <path id="DejaVuSans-34" d="M 2419 4116 
L 825 1625 
L 2419 1625 
L 2419 4116 
z
M 2253 4666 
L 3047 4666 
L 3047 1625 
L 3713 1625 
L 3713 1100 
L 3047 1100 
L 3047 0 
L 2419 0 
L 2419 1100 
L 313 1100 
L 313 1709 
L 2253 4666 
z
" transform="scale(0.015625)"/>
       </defs>
       <use xlink:href="#DejaVuSans-30"/>
       <use xlink:href="#DejaVuSans-2e" transform="translate(63.623047 0)"/>
       <use xlink:href="#DejaVuSans-34" transform="translate(95.410156 0)"/>
      </g>
     </g>
    </g>
    <g id="xtick_4">
     <g id="line2d_38">
      <path d="M 398.890385 585.924375 
L 398.890385 67.817125 
" clip-path="url(#p3660bd1e1c)" style="fill: none; stroke: #cccccc; stroke-linecap: round"/>
     </g>
     <g id="line2d_39">
      <g>
       <use xlink:href="#mc588f1a1ff" x="398.890385" y="585.924375" style="fill: #262626; stroke: #262626; stroke-width: 1.25"/>
      </g>
     </g>
     <g id="text_4">
      <!-- 0.5 -->
      <g style="fill: #262626" transform="translate(388.553354 605.302344) scale(0.13 -0.13)">
       <defs>
        <path id="DejaVuSans-35" d="M 691 4666 
L 3169 4666 
L 3169 4134 
L 1269 4134 
L 1269 2991 
Q 1406 3038 1543 3061 
Q 1681 3084 1819 3084 
Q 2600 3084 3056 2656 
Q 3513 2228 3513 1497 
Q 3513 744 3044 326 
Q 2575 -91 1722 -91 
Q 1428 -91 1123 -41 
Q 819 9 494 109 
L 494 744 
Q 775 591 1075 516 
Q 1375 441 1709 441 
Q 2250 441 2565 725 
Q 2881 1009 2881 1497 
Q 2881 1984 2565 2268 
Q 2250 2553 1709 2553 
Q 1456 2553 1204 2497 
Q 953 2441 691 2322 
L 691 4666 
z
" transform="scale(0.015625)"/>
       </defs>
       <use xlink:href="#DejaVuSans-30"/>
       <use xlink:href="#DejaVuSans-2e" transform="translate(63.623047 0)"/>
       <use xlink:href="#DejaVuSans-35" transform="translate(95.410156 0)"/>
      </g>
     </g>
    </g>
    <g id="xtick_5">
     <g id="line2d_40">
      <path d="M 472.240361 585.924375 
L 472.240361 67.817125 
" clip-path="url(#p3660bd1e1c)" style="fill: none; stroke: #cccccc; stroke-linecap: round"/>
     </g>
     <g id="line2d_41">
      <g>
       <use xlink:href="#mc588f1a1ff" x="472.240361" y="585.924375" style="fill: #262626; stroke: #262626; stroke-width: 1.25"/>
      </g>
     </g>
     <g id="text_5">
      <!-- 0.6 -->
      <g style="fill: #262626" transform="translate(461.90333 605.302344) scale(0.13 -0.13)">
       <defs>
        <path id="DejaVuSans-36" d="M 2113 2584 
Q 1688 2584 1439 2293 
Q 1191 2003 1191 1497 
Q 1191 994 1439 701 
Q 1688 409 2113 409 
Q 2538 409 2786 701 
Q 3034 994 3034 1497 
Q 3034 2003 2786 2293 
Q 2538 2584 2113 2584 
z
M 3366 4563 
L 3366 3988 
Q 3128 4100 2886 4159 
Q 2644 4219 2406 4219 
Q 1781 4219 1451 3797 
Q 1122 3375 1075 2522 
Q 1259 2794 1537 2939 
Q 1816 3084 2150 3084 
Q 2853 3084 3261 2657 
Q 3669 2231 3669 1497 
Q 3669 778 3244 343 
Q 2819 -91 2113 -91 
Q 1303 -91 875 529 
Q 447 1150 447 2328 
Q 447 3434 972 4092 
Q 1497 4750 2381 4750 
Q 2619 4750 2861 4703 
Q 3103 4656 3366 4563 
z
" transform="scale(0.015625)"/>
       </defs>
       <use xlink:href="#DejaVuSans-30"/>
       <use xlink:href="#DejaVuSans-2e" transform="translate(63.623047 0)"/>
       <use xlink:href="#DejaVuSans-36" transform="translate(95.410156 0)"/>
      </g>
     </g>
    </g>
   </g>
   <g id="matplotlib.axis_2">
    <g id="ytick_1">
     <g id="line2d_42">
      <path d="M 127.799219 549.644138 
L 529.663846 549.644138 
" clip-path="url(#p3660bd1e1c)" style="fill: none; stroke: #cccccc; stroke-linecap: round"/>
     </g>
     <g id="text_6">
      <!-- 8 other features -->
      <g style="fill: #999999" transform="translate(13.431875 554.583122) scale(0.13 -0.13)">
       <defs>
        <path id="DejaVuSans-38" d="M 2034 2216 
Q 1584 2216 1326 1975 
Q 1069 1734 1069 1313 
Q 1069 891 1326 650 
Q 1584 409 2034 409 
Q 2484 409 2743 651 
Q 3003 894 3003 1313 
Q 3003 1734 2745 1975 
Q 2488 2216 2034 2216 
z
M 1403 2484 
Q 997 2584 770 2862 
Q 544 3141 544 3541 
Q 544 4100 942 4425 
Q 1341 4750 2034 4750 
Q 2731 4750 3128 4425 
Q 3525 4100 3525 3541 
Q 3525 3141 3298 2862 
Q 3072 2584 2669 2484 
Q 3125 2378 3379 2068 
Q 3634 1759 3634 1313 
Q 3634 634 3220 271 
Q 2806 -91 2034 -91 
Q 1263 -91 848 271 
Q 434 634 434 1313 
Q 434 1759 690 2068 
Q 947 2378 1403 2484 
z
M 1172 3481 
Q 1172 3119 1398 2916 
Q 1625 2713 2034 2713 
Q 2441 2713 2670 2916 
Q 2900 3119 2900 3481 
Q 2900 3844 2670 4047 
Q 2441 4250 2034 4250 
Q 1625 4250 1398 4047 
Q 1172 3844 1172 3481 
z
" transform="scale(0.015625)"/>
        <path id="DejaVuSans-20" transform="scale(0.015625)"/>
        <path id="DejaVuSans-6f" d="M 1959 3097 
Q 1497 3097 1228 2736 
Q 959 2375 959 1747 
Q 959 1119 1226 758 
Q 1494 397 1959 397 
Q 2419 397 2687 759 
Q 2956 1122 2956 1747 
Q 2956 2369 2687 2733 
Q 2419 3097 1959 3097 
z
M 1959 3584 
Q 2709 3584 3137 3096 
Q 3566 2609 3566 1747 
Q 3566 888 3137 398 
Q 2709 -91 1959 -91 
Q 1206 -91 779 398 
Q 353 888 353 1747 
Q 353 2609 779 3096 
Q 1206 3584 1959 3584 
z
" transform="scale(0.015625)"/>
        <path id="DejaVuSans-74" d="M 1172 4494 
L 1172 3500 
L 2356 3500 
L 2356 3053 
L 1172 3053 
L 1172 1153 
Q 1172 725 1289 603 
Q 1406 481 1766 481 
L 2356 481 
L 2356 0 
L 1766 0 
Q 1100 0 847 248 
Q 594 497 594 1153 
L 594 3053 
L 172 3053 
L 172 3500 
L 594 3500 
L 594 4494 
L 1172 4494 
z
" transform="scale(0.015625)"/>
        <path id="DejaVuSans-68" d="M 3513 2113 
L 3513 0 
L 2938 0 
L 2938 2094 
Q 2938 2591 2744 2837 
Q 2550 3084 2163 3084 
Q 1697 3084 1428 2787 
Q 1159 2491 1159 1978 
L 1159 0 
L 581 0 
L 581 4863 
L 1159 4863 
L 1159 2956 
Q 1366 3272 1645 3428 
Q 1925 3584 2291 3584 
Q 2894 3584 3203 3211 
Q 3513 2838 3513 2113 
z
" transform="scale(0.015625)"/>
        <path id="DejaVuSans-65" d="M 3597 1894 
L 3597 1613 
L 953 1613 
Q 991 1019 1311 708 
Q 1631 397 2203 397 
Q 2534 397 2845 478 
Q 3156 559 3463 722 
L 3463 178 
Q 3153 47 2828 -22 
Q 2503 -91 2169 -91 
Q 1331 -91 842 396 
Q 353 884 353 1716 
Q 353 2575 817 3079 
Q 1281 3584 2069 3584 
Q 2775 3584 3186 3129 
Q 3597 2675 3597 1894 
z
M 3022 2063 
Q 3016 2534 2758 2815 
Q 2500 3097 2075 3097 
Q 1594 3097 1305 2825 
Q 1016 2553 972 2059 
L 3022 2063 
z
" transform="scale(0.015625)"/>
        <path id="DejaVuSans-72" d="M 2631 2963 
Q 2534 3019 2420 3045 
Q 2306 3072 2169 3072 
Q 1681 3072 1420 2755 
Q 1159 2438 1159 1844 
L 1159 0 
L 581 0 
L 581 3500 
L 1159 3500 
L 1159 2956 
Q 1341 3275 1631 3429 
Q 1922 3584 2338 3584 
Q 2397 3584 2469 3576 
Q 2541 3569 2628 3553 
L 2631 2963 
z
" transform="scale(0.015625)"/>
        <path id="DejaVuSans-66" d="M 2375 4863 
L 2375 4384 
L 1825 4384 
Q 1516 4384 1395 4259 
Q 1275 4134 1275 3809 
L 1275 3500 
L 2222 3500 
L 2222 3053 
L 1275 3053 
L 1275 0 
L 697 0 
L 697 3053 
L 147 3053 
L 147 3500 
L 697 3500 
L 697 3744 
Q 697 4328 969 4595 
Q 1241 4863 1831 4863 
L 2375 4863 
z
" transform="scale(0.015625)"/>
        <path id="DejaVuSans-61" d="M 2194 1759 
Q 1497 1759 1228 1600 
Q 959 1441 959 1056 
Q 959 750 1161 570 
Q 1363 391 1709 391 
Q 2188 391 2477 730 
Q 2766 1069 2766 1631 
L 2766 1759 
L 2194 1759 
z
M 3341 1997 
L 3341 0 
L 2766 0 
L 2766 531 
Q 2569 213 2275 61 
Q 1981 -91 1556 -91 
Q 1019 -91 701 211 
Q 384 513 384 1019 
Q 384 1609 779 1909 
Q 1175 2209 1959 2209 
L 2766 2209 
L 2766 2266 
Q 2766 2663 2505 2880 
Q 2244 3097 1772 3097 
Q 1472 3097 1187 3025 
Q 903 2953 641 2809 
L 641 3341 
Q 956 3463 1253 3523 
Q 1550 3584 1831 3584 
Q 2591 3584 2966 3190 
Q 3341 2797 3341 1997 
z
" transform="scale(0.015625)"/>
        <path id="DejaVuSans-75" d="M 544 1381 
L 544 3500 
L 1119 3500 
L 1119 1403 
Q 1119 906 1312 657 
Q 1506 409 1894 409 
Q 2359 409 2629 706 
Q 2900 1003 2900 1516 
L 2900 3500 
L 3475 3500 
L 3475 0 
L 2900 0 
L 2900 538 
Q 2691 219 2414 64 
Q 2138 -91 1772 -91 
Q 1169 -91 856 284 
Q 544 659 544 1381 
z
M 1991 3584 
L 1991 3584 
z
" transform="scale(0.015625)"/>
        <path id="DejaVuSans-73" d="M 2834 3397 
L 2834 2853 
Q 2591 2978 2328 3040 
Q 2066 3103 1784 3103 
Q 1356 3103 1142 2972 
Q 928 2841 928 2578 
Q 928 2378 1081 2264 
Q 1234 2150 1697 2047 
L 1894 2003 
Q 2506 1872 2764 1633 
Q 3022 1394 3022 966 
Q 3022 478 2636 193 
Q 2250 -91 1575 -91 
Q 1294 -91 989 -36 
Q 684 19 347 128 
L 347 722 
Q 666 556 975 473 
Q 1284 391 1588 391 
Q 1994 391 2212 530 
Q 2431 669 2431 922 
Q 2431 1156 2273 1281 
Q 2116 1406 1581 1522 
L 1381 1569 
Q 847 1681 609 1914 
Q 372 2147 372 2553 
Q 372 3047 722 3315 
Q 1072 3584 1716 3584 
Q 2034 3584 2315 3537 
Q 2597 3491 2834 3397 
z
" transform="scale(0.015625)"/>
       </defs>
       <use xlink:href="#DejaVuSans-38"/>
       <use xlink:href="#DejaVuSans-20" transform="translate(63.623047 0)"/>
       <use xlink:href="#DejaVuSans-6f" transform="translate(95.410156 0)"/>
       <use xlink:href="#DejaVuSans-74" transform="translate(156.591797 0)"/>
       <use xlink:href="#DejaVuSans-68" transform="translate(195.800781 0)"/>
       <use xlink:href="#DejaVuSans-65" transform="translate(259.179688 0)"/>
       <use xlink:href="#DejaVuSans-72" transform="translate(320.703125 0)"/>
       <use xlink:href="#DejaVuSans-20" transform="translate(361.816406 0)"/>
       <use xlink:href="#DejaVuSans-66" transform="translate(393.603516 0)"/>
       <use xlink:href="#DejaVuSans-65" transform="translate(428.808594 0)"/>
       <use xlink:href="#DejaVuSans-61" transform="translate(490.332031 0)"/>
       <use xlink:href="#DejaVuSans-74" transform="translate(551.611328 0)"/>
       <use xlink:href="#DejaVuSans-75" transform="translate(590.820312 0)"/>
       <use xlink:href="#DejaVuSans-72" transform="translate(654.199219 0)"/>
       <use xlink:href="#DejaVuSans-65" transform="translate(693.0625 0)"/>
       <use xlink:href="#DejaVuSans-73" transform="translate(754.585938 0)"/>
      </g>
     </g>
    </g>
    <g id="ytick_2">
     <g id="line2d_43">
      <path d="M 127.799219 517.819368 
L 529.663846 517.819368 
" clip-path="url(#p3660bd1e1c)" style="fill: none; stroke: #cccccc; stroke-linecap: round"/>
     </g>
     <g id="text_7">
      <!-- 0 = pc_abnormal -->
      <g style="fill: #999999" transform="translate(7.2 522.758352) scale(0.13 -0.13)">
       <defs>
        <path id="DejaVuSans-3d" d="M 678 2906 
L 4684 2906 
L 4684 2381 
L 678 2381 
L 678 2906 
z
M 678 1631 
L 4684 1631 
L 4684 1100 
L 678 1100 
L 678 1631 
z
" transform="scale(0.015625)"/>
        <path id="DejaVuSans-70" d="M 1159 525 
L 1159 -1331 
L 581 -1331 
L 581 3500 
L 1159 3500 
L 1159 2969 
Q 1341 3281 1617 3432 
Q 1894 3584 2278 3584 
Q 2916 3584 3314 3078 
Q 3713 2572 3713 1747 
Q 3713 922 3314 415 
Q 2916 -91 2278 -91 
Q 1894 -91 1617 61 
Q 1341 213 1159 525 
z
M 3116 1747 
Q 3116 2381 2855 2742 
Q 2594 3103 2138 3103 
Q 1681 3103 1420 2742 
Q 1159 2381 1159 1747 
Q 1159 1113 1420 752 
Q 1681 391 2138 391 
Q 2594 391 2855 752 
Q 3116 1113 3116 1747 
z
" transform="scale(0.015625)"/>
        <path id="DejaVuSans-63" d="M 3122 3366 
L 3122 2828 
Q 2878 2963 2633 3030 
Q 2388 3097 2138 3097 
Q 1578 3097 1268 2742 
Q 959 2388 959 1747 
Q 959 1106 1268 751 
Q 1578 397 2138 397 
Q 2388 397 2633 464 
Q 2878 531 3122 666 
L 3122 134 
Q 2881 22 2623 -34 
Q 2366 -91 2075 -91 
Q 1284 -91 818 406 
Q 353 903 353 1747 
Q 353 2603 823 3093 
Q 1294 3584 2113 3584 
Q 2378 3584 2631 3529 
Q 2884 3475 3122 3366 
z
" transform="scale(0.015625)"/>
        <path id="DejaVuSans-5f" d="M 3263 -1063 
L 3263 -1509 
L -63 -1509 
L -63 -1063 
L 3263 -1063 
z
" transform="scale(0.015625)"/>
        <path id="DejaVuSans-62" d="M 3116 1747 
Q 3116 2381 2855 2742 
Q 2594 3103 2138 3103 
Q 1681 3103 1420 2742 
Q 1159 2381 1159 1747 
Q 1159 1113 1420 752 
Q 1681 391 2138 391 
Q 2594 391 2855 752 
Q 3116 1113 3116 1747 
z
M 1159 2969 
Q 1341 3281 1617 3432 
Q 1894 3584 2278 3584 
Q 2916 3584 3314 3078 
Q 3713 2572 3713 1747 
Q 3713 922 3314 415 
Q 2916 -91 2278 -91 
Q 1894 -91 1617 61 
Q 1341 213 1159 525 
L 1159 0 
L 581 0 
L 581 4863 
L 1159 4863 
L 1159 2969 
z
" transform="scale(0.015625)"/>
        <path id="DejaVuSans-6e" d="M 3513 2113 
L 3513 0 
L 2938 0 
L 2938 2094 
Q 2938 2591 2744 2837 
Q 2550 3084 2163 3084 
Q 1697 3084 1428 2787 
Q 1159 2491 1159 1978 
L 1159 0 
L 581 0 
L 581 3500 
L 1159 3500 
L 1159 2956 
Q 1366 3272 1645 3428 
Q 1925 3584 2291 3584 
Q 2894 3584 3203 3211 
Q 3513 2838 3513 2113 
z
" transform="scale(0.015625)"/>
        <path id="DejaVuSans-6d" d="M 3328 2828 
Q 3544 3216 3844 3400 
Q 4144 3584 4550 3584 
Q 5097 3584 5394 3201 
Q 5691 2819 5691 2113 
L 5691 0 
L 5113 0 
L 5113 2094 
Q 5113 2597 4934 2840 
Q 4756 3084 4391 3084 
Q 3944 3084 3684 2787 
Q 3425 2491 3425 1978 
L 3425 0 
L 2847 0 
L 2847 2094 
Q 2847 2600 2669 2842 
Q 2491 3084 2119 3084 
Q 1678 3084 1418 2786 
Q 1159 2488 1159 1978 
L 1159 0 
L 581 0 
L 581 3500 
L 1159 3500 
L 1159 2956 
Q 1356 3278 1631 3431 
Q 1906 3584 2284 3584 
Q 2666 3584 2933 3390 
Q 3200 3197 3328 2828 
z
" transform="scale(0.015625)"/>
        <path id="DejaVuSans-6c" d="M 603 4863 
L 1178 4863 
L 1178 0 
L 603 0 
L 603 4863 
z
" transform="scale(0.015625)"/>
       </defs>
       <use xlink:href="#DejaVuSans-30"/>
       <use xlink:href="#DejaVuSans-20" transform="translate(63.623047 0)"/>
       <use xlink:href="#DejaVuSans-3d" transform="translate(95.410156 0)"/>
       <use xlink:href="#DejaVuSans-20" transform="translate(179.199219 0)"/>
       <use xlink:href="#DejaVuSans-70" transform="translate(210.986328 0)"/>
       <use xlink:href="#DejaVuSans-63" transform="translate(274.462891 0)"/>
       <use xlink:href="#DejaVuSans-5f" transform="translate(329.443359 0)"/>
       <use xlink:href="#DejaVuSans-61" transform="translate(379.443359 0)"/>
       <use xlink:href="#DejaVuSans-62" transform="translate(440.722656 0)"/>
       <use xlink:href="#DejaVuSans-6e" transform="translate(504.199219 0)"/>
       <use xlink:href="#DejaVuSans-6f" transform="translate(567.578125 0)"/>
       <use xlink:href="#DejaVuSans-72" transform="translate(628.759766 0)"/>
       <use xlink:href="#DejaVuSans-6d" transform="translate(668.123047 0)"/>
       <use xlink:href="#DejaVuSans-61" transform="translate(765.535156 0)"/>
       <use xlink:href="#DejaVuSans-6c" transform="translate(826.814453 0)"/>
      </g>
     </g>
    </g>
    <g id="ytick_3">
     <g id="line2d_44">
      <path d="M 127.799219 485.994598 
L 529.663846 485.994598 
" clip-path="url(#p3660bd1e1c)" style="fill: none; stroke: #cccccc; stroke-linecap: round"/>
     </g>
     <g id="text_8">
      <!-- 1 = pc_normal -->
      <g style="fill: #999999" transform="translate(23.419531 490.933583) scale(0.13 -0.13)">
       <defs>
        <path id="DejaVuSans-31" d="M 794 531 
L 1825 531 
L 1825 4091 
L 703 3866 
L 703 4441 
L 1819 4666 
L 2450 4666 
L 2450 531 
L 3481 531 
L 3481 0 
L 794 0 
L 794 531 
z
" transform="scale(0.015625)"/>
       </defs>
       <use xlink:href="#DejaVuSans-31"/>
       <use xlink:href="#DejaVuSans-20" transform="translate(63.623047 0)"/>
       <use xlink:href="#DejaVuSans-3d" transform="translate(95.410156 0)"/>
       <use xlink:href="#DejaVuSans-20" transform="translate(179.199219 0)"/>
       <use xlink:href="#DejaVuSans-70" transform="translate(210.986328 0)"/>
       <use xlink:href="#DejaVuSans-63" transform="translate(274.462891 0)"/>
       <use xlink:href="#DejaVuSans-5f" transform="translate(329.443359 0)"/>
       <use xlink:href="#DejaVuSans-6e" transform="translate(379.443359 0)"/>
       <use xlink:href="#DejaVuSans-6f" transform="translate(442.822266 0)"/>
       <use xlink:href="#DejaVuSans-72" transform="translate(504.003906 0)"/>
       <use xlink:href="#DejaVuSans-6d" transform="translate(543.367188 0)"/>
       <use xlink:href="#DejaVuSans-61" transform="translate(640.779297 0)"/>
       <use xlink:href="#DejaVuSans-6c" transform="translate(702.058594 0)"/>
      </g>
     </g>
    </g>
    <g id="ytick_4">
     <g id="line2d_45">
      <path d="M 127.799219 454.169829 
L 529.663846 454.169829 
" clip-path="url(#p3660bd1e1c)" style="fill: none; stroke: #cccccc; stroke-linecap: round"/>
     </g>
     <g id="text_9">
      <!-- −0.407 = su -->
      <g style="fill: #999999" transform="translate(36.021406 459.108813) scale(0.13 -0.13)">
       <defs>
        <path id="DejaVuSans-2212" d="M 678 2272 
L 4684 2272 
L 4684 1741 
L 678 1741 
L 678 2272 
z
" transform="scale(0.015625)"/>
        <path id="DejaVuSans-37" d="M 525 4666 
L 3525 4666 
L 3525 4397 
L 1831 0 
L 1172 0 
L 2766 4134 
L 525 4134 
L 525 4666 
z
" transform="scale(0.015625)"/>
       </defs>
       <use xlink:href="#DejaVuSans-2212"/>
       <use xlink:href="#DejaVuSans-30" transform="translate(83.789062 0)"/>
       <use xlink:href="#DejaVuSans-2e" transform="translate(147.412109 0)"/>
       <use xlink:href="#DejaVuSans-34" transform="translate(179.199219 0)"/>
       <use xlink:href="#DejaVuSans-30" transform="translate(242.822266 0)"/>
       <use xlink:href="#DejaVuSans-37" transform="translate(306.445312 0)"/>
       <use xlink:href="#DejaVuSans-20" transform="translate(370.068359 0)"/>
       <use xlink:href="#DejaVuSans-3d" transform="translate(401.855469 0)"/>
       <use xlink:href="#DejaVuSans-20" transform="translate(485.644531 0)"/>
       <use xlink:href="#DejaVuSans-73" transform="translate(517.431641 0)"/>
       <use xlink:href="#DejaVuSans-75" transform="translate(569.53125 0)"/>
      </g>
     </g>
    </g>
    <g id="ytick_5">
     <g id="line2d_46">
      <path d="M 127.799219 422.345059 
L 529.663846 422.345059 
" clip-path="url(#p3660bd1e1c)" style="fill: none; stroke: #cccccc; stroke-linecap: round"/>
     </g>
     <g id="text_10">
      <!-- −0.94 = age -->
      <g style="fill: #999999" transform="translate(35.085 427.284043) scale(0.13 -0.13)">
       <defs>
        <path id="DejaVuSans-39" d="M 703 97 
L 703 672 
Q 941 559 1184 500 
Q 1428 441 1663 441 
Q 2288 441 2617 861 
Q 2947 1281 2994 2138 
Q 2813 1869 2534 1725 
Q 2256 1581 1919 1581 
Q 1219 1581 811 2004 
Q 403 2428 403 3163 
Q 403 3881 828 4315 
Q 1253 4750 1959 4750 
Q 2769 4750 3195 4129 
Q 3622 3509 3622 2328 
Q 3622 1225 3098 567 
Q 2575 -91 1691 -91 
Q 1453 -91 1209 -44 
Q 966 3 703 97 
z
M 1959 2075 
Q 2384 2075 2632 2365 
Q 2881 2656 2881 3163 
Q 2881 3666 2632 3958 
Q 2384 4250 1959 4250 
Q 1534 4250 1286 3958 
Q 1038 3666 1038 3163 
Q 1038 2656 1286 2365 
Q 1534 2075 1959 2075 
z
" transform="scale(0.015625)"/>
        <path id="DejaVuSans-67" d="M 2906 1791 
Q 2906 2416 2648 2759 
Q 2391 3103 1925 3103 
Q 1463 3103 1205 2759 
Q 947 2416 947 1791 
Q 947 1169 1205 825 
Q 1463 481 1925 481 
Q 2391 481 2648 825 
Q 2906 1169 2906 1791 
z
M 3481 434 
Q 3481 -459 3084 -895 
Q 2688 -1331 1869 -1331 
Q 1566 -1331 1297 -1286 
Q 1028 -1241 775 -1147 
L 775 -588 
Q 1028 -725 1275 -790 
Q 1522 -856 1778 -856 
Q 2344 -856 2625 -561 
Q 2906 -266 2906 331 
L 2906 616 
Q 2728 306 2450 153 
Q 2172 0 1784 0 
Q 1141 0 747 490 
Q 353 981 353 1791 
Q 353 2603 747 3093 
Q 1141 3584 1784 3584 
Q 2172 3584 2450 3431 
Q 2728 3278 2906 2969 
L 2906 3500 
L 3481 3500 
L 3481 434 
z
" transform="scale(0.015625)"/>
       </defs>
       <use xlink:href="#DejaVuSans-2212"/>
       <use xlink:href="#DejaVuSans-30" transform="translate(83.789062 0)"/>
       <use xlink:href="#DejaVuSans-2e" transform="translate(147.412109 0)"/>
       <use xlink:href="#DejaVuSans-39" transform="translate(179.199219 0)"/>
       <use xlink:href="#DejaVuSans-34" transform="translate(242.822266 0)"/>
       <use xlink:href="#DejaVuSans-20" transform="translate(306.445312 0)"/>
       <use xlink:href="#DejaVuSans-3d" transform="translate(338.232422 0)"/>
       <use xlink:href="#DejaVuSans-20" transform="translate(422.021484 0)"/>
       <use xlink:href="#DejaVuSans-61" transform="translate(453.808594 0)"/>
       <use xlink:href="#DejaVuSans-67" transform="translate(515.087891 0)"/>
       <use xlink:href="#DejaVuSans-65" transform="translate(578.564453 0)"/>
      </g>
     </g>
    </g>
    <g id="ytick_6">
     <g id="line2d_47">
      <path d="M 127.799219 390.520289 
L 529.663846 390.520289 
" clip-path="url(#p3660bd1e1c)" style="fill: none; stroke: #cccccc; stroke-linecap: round"/>
     </g>
     <g id="text_11">
      <!-- 0.097 = sod -->
      <g style="fill: #999999" transform="translate(38.946406 395.459274) scale(0.13 -0.13)">
       <defs>
        <path id="DejaVuSans-64" d="M 2906 2969 
L 2906 4863 
L 3481 4863 
L 3481 0 
L 2906 0 
L 2906 525 
Q 2725 213 2448 61 
Q 2172 -91 1784 -91 
Q 1150 -91 751 415 
Q 353 922 353 1747 
Q 353 2572 751 3078 
Q 1150 3584 1784 3584 
Q 2172 3584 2448 3432 
Q 2725 3281 2906 2969 
z
M 947 1747 
Q 947 1113 1208 752 
Q 1469 391 1925 391 
Q 2381 391 2643 752 
Q 2906 1113 2906 1747 
Q 2906 2381 2643 2742 
Q 2381 3103 1925 3103 
Q 1469 3103 1208 2742 
Q 947 2381 947 1747 
z
" transform="scale(0.015625)"/>
       </defs>
       <use xlink:href="#DejaVuSans-30"/>
       <use xlink:href="#DejaVuSans-2e" transform="translate(63.623047 0)"/>
       <use xlink:href="#DejaVuSans-30" transform="translate(95.410156 0)"/>
       <use xlink:href="#DejaVuSans-39" transform="translate(159.033203 0)"/>
       <use xlink:href="#DejaVuSans-37" transform="translate(222.65625 0)"/>
       <use xlink:href="#DejaVuSans-20" transform="translate(286.279297 0)"/>
       <use xlink:href="#DejaVuSans-3d" transform="translate(318.066406 0)"/>
       <use xlink:href="#DejaVuSans-20" transform="translate(401.855469 0)"/>
       <use xlink:href="#DejaVuSans-73" transform="translate(433.642578 0)"/>
       <use xlink:href="#DejaVuSans-6f" transform="translate(485.742188 0)"/>
       <use xlink:href="#DejaVuSans-64" transform="translate(546.923828 0)"/>
      </g>
     </g>
    </g>
    <g id="ytick_7">
     <g id="line2d_48">
      <path d="M 127.799219 358.69552 
L 529.663846 358.69552 
" clip-path="url(#p3660bd1e1c)" style="fill: none; stroke: #cccccc; stroke-linecap: round"/>
     </g>
     <g id="text_12">
      <!-- −0.625 = bu -->
      <g style="fill: #999999" transform="translate(34.540625 363.634504) scale(0.13 -0.13)">
       <use xlink:href="#DejaVuSans-2212"/>
       <use xlink:href="#DejaVuSans-30" transform="translate(83.789062 0)"/>
       <use xlink:href="#DejaVuSans-2e" transform="translate(147.412109 0)"/>
       <use xlink:href="#DejaVuSans-36" transform="translate(179.199219 0)"/>
       <use xlink:href="#DejaVuSans-32" transform="translate(242.822266 0)"/>
       <use xlink:href="#DejaVuSans-35" transform="translate(306.445312 0)"/>
       <use xlink:href="#DejaVuSans-20" transform="translate(370.068359 0)"/>
       <use xlink:href="#DejaVuSans-3d" transform="translate(401.855469 0)"/>
       <use xlink:href="#DejaVuSans-20" transform="translate(485.644531 0)"/>
       <use xlink:href="#DejaVuSans-62" transform="translate(517.431641 0)"/>
       <use xlink:href="#DejaVuSans-75" transform="translate(580.908203 0)"/>
      </g>
     </g>
    </g>
    <g id="ytick_8">
     <g id="line2d_49">
      <path d="M 127.799219 326.87075 
L 529.663846 326.87075 
" clip-path="url(#p3660bd1e1c)" style="fill: none; stroke: #cccccc; stroke-linecap: round"/>
     </g>
     <g id="text_13">
      <!-- −0.391 = bgr -->
      <g style="fill: #999999" transform="translate(29.182188 331.809734) scale(0.13 -0.13)">
       <use xlink:href="#DejaVuSans-2212"/>
       <use xlink:href="#DejaVuSans-30" transform="translate(83.789062 0)"/>
       <use xlink:href="#DejaVuSans-2e" transform="translate(147.412109 0)"/>
       <use xlink:href="#DejaVuSans-33" transform="translate(179.199219 0)"/>
       <use xlink:href="#DejaVuSans-39" transform="translate(242.822266 0)"/>
       <use xlink:href="#DejaVuSans-31" transform="translate(306.445312 0)"/>
       <use xlink:href="#DejaVuSans-20" transform="translate(370.068359 0)"/>
       <use xlink:href="#DejaVuSans-3d" transform="translate(401.855469 0)"/>
       <use xlink:href="#DejaVuSans-20" transform="translate(485.644531 0)"/>
       <use xlink:href="#DejaVuSans-62" transform="translate(517.431641 0)"/>
       <use xlink:href="#DejaVuSans-67" transform="translate(580.908203 0)"/>
       <use xlink:href="#DejaVuSans-72" transform="translate(644.384766 0)"/>
      </g>
     </g>
    </g>
    <g id="ytick_9">
     <g id="line2d_50">
      <path d="M 127.799219 295.04598 
L 529.663846 295.04598 
" clip-path="url(#p3660bd1e1c)" style="fill: none; stroke: #cccccc; stroke-linecap: round"/>
     </g>
     <g id="text_14">
      <!-- −1.179 = bp -->
      <g style="fill: #999999" transform="translate(34.526406 299.984965) scale(0.13 -0.13)">
       <use xlink:href="#DejaVuSans-2212"/>
       <use xlink:href="#DejaVuSans-31" transform="translate(83.789062 0)"/>
       <use xlink:href="#DejaVuSans-2e" transform="translate(147.412109 0)"/>
       <use xlink:href="#DejaVuSans-31" transform="translate(179.199219 0)"/>
       <use xlink:href="#DejaVuSans-37" transform="translate(242.822266 0)"/>
       <use xlink:href="#DejaVuSans-39" transform="translate(306.445312 0)"/>
       <use xlink:href="#DejaVuSans-20" transform="translate(370.068359 0)"/>
       <use xlink:href="#DejaVuSans-3d" transform="translate(401.855469 0)"/>
       <use xlink:href="#DejaVuSans-20" transform="translate(485.644531 0)"/>
       <use xlink:href="#DejaVuSans-62" transform="translate(517.431641 0)"/>
       <use xlink:href="#DejaVuSans-70" transform="translate(580.908203 0)"/>
      </g>
     </g>
    </g>
    <g id="ytick_10">
     <g id="line2d_51">
      <path d="M 127.799219 263.221211 
L 529.663846 263.221211 
" clip-path="url(#p3660bd1e1c)" style="fill: none; stroke: #cccccc; stroke-linecap: round"/>
     </g>
     <g id="text_15">
      <!-- −0.806 = al -->
      <g style="fill: #999999" transform="translate(39.454219 268.160195) scale(0.13 -0.13)">
       <use xlink:href="#DejaVuSans-2212"/>
       <use xlink:href="#DejaVuSans-30" transform="translate(83.789062 0)"/>
       <use xlink:href="#DejaVuSans-2e" transform="translate(147.412109 0)"/>
       <use xlink:href="#DejaVuSans-38" transform="translate(179.199219 0)"/>
       <use xlink:href="#DejaVuSans-30" transform="translate(242.822266 0)"/>
       <use xlink:href="#DejaVuSans-36" transform="translate(306.445312 0)"/>
       <use xlink:href="#DejaVuSans-20" transform="translate(370.068359 0)"/>
       <use xlink:href="#DejaVuSans-3d" transform="translate(401.855469 0)"/>
       <use xlink:href="#DejaVuSans-20" transform="translate(485.644531 0)"/>
       <use xlink:href="#DejaVuSans-61" transform="translate(517.431641 0)"/>
       <use xlink:href="#DejaVuSans-6c" transform="translate(578.710938 0)"/>
      </g>
     </g>
    </g>
    <g id="ytick_11">
     <g id="line2d_52">
      <path d="M 127.799219 231.396441 
L 529.663846 231.396441 
" clip-path="url(#p3660bd1e1c)" style="fill: none; stroke: #cccccc; stroke-linecap: round"/>
     </g>
     <g id="text_16">
      <!-- 0.327 = pcv -->
      <g style="fill: #999999" transform="translate(38.830625 236.335425) scale(0.13 -0.13)">
       <defs>
        <path id="DejaVuSans-76" d="M 191 3500 
L 800 3500 
L 1894 563 
L 2988 3500 
L 3597 3500 
L 2284 0 
L 1503 0 
L 191 3500 
z
" transform="scale(0.015625)"/>
       </defs>
       <use xlink:href="#DejaVuSans-30"/>
       <use xlink:href="#DejaVuSans-2e" transform="translate(63.623047 0)"/>
       <use xlink:href="#DejaVuSans-33" transform="translate(95.410156 0)"/>
       <use xlink:href="#DejaVuSans-32" transform="translate(159.033203 0)"/>
       <use xlink:href="#DejaVuSans-37" transform="translate(222.65625 0)"/>
       <use xlink:href="#DejaVuSans-20" transform="translate(286.279297 0)"/>
       <use xlink:href="#DejaVuSans-3d" transform="translate(318.066406 0)"/>
       <use xlink:href="#DejaVuSans-20" transform="translate(401.855469 0)"/>
       <use xlink:href="#DejaVuSans-70" transform="translate(433.642578 0)"/>
       <use xlink:href="#DejaVuSans-63" transform="translate(497.119141 0)"/>
       <use xlink:href="#DejaVuSans-76" transform="translate(552.099609 0)"/>
      </g>
     </g>
    </g>
    <g id="ytick_12">
     <g id="line2d_53">
      <path d="M 127.799219 199.571671 
L 529.663846 199.571671 
" clip-path="url(#p3660bd1e1c)" style="fill: none; stroke: #cccccc; stroke-linecap: round"/>
     </g>
     <g id="text_17">
      <!-- 0.5 = hemo -->
      <g style="fill: #999999" transform="translate(41.613438 204.510656) scale(0.13 -0.13)">
       <use xlink:href="#DejaVuSans-30"/>
       <use xlink:href="#DejaVuSans-2e" transform="translate(63.623047 0)"/>
       <use xlink:href="#DejaVuSans-35" transform="translate(95.410156 0)"/>
       <use xlink:href="#DejaVuSans-20" transform="translate(159.033203 0)"/>
       <use xlink:href="#DejaVuSans-3d" transform="translate(190.820312 0)"/>
       <use xlink:href="#DejaVuSans-20" transform="translate(274.609375 0)"/>
       <use xlink:href="#DejaVuSans-68" transform="translate(306.396484 0)"/>
       <use xlink:href="#DejaVuSans-65" transform="translate(369.775391 0)"/>
       <use xlink:href="#DejaVuSans-6d" transform="translate(431.298828 0)"/>
       <use xlink:href="#DejaVuSans-6f" transform="translate(528.710938 0)"/>
      </g>
     </g>
    </g>
    <g id="ytick_13">
     <g id="line2d_54">
      <path d="M 127.799219 167.746902 
L 529.663846 167.746902 
" clip-path="url(#p3660bd1e1c)" style="fill: none; stroke: #cccccc; stroke-linecap: round"/>
     </g>
     <g id="text_18">
      <!-- 0.992 = rc -->
      <g style="fill: #999999" transform="translate(49.72625 172.685886) scale(0.13 -0.13)">
       <use xlink:href="#DejaVuSans-30"/>
       <use xlink:href="#DejaVuSans-2e" transform="translate(63.623047 0)"/>
       <use xlink:href="#DejaVuSans-39" transform="translate(95.410156 0)"/>
       <use xlink:href="#DejaVuSans-39" transform="translate(159.033203 0)"/>
       <use xlink:href="#DejaVuSans-32" transform="translate(222.65625 0)"/>
       <use xlink:href="#DejaVuSans-20" transform="translate(286.279297 0)"/>
       <use xlink:href="#DejaVuSans-3d" transform="translate(318.066406 0)"/>
       <use xlink:href="#DejaVuSans-20" transform="translate(401.855469 0)"/>
       <use xlink:href="#DejaVuSans-72" transform="translate(433.642578 0)"/>
       <use xlink:href="#DejaVuSans-63" transform="translate(472.505859 0)"/>
      </g>
     </g>
    </g>
    <g id="ytick_14">
     <g id="line2d_55">
      <path d="M 127.799219 135.922132 
L 529.663846 135.922132 
" clip-path="url(#p3660bd1e1c)" style="fill: none; stroke: #cccccc; stroke-linecap: round"/>
     </g>
     <g id="text_19">
      <!-- 0.522 = sg -->
      <g style="fill: #999999" transform="translate(46.900781 140.861116) scale(0.13 -0.13)">
       <use xlink:href="#DejaVuSans-30"/>
       <use xlink:href="#DejaVuSans-2e" transform="translate(63.623047 0)"/>
       <use xlink:href="#DejaVuSans-35" transform="translate(95.410156 0)"/>
       <use xlink:href="#DejaVuSans-32" transform="translate(159.033203 0)"/>
       <use xlink:href="#DejaVuSans-32" transform="translate(222.65625 0)"/>
       <use xlink:href="#DejaVuSans-20" transform="translate(286.279297 0)"/>
       <use xlink:href="#DejaVuSans-3d" transform="translate(318.066406 0)"/>
       <use xlink:href="#DejaVuSans-20" transform="translate(401.855469 0)"/>
       <use xlink:href="#DejaVuSans-73" transform="translate(433.642578 0)"/>
       <use xlink:href="#DejaVuSans-67" transform="translate(485.742188 0)"/>
      </g>
     </g>
    </g>
    <g id="ytick_15">
     <g id="line2d_56">
      <path d="M 127.799219 104.097362 
L 529.663846 104.097362 
" clip-path="url(#p3660bd1e1c)" style="fill: none; stroke: #cccccc; stroke-linecap: round"/>
     </g>
     <g id="text_20">
      <!-- −0.171 = sc -->
      <g style="fill: #999999" transform="translate(37.112188 109.036347) scale(0.13 -0.13)">
       <use xlink:href="#DejaVuSans-2212"/>
       <use xlink:href="#DejaVuSans-30" transform="translate(83.789062 0)"/>
       <use xlink:href="#DejaVuSans-2e" transform="translate(147.412109 0)"/>
       <use xlink:href="#DejaVuSans-31" transform="translate(179.199219 0)"/>
       <use xlink:href="#DejaVuSans-37" transform="translate(242.822266 0)"/>
       <use xlink:href="#DejaVuSans-31" transform="translate(306.445312 0)"/>
       <use xlink:href="#DejaVuSans-20" transform="translate(370.068359 0)"/>
       <use xlink:href="#DejaVuSans-3d" transform="translate(401.855469 0)"/>
       <use xlink:href="#DejaVuSans-20" transform="translate(485.644531 0)"/>
       <use xlink:href="#DejaVuSans-73" transform="translate(517.431641 0)"/>
       <use xlink:href="#DejaVuSans-63" transform="translate(569.53125 0)"/>
      </g>
     </g>
    </g>
    <g id="ytick_16">
     <g id="line2d_57">
      <path d="M 127.799219 549.644137 
L 529.663846 549.644137 
" clip-path="url(#p3660bd1e1c)" style="fill: none; stroke: #cccccc; stroke-linecap: round"/>
     </g>
     <g id="text_21">
      <!-- 8 other features -->
      <g style="fill: #262626" transform="translate(13.431875 554.583122) scale(0.13 -0.13)">
       <use xlink:href="#DejaVuSans-38"/>
       <use xlink:href="#DejaVuSans-20" transform="translate(63.623047 0)"/>
       <use xlink:href="#DejaVuSans-6f" transform="translate(95.410156 0)"/>
       <use xlink:href="#DejaVuSans-74" transform="translate(156.591797 0)"/>
       <use xlink:href="#DejaVuSans-68" transform="translate(195.800781 0)"/>
       <use xlink:href="#DejaVuSans-65" transform="translate(259.179688 0)"/>
       <use xlink:href="#DejaVuSans-72" transform="translate(320.703125 0)"/>
       <use xlink:href="#DejaVuSans-20" transform="translate(361.816406 0)"/>
       <use xlink:href="#DejaVuSans-66" transform="translate(393.603516 0)"/>
       <use xlink:href="#DejaVuSans-65" transform="translate(428.808594 0)"/>
       <use xlink:href="#DejaVuSans-61" transform="translate(490.332031 0)"/>
       <use xlink:href="#DejaVuSans-74" transform="translate(551.611328 0)"/>
       <use xlink:href="#DejaVuSans-75" transform="translate(590.820312 0)"/>
       <use xlink:href="#DejaVuSans-72" transform="translate(654.199219 0)"/>
       <use xlink:href="#DejaVuSans-65" transform="translate(693.0625 0)"/>
       <use xlink:href="#DejaVuSans-73" transform="translate(754.585938 0)"/>
      </g>
     </g>
    </g>
    <g id="ytick_17">
     <g id="line2d_58">
      <path d="M 127.799219 517.819368 
L 529.663846 517.819368 
" clip-path="url(#p3660bd1e1c)" style="fill: none; stroke: #cccccc; stroke-linecap: round"/>
     </g>
     <g id="text_22">
      <!--  pc_abnormal -->
      <g style="fill: #262626" transform="translate(30.496406 522.758352) scale(0.13 -0.13)">
       <use xlink:href="#DejaVuSans-20"/>
       <use xlink:href="#DejaVuSans-70" transform="translate(31.787109 0)"/>
       <use xlink:href="#DejaVuSans-63" transform="translate(95.263672 0)"/>
       <use xlink:href="#DejaVuSans-5f" transform="translate(150.244141 0)"/>
       <use xlink:href="#DejaVuSans-61" transform="translate(200.244141 0)"/>
       <use xlink:href="#DejaVuSans-62" transform="translate(261.523438 0)"/>
       <use xlink:href="#DejaVuSans-6e" transform="translate(325 0)"/>
       <use xlink:href="#DejaVuSans-6f" transform="translate(388.378906 0)"/>
       <use xlink:href="#DejaVuSans-72" transform="translate(449.560547 0)"/>
       <use xlink:href="#DejaVuSans-6d" transform="translate(488.923828 0)"/>
       <use xlink:href="#DejaVuSans-61" transform="translate(586.335938 0)"/>
       <use xlink:href="#DejaVuSans-6c" transform="translate(647.615234 0)"/>
      </g>
     </g>
    </g>
    <g id="ytick_18">
     <g id="line2d_59">
      <path d="M 127.799219 485.994598 
L 529.663846 485.994598 
" clip-path="url(#p3660bd1e1c)" style="fill: none; stroke: #cccccc; stroke-linecap: round"/>
     </g>
     <g id="text_23">
      <!--  pc_normal -->
      <g style="fill: #262626" transform="translate(46.715938 490.933582) scale(0.13 -0.13)">
       <use xlink:href="#DejaVuSans-20"/>
       <use xlink:href="#DejaVuSans-70" transform="translate(31.787109 0)"/>
       <use xlink:href="#DejaVuSans-63" transform="translate(95.263672 0)"/>
       <use xlink:href="#DejaVuSans-5f" transform="translate(150.244141 0)"/>
       <use xlink:href="#DejaVuSans-6e" transform="translate(200.244141 0)"/>
       <use xlink:href="#DejaVuSans-6f" transform="translate(263.623047 0)"/>
       <use xlink:href="#DejaVuSans-72" transform="translate(324.804688 0)"/>
       <use xlink:href="#DejaVuSans-6d" transform="translate(364.167969 0)"/>
       <use xlink:href="#DejaVuSans-61" transform="translate(461.580078 0)"/>
       <use xlink:href="#DejaVuSans-6c" transform="translate(522.859375 0)"/>
      </g>
     </g>
    </g>
    <g id="ytick_19">
     <g id="line2d_60">
      <path d="M 127.799219 454.169828 
L 529.663846 454.169828 
" clip-path="url(#p3660bd1e1c)" style="fill: none; stroke: #cccccc; stroke-linecap: round"/>
     </g>
     <g id="text_24">
      <!--  su -->
      <g style="fill: #262626" transform="translate(99.156719 459.108813) scale(0.13 -0.13)">
       <use xlink:href="#DejaVuSans-20"/>
       <use xlink:href="#DejaVuSans-73" transform="translate(31.787109 0)"/>
       <use xlink:href="#DejaVuSans-75" transform="translate(83.886719 0)"/>
      </g>
     </g>
    </g>
    <g id="ytick_20">
     <g id="line2d_61">
      <path d="M 127.799219 422.345059 
L 529.663846 422.345059 
" clip-path="url(#p3660bd1e1c)" style="fill: none; stroke: #cccccc; stroke-linecap: round"/>
     </g>
     <g id="text_25">
      <!--  age -->
      <g style="fill: #262626" transform="translate(89.949063 427.284043) scale(0.13 -0.13)">
       <use xlink:href="#DejaVuSans-20"/>
       <use xlink:href="#DejaVuSans-61" transform="translate(31.787109 0)"/>
       <use xlink:href="#DejaVuSans-67" transform="translate(93.066406 0)"/>
       <use xlink:href="#DejaVuSans-65" transform="translate(156.542969 0)"/>
      </g>
     </g>
    </g>
    <g id="ytick_21">
     <g id="line2d_62">
      <path d="M 127.799219 390.520289 
L 529.663846 390.520289 
" clip-path="url(#p3660bd1e1c)" style="fill: none; stroke: #cccccc; stroke-linecap: round"/>
     </g>
     <g id="text_26">
      <!--  sod -->
      <g style="fill: #262626" transform="translate(91.188125 395.459273) scale(0.13 -0.13)">
       <use xlink:href="#DejaVuSans-20"/>
       <use xlink:href="#DejaVuSans-73" transform="translate(31.787109 0)"/>
       <use xlink:href="#DejaVuSans-6f" transform="translate(83.886719 0)"/>
       <use xlink:href="#DejaVuSans-64" transform="translate(145.068359 0)"/>
      </g>
     </g>
    </g>
    <g id="ytick_22">
     <g id="line2d_63">
      <path d="M 127.799219 358.695519 
L 529.663846 358.695519 
" clip-path="url(#p3660bd1e1c)" style="fill: none; stroke: #cccccc; stroke-linecap: round"/>
     </g>
     <g id="text_27">
      <!--  bu -->
      <g style="fill: #262626" transform="translate(97.675938 363.634504) scale(0.13 -0.13)">
       <use xlink:href="#DejaVuSans-20"/>
       <use xlink:href="#DejaVuSans-62" transform="translate(31.787109 0)"/>
       <use xlink:href="#DejaVuSans-75" transform="translate(95.263672 0)"/>
      </g>
     </g>
    </g>
    <g id="ytick_23">
     <g id="line2d_64">
      <path d="M 127.799219 326.87075 
L 529.663846 326.87075 
" clip-path="url(#p3660bd1e1c)" style="fill: none; stroke: #cccccc; stroke-linecap: round"/>
     </g>
     <g id="text_28">
      <!--  bgr -->
      <g style="fill: #262626" transform="translate(92.3175 331.809734) scale(0.13 -0.13)">
       <use xlink:href="#DejaVuSans-20"/>
       <use xlink:href="#DejaVuSans-62" transform="translate(31.787109 0)"/>
       <use xlink:href="#DejaVuSans-67" transform="translate(95.263672 0)"/>
       <use xlink:href="#DejaVuSans-72" transform="translate(158.740234 0)"/>
      </g>
     </g>
    </g>
    <g id="ytick_24">
     <g id="line2d_65">
      <path d="M 127.799219 295.04598 
L 529.663846 295.04598 
" clip-path="url(#p3660bd1e1c)" style="fill: none; stroke: #cccccc; stroke-linecap: round"/>
     </g>
     <g id="text_29">
      <!--  bp -->
      <g style="fill: #262626" transform="translate(97.661719 299.984964) scale(0.13 -0.13)">
       <use xlink:href="#DejaVuSans-20"/>
       <use xlink:href="#DejaVuSans-62" transform="translate(31.787109 0)"/>
       <use xlink:href="#DejaVuSans-70" transform="translate(95.263672 0)"/>
      </g>
     </g>
    </g>
    <g id="ytick_25">
     <g id="line2d_66">
      <path d="M 127.799219 263.22121 
L 529.663846 263.22121 
" clip-path="url(#p3660bd1e1c)" style="fill: none; stroke: #cccccc; stroke-linecap: round"/>
     </g>
     <g id="text_30">
      <!--  al -->
      <g style="fill: #262626" transform="translate(102.589531 268.160195) scale(0.13 -0.13)">
       <use xlink:href="#DejaVuSans-20"/>
       <use xlink:href="#DejaVuSans-61" transform="translate(31.787109 0)"/>
       <use xlink:href="#DejaVuSans-6c" transform="translate(93.066406 0)"/>
      </g>
     </g>
    </g>
    <g id="ytick_26">
     <g id="line2d_67">
      <path d="M 127.799219 231.396441 
L 529.663846 231.396441 
" clip-path="url(#p3660bd1e1c)" style="fill: none; stroke: #cccccc; stroke-linecap: round"/>
     </g>
     <g id="text_31">
      <!--  pcv -->
      <g style="fill: #262626" transform="translate(91.072344 236.335425) scale(0.13 -0.13)">
       <use xlink:href="#DejaVuSans-20"/>
       <use xlink:href="#DejaVuSans-70" transform="translate(31.787109 0)"/>
       <use xlink:href="#DejaVuSans-63" transform="translate(95.263672 0)"/>
       <use xlink:href="#DejaVuSans-76" transform="translate(150.244141 0)"/>
      </g>
     </g>
    </g>
    <g id="ytick_27">
     <g id="line2d_68">
      <path d="M 127.799219 199.571671 
L 529.663846 199.571671 
" clip-path="url(#p3660bd1e1c)" style="fill: none; stroke: #cccccc; stroke-linecap: round"/>
     </g>
     <g id="text_32">
      <!--  hemo -->
      <g style="fill: #262626" transform="translate(77.312656 204.510655) scale(0.13 -0.13)">
       <use xlink:href="#DejaVuSans-20"/>
       <use xlink:href="#DejaVuSans-68" transform="translate(31.787109 0)"/>
       <use xlink:href="#DejaVuSans-65" transform="translate(95.166016 0)"/>
       <use xlink:href="#DejaVuSans-6d" transform="translate(156.689453 0)"/>
       <use xlink:href="#DejaVuSans-6f" transform="translate(254.101562 0)"/>
      </g>
     </g>
    </g>
    <g id="ytick_28">
     <g id="line2d_69">
      <path d="M 127.799219 167.746901 
L 529.663846 167.746901 
" clip-path="url(#p3660bd1e1c)" style="fill: none; stroke: #cccccc; stroke-linecap: round"/>
     </g>
     <g id="text_33">
      <!--  rc -->
      <g style="fill: #262626" transform="translate(101.967969 172.685886) scale(0.13 -0.13)">
       <use xlink:href="#DejaVuSans-20"/>
       <use xlink:href="#DejaVuSans-72" transform="translate(31.787109 0)"/>
       <use xlink:href="#DejaVuSans-63" transform="translate(70.650391 0)"/>
      </g>
     </g>
    </g>
    <g id="ytick_29">
     <g id="line2d_70">
      <path d="M 127.799219 135.922132 
L 529.663846 135.922132 
" clip-path="url(#p3660bd1e1c)" style="fill: none; stroke: #cccccc; stroke-linecap: round"/>
     </g>
     <g id="text_34">
      <!--  sg -->
      <g style="fill: #262626" transform="translate(99.1425 140.861116) scale(0.13 -0.13)">
       <use xlink:href="#DejaVuSans-20"/>
       <use xlink:href="#DejaVuSans-73" transform="translate(31.787109 0)"/>
       <use xlink:href="#DejaVuSans-67" transform="translate(83.886719 0)"/>
      </g>
     </g>
    </g>
    <g id="ytick_30">
     <g id="line2d_71">
      <path d="M 127.799219 104.097362 
L 529.663846 104.097362 
" clip-path="url(#p3660bd1e1c)" style="fill: none; stroke: #cccccc; stroke-linecap: round"/>
     </g>
     <g id="text_35">
      <!--  sc -->
      <g style="fill: #262626" transform="translate(100.2475 109.036346) scale(0.13 -0.13)">
       <use xlink:href="#DejaVuSans-20"/>
       <use xlink:href="#DejaVuSans-73" transform="translate(31.787109 0)"/>
       <use xlink:href="#DejaVuSans-63" transform="translate(83.886719 0)"/>
      </g>
     </g>
    </g>
   </g>
   <g id="patch_3">
    <path d="M 176.974883 116.82727 
L 374.758994 116.82727 
L 374.758994 91.367455 
L 176.974883 91.367455 
L 176.974883 116.82727 
z
" clip-path="url(#p3660bd1e1c)" style="fill: none; opacity: 0"/>
   </g>
   <g id="patch_4">
    <path d="M 467.350156 403.250197 
L 511.397272 403.250197 
L 511.397272 377.790381 
L 467.350156 377.790381 
L 467.350156 403.250197 
z
" clip-path="url(#p3660bd1e1c)" style="fill: none; opacity: 0"/>
   </g>
   <g id="patch_5">
    <path d="M 259.15316 148.65204 
L 146.065793 148.65204 
L 146.065793 123.192224 
L 259.15316 123.192224 
L 259.15316 148.65204 
z
" clip-path="url(#p3660bd1e1c)" style="fill: none; opacity: 0"/>
   </g>
   <g id="patch_6">
    <path d="M 321.269302 180.47681 
L 222.062252 180.47681 
L 222.062252 155.016994 
L 321.269302 155.016994 
L 321.269302 180.47681 
z
" clip-path="url(#p3660bd1e1c)" style="fill: none; opacity: 0"/>
   </g>
   <g id="patch_7">
    <path d="M 382.254378 212.301579 
L 284.178393 212.301579 
L 284.178393 186.841764 
L 382.254378 186.841764 
L 382.254378 212.301579 
z
" clip-path="url(#p3660bd1e1c)" style="fill: none; opacity: 0"/>
   </g>
   <g id="patch_8">
    <path d="M 419.995693 244.126349 
L 345.16347 244.126349 
L 345.16347 218.666533 
L 419.995693 218.666533 
L 419.995693 244.126349 
z
" clip-path="url(#p3660bd1e1c)" style="fill: none; opacity: 0"/>
   </g>
   <g id="patch_9">
    <path d="M 449.952877 275.951119 
L 382.904784 275.951119 
L 382.904784 250.491303 
L 449.952877 250.491303 
L 449.952877 275.951119 
z
" clip-path="url(#p3660bd1e1c)" style="fill: none; opacity: 0"/>
   </g>
   <g id="patch_10">
    <path d="M 462.832005 307.775888 
L 412.861968 307.775888 
L 412.861968 282.316072 
L 462.832005 282.316072 
L 462.832005 307.775888 
z
" clip-path="url(#p3660bd1e1c)" style="fill: none; opacity: 0"/>
   </g>
   <g id="patch_11">
    <path d="M 473.266162 339.600658 
L 425.741097 339.600658 
L 425.741097 314.140842 
L 473.266162 314.140842 
L 473.266162 339.600658 
z
" clip-path="url(#p3660bd1e1c)" style="fill: none; opacity: 0"/>
   </g>
   <g id="patch_12">
    <path d="M 480.488182 371.425428 
L 436.175253 371.425428 
L 436.175253 345.965612 
L 480.488182 345.965612 
L 480.488182 371.425428 
z
" clip-path="url(#p3660bd1e1c)" style="fill: none; opacity: 0"/>
   </g>
   <g id="patch_13">
    <path d="M 480.423081 435.074967 
L 436.441065 435.074967 
L 436.441065 409.615151 
L 480.423081 409.615151 
L 480.423081 435.074967 
z
" clip-path="url(#p3660bd1e1c)" style="fill: none; opacity: 0"/>
   </g>
   <g id="patch_14">
    <path d="M 485.163646 466.899736 
L 443.332172 466.899736 
L 443.332172 441.439921 
L 485.163646 441.439921 
L 485.163646 466.899736 
z
" clip-path="url(#p3660bd1e1c)" style="fill: none; opacity: 0"/>
   </g>
   <g id="patch_15">
    <path d="M 488.313312 498.724506 
L 448.072737 498.724506 
L 448.072737 473.26469 
L 488.313312 473.26469 
L 488.313312 498.724506 
z
" clip-path="url(#p3660bd1e1c)" style="fill: none; opacity: 0"/>
   </g>
   <g id="patch_16">
    <path d="M 491.443566 530.549276 
L 451.222403 530.549276 
L 451.222403 505.08946 
L 491.443566 505.08946 
L 491.443566 530.549276 
z
" clip-path="url(#p3660bd1e1c)" style="fill: none; opacity: 0"/>
   </g>
   <g id="patch_17">
    <path d="M 492.247608 562.374045 
L 454.352657 562.374045 
L 454.352657 536.91423 
L 492.247608 536.91423 
L 492.247608 562.374045 
z
" clip-path="url(#p3660bd1e1c)" style="fill: none; opacity: 0"/>
   </g>
   <g id="patch_18">
    <path d="M 340.758994 104.097362 
L 335.573644 116.82727 
L 335.573644 116.82727 
L 180.065792 116.82727 
L 180.065792 91.367455 
L 335.573644 91.367455 
L 335.573644 91.367455 
z
" clip-path="url(#p3660bd1e1c)" style="fill: #ff0051; stroke: #ff0051; stroke-linejoin: miter"/>
   </g>
   <g id="patch_19">
    <path d="M 477.397273 390.520289 
L 472.211923 403.250197 
L 472.211923 403.250197 
L 470.441065 403.250197 
L 470.441065 377.790381 
L 472.211923 377.790381 
L 472.211923 377.790381 
z
" clip-path="url(#p3660bd1e1c)" style="fill: #ff0051; stroke: #ff0051; stroke-linejoin: miter"/>
   </g>
   <g id="patch_20">
    <path d="M 180.065792 135.922132 
L 185.251142 123.192224 
L 185.251142 123.192224 
L 256.062251 123.192224 
L 256.062251 148.65204 
L 185.251142 148.65204 
L 185.251142 148.65204 
z
" clip-path="url(#p3660bd1e1c)" style="fill: #008bfb; stroke: #008bfb; stroke-linejoin: miter"/>
   </g>
   <g id="patch_21">
    <path d="M 256.062251 167.746902 
L 261.247601 155.016994 
L 261.247601 155.016994 
L 318.178393 155.016994 
L 318.178393 180.47681 
L 261.247601 180.47681 
L 261.247601 180.47681 
z
" clip-path="url(#p3660bd1e1c)" style="fill: #008bfb; stroke: #008bfb; stroke-linejoin: miter"/>
   </g>
   <g id="patch_22">
    <path d="M 318.178393 199.571671 
L 323.363743 186.841764 
L 323.363743 186.841764 
L 379.163469 186.841764 
L 379.163469 212.301579 
L 323.363743 212.301579 
L 323.363743 212.301579 
z
" clip-path="url(#p3660bd1e1c)" style="fill: #008bfb; stroke: #008bfb; stroke-linejoin: miter"/>
   </g>
   <g id="patch_23">
    <path d="M 379.163469 231.396441 
L 384.348819 218.666533 
L 384.348819 218.666533 
L 416.904784 218.666533 
L 416.904784 244.126349 
L 384.348819 244.126349 
L 384.348819 244.126349 
z
" clip-path="url(#p3660bd1e1c)" style="fill: #008bfb; stroke: #008bfb; stroke-linejoin: miter"/>
   </g>
   <g id="patch_24">
    <path d="M 416.904784 263.221211 
L 422.090134 250.491303 
L 422.090134 250.491303 
L 446.861968 250.491303 
L 446.861968 275.951119 
L 422.090134 275.951119 
L 422.090134 275.951119 
z
" clip-path="url(#p3660bd1e1c)" style="fill: #008bfb; stroke: #008bfb; stroke-linejoin: miter"/>
   </g>
   <g id="patch_25">
    <path d="M 446.861968 295.04598 
L 452.047318 282.316072 
L 452.047318 282.316072 
L 459.741096 282.316072 
L 459.741096 307.775888 
L 452.047318 307.775888 
L 452.047318 307.775888 
z
" clip-path="url(#p3660bd1e1c)" style="fill: #008bfb; stroke: #008bfb; stroke-linejoin: miter"/>
   </g>
   <g id="patch_26">
    <path d="M 459.741096 326.87075 
L 464.926446 314.140842 
L 464.926446 314.140842 
L 470.175253 314.140842 
L 470.175253 339.600658 
L 464.926446 339.600658 
L 464.926446 339.600658 
z
" clip-path="url(#p3660bd1e1c)" style="fill: #008bfb; stroke: #008bfb; stroke-linejoin: miter"/>
   </g>
   <g id="patch_27">
    <path d="M 470.175253 358.69552 
L 475.360603 345.965612 
L 475.360603 345.965612 
L 477.397273 345.965612 
L 477.397273 371.425428 
L 475.360603 371.425428 
L 475.360603 371.425428 
z
" clip-path="url(#p3660bd1e1c)" style="fill: #008bfb; stroke: #008bfb; stroke-linejoin: miter"/>
   </g>
   <g id="patch_28">
    <path d="M 470.441065 422.345059 
L 475.626415 409.615151 
L 475.626415 409.615151 
L 477.332172 409.615151 
L 477.332172 435.074967 
L 475.626415 435.074967 
L 475.626415 435.074967 
z
" clip-path="url(#p3660bd1e1c)" style="fill: #008bfb; stroke: #008bfb; stroke-linejoin: miter"/>
   </g>
   <g id="patch_29">
    <path d="M 487.258087 454.169829 
L 482.517522 466.899736 
L 482.517522 466.899736 
L 482.072737 466.899736 
L 482.072737 441.439921 
L 482.517522 441.439921 
L 482.517522 441.439921 
z
" clip-path="url(#p3660bd1e1c)" style="fill: #008bfb; stroke: #008bfb; stroke-linejoin: miter"/>
   </g>
   <g id="patch_30">
    <path d="M 490.407753 485.994598 
L 487.258087 498.724506 
L 487.258087 498.724506 
L 485.222403 498.724506 
L 485.222403 473.26469 
L 487.258087 473.26469 
L 487.258087 473.26469 
z
" clip-path="url(#p3660bd1e1c)" style="fill: #008bfb; stroke: #008bfb; stroke-linejoin: miter"/>
   </g>
   <g id="patch_31">
    <path d="M 493.538007 517.819368 
L 490.407753 530.549276 
L 490.407753 530.549276 
L 488.352657 530.549276 
L 488.352657 505.08946 
L 490.407753 505.08946 
L 490.407753 505.08946 
z
" clip-path="url(#p3660bd1e1c)" style="fill: #008bfb; stroke: #008bfb; stroke-linejoin: miter"/>
   </g>
   <g id="patch_32">
    <path d="M 494.342049 549.644138 
L 493.538007 562.374045 
L 493.538007 562.374045 
L 489.156699 562.374045 
L 489.156699 536.91423 
L 493.538007 536.91423 
L 493.538007 536.91423 
z
" clip-path="url(#p3660bd1e1c)" style="fill: #008bfb; stroke: #008bfb; stroke-linejoin: miter"/>
   </g>
   <g id="patch_33">
    <path d="M 127.799219 585.924375 
L 529.663846 585.924375 
" style="fill: none; stroke: #cccccc; stroke-width: 1.25; stroke-linejoin: miter; stroke-linecap: square"/>
   </g>
   <g id="text_36">
    <!-- +0.22 -->
    <g style="fill: #ffffff" transform="translate(242.025206 107.408612) scale(0.12 -0.12)">
     <defs>
      <path id="DejaVuSans-2b" d="M 2944 4013 
L 2944 2272 
L 4684 2272 
L 4684 1741 
L 2944 1741 
L 2944 0 
L 2419 0 
L 2419 1741 
L 678 1741 
L 678 2272 
L 2419 2272 
L 2419 4013 
L 2944 4013 
z
" transform="scale(0.015625)"/>
     </defs>
     <use xlink:href="#DejaVuSans-2b"/>
     <use xlink:href="#DejaVuSans-30" transform="translate(83.789062 0)"/>
     <use xlink:href="#DejaVuSans-2e" transform="translate(147.412109 0)"/>
     <use xlink:href="#DejaVuSans-32" transform="translate(179.199219 0)"/>
     <use xlink:href="#DejaVuSans-32" transform="translate(242.822266 0)"/>
    </g>
   </g>
   <g id="text_37">
    <!-- +0.01 -->
    <g style="fill: #ff0051" transform="translate(481.898445 393.831539) scale(0.12 -0.12)">
     <use xlink:href="#DejaVuSans-2b"/>
     <use xlink:href="#DejaVuSans-30" transform="translate(83.789062 0)"/>
     <use xlink:href="#DejaVuSans-2e" transform="translate(147.412109 0)"/>
     <use xlink:href="#DejaVuSans-30" transform="translate(179.199219 0)"/>
     <use xlink:href="#DejaVuSans-31" transform="translate(242.822266 0)"/>
    </g>
   </g>
   <g id="text_38">
    <!-- −0.1 -->
    <g style="fill: #ffffff" transform="translate(203.494334 139.233382) scale(0.12 -0.12)">
     <use xlink:href="#DejaVuSans-2212"/>
     <use xlink:href="#DejaVuSans-30" transform="translate(83.789062 0)"/>
     <use xlink:href="#DejaVuSans-2e" transform="translate(147.412109 0)"/>
     <use xlink:href="#DejaVuSans-31" transform="translate(179.199219 0)"/>
    </g>
   </g>
   <g id="text_39">
    <!-- −0.08 -->
    <g style="fill: #ffffff" transform="translate(268.733135 171.058152) scale(0.12 -0.12)">
     <use xlink:href="#DejaVuSans-2212"/>
     <use xlink:href="#DejaVuSans-30" transform="translate(83.789062 0)"/>
     <use xlink:href="#DejaVuSans-2e" transform="translate(147.412109 0)"/>
     <use xlink:href="#DejaVuSans-30" transform="translate(179.199219 0)"/>
     <use xlink:href="#DejaVuSans-38" transform="translate(242.822266 0)"/>
    </g>
   </g>
   <g id="text_40">
    <!-- −0.08 -->
    <g style="fill: #ffffff" transform="translate(330.283744 202.882921) scale(0.12 -0.12)">
     <use xlink:href="#DejaVuSans-2212"/>
     <use xlink:href="#DejaVuSans-30" transform="translate(83.789062 0)"/>
     <use xlink:href="#DejaVuSans-2e" transform="translate(147.412109 0)"/>
     <use xlink:href="#DejaVuSans-30" transform="translate(179.199219 0)"/>
     <use xlink:href="#DejaVuSans-38" transform="translate(242.822266 0)"/>
    </g>
   </g>
   <g id="text_41">
    <!-- −0.05 -->
    <g style="fill: #ffffff" transform="translate(379.646939 234.707691) scale(0.12 -0.12)">
     <use xlink:href="#DejaVuSans-2212"/>
     <use xlink:href="#DejaVuSans-30" transform="translate(83.789062 0)"/>
     <use xlink:href="#DejaVuSans-2e" transform="translate(147.412109 0)"/>
     <use xlink:href="#DejaVuSans-30" transform="translate(179.199219 0)"/>
     <use xlink:href="#DejaVuSans-35" transform="translate(242.822266 0)"/>
    </g>
   </g>
   <g id="text_42">
    <!-- −0.04 -->
    <g style="fill: #008bfb" transform="translate(375.629237 266.532461) scale(0.12 -0.12)">
     <use xlink:href="#DejaVuSans-2212"/>
     <use xlink:href="#DejaVuSans-30" transform="translate(83.789062 0)"/>
     <use xlink:href="#DejaVuSans-2e" transform="translate(147.412109 0)"/>
     <use xlink:href="#DejaVuSans-30" transform="translate(179.199219 0)"/>
     <use xlink:href="#DejaVuSans-34" transform="translate(242.822266 0)"/>
    </g>
   </g>
   <g id="text_43">
    <!-- −0.02 -->
    <g style="fill: #008bfb" transform="translate(405.586421 298.35723) scale(0.12 -0.12)">
     <use xlink:href="#DejaVuSans-2212"/>
     <use xlink:href="#DejaVuSans-30" transform="translate(83.789062 0)"/>
     <use xlink:href="#DejaVuSans-2e" transform="translate(147.412109 0)"/>
     <use xlink:href="#DejaVuSans-30" transform="translate(179.199219 0)"/>
     <use xlink:href="#DejaVuSans-32" transform="translate(242.822266 0)"/>
    </g>
   </g>
   <g id="text_44">
    <!-- −0.01 -->
    <g style="fill: #008bfb" transform="translate(418.465549 330.182) scale(0.12 -0.12)">
     <use xlink:href="#DejaVuSans-2212"/>
     <use xlink:href="#DejaVuSans-30" transform="translate(83.789062 0)"/>
     <use xlink:href="#DejaVuSans-2e" transform="translate(147.412109 0)"/>
     <use xlink:href="#DejaVuSans-30" transform="translate(179.199219 0)"/>
     <use xlink:href="#DejaVuSans-31" transform="translate(242.822266 0)"/>
    </g>
   </g>
   <g id="text_45">
    <!-- −0.01 -->
    <g style="fill: #008bfb" transform="translate(428.899706 362.00677) scale(0.12 -0.12)">
     <use xlink:href="#DejaVuSans-2212"/>
     <use xlink:href="#DejaVuSans-30" transform="translate(83.789062 0)"/>
     <use xlink:href="#DejaVuSans-2e" transform="translate(147.412109 0)"/>
     <use xlink:href="#DejaVuSans-30" transform="translate(179.199219 0)"/>
     <use xlink:href="#DejaVuSans-31" transform="translate(242.822266 0)"/>
    </g>
   </g>
   <g id="text_46">
    <!-- −0.01 -->
    <g style="fill: #008bfb" transform="translate(429.165518 425.656309) scale(0.12 -0.12)">
     <use xlink:href="#DejaVuSans-2212"/>
     <use xlink:href="#DejaVuSans-30" transform="translate(83.789062 0)"/>
     <use xlink:href="#DejaVuSans-2e" transform="translate(147.412109 0)"/>
     <use xlink:href="#DejaVuSans-30" transform="translate(179.199219 0)"/>
     <use xlink:href="#DejaVuSans-31" transform="translate(242.822266 0)"/>
    </g>
   </g>
   <g id="text_47">
    <!-- −0.01 -->
    <g style="fill: #008bfb" transform="translate(436.056625 457.481079) scale(0.12 -0.12)">
     <use xlink:href="#DejaVuSans-2212"/>
     <use xlink:href="#DejaVuSans-30" transform="translate(83.789062 0)"/>
     <use xlink:href="#DejaVuSans-2e" transform="translate(147.412109 0)"/>
     <use xlink:href="#DejaVuSans-30" transform="translate(179.199219 0)"/>
     <use xlink:href="#DejaVuSans-31" transform="translate(242.822266 0)"/>
    </g>
   </g>
   <g id="text_48">
    <!-- −0 -->
    <g style="fill: #008bfb" transform="translate(459.88094 489.305848) scale(0.12 -0.12)">
     <use xlink:href="#DejaVuSans-2212"/>
     <use xlink:href="#DejaVuSans-30" transform="translate(83.789062 0)"/>
    </g>
   </g>
   <g id="text_49">
    <!-- −0 -->
    <g style="fill: #008bfb" transform="translate(463.030606 521.130618) scale(0.12 -0.12)">
     <use xlink:href="#DejaVuSans-2212"/>
     <use xlink:href="#DejaVuSans-30" transform="translate(83.789062 0)"/>
    </g>
   </g>
   <g id="text_50">
    <!-- −0 -->
    <g style="fill: #008bfb" transform="translate(466.16086 552.955388) scale(0.12 -0.12)">
     <use xlink:href="#DejaVuSans-2212"/>
     <use xlink:href="#DejaVuSans-30" transform="translate(83.789062 0)"/>
    </g>
   </g>
  </g>
  <g id="axes_2">
   <g id="matplotlib.axis_3">
    <g id="xtick_6">
     <g id="line2d_72">
      <path d="M 489.156699 585.924375 
L 489.156699 67.817125 
" clip-path="url(#p3660bd1e1c)" style="fill: none; stroke: #cccccc; stroke-linecap: round"/>
     </g>
     <g id="line2d_73">
      <g>
       <use xlink:href="#mc588f1a1ff" x="489.156699" y="585.924375" style="fill: #262626; stroke: #262626; stroke-width: 1.25"/>
      </g>
     </g>
     <g id="text_51">
      <!--  -->
      <g style="fill: #262626" transform="translate(469.156699 604.5425) scale(0.12 -0.12)"/>
      <!-- $E[f(X)]$ -->
      <g style="fill: #262626" transform="translate(469.156699 617.979875) scale(0.12 -0.12)">
       <defs>
        <path id="DejaVuSans-Oblique-45" d="M 1081 4666 
L 4031 4666 
L 3928 4134 
L 1606 4134 
L 1338 2753 
L 3566 2753 
L 3463 2222 
L 1234 2222 
L 909 531 
L 3284 531 
L 3181 0 
L 172 0 
L 1081 4666 
z
" transform="scale(0.015625)"/>
        <path id="DejaVuSans-5b" d="M 550 4863 
L 1875 4863 
L 1875 4416 
L 1125 4416 
L 1125 -397 
L 1875 -397 
L 1875 -844 
L 550 -844 
L 550 4863 
z
" transform="scale(0.015625)"/>
        <path id="DejaVuSans-Oblique-66" d="M 3059 4863 
L 2969 4384 
L 2419 4384 
Q 2106 4384 1964 4261 
Q 1822 4138 1753 3809 
L 1691 3500 
L 2638 3500 
L 2553 3053 
L 1606 3053 
L 1013 0 
L 434 0 
L 1031 3053 
L 481 3053 
L 563 3500 
L 1113 3500 
L 1159 3744 
Q 1278 4363 1576 4613 
Q 1875 4863 2516 4863 
L 3059 4863 
z
" transform="scale(0.015625)"/>
        <path id="DejaVuSans-28" d="M 1984 4856 
Q 1566 4138 1362 3434 
Q 1159 2731 1159 2009 
Q 1159 1288 1364 580 
Q 1569 -128 1984 -844 
L 1484 -844 
Q 1016 -109 783 600 
Q 550 1309 550 2009 
Q 550 2706 781 3412 
Q 1013 4119 1484 4856 
L 1984 4856 
z
" transform="scale(0.015625)"/>
        <path id="DejaVuSans-Oblique-58" d="M 878 4666 
L 1516 4666 
L 2316 2981 
L 3763 4666 
L 4500 4666 
L 2578 2438 
L 3738 0 
L 3103 0 
L 2163 1966 
L 459 0 
L -275 0 
L 1906 2509 
L 878 4666 
z
" transform="scale(0.015625)"/>
        <path id="DejaVuSans-29" d="M 513 4856 
L 1013 4856 
Q 1481 4119 1714 3412 
Q 1947 2706 1947 2009 
Q 1947 1309 1714 600 
Q 1481 -109 1013 -844 
L 513 -844 
Q 928 -128 1133 580 
Q 1338 1288 1338 2009 
Q 1338 2731 1133 3434 
Q 928 4138 513 4856 
z
" transform="scale(0.015625)"/>
        <path id="DejaVuSans-5d" d="M 1947 4863 
L 1947 -844 
L 622 -844 
L 622 -397 
L 1369 -397 
L 1369 4416 
L 622 4416 
L 622 4863 
L 1947 4863 
z
" transform="scale(0.015625)"/>
       </defs>
       <use xlink:href="#DejaVuSans-Oblique-45" transform="translate(0 0.015625)"/>
       <use xlink:href="#DejaVuSans-5b" transform="translate(63.183594 0.015625)"/>
       <use xlink:href="#DejaVuSans-Oblique-66" transform="translate(102.197266 0.015625)"/>
       <use xlink:href="#DejaVuSans-28" transform="translate(137.402344 0.015625)"/>
       <use xlink:href="#DejaVuSans-Oblique-58" transform="translate(176.416016 0.015625)"/>
       <use xlink:href="#DejaVuSans-29" transform="translate(244.921875 0.015625)"/>
       <use xlink:href="#DejaVuSans-5d" transform="translate(283.935547 0.015625)"/>
      </g>
     </g>
    </g>
    <g id="xtick_7">
     <g id="line2d_74">
      <path d="M 489.156699 585.924375 
L 489.156699 67.817125 
" clip-path="url(#p3660bd1e1c)" style="fill: none; stroke: #cccccc; stroke-linecap: round"/>
     </g>
     <g id="line2d_75">
      <g>
       <use xlink:href="#mc588f1a1ff" x="489.156699" y="585.924375" style="fill: #262626; stroke: #262626; stroke-width: 1.25"/>
      </g>
     </g>
     <g id="text_52">
      <!--  -->
      <g style="fill: #999999" transform="translate(511.156699 605.5425) scale(0.12 -0.12)"/>
      <!-- $ = 0.623$ -->
      <g style="fill: #999999" transform="translate(511.156699 618.979875) scale(0.12 -0.12)">
       <use xlink:href="#DejaVuSans-3d" transform="translate(19.482422 0.78125)"/>
       <use xlink:href="#DejaVuSans-30" transform="translate(122.753906 0.78125)"/>
       <use xlink:href="#DejaVuSans-2e" transform="translate(186.376953 0.78125)"/>
       <use xlink:href="#DejaVuSans-36" transform="translate(218.164062 0.78125)"/>
       <use xlink:href="#DejaVuSans-32" transform="translate(281.787109 0.78125)"/>
       <use xlink:href="#DejaVuSans-33" transform="translate(345.410156 0.78125)"/>
      </g>
     </g>
    </g>
   </g>
   <g id="patch_34">
    <path d="M 127.799219 585.924375 
L 529.663846 585.924375 
" style="fill: none; stroke: #cccccc; stroke-width: 1.25; stroke-linejoin: miter; stroke-linecap: square"/>
   </g>
  </g>
  <g id="axes_3">
   <g id="matplotlib.axis_4">
    <g id="xtick_8">
     <g id="line2d_76">
      <path d="M 340.758994 585.924375 
L 340.758994 67.817125 
" clip-path="url(#p3660bd1e1c)" style="fill: none; stroke: #cccccc; stroke-linecap: round"/>
     </g>
     <g id="line2d_77">
      <defs>
       <path id="m5f452240b7" d="M 0 0 
L 0 -6 
" style="stroke: #262626; stroke-width: 1.25"/>
      </defs>
      <g>
       <use xlink:href="#m5f452240b7" x="340.758994" y="67.817125" style="fill: #262626; stroke: #262626; stroke-width: 1.25"/>
      </g>
     </g>
     <g id="text_53">
      <!-- $f(x)$ -->
      <g style="fill: #262626" transform="translate(330.758994 55.8215) scale(0.12 -0.12)">
       <defs>
        <path id="DejaVuSans-Oblique-78" d="M 3841 3500 
L 2234 1784 
L 3219 0 
L 2559 0 
L 1819 1388 
L 531 0 
L -166 0 
L 1556 1844 
L 641 3500 
L 1300 3500 
L 1972 2234 
L 3144 3500 
L 3841 3500 
z
" transform="scale(0.015625)"/>
       </defs>
       <use xlink:href="#DejaVuSans-Oblique-66" transform="translate(0 0.015625)"/>
       <use xlink:href="#DejaVuSans-28" transform="translate(35.205078 0.015625)"/>
       <use xlink:href="#DejaVuSans-Oblique-78" transform="translate(74.21875 0.015625)"/>
       <use xlink:href="#DejaVuSans-29" transform="translate(133.398438 0.015625)"/>
      </g>
     </g>
    </g>
    <g id="xtick_9">
     <g id="line2d_78">
      <path d="M 340.758994 585.924375 
L 340.758994 67.817125 
" clip-path="url(#p3660bd1e1c)" style="fill: none; stroke: #cccccc; stroke-linecap: round"/>
     </g>
     <g id="line2d_79">
      <g>
       <use xlink:href="#m5f452240b7" x="340.758994" y="67.817125" style="fill: #262626; stroke: #262626; stroke-width: 1.25"/>
      </g>
     </g>
     <g id="text_54">
      <!-- $ = 0.421$ -->
      <g style="fill: #999999" transform="translate(352.758994 55.8215) scale(0.12 -0.12)">
       <use xlink:href="#DejaVuSans-3d" transform="translate(19.482422 0.78125)"/>
       <use xlink:href="#DejaVuSans-30" transform="translate(122.753906 0.78125)"/>
       <use xlink:href="#DejaVuSans-2e" transform="translate(186.376953 0.78125)"/>
       <use xlink:href="#DejaVuSans-34" transform="translate(218.164062 0.78125)"/>
       <use xlink:href="#DejaVuSans-32" transform="translate(281.787109 0.78125)"/>
       <use xlink:href="#DejaVuSans-31" transform="translate(345.410156 0.78125)"/>
      </g>
     </g>
    </g>
   </g>
   <g id="patch_35">
    <path d="M 127.799219 585.924375 
L 529.663846 585.924375 
" style="fill: none; stroke: #cccccc; stroke-width: 1.25; stroke-linejoin: miter; stroke-linecap: square"/>
   </g>
   <g id="text_55">
    <!-- Random Forest — Misclassified Patient (Index 10) -->
    <g style="fill: #262626" transform="translate(146.649267 17.077969) scale(0.13 -0.13)">
     <defs>
      <path id="DejaVuSans-Bold-52" d="M 2297 2597 
Q 2675 2597 2839 2737 
Q 3003 2878 3003 3200 
Q 3003 3519 2839 3656 
Q 2675 3794 2297 3794 
L 1791 3794 
L 1791 2597 
L 2297 2597 
z
M 1791 1766 
L 1791 0 
L 588 0 
L 588 4666 
L 2425 4666 
Q 3347 4666 3776 4356 
Q 4206 4047 4206 3378 
Q 4206 2916 3982 2619 
Q 3759 2322 3309 2181 
Q 3556 2125 3751 1926 
Q 3947 1728 4147 1325 
L 4800 0 
L 3519 0 
L 2950 1159 
Q 2778 1509 2601 1637 
Q 2425 1766 2131 1766 
L 1791 1766 
z
" transform="scale(0.015625)"/>
      <path id="DejaVuSans-Bold-61" d="M 2106 1575 
Q 1756 1575 1579 1456 
Q 1403 1338 1403 1106 
Q 1403 894 1545 773 
Q 1688 653 1941 653 
Q 2256 653 2472 879 
Q 2688 1106 2688 1447 
L 2688 1575 
L 2106 1575 
z
M 3816 1997 
L 3816 0 
L 2688 0 
L 2688 519 
Q 2463 200 2181 54 
Q 1900 -91 1497 -91 
Q 953 -91 614 226 
Q 275 544 275 1050 
Q 275 1666 698 1953 
Q 1122 2241 2028 2241 
L 2688 2241 
L 2688 2328 
Q 2688 2594 2478 2717 
Q 2269 2841 1825 2841 
Q 1466 2841 1156 2769 
Q 847 2697 581 2553 
L 581 3406 
Q 941 3494 1303 3539 
Q 1666 3584 2028 3584 
Q 2975 3584 3395 3211 
Q 3816 2838 3816 1997 
z
" transform="scale(0.015625)"/>
      <path id="DejaVuSans-Bold-6e" d="M 4056 2131 
L 4056 0 
L 2931 0 
L 2931 347 
L 2931 1631 
Q 2931 2084 2911 2256 
Q 2891 2428 2841 2509 
Q 2775 2619 2662 2680 
Q 2550 2741 2406 2741 
Q 2056 2741 1856 2470 
Q 1656 2200 1656 1722 
L 1656 0 
L 538 0 
L 538 3500 
L 1656 3500 
L 1656 2988 
Q 1909 3294 2193 3439 
Q 2478 3584 2822 3584 
Q 3428 3584 3742 3212 
Q 4056 2841 4056 2131 
z
" transform="scale(0.015625)"/>
      <path id="DejaVuSans-Bold-64" d="M 2919 2988 
L 2919 4863 
L 4044 4863 
L 4044 0 
L 2919 0 
L 2919 506 
Q 2688 197 2409 53 
Q 2131 -91 1766 -91 
Q 1119 -91 703 423 
Q 288 938 288 1747 
Q 288 2556 703 3070 
Q 1119 3584 1766 3584 
Q 2128 3584 2408 3439 
Q 2688 3294 2919 2988 
z
M 2181 722 
Q 2541 722 2730 984 
Q 2919 1247 2919 1747 
Q 2919 2247 2730 2509 
Q 2541 2772 2181 2772 
Q 1825 2772 1636 2509 
Q 1447 2247 1447 1747 
Q 1447 1247 1636 984 
Q 1825 722 2181 722 
z
" transform="scale(0.015625)"/>
      <path id="DejaVuSans-Bold-6f" d="M 2203 2784 
Q 1831 2784 1636 2517 
Q 1441 2250 1441 1747 
Q 1441 1244 1636 976 
Q 1831 709 2203 709 
Q 2569 709 2762 976 
Q 2956 1244 2956 1747 
Q 2956 2250 2762 2517 
Q 2569 2784 2203 2784 
z
M 2203 3584 
Q 3106 3584 3614 3096 
Q 4122 2609 4122 1747 
Q 4122 884 3614 396 
Q 3106 -91 2203 -91 
Q 1297 -91 786 396 
Q 275 884 275 1747 
Q 275 2609 786 3096 
Q 1297 3584 2203 3584 
z
" transform="scale(0.015625)"/>
      <path id="DejaVuSans-Bold-6d" d="M 3781 2919 
Q 3994 3244 4286 3414 
Q 4578 3584 4928 3584 
Q 5531 3584 5847 3212 
Q 6163 2841 6163 2131 
L 6163 0 
L 5038 0 
L 5038 1825 
Q 5041 1866 5042 1909 
Q 5044 1953 5044 2034 
Q 5044 2406 4934 2573 
Q 4825 2741 4581 2741 
Q 4263 2741 4089 2478 
Q 3916 2216 3909 1719 
L 3909 0 
L 2784 0 
L 2784 1825 
Q 2784 2406 2684 2573 
Q 2584 2741 2328 2741 
Q 2006 2741 1831 2477 
Q 1656 2213 1656 1722 
L 1656 0 
L 531 0 
L 531 3500 
L 1656 3500 
L 1656 2988 
Q 1863 3284 2130 3434 
Q 2397 3584 2719 3584 
Q 3081 3584 3359 3409 
Q 3638 3234 3781 2919 
z
" transform="scale(0.015625)"/>
      <path id="DejaVuSans-Bold-20" transform="scale(0.015625)"/>
      <path id="DejaVuSans-Bold-46" d="M 588 4666 
L 3834 4666 
L 3834 3756 
L 1791 3756 
L 1791 2888 
L 3713 2888 
L 3713 1978 
L 1791 1978 
L 1791 0 
L 588 0 
L 588 4666 
z
" transform="scale(0.015625)"/>
      <path id="DejaVuSans-Bold-72" d="M 3138 2547 
Q 2991 2616 2845 2648 
Q 2700 2681 2553 2681 
Q 2122 2681 1889 2404 
Q 1656 2128 1656 1613 
L 1656 0 
L 538 0 
L 538 3500 
L 1656 3500 
L 1656 2925 
Q 1872 3269 2151 3426 
Q 2431 3584 2822 3584 
Q 2878 3584 2943 3579 
Q 3009 3575 3134 3559 
L 3138 2547 
z
" transform="scale(0.015625)"/>
      <path id="DejaVuSans-Bold-65" d="M 4031 1759 
L 4031 1441 
L 1416 1441 
Q 1456 1047 1700 850 
Q 1944 653 2381 653 
Q 2734 653 3104 758 
Q 3475 863 3866 1075 
L 3866 213 
Q 3469 63 3072 -14 
Q 2675 -91 2278 -91 
Q 1328 -91 801 392 
Q 275 875 275 1747 
Q 275 2603 792 3093 
Q 1309 3584 2216 3584 
Q 3041 3584 3536 3087 
Q 4031 2591 4031 1759 
z
M 2881 2131 
Q 2881 2450 2695 2645 
Q 2509 2841 2209 2841 
Q 1884 2841 1681 2658 
Q 1478 2475 1428 2131 
L 2881 2131 
z
" transform="scale(0.015625)"/>
      <path id="DejaVuSans-Bold-73" d="M 3272 3391 
L 3272 2541 
Q 2913 2691 2578 2766 
Q 2244 2841 1947 2841 
Q 1628 2841 1473 2761 
Q 1319 2681 1319 2516 
Q 1319 2381 1436 2309 
Q 1553 2238 1856 2203 
L 2053 2175 
Q 2913 2066 3209 1816 
Q 3506 1566 3506 1031 
Q 3506 472 3093 190 
Q 2681 -91 1863 -91 
Q 1516 -91 1145 -36 
Q 775 19 384 128 
L 384 978 
Q 719 816 1070 734 
Q 1422 653 1784 653 
Q 2113 653 2278 743 
Q 2444 834 2444 1013 
Q 2444 1163 2330 1236 
Q 2216 1309 1875 1350 
L 1678 1375 
Q 931 1469 631 1722 
Q 331 1975 331 2491 
Q 331 3047 712 3315 
Q 1094 3584 1881 3584 
Q 2191 3584 2531 3537 
Q 2872 3491 3272 3391 
z
" transform="scale(0.015625)"/>
      <path id="DejaVuSans-Bold-74" d="M 1759 4494 
L 1759 3500 
L 2913 3500 
L 2913 2700 
L 1759 2700 
L 1759 1216 
Q 1759 972 1856 886 
Q 1953 800 2241 800 
L 2816 800 
L 2816 0 
L 1856 0 
Q 1194 0 917 276 
Q 641 553 641 1216 
L 641 2700 
L 84 2700 
L 84 3500 
L 641 3500 
L 641 4494 
L 1759 4494 
z
" transform="scale(0.015625)"/>
      <path id="DejaVuSans-Bold-2014" d="M 344 2156 
L 6056 2156 
L 6056 1350 
L 344 1350 
L 344 2156 
z
" transform="scale(0.015625)"/>
      <path id="DejaVuSans-Bold-4d" d="M 588 4666 
L 2119 4666 
L 3181 2169 
L 4250 4666 
L 5778 4666 
L 5778 0 
L 4641 0 
L 4641 3413 
L 3566 897 
L 2803 897 
L 1728 3413 
L 1728 0 
L 588 0 
L 588 4666 
z
" transform="scale(0.015625)"/>
      <path id="DejaVuSans-Bold-69" d="M 538 3500 
L 1656 3500 
L 1656 0 
L 538 0 
L 538 3500 
z
M 538 4863 
L 1656 4863 
L 1656 3950 
L 538 3950 
L 538 4863 
z
" transform="scale(0.015625)"/>
      <path id="DejaVuSans-Bold-63" d="M 3366 3391 
L 3366 2478 
Q 3138 2634 2908 2709 
Q 2678 2784 2431 2784 
Q 1963 2784 1702 2511 
Q 1441 2238 1441 1747 
Q 1441 1256 1702 982 
Q 1963 709 2431 709 
Q 2694 709 2930 787 
Q 3166 866 3366 1019 
L 3366 103 
Q 3103 6 2833 -42 
Q 2563 -91 2291 -91 
Q 1344 -91 809 395 
Q 275 881 275 1747 
Q 275 2613 809 3098 
Q 1344 3584 2291 3584 
Q 2566 3584 2833 3536 
Q 3100 3488 3366 3391 
z
" transform="scale(0.015625)"/>
      <path id="DejaVuSans-Bold-6c" d="M 538 4863 
L 1656 4863 
L 1656 0 
L 538 0 
L 538 4863 
z
" transform="scale(0.015625)"/>
      <path id="DejaVuSans-Bold-66" d="M 2841 4863 
L 2841 4128 
L 2222 4128 
Q 1984 4128 1890 4042 
Q 1797 3956 1797 3744 
L 1797 3500 
L 2753 3500 
L 2753 2700 
L 1797 2700 
L 1797 0 
L 678 0 
L 678 2700 
L 122 2700 
L 122 3500 
L 678 3500 
L 678 3744 
Q 678 4316 997 4589 
Q 1316 4863 1984 4863 
L 2841 4863 
z
" transform="scale(0.015625)"/>
      <path id="DejaVuSans-Bold-50" d="M 588 4666 
L 2584 4666 
Q 3475 4666 3951 4270 
Q 4428 3875 4428 3144 
Q 4428 2409 3951 2014 
Q 3475 1619 2584 1619 
L 1791 1619 
L 1791 0 
L 588 0 
L 588 4666 
z
M 1791 3794 
L 1791 2491 
L 2456 2491 
Q 2806 2491 2997 2661 
Q 3188 2831 3188 3144 
Q 3188 3456 2997 3625 
Q 2806 3794 2456 3794 
L 1791 3794 
z
" transform="scale(0.015625)"/>
      <path id="DejaVuSans-Bold-28" d="M 2413 -844 
L 1484 -844 
Q 1006 -72 778 623 
Q 550 1319 550 2003 
Q 550 2688 779 3389 
Q 1009 4091 1484 4856 
L 2413 4856 
Q 2013 4116 1813 3408 
Q 1613 2700 1613 2009 
Q 1613 1319 1811 609 
Q 2009 -100 2413 -844 
z
" transform="scale(0.015625)"/>
      <path id="DejaVuSans-Bold-49" d="M 588 4666 
L 1791 4666 
L 1791 0 
L 588 0 
L 588 4666 
z
" transform="scale(0.015625)"/>
      <path id="DejaVuSans-Bold-78" d="M 1422 1791 
L 159 3500 
L 1344 3500 
L 2059 2463 
L 2784 3500 
L 3969 3500 
L 2706 1797 
L 4031 0 
L 2847 0 
L 2059 1106 
L 1281 0 
L 97 0 
L 1422 1791 
z
" transform="scale(0.015625)"/>
      <path id="DejaVuSans-Bold-31" d="M 750 831 
L 1813 831 
L 1813 3847 
L 722 3622 
L 722 4441 
L 1806 4666 
L 2950 4666 
L 2950 831 
L 4013 831 
L 4013 0 
L 750 0 
L 750 831 
z
" transform="scale(0.015625)"/>
      <path id="DejaVuSans-Bold-30" d="M 2944 2338 
Q 2944 3213 2780 3570 
Q 2616 3928 2228 3928 
Q 1841 3928 1675 3570 
Q 1509 3213 1509 2338 
Q 1509 1453 1675 1090 
Q 1841 728 2228 728 
Q 2613 728 2778 1090 
Q 2944 1453 2944 2338 
z
M 4147 2328 
Q 4147 1169 3647 539 
Q 3147 -91 2228 -91 
Q 1306 -91 806 539 
Q 306 1169 306 2328 
Q 306 3491 806 4120 
Q 1306 4750 2228 4750 
Q 3147 4750 3647 4120 
Q 4147 3491 4147 2328 
z
" transform="scale(0.015625)"/>
      <path id="DejaVuSans-Bold-29" d="M 513 -844 
Q 913 -100 1113 609 
Q 1313 1319 1313 2009 
Q 1313 2700 1113 3408 
Q 913 4116 513 4856 
L 1441 4856 
Q 1916 4091 2145 3389 
Q 2375 2688 2375 2003 
Q 2375 1319 2147 623 
Q 1919 -72 1441 -844 
L 513 -844 
z
" transform="scale(0.015625)"/>
     </defs>
     <use xlink:href="#DejaVuSans-Bold-52"/>
     <use xlink:href="#DejaVuSans-Bold-61" transform="translate(77.001953 0)"/>
     <use xlink:href="#DejaVuSans-Bold-6e" transform="translate(144.482422 0)"/>
     <use xlink:href="#DejaVuSans-Bold-64" transform="translate(215.673828 0)"/>
     <use xlink:href="#DejaVuSans-Bold-6f" transform="translate(287.255859 0)"/>
     <use xlink:href="#DejaVuSans-Bold-6d" transform="translate(355.957031 0)"/>
     <use xlink:href="#DejaVuSans-Bold-20" transform="translate(460.15625 0)"/>
     <use xlink:href="#DejaVuSans-Bold-46" transform="translate(494.970703 0)"/>
     <use xlink:href="#DejaVuSans-Bold-6f" transform="translate(559.28125 0)"/>
     <use xlink:href="#DejaVuSans-Bold-72" transform="translate(627.982422 0)"/>
     <use xlink:href="#DejaVuSans-Bold-65" transform="translate(677.298828 0)"/>
     <use xlink:href="#DejaVuSans-Bold-73" transform="translate(745.121094 0)"/>
     <use xlink:href="#DejaVuSans-Bold-74" transform="translate(804.642578 0)"/>
     <use xlink:href="#DejaVuSans-Bold-20" transform="translate(852.445312 0)"/>
     <use xlink:href="#DejaVuSans-Bold-2014" transform="translate(887.259766 0)"/>
     <use xlink:href="#DejaVuSans-Bold-20" transform="translate(987.259766 0)"/>
     <use xlink:href="#DejaVuSans-Bold-4d" transform="translate(1022.074219 0)"/>
     <use xlink:href="#DejaVuSans-Bold-69" transform="translate(1121.585938 0)"/>
     <use xlink:href="#DejaVuSans-Bold-73" transform="translate(1155.863281 0)"/>
     <use xlink:href="#DejaVuSans-Bold-63" transform="translate(1215.384766 0)"/>
     <use xlink:href="#DejaVuSans-Bold-6c" transform="translate(1274.662109 0)"/>
     <use xlink:href="#DejaVuSans-Bold-61" transform="translate(1308.939453 0)"/>
     <use xlink:href="#DejaVuSans-Bold-73" transform="translate(1376.419922 0)"/>
     <use xlink:href="#DejaVuSans-Bold-73" transform="translate(1435.941406 0)"/>
     <use xlink:href="#DejaVuSans-Bold-69" transform="translate(1495.462891 0)"/>
     <use xlink:href="#DejaVuSans-Bold-66" transform="translate(1529.740234 0)"/>
     <use xlink:href="#DejaVuSans-Bold-69" transform="translate(1573.246094 0)"/>
     <use xlink:href="#DejaVuSans-Bold-65" transform="translate(1607.523438 0)"/>
     <use xlink:href="#DejaVuSans-Bold-64" transform="translate(1675.345703 0)"/>
     <use xlink:href="#DejaVuSans-Bold-20" transform="translate(1746.927734 0)"/>
     <use xlink:href="#DejaVuSans-Bold-50" transform="translate(1781.742188 0)"/>
     <use xlink:href="#DejaVuSans-Bold-61" transform="translate(1852.408203 0)"/>
     <use xlink:href="#DejaVuSans-Bold-74" transform="translate(1919.888672 0)"/>
     <use xlink:href="#DejaVuSans-Bold-69" transform="translate(1967.691406 0)"/>
     <use xlink:href="#DejaVuSans-Bold-65" transform="translate(2001.96875 0)"/>
     <use xlink:href="#DejaVuSans-Bold-6e" transform="translate(2069.791016 0)"/>
     <use xlink:href="#DejaVuSans-Bold-74" transform="translate(2140.982422 0)"/>
     <use xlink:href="#DejaVuSans-Bold-20" transform="translate(2188.785156 0)"/>
     <use xlink:href="#DejaVuSans-Bold-28" transform="translate(2223.599609 0)"/>
     <use xlink:href="#DejaVuSans-Bold-49" transform="translate(2269.302734 0)"/>
     <use xlink:href="#DejaVuSans-Bold-6e" transform="translate(2306.509766 0)"/>
     <use xlink:href="#DejaVuSans-Bold-64" transform="translate(2377.701172 0)"/>
     <use xlink:href="#DejaVuSans-Bold-65" transform="translate(2449.283203 0)"/>
     <use xlink:href="#DejaVuSans-Bold-78" transform="translate(2517.105469 0)"/>
     <use xlink:href="#DejaVuSans-Bold-20" transform="translate(2581.607422 0)"/>
     <use xlink:href="#DejaVuSans-Bold-31" transform="translate(2616.421875 0)"/>
     <use xlink:href="#DejaVuSans-Bold-30" transform="translate(2686.001953 0)"/>
     <use xlink:href="#DejaVuSans-Bold-29" transform="translate(2755.582031 0)"/>
    </g>
    <!-- True: CKD | Predicted: NotCKD -->
    <g style="fill: #262626" transform="translate(217.448486 31.703375) scale(0.13 -0.13)">
     <defs>
      <path id="DejaVuSans-Bold-54" d="M 31 4666 
L 4331 4666 
L 4331 3756 
L 2784 3756 
L 2784 0 
L 1581 0 
L 1581 3756 
L 31 3756 
L 31 4666 
z
" transform="scale(0.015625)"/>
      <path id="DejaVuSans-Bold-75" d="M 500 1363 
L 500 3500 
L 1625 3500 
L 1625 3150 
Q 1625 2866 1622 2436 
Q 1619 2006 1619 1863 
Q 1619 1441 1641 1255 
Q 1663 1069 1716 984 
Q 1784 875 1895 815 
Q 2006 756 2150 756 
Q 2500 756 2700 1025 
Q 2900 1294 2900 1772 
L 2900 3500 
L 4019 3500 
L 4019 0 
L 2900 0 
L 2900 506 
Q 2647 200 2364 54 
Q 2081 -91 1741 -91 
Q 1134 -91 817 281 
Q 500 653 500 1363 
z
" transform="scale(0.015625)"/>
      <path id="DejaVuSans-Bold-3a" d="M 716 3500 
L 1844 3500 
L 1844 2291 
L 716 2291 
L 716 3500 
z
M 716 1209 
L 1844 1209 
L 1844 0 
L 716 0 
L 716 1209 
z
" transform="scale(0.015625)"/>
      <path id="DejaVuSans-Bold-43" d="M 4288 256 
Q 3956 84 3597 -3 
Q 3238 -91 2847 -91 
Q 1681 -91 1000 561 
Q 319 1213 319 2328 
Q 319 3447 1000 4098 
Q 1681 4750 2847 4750 
Q 3238 4750 3597 4662 
Q 3956 4575 4288 4403 
L 4288 3438 
Q 3953 3666 3628 3772 
Q 3303 3878 2944 3878 
Q 2300 3878 1931 3465 
Q 1563 3053 1563 2328 
Q 1563 1606 1931 1193 
Q 2300 781 2944 781 
Q 3303 781 3628 887 
Q 3953 994 4288 1222 
L 4288 256 
z
" transform="scale(0.015625)"/>
      <path id="DejaVuSans-Bold-4b" d="M 588 4666 
L 1791 4666 
L 1791 2963 
L 3525 4666 
L 4922 4666 
L 2675 2456 
L 5153 0 
L 3647 0 
L 1791 1838 
L 1791 0 
L 588 0 
L 588 4666 
z
" transform="scale(0.015625)"/>
      <path id="DejaVuSans-Bold-44" d="M 1791 3756 
L 1791 909 
L 2222 909 
Q 2959 909 3348 1275 
Q 3738 1641 3738 2338 
Q 3738 3031 3350 3393 
Q 2963 3756 2222 3756 
L 1791 3756 
z
M 588 4666 
L 1856 4666 
Q 2919 4666 3439 4514 
Q 3959 4363 4331 4000 
Q 4659 3684 4818 3271 
Q 4978 2859 4978 2338 
Q 4978 1809 4818 1395 
Q 4659 981 4331 666 
Q 3956 303 3431 151 
Q 2906 0 1856 0 
L 588 0 
L 588 4666 
z
" transform="scale(0.015625)"/>
      <path id="DejaVuSans-Bold-7c" d="M 1522 4891 
L 1522 -1509 
L 813 -1509 
L 813 4891 
L 1522 4891 
z
" transform="scale(0.015625)"/>
      <path id="DejaVuSans-Bold-4e" d="M 588 4666 
L 1931 4666 
L 3628 1466 
L 3628 4666 
L 4769 4666 
L 4769 0 
L 3425 0 
L 1728 3200 
L 1728 0 
L 588 0 
L 588 4666 
z
" transform="scale(0.015625)"/>
     </defs>
     <use xlink:href="#DejaVuSans-Bold-54"/>
     <use xlink:href="#DejaVuSans-Bold-72" transform="translate(57.212891 0)"/>
     <use xlink:href="#DejaVuSans-Bold-75" transform="translate(106.529297 0)"/>
     <use xlink:href="#DejaVuSans-Bold-65" transform="translate(177.720703 0)"/>
     <use xlink:href="#DejaVuSans-Bold-3a" transform="translate(245.542969 0)"/>
     <use xlink:href="#DejaVuSans-Bold-20" transform="translate(285.533203 0)"/>
     <use xlink:href="#DejaVuSans-Bold-43" transform="translate(320.347656 0)"/>
     <use xlink:href="#DejaVuSans-Bold-4b" transform="translate(393.736328 0)"/>
     <use xlink:href="#DejaVuSans-Bold-44" transform="translate(471.226562 0)"/>
     <use xlink:href="#DejaVuSans-Bold-20" transform="translate(554.234375 0)"/>
     <use xlink:href="#DejaVuSans-Bold-7c" transform="translate(589.048828 0)"/>
     <use xlink:href="#DejaVuSans-Bold-20" transform="translate(625.572266 0)"/>
     <use xlink:href="#DejaVuSans-Bold-50" transform="translate(660.386719 0)"/>
     <use xlink:href="#DejaVuSans-Bold-72" transform="translate(733.677734 0)"/>
     <use xlink:href="#DejaVuSans-Bold-65" transform="translate(782.994141 0)"/>
     <use xlink:href="#DejaVuSans-Bold-64" transform="translate(850.816406 0)"/>
     <use xlink:href="#DejaVuSans-Bold-69" transform="translate(922.398438 0)"/>
     <use xlink:href="#DejaVuSans-Bold-63" transform="translate(956.675781 0)"/>
     <use xlink:href="#DejaVuSans-Bold-74" transform="translate(1015.953125 0)"/>
     <use xlink:href="#DejaVuSans-Bold-65" transform="translate(1063.755859 0)"/>
     <use xlink:href="#DejaVuSans-Bold-64" transform="translate(1131.578125 0)"/>
     <use xlink:href="#DejaVuSans-Bold-3a" transform="translate(1203.160156 0)"/>
     <use xlink:href="#DejaVuSans-Bold-20" transform="translate(1243.150391 0)"/>
     <use xlink:href="#DejaVuSans-Bold-4e" transform="translate(1277.964844 0)"/>
     <use xlink:href="#DejaVuSans-Bold-6f" transform="translate(1361.65625 0)"/>
     <use xlink:href="#DejaVuSans-Bold-74" transform="translate(1430.357422 0)"/>
     <use xlink:href="#DejaVuSans-Bold-43" transform="translate(1478.160156 0)"/>
     <use xlink:href="#DejaVuSans-Bold-4b" transform="translate(1551.548828 0)"/>
     <use xlink:href="#DejaVuSans-Bold-44" transform="translate(1629.039062 0)"/>
    </g>
   </g>
  </g>
 </g>
 <defs>
  <clipPath id="p3660bd1e1c">
   <rect x="127.799219" y="67.817125" width="401.864628" height="518.10725"/>
  </clipPath>
 </defs>
</svg>
